<svg xmlns="http://www.w3.org/2000/svg" width="192.545" height="55.953" viewBox="0 0 192.545 55.953">
  <g id="appstore" transform="translate(0.5 0.5)">
    <path id="Path_406" data-name="Path 406" d="M197.593,386.025a5.509,5.509,0,0,1-5.51,5.509H11.571a5.517,5.517,0,0,1-5.523-5.509V342.1a5.524,5.524,0,0,1,5.523-5.516H192.076a5.515,5.515,0,0,1,5.516,5.514h0Z" transform="translate(-6.048 -336.581)" fill="none" stroke="#fff" stroke-width="1"/>
    <path id="Path_410" data-name="Path 410" d="M120.449,397.753a8.154,8.154,0,0,1,3.885-6.842,8.354,8.354,0,0,0-6.579-3.556c-2.768-.291-5.452,1.655-6.862,1.655-1.438,0-3.609-1.627-5.949-1.58a8.76,8.76,0,0,0-7.373,4.5c-3.188,5.518-.81,13.628,2.244,18.088,1.528,2.186,3.314,4.624,5.651,4.538,2.286-.093,3.14-1.456,5.9-1.456,2.734,0,3.536,1.456,5.919,1.4,2.454-.038,4-2.194,5.473-4.4a18.033,18.033,0,0,0,2.5-5.1A7.889,7.889,0,0,1,120.449,397.753Zm-4.5-13.332a8.025,8.025,0,0,0,1.838-5.752A8.179,8.179,0,0,0,112.5,381.4a7.637,7.637,0,0,0-1.885,5.54,6.755,6.755,0,0,0,5.335-2.522" transform="translate(-77.002 -369.759)" fill="#fff"/>
    <path id="Path_411" data-name="Path 411" d="M308.849,468.274h-3.2l-1.75-5.5h-6.084l-1.667,5.5h-3.111l6.029-18.72h3.723Zm-5.473-7.806-1.583-4.888q-.251-.749-.944-3.526h-.056q-.278,1.194-.889,3.526l-1.556,4.888Zm20.948.89a7.642,7.642,0,0,1-1.871,5.442,5.488,5.488,0,0,1-4.162,1.778,4.166,4.166,0,0,1-3.855-1.915v7.083h-3V459.212q0-2.163-.111-4.437h2.638l.167,2.14h.056a5.337,5.337,0,0,1,8.542-.53A7.462,7.462,0,0,1,324.324,461.359Zm-3.056.11a5.563,5.563,0,0,0-.889-3.251,3.074,3.074,0,0,0-2.612-1.332,3.121,3.121,0,0,0-2.013.736,3.414,3.414,0,0,0-1.18,1.931,3.905,3.905,0,0,0-.139.913v2.252a3.61,3.61,0,0,0,.9,2.487,3,3,0,0,0,2.347,1.014,3.075,3.075,0,0,0,2.638-1.305,5.745,5.745,0,0,0,.945-3.445m18.586-.11a7.643,7.643,0,0,1-1.871,5.442,5.491,5.491,0,0,1-4.164,1.778,4.166,4.166,0,0,1-3.855-1.915v7.083h-3V459.212q0-2.163-.111-4.437h2.638l.167,2.14h.056a5.339,5.339,0,0,1,8.544-.53A7.47,7.47,0,0,1,339.853,461.359Zm-3.058.11a5.563,5.563,0,0,0-.891-3.251,3.069,3.069,0,0,0-2.609-1.332,3.134,3.134,0,0,0-2.016.736,3.412,3.412,0,0,0-1.179,1.931,4.007,4.007,0,0,0-.141.913v2.252a3.622,3.622,0,0,0,.9,2.487,3,3,0,0,0,2.35,1.014,3.071,3.071,0,0,0,2.638-1.305,5.745,5.745,0,0,0,.945-3.445m20.42,1.555a5,5,0,0,1-1.664,3.889,7.38,7.38,0,0,1-5.1,1.639,8.9,8.9,0,0,1-4.849-1.166l.694-2.5a8.347,8.347,0,0,0,4.334,1.168,4.09,4.09,0,0,0,2.638-.764,2.494,2.494,0,0,0,.947-2.04,2.614,2.614,0,0,0-.78-1.917,7.228,7.228,0,0,0-2.583-1.443q-4.918-1.833-4.919-5.362a4.734,4.734,0,0,1,1.736-3.777,6.867,6.867,0,0,1,4.6-1.473,9.09,9.09,0,0,1,4.251.889l-.753,2.445a7.435,7.435,0,0,0-3.6-.861,3.66,3.66,0,0,0-2.482.778,2.226,2.226,0,0,0-.753,1.7,2.293,2.293,0,0,0,.862,1.833,9.719,9.719,0,0,0,2.721,1.443,9.229,9.229,0,0,1,3.556,2.276A4.743,4.743,0,0,1,357.216,463.023Zm9.944-6h-3.307v6.554q0,2.5,1.75,2.5a5.274,5.274,0,0,0,1.332-.139l.083,2.277a6.8,6.8,0,0,1-2.333.332,3.6,3.6,0,0,1-2.779-1.085,5.316,5.316,0,0,1-1-3.639v-6.8h-1.97V454.77h1.97V452.3l2.946-.889v3.361h3.307Zm14.889,4.387a7.4,7.4,0,0,1-1.779,5.11,6.341,6.341,0,0,1-4.944,2.055,6.044,6.044,0,0,1-4.737-1.969,7.179,7.179,0,0,1-1.765-4.971,7.344,7.344,0,0,1,1.819-5.137,6.307,6.307,0,0,1,4.9-2,6.171,6.171,0,0,1,4.777,1.972A7.086,7.086,0,0,1,382.048,461.413Zm-3.109.069a6.043,6.043,0,0,0-.8-3.185,2.97,2.97,0,0,0-2.7-1.608,3.012,3.012,0,0,0-2.751,1.608,6.143,6.143,0,0,0-.8,3.241,6.024,6.024,0,0,0,.8,3.186,3.077,3.077,0,0,0,5.421-.027A6.065,6.065,0,0,0,378.939,461.482Zm12.864-4.069a5.219,5.219,0,0,0-.945-.083,2.831,2.831,0,0,0-2.445,1.2,4.5,4.5,0,0,0-.749,2.665v7.083h-3v-9.247q0-2.125-.087-4.249h2.613l.11,2.583h.083a4.63,4.63,0,0,1,1.5-2.14,3.627,3.627,0,0,1,2.168-.723,4.817,4.817,0,0,1,.75.055Zm13.416,3.473a7.039,7.039,0,0,1-.11,1.36h-9a3.914,3.914,0,0,0,1.306,3.058,4.467,4.467,0,0,0,2.944.942,9.956,9.956,0,0,0,3.641-.637l.47,2.08a11.263,11.263,0,0,1-4.526.834,6.562,6.562,0,0,1-4.933-1.845,6.822,6.822,0,0,1-1.791-4.957,7.73,7.73,0,0,1,1.669-5.081,5.75,5.75,0,0,1,4.721-2.165,5.032,5.032,0,0,1,4.419,2.165A7.283,7.283,0,0,1,405.219,460.886Zm-2.86-.778a4.058,4.058,0,0,0-.583-2.305,2.62,2.62,0,0,0-2.389-1.252A2.845,2.845,0,0,0,397,457.773a4.48,4.48,0,0,0-.888,2.332Z" transform="translate(-232.285 -425.419)" fill="#fff"/>
    <path id="Path_412" data-name="Path 412" d="M303.493,390.66a19.135,19.135,0,0,1-2.157-.11V381.5a16.352,16.352,0,0,1,2.54-.191c3.44,0,5.025,1.692,5.025,4.451,0,3.182-1.871,4.9-5.407,4.9m.5-8.191a6.019,6.019,0,0,0-1.187.1v6.88a7.776,7.776,0,0,0,1,.041c2.254,0,3.537-1.283,3.537-3.685A3,3,0,0,0,304,382.469m9.841,8.26a3.158,3.158,0,0,1-3.2-3.413,3.231,3.231,0,0,1,3.305-3.508,3.133,3.133,0,0,1,3.2,3.4A3.25,3.25,0,0,1,313.838,390.729Zm.056-5.843c-1.065,0-1.747,1-1.747,2.389,0,1.366.7,2.362,1.733,2.362s1.733-1.065,1.733-2.39C315.613,385.9,314.931,384.886,313.894,384.886Zm14.305-.941-2.076,6.634h-1.352l-.86-2.881a21.91,21.91,0,0,1-.533-2.142h-.028a14.336,14.336,0,0,1-.532,2.142l-.914,2.881h-1.366l-1.953-6.634H320.1l.751,3.154q.266,1.127.45,2.13h.028c.108-.558.286-1.256.546-2.115l.943-3.166h1.2l.9,3.1c.218.751.4,1.488.533,2.185h.039a19.077,19.077,0,0,1,.45-2.185l.806-3.1Zm7.64,6.634h-1.475v-3.809c0-1.173-.45-1.761-1.338-1.761a1.531,1.531,0,0,0-1.474,1.625v3.946h-1.474v-4.738c0-.587-.014-1.215-.055-1.9h1.3l.069,1.024h.041a2.384,2.384,0,0,1,2.1-1.159c1.393,0,2.308,1.065,2.308,2.8Zm4.066,0H338.43V380.9h1.476Zm5.376.151a3.158,3.158,0,0,1-3.2-3.413,3.231,3.231,0,0,1,3.3-3.508,3.132,3.132,0,0,1,3.2,3.4A3.249,3.249,0,0,1,345.282,390.729Zm.055-5.843c-1.065,0-1.748,1-1.748,2.389,0,1.366.7,2.362,1.732,2.362s1.733-1.065,1.733-2.39C347.056,385.9,346.375,384.886,345.337,384.886Zm9.063,5.693-.107-.764h-.039a2.266,2.266,0,0,1-1.94.914,1.929,1.929,0,0,1-2.033-1.953c0-1.637,1.42-2.484,3.878-2.484v-.122c0-.874-.463-1.311-1.378-1.311a3.105,3.105,0,0,0-1.733.492l-.3-.969a4.241,4.241,0,0,1,2.278-.574c1.734,0,2.609.914,2.609,2.744V389a10,10,0,0,0,.1,1.584Zm-.2-3.3c-1.638,0-2.46.4-2.46,1.338a.94.94,0,0,0,1.012,1.037,1.412,1.412,0,0,0,1.448-1.35Zm8.6,3.3-.069-1.065h-.041a2.224,2.224,0,0,1-2.13,1.215c-1.6,0-2.784-1.407-2.784-3.386,0-2.075,1.228-3.536,2.906-3.536a1.994,1.994,0,0,1,1.871.9h.03V380.9h1.476v7.89c0,.641.015,1.242.055,1.788Zm-.218-3.9a1.6,1.6,0,0,0-1.553-1.72c-1.093,0-1.762.969-1.762,2.334,0,1.338.694,2.254,1.732,2.254a1.655,1.655,0,0,0,1.583-1.761Zm10.834,4.054a3.157,3.157,0,0,1-3.194-3.413,3.231,3.231,0,0,1,3.3-3.508,3.132,3.132,0,0,1,3.2,3.4A3.249,3.249,0,0,1,373.41,390.729Zm.055-5.843c-1.064,0-1.746,1-1.746,2.389,0,1.366.7,2.362,1.732,2.362s1.733-1.065,1.733-2.39C375.187,385.9,374.5,384.886,373.465,384.886Zm11.18,5.693h-1.476v-3.809c0-1.173-.45-1.761-1.338-1.761a1.53,1.53,0,0,0-1.473,1.625v3.946h-1.476v-4.738c0-.587-.014-1.215-.055-1.9h1.3l.069,1.024h.041a2.383,2.383,0,0,1,2.1-1.161c1.393,0,2.309,1.065,2.309,2.8Zm9.921-5.528h-1.622v3.221c0,.82.284,1.229.858,1.229a2.912,2.912,0,0,0,.654-.069l.041,1.12a3.268,3.268,0,0,1-1.144.165c-1.162,0-1.857-.641-1.857-2.321v-3.345h-.968v-1.106h.968V382.73l1.448-.437v1.651h1.622Zm7.806,5.528H400.9V386.8c0-1.187-.449-1.788-1.338-1.788a1.446,1.446,0,0,0-1.476,1.57v4h-1.473V380.9h1.473v3.985h.03a2.237,2.237,0,0,1,2-1.079c1.4,0,2.262,1.092,2.262,2.826Zm8-2.963h-4.425a1.9,1.9,0,0,0,2.091,1.965,4.982,4.982,0,0,0,1.788-.314l.229,1.024a5.539,5.539,0,0,1-2.226.409,3.08,3.08,0,0,1-3.3-3.344c0-2.034,1.258-3.563,3.138-3.563,1.7,0,2.759,1.256,2.759,3.154a2.845,2.845,0,0,1-.051.668Zm-1.352-1.051c0-1.024-.516-1.747-1.459-1.747a1.749,1.749,0,0,0-1.613,1.747Z" transform="translate(-238.824 -371.518)" fill="#fff"/>
  </g>
</svg>
