<svg id="cells" xmlns="http://www.w3.org/2000/svg" width="35.285" height="32.345" viewBox="0 0 35.285 32.345">
  <path id="Path_7959" data-name="Path 7959" d="M31.609,33.345H3.676A3.681,3.681,0,0,1,0,29.669V4.676A3.681,3.681,0,0,1,3.676,1H31.609a3.681,3.681,0,0,1,3.676,3.676V29.669A3.681,3.681,0,0,1,31.609,33.345ZM3.676,2.47A2.208,2.208,0,0,0,1.47,4.676V29.669a2.208,2.208,0,0,0,2.205,2.205H31.609a2.208,2.208,0,0,0,2.205-2.205V4.676A2.208,2.208,0,0,0,31.609,2.47Z" transform="translate(0 -1)" fill="#bbb"/>
  <path id="Path_7960" data-name="Path 7960" d="M34.55,8.47H.735A.735.735,0,0,1,.735,7H34.55a.735.735,0,0,1,0,1.47Z" transform="translate(0 1.821)" fill="#bbb"/>
  <path id="Path_7961" data-name="Path 7961" d="M34.55,13.47H.735a.735.735,0,1,1,0-1.47H34.55a.735.735,0,0,1,0,1.47Z" transform="translate(0 4.172)" fill="#bbb"/>
  <path id="Path_7962" data-name="Path 7962" d="M34.55,18.47H.735a.735.735,0,1,1,0-1.47H34.55a.735.735,0,0,1,0,1.47Z" transform="translate(0 6.523)" fill="#bbb"/>
  <path id="Path_7963" data-name="Path 7963" d="M6.735,30.523A.735.735,0,0,1,6,29.788V7.735a.735.735,0,1,1,1.47,0V29.788A.735.735,0,0,1,6.735,30.523Z" transform="translate(2.821 1.821)" fill="#bbb"/>
  <path id="Path_7964" data-name="Path 7964" d="M12.235,30.523a.735.735,0,0,1-.735-.735V7.735a.735.735,0,1,1,1.47,0V29.788A.735.735,0,0,1,12.235,30.523Z" transform="translate(5.407 1.821)" fill="#bbb"/>
  <path id="Path_7965" data-name="Path 7965" d="M17.735,30.523A.735.735,0,0,1,17,29.788V7.735a.735.735,0,1,1,1.47,0V29.788A.735.735,0,0,1,17.735,30.523Z" transform="translate(7.994 1.821)" fill="#bbb"/>
</svg>
