<svg xmlns="http://www.w3.org/2000/svg" width="31.002" height="32.15" viewBox="0 0 31.002 32.15">
  <g id="chart" transform="translate(-1.722)">
    <path id="Path_7955" data-name="Path 7955" d="M24.574,299.482h5.741a.574.574,0,0,0,.574-.574V288.574a.574.574,0,0,0-.574-.574H24.574a.574.574,0,0,0-.574.574v10.334A.574.574,0,0,0,24.574,299.482Zm.574-10.334h4.593v9.186H25.148Z" transform="translate(-22.278 -267.332)" fill="#053e88"/>
    <path id="Path_7956" data-name="Path 7956" d="M248.574,210.371h5.741a.574.574,0,0,0,.574-.574V192.574a.574.574,0,0,0-.574-.574h-5.741a.574.574,0,0,0-.574.574V209.8A.574.574,0,0,0,248.574,210.371Zm.574-17.223h4.593v16.075h-4.593Z" transform="translate(-230.203 -178.222)" fill="#053e88"/>
    <path id="Path_7957" data-name="Path 7957" d="M136.574,121.261h5.741a.574.574,0,0,0,.574-.574V96.574a.574.574,0,0,0-.574-.574h-5.741a.574.574,0,0,0-.574.574v24.112A.574.574,0,0,0,136.574,121.261Zm.574-24.112h4.593v22.964h-4.593Z" transform="translate(-126.24 -89.111)" fill="#053e88"/>
    <path id="Path_7958" data-name="Path 7958" d="M360.574,32.15h5.741a.574.574,0,0,0,.574-.574v-31A.574.574,0,0,0,366.315,0h-5.741A.574.574,0,0,0,360,.574v31A.574.574,0,0,0,360.574,32.15Zm.574-31h4.593V31h-4.593Z" transform="translate(-334.165)" fill="#053e88"/>
  </g>
</svg>
