<svg id="clipboard" xmlns="http://www.w3.org/2000/svg" width="63" height="63" viewBox="0 0 63 63">
  <path id="Path_22306" data-name="Path 22306" d="M74.814,251.388l-4.264,4.264-1.337-1.338a1.231,1.231,0,1,0-1.74,1.74l2.208,2.207a1.23,1.23,0,0,0,1.74,0l5.134-5.134a1.23,1.23,0,0,0-1.74-1.74Zm0,0" transform="translate(-58.854 -220.139)" fill="#191919"/>
  <path id="Path_22307" data-name="Path 22307" d="M178.824,295.07h5.8a1.23,1.23,0,0,0,0-2.461h-5.8a1.23,1.23,0,1,0,0,2.461Zm0,0" transform="translate(-155.741 -256.604)" fill="#e72c3a"/>
  <path id="Path_22308" data-name="Path 22308" d="M74.814,360.451l-4.264,4.264-1.337-1.338a1.23,1.23,0,1,0-1.74,1.74l2.208,2.208a1.23,1.23,0,0,0,1.74,0l5.134-5.134a1.23,1.23,0,0,0-1.74-1.74Zm0,0" transform="translate(-58.854 -315.782)" fill="#191919"/>
  <path id="Path_22309" data-name="Path 22309" d="M188.488,402.9a1.231,1.231,0,0,0-1.23-1.23h-8.433a1.23,1.23,0,1,0,0,2.461h8.433A1.231,1.231,0,0,0,188.488,402.9Zm0,0" transform="translate(-155.741 -352.247)" fill="#e72c3a"/>
  <path id="Path_22310" data-name="Path 22310" d="M178.824,360.274h11.068a1.23,1.23,0,1,0,0-2.461H178.824a1.23,1.23,0,1,0,0,2.461Zm0,0" transform="translate(-155.741 -313.785)" fill="#e72c3a"/>
  <path id="Path_22311" data-name="Path 22311" d="M74.814,142.388l-4.264,4.264-1.337-1.338a1.231,1.231,0,1,0-1.74,1.74l2.208,2.207a1.23,1.23,0,0,0,1.74,0l5.134-5.134a1.23,1.23,0,0,0-1.74-1.74Zm0,0" transform="translate(-58.854 -124.551)" fill="#191919"/>
  <path id="Path_22312" data-name="Path 22312" d="M178.824,186.07h5.534a1.23,1.23,0,0,0,0-2.461h-5.534a1.23,1.23,0,0,0,0,2.461Zm0,0" transform="translate(-155.741 -161.016)" fill="#e72c3a"/>
  <path id="Path_22313" data-name="Path 22313" d="M149.431,492a1.231,1.231,0,1,0,.869.36A1.244,1.244,0,0,0,149.431,492Zm0,0" transform="translate(-129.964 -431.461)" fill="#e72c3a"/>
  <path id="Path_22314" data-name="Path 22314" d="M317.724,155.961l-8.859,2.766A1.23,1.23,0,0,0,308,159.9v7.889a13.316,13.316,0,0,0,9.764,12.81,1.236,1.236,0,0,0,.652,0,13.316,13.316,0,0,0,9.764-12.81V159.9a1.231,1.231,0,0,0-.864-1.175l-8.859-2.766a1.232,1.232,0,0,0-.733,0Zm8,4.845v6.984a10.851,10.851,0,0,1-7.629,10.342,10.851,10.851,0,0,1-7.629-10.342v-6.984l7.629-2.382Zm0,0" transform="translate(-270.102 -136.721)" fill="#e72c3a"/>
  <path id="Path_22315" data-name="Path 22315" d="M62.136,18.386,48.384,14.093a1.228,1.228,0,0,0-.4-.066h0a1.238,1.238,0,0,0-.395.065l-1.327.414V6.637a3.7,3.7,0,0,0-3.691-3.691H33.612V1.231A1.231,1.231,0,0,0,32.381,0h-18.5a1.231,1.231,0,0,0-1.23,1.23V2.946H3.691A3.7,3.7,0,0,0,0,6.637V59.309A3.7,3.7,0,0,0,3.691,63H13.929a1.23,1.23,0,1,0,0-2.461H3.691a1.232,1.232,0,0,1-1.23-1.23V6.637a1.232,1.232,0,0,1,1.23-1.23h8.962V6.7a2.659,2.659,0,0,0,2.656,2.656H30.956A2.659,2.659,0,0,0,33.612,6.7V5.407h8.962a1.232,1.232,0,0,1,1.23,1.23v8.638L37.652,17.2H23.082a1.23,1.23,0,1,0,0,2.461h9.894V30.608H23.082a1.23,1.23,0,1,0,0,2.461h10A18.25,18.25,0,0,0,43.8,47.713v5.074H39.743a3.7,3.7,0,0,0-3.691,3.691v4.061H25A1.23,1.23,0,1,0,25,63H37.283a1.23,1.23,0,0,0,.87-.36L45.9,54.888a1.23,1.23,0,0,0,.36-.87V48.6q.733.205,1.491.352a1.225,1.225,0,0,0,.463,0A18.229,18.229,0,0,0,63,31.07V19.561a1.231,1.231,0,0,0-.864-1.175ZM31.151,6.7a.2.2,0,0,1-.2.195H15.308a.2.2,0,0,1-.2-.195V2.461H31.151Zm8.593,48.552h2.321L38.513,58.8V56.479A1.232,1.232,0,0,1,39.743,55.248ZM60.538,31.07A15.766,15.766,0,0,1,47.988,46.488,15.766,15.766,0,0,1,35.437,31.07v-10.6L45.251,17.4a1.218,1.218,0,0,0,.294-.092l2.442-.763,12.551,3.918Zm0,0" transform="translate(0.001 0)" fill="#e72c3a"/>
  <path id="Path_22316" data-name="Path 22316" d="M352.065,233.02a1.226,1.226,0,0,1-.87-.36l-2.835-2.835a1.231,1.231,0,1,1,1.74-1.74l1.965,1.965,4.17-4.17a1.231,1.231,0,1,1,1.74,1.74l-5.04,5.04A1.228,1.228,0,0,1,352.065,233.02Zm0,0" transform="translate(-305.179 -197.77)" fill="#191919"/>
</svg>
