<svg xmlns="http://www.w3.org/2000/svg" xmlns:xlink="http://www.w3.org/1999/xlink" width="301" height="301" viewBox="0 0 301 301">
  <defs>
    <clipPath id="clip-Artboard_1">
      <rect width="301" height="301"/>
    </clipPath>
  </defs>
  <g id="Artboard_1" data-name="Artboard – 1" clip-path="url(#clip-Artboard_1)">
    <rect width="301" height="301" fill="#d80027"/>
    <g id="Group_9327" data-name="Group 9327" transform="translate(-1812 -18)">
      <g id="Group_73" data-name="Group 73" transform="translate(1812 18)">
        <g id="china" transform="translate(0 0)">
          <circle id="Ellipse_22" data-name="Ellipse 22" cx="150.5" cy="150.5" r="150.5" transform="translate(0 0)" fill="#d80027"/>
          <g id="Group_49" data-name="Group 49" transform="translate(26.781 68.675)">
            <path id="Path_154" data-name="Path 154" d="M52.259,296.8l12.929,39.782h41.829L73.2,361.212l12.929,39.781L52.259,376.422,18.385,400.993l12.988-39.781L-2.5,336.582H39.329Z" transform="translate(2.5 -272.872)" fill="#ffda44"/>
            <path id="Path_155" data-name="Path 155" d="M236.117,508.41l-9.887-12.168L211.6,501.916l8.483-13.163L210.2,476.526l15.152,4.036,8.541-13.163.819,15.679,15.211,4.036-14.684,5.617Z" transform="translate(-85.765 -343.667)" fill="#ffda44"/>
            <path id="Path_156" data-name="Path 156" d="M282.332,448.655l4.68-14.976L274.2,424.611l15.679-.234L294.5,409.4l5.09,14.859,15.678-.175-12.578,9.36,5.031,14.86-12.812-9.068Z" transform="translate(-112.323 -319.598)" fill="#ffda44"/>
            <path id="Path_157" data-name="Path 157" d="M307.63,326.327l-6.9,14.1,11.233,10.94-15.5-2.223-6.9,14.041-2.691-15.445L271.3,345.516l13.924-7.313-2.691-15.5,11.233,10.94Z" transform="translate(-111.119 -283.62)" fill="#ffda44"/>
            <path id="Path_158" data-name="Path 158" d="M236.4,255.9l-1.17,15.62,14.567,5.909-15.269,3.744-1.111,15.678-8.249-13.338L209.9,287.257l10.121-11.993-8.307-13.28,14.567,5.909Z" transform="translate(-85.64 -255.9)" fill="#ffda44"/>
          </g>
        </g>
        <g id="thailand-3" transform="translate(0 0)" style="mix-blend-mode: saturation;isolation: isolate">
          <ellipse id="Ellipse_21" data-name="Ellipse 21" cx="150.286" cy="150.286" rx="150.286" ry="150.286" fill="none"/>
          <path id="Path_151" data-name="Path 151" d="M291.629,166.957H9.361a151.041,151.041,0,0,0,0,104.691H291.629a151.046,151.046,0,0,0,0-104.691Z" transform="translate(0 -68.808)" fill="none"/>
          <g id="Group_48" data-name="Group 48" transform="translate(36.412)">
            <path id="Path_152" data-name="Path 152" d="M176.022,0A150.148,150.148,0,0,0,61.939,52.346H290.1A150.146,150.146,0,0,0,176.022,0Z" transform="translate(-61.939 0)" fill="none"/>
            <path id="Path_153" data-name="Path 153" d="M290.1,422.957H61.939a150.489,150.489,0,0,0,228.165,0Z" transform="translate(-61.939 -174.313)" fill="none"/>
          </g>
        </g>
      </g>
    </g>
  </g>
</svg>
