<svg xmlns="http://www.w3.org/2000/svg" width="75.419" height="94.961" viewBox="0 0 75.419 94.961">
  <g id="Group_5745" data-name="Group 5745" transform="translate(-922.251 -1647.5)">
    <path id="Path_136" data-name="Path 136" d="M111.7,122.718l16.708-12.939,7.073,6.355a2.632,2.632,0,0,0,3.373.124l14.171-10.975-.381,3.132a1.392,1.392,0,0,0,2.763.336c.73-6.026.789-6.416.792-6.583a1.392,1.392,0,0,0-1.417-1.417h-6.666a1.391,1.391,0,0,0,0,2.783h2.622l-13.49,10.447-7.073-6.355a2.633,2.633,0,0,0-3.373-.123L110,120.517a1.391,1.391,0,0,0,1.7,2.2Z" transform="translate(827.79 1565.442)" fill="#e72c3a"/>
    <path id="Path_137" data-name="Path 137" d="M143.013,194.723h-2.089V172.217a2.207,2.207,0,0,0-3.564-1.741l-3.788,2.952a2,2,0,0,0-.777,1.59v19.705h-4.744V181.854a2.015,2.015,0,0,0-3.252-1.591l-4.1,3.186a2,2,0,0,0-.778,1.591v9.683h-4.744V177.441a2.016,2.016,0,0,0-3.219-1.617l-4.1,3.049a2.024,2.024,0,0,0-.812,1.617v4.037a1.391,1.391,0,0,0,2.783,0v-3.651l2.562-1.907v15.753h-2.562v-3.69a1.391,1.391,0,1,0-2.783,0v3.69h-4.744v-7.358a2.016,2.016,0,0,0-3.259-1.586l-4.1,3.214a2,2,0,0,0-.772,1.586v4.143H92.092a1.391,1.391,0,1,0,0,2.783h50.921a1.391,1.391,0,0,0,0-2.783Zm-7.434-19.33,2.562-2v21.327h-2.562Zm-12.872,10.022,2.562-1.992v11.3h-2.562Zm-25.743,5.538,2.562-2.01v5.78H96.964Z" transform="translate(842.549 1509.035)" fill="#e72c3a"/>
    <path id="Path_138" data-name="Path 138" d="M106.326,356.751H92.092a1.391,1.391,0,1,0,0,2.783h14.233a1.391,1.391,0,1,0,0-2.783Z" transform="translate(860.549 1356.938)" fill="#e72c3a"/>
    <path id="Path_139" data-name="Path 139" d="M106.326,391.417H92.092a1.391,1.391,0,0,0,0,2.783h14.233a1.391,1.391,0,1,0,0-2.783Z" transform="translate(860.549 1328.703)" fill="#e72c3a"/>
    <path id="Path_140" data-name="Path 140" d="M122.682,8.307h-2.2V5.4a5.409,5.409,0,0,0-5.4-5.4H70.8a5.411,5.411,0,0,0-3.821,1.583L54.163,14.4a5.4,5.4,0,0,0-1.5,3.731V81.251a5.41,5.41,0,0,0,5.4,5.4h2.2v2.9a5.41,5.41,0,0,0,5.4,5.4h57.009a5.41,5.41,0,0,0,5.4-5.4V13.71a5.41,5.41,0,0,0-5.4-5.4ZM67.744,4.751v8.521a1.806,1.806,0,0,1-1.8,1.8H57.418ZM125.3,89.558a2.623,2.623,0,0,1-2.62,2.62H65.673a2.623,2.623,0,0,1-2.62-2.62v-2.9H115.08a5.41,5.41,0,0,0,5.4-5.4V76.1a1.391,1.391,0,1,0-2.783,0v5.153a2.623,2.623,0,0,1-2.62,2.62H58.071a2.623,2.623,0,0,1-2.62-2.62V18.13a2.667,2.667,0,0,1,.014-.27H65.94a4.592,4.592,0,0,0,4.587-4.587V2.8c.255-.026-1.836-.009,44.553-.014A2.623,2.623,0,0,1,117.7,5.4V69.593a1.391,1.391,0,1,0,2.783,0V11.09h2.2a2.623,2.623,0,0,1,2.62,2.62V89.558Z" transform="translate(869.584 1647.5)" fill="#e72c3a"/>
  </g>
</svg>
