<svg xmlns="http://www.w3.org/2000/svg" width="94.56" height="94.992" viewBox="0 0 94.56 94.992">
  <g id="Group_5747" data-name="Group 5747" transform="translate(-602.25 -1647.5)">
    <g id="Group_4764" data-name="Group 4764" transform="translate(69.25 -369.5)">
      <g id="salary" transform="translate(533 2017)">
        <g id="Group_169" data-name="Group 169" transform="translate(0 0)">
          <g id="Group_168" data-name="Group 168">
            <path id="Path_141" data-name="Path 141" d="M93.378,73.577H58.41a1.391,1.391,0,1,0,0,2.783H93.378a1.391,1.391,0,1,0,0-2.783Z" transform="translate(-46.656 -59.926)" fill="#e72c3a"/>
            <path id="Path_142" data-name="Path 142" d="M94.769,126.5a1.392,1.392,0,0,0-1.391-1.391H58.411a1.391,1.391,0,1,0,0,2.783H93.378A1.392,1.392,0,0,0,94.769,126.5Z" transform="translate(-46.656 -101.893)" fill="#e72c3a"/>
            <path id="Path_143" data-name="Path 143" d="M58.41,176.631a1.391,1.391,0,1,0,0,2.783H75.894a1.391,1.391,0,1,0,0-2.783Z" transform="translate(-46.656 -143.86)" fill="#e72c3a"/>
            <path id="Path_144" data-name="Path 144" d="M27.247,92.209H6.966A3.023,3.023,0,0,1,3.947,89.19V5.8A3.023,3.023,0,0,1,6.966,2.783c51.806.015,48.657-.032,49.121.035V14.453a4.91,4.91,0,0,0,4.9,4.9H72.627a3.056,3.056,0,0,1,.035.436v8.067a1.391,1.391,0,1,0,2.783,0V19.794a5.758,5.758,0,0,0-1.351-3.721l-.005-.006c-.107-.128-14.16-14.248-14.713-14.712l0,0A5.757,5.757,0,0,0,55.651,0H6.966a5.809,5.809,0,0,0-5.8,5.8V89.19a5.809,5.809,0,0,0,5.8,5.8H27.247a1.391,1.391,0,1,0,0-2.783ZM58.87,14.453v-9.7L70.694,16.575h-9.7A2.124,2.124,0,0,1,58.87,14.453Z" transform="translate(-1.164 0)" fill="#e72c3a"/>
            <path id="Path_145" data-name="Path 145" d="M222.1,183.127c-.015-.029-.032-.057-.049-.086a6.115,6.115,0,0,0-5.231-2.953h-4.877a22.008,22.008,0,0,0-43.6,0h-4.877a6.125,6.125,0,0,0-6.113,6.113v33.875a6.122,6.122,0,0,0,6.113,6.112H216.82a6.122,6.122,0,0,0,6.112-6.112V186.2A6.072,6.072,0,0,0,222.1,183.127Zm-1.951,36.948a3.3,3.3,0,0,1-.31,1.4L197.8,201.8l22.34-15.808C220.155,186.257,220.147,206.812,220.149,220.075Zm-3.329-37.2a3.308,3.308,0,0,1,1.981.66l-7.4,5.236a22.108,22.108,0,0,0,.747-5.679c0-.073,0-.145,0-.217h4.674Zm-26.679-19.007a19.246,19.246,0,0,1,19.224,19.224,19,19,0,0,1-2,8.531l-11.7,8.281-1-.889a6.785,6.785,0,0,0-3.89-1.7,1.391,1.391,0,0,0,.751-1.235v-1.5c5.892-1.2,7.489-9.78,1.14-12.024-.375-.132-.758-.271-1.14-.415v-6.192a3.983,3.983,0,0,1,1.54.754,1.392,1.392,0,0,0,1.877-2.055,6.944,6.944,0,0,0-3.417-1.538V171.87a1.391,1.391,0,0,0-2.783,0v1.344c-.185.042-.372.089-.563.146-4.071,1.226-5.133,6.752-2.174,9.073a12.858,12.858,0,0,0,2.737,1.572v7.9a5.347,5.347,0,0,1-2.823-1.078,1.391,1.391,0,0,0-1.524,2.329,8.059,8.059,0,0,0,4.347,1.538v1.388a1.391,1.391,0,0,0,.751,1.235,6.784,6.784,0,0,0-3.89,1.7l-1,.889-11.7-8.281a19,19,0,0,1-1.995-8.531,19.246,19.246,0,0,1,19.224-19.225Zm1.391,21.238.212.076c3.366,1.19,2.574,5.432-.212,6.5Zm-2.783-4.2a7.7,7.7,0,0,1-1.019-.66c-1.1-.864-.724-3.4,1.019-4.132ZM160.443,221.47a3.3,3.3,0,0,1-.31-1.4c0-13.263-.006-33.818.01-34.081l22.34,15.808Zm7.693-38.6c0,.073,0,.145,0,.217a22.105,22.105,0,0,0,.747,5.679l-7.4-5.236a3.308,3.308,0,0,1,1.981-.66h4.674ZM163.462,223.4a3.314,3.314,0,0,1-.873-.12l24.874-22.2a4.02,4.02,0,0,1,5.356,0l24.874,22.2a3.314,3.314,0,0,1-.873.12Z" transform="translate(-128.372 -131.195)" fill="#e72c3a"/>
          </g>
        </g>
      </g>
    </g>
  </g>
</svg>
