<svg xmlns="http://www.w3.org/2000/svg" width="34.145" height="51.417" viewBox="0 0 34.145 51.417">
  <g id="Group_4549" data-name="Group 4549" transform="translate(-85.996)">
    <g id="Group_4542" data-name="Group 4542" transform="translate(102.155 4.017)">
      <g id="Group_4541" data-name="Group 4541" transform="translate(0)">
        <path id="Path_7641" data-name="Path 7641" d="M247.912,40a1,1,0,1,0,1,1.012A1,1,0,0,0,247.912,40Z" transform="translate(-246.9 -40.005)" fill="#e72c3a"/>
      </g>
    </g>
    <g id="Group_4544" data-name="Group 4544" transform="translate(96.039 10.043)">
      <g id="Group_4543" data-name="Group 4543" transform="translate(0)">
        <path id="Path_7642" data-name="Path 7642" d="M193.082,100a7.03,7.03,0,1,0-.105,14.059h.054A7.03,7.03,0,0,0,193.082,100Zm-.052,12.051h-.039a5.021,5.021,0,0,1,.037-10.043h.039a5.021,5.021,0,0,1-.037,10.043Z" transform="translate(-185.999 -100.002)" fill="#e72c3a"/>
      </g>
    </g>
    <g id="Group_4546" data-name="Group 4546" transform="translate(106.11 4.721)">
      <g id="Group_4545" data-name="Group 4545" transform="translate(0)">
        <path id="Path_7643" data-name="Path 7643" d="M287.627,47.069a1,1,0,1,0-.671,1.893,11.034,11.034,0,0,1,7.336,10.483,1,1,0,0,0,1,1.012h.008a1,1,0,0,0,1-1A13.044,13.044,0,0,0,287.627,47.069Z" transform="translate(-286.287 -47.011)" fill="#e72c3a"/>
      </g>
    </g>
    <g id="Group_4548" data-name="Group 4548" transform="translate(85.996)">
      <g id="Group_4547" data-name="Group 4547" transform="translate(0)">
        <path id="Path_7644" data-name="Path 7644" d="M109.231,37.8c6.68-8.6,10.854-13.081,10.91-20.6A17.072,17.072,0,1,0,86,16.944c-.057,7.726,4.194,12.2,10.92,20.858C90.226,38.8,86,41.315,86,44.388c0,2.058,1.9,3.906,5.358,5.2a34.549,34.549,0,0,0,11.714,1.829,34.55,34.55,0,0,0,11.714-1.829c3.455-1.3,5.358-3.143,5.358-5.2C120.141,41.316,115.915,38.8,109.231,37.8ZM88.005,16.96a15.064,15.064,0,1,1,30.127.226c-.053,7.144-4.48,11.546-11.548,20.759-1.261,1.643-2.418,3.2-3.514,4.715-1.093-1.52-2.227-3.045-3.507-4.715C92.2,28.345,87.951,24.276,88.005,16.96Zm15.064,32.449c-8.622,0-15.064-2.651-15.064-5.021,0-1.758,3.851-3.978,10.326-4.747,1.431,1.878,2.686,3.584,3.917,5.327a1,1,0,0,0,.819.425h0a1,1,0,0,0,.819-.423c1.219-1.72,2.508-3.468,3.927-5.327,6.469.77,10.317,2.99,10.317,4.746C118.132,46.758,111.69,49.409,103.069,49.409Z" transform="translate(-85.996)" fill="#e72c3a"/>
      </g>
    </g>
  </g>
</svg>
