<svg xmlns="http://www.w3.org/2000/svg" width="46" height="61.356" viewBox="0 0 46 61.356">
  <g id="Group_4553" data-name="Group 4553" transform="translate(-64.07)">
    <path id="Path_7646" data-name="Path 7646" d="M66.528,61.356h41.085A2.461,2.461,0,0,0,110.07,58.9V53.267a.9.9,0,0,0-1.8,0V58.9a.661.661,0,0,1-.66.66h-4.757V44a.9.9,0,1,0-1.8,0V59.558H91.611l-1.98-19.02.628-.982a1.745,1.745,0,0,0,1.862-.234l4.512-3.742L104.16,38.5a7.115,7.115,0,0,1,4.113,6.422v4.156a.9.9,0,0,0,1.8,0V44.917a8.859,8.859,0,0,0-5.235-8.087l-.018-.007L92.752,32.149l0-2.348a9.432,9.432,0,0,0,3.8-6.483,4.355,4.355,0,0,0,4.079-4.242,4.458,4.458,0,0,0-1.93-3.664,2.514,2.514,0,0,0,.194-.971v-6.9A3.572,3.572,0,0,0,97.737,4.9,3.51,3.51,0,0,0,95.1,3.947a.7.7,0,0,1-.769-.528C93.882,1.118,92.434,0,89.9,0H87.5a.9.9,0,0,0,0,1.8h2.4c2.105,0,2.462.93,2.664,1.966a2.5,2.5,0,0,0,2.671,1.976,1.7,1.7,0,0,1,1.276.475A1.792,1.792,0,0,1,97.1,7.542v6.9c0,1.407-2.944.7-2.944-1.48a1.06,1.06,0,0,0-1.993-.5,5.121,5.121,0,0,1-4.522,2.713H77.35a1.644,1.644,0,0,1-1.638-1.638V6.923A5.132,5.132,0,0,1,80.838,1.8h2.468a.9.9,0,0,0,0-1.8H80.838a6.931,6.931,0,0,0-6.924,6.923v6.612a3.424,3.424,0,0,0,1,2.416,4.227,4.227,0,0,0,2.676,7.368,9.327,9.327,0,0,0,3.8,6.471v2.321L77.326,33.7h0L69.32,36.823l-.015.006a8.86,8.86,0,0,0-5.235,8.087V58.9a2.46,2.46,0,0,0,2.458,2.458Zm30.1-44.4a2.618,2.618,0,0,0,.8-.219,2.663,2.663,0,0,1,1.414,2.337A2.539,2.539,0,0,1,96.623,21.5ZM77.517,21.5a2.528,2.528,0,0,1-2.211-2.414,2.657,2.657,0,0,1,1.318-2.195,3.439,3.439,0,0,0,.725.078h.167V21.5ZM89.8,59.558H84.337l1.909-18.34h1.649Zm-4.682-21.4c.915-1.355.917-1.347.987-1.485h1.922c.066.129.046.091.987,1.485l-.806,1.261H85.928Zm3.349-3.629a1.757,1.757,0,0,0-.319.346H85.988a1.765,1.765,0,0,0-.319-.347l-2.511-2.083a1.872,1.872,0,0,0,.023-.278V30.812a9.9,9.9,0,0,0,7.773.023v1.342a1.8,1.8,0,0,0,.022.275Zm6.243.307-3.7,3.067-1.363-2.018,2.473-2.051ZM79.315,22.19V16.971H87.64a6.925,6.925,0,0,0,5.119-2.262A4.032,4.032,0,0,0,94.8,16.65l.024.011V22.19a7.756,7.756,0,0,1-15.511,0Zm2.667,11.618,2.506,2.078L83.125,37.9,79.4,34.816ZM65.868,44.917a7.128,7.128,0,0,1,4.114-6.422l7.5-2.931,4.532,3.759a1.745,1.745,0,0,0,1.862.234l.628.982-1.98,19.02H73.082V44a.9.9,0,0,0-1.8,0V59.558H66.528a.661.661,0,0,1-.66-.66Z" transform="translate(0 0)" fill="#e72c3a"/>
  </g>
</svg>
