<svg id="money" xmlns="http://www.w3.org/2000/svg" width="40" height="40" viewBox="0 0 40 40">
  <path id="Path_24" data-name="Path 24" d="M33.456,15.333a2,2,0,0,0,1.877,1.333H38a2,2,0,0,0,2-2V2a2,2,0,0,0-2-2H35.333a2,2,0,0,0-1.877,1.333H19.619a4.681,4.681,0,0,0-2.44.684L6.417,8.575a2.24,2.24,0,0,0,1.161,4.158,10.034,10.034,0,0,0,2.611-.752A12.651,12.651,0,0,0,8.243,24.71a14.114,14.114,0,0,0-1.7-.043,2,2,0,0,0-1.877-1.333H2a2,2,0,0,0-2,2V38a2,2,0,0,0,2,2H4.667a2,2,0,0,0,1.877-1.333H20.38a4.681,4.681,0,0,0,2.44-.684l10.763-6.558a2.24,2.24,0,0,0-1.867-4.043l-1.9.636a12.653,12.653,0,0,0,1.944-12.728,14.236,14.236,0,0,0,1.7.044Zm1.877-14H38A.667.667,0,0,1,38.667,2V14.667a.667.667,0,0,1-.667.667H35.333a.667.667,0,0,1-.667-.667V2A.667.667,0,0,1,35.333,1.333ZM7.862,11.354a.908.908,0,0,1-.755-1.638L17.874,3.155a3.343,3.343,0,0,1,1.745-.489H33.333V14h-.881c-3.075,0-3.76-2.667-6.947-2.667H22.313c-1.441,0-2.9-1.546-2.015-2.667h4.809a6.151,6.151,0,0,0,3.657-1.259A.667.667,0,1,0,28.023,6.3a4.825,4.825,0,0,1-2.917,1.035H20.219a2.688,2.688,0,0,0-.638.1Zm-3.2,27.313H2A.667.667,0,0,1,1.333,38V25.333A.667.667,0,0,1,2,24.667H4.667a.667.667,0,0,1,.667.667V38A.667.667,0,0,1,4.667,38.667ZM32.137,28.646a.908.908,0,0,1,.755,1.638L22.126,36.845a3.348,3.348,0,0,1-1.746.489H6.667V26h.88c3.074,0,3.759,2.667,6.947,2.667h3.193c1.439,0,2.9,1.546,2.015,2.667H14.893a6.143,6.143,0,0,0-3.657,1.259.667.667,0,0,0,.74,1.109,4.825,4.825,0,0,1,2.917-1.035H19.78a2.7,2.7,0,0,0,.638-.1Zm-5.25.35L21.3,30.863a3.544,3.544,0,0,0-3.617-3.533H14.493c-1.914,0-3.011-1.553-4.6-2.2A11.307,11.307,0,0,1,13.113,11L18.7,9.133a3.544,3.544,0,0,0,3.617,3.533h3.193c1.973,0,2.881,1.5,4.6,2.2A11.306,11.306,0,0,1,26.887,29Z" fill="#fff"/>
  <path id="Path_25" data-name="Path 25" d="M22.667,16.185a.667.667,0,0,0-.844-.42,10,10,0,0,0-6.036,13.366.667.667,0,0,0,1.227-.521,8.667,8.667,0,0,1,5.231-11.581.667.667,0,0,0,.421-.844Z" transform="translate(-5.001 -5.243)" fill="#fff"/>
  <path id="Path_26" data-name="Path 26" d="M39.135,24.487A8.667,8.667,0,0,1,33.9,36.068a.668.668,0,1,0,.424,1.267,10,10,0,0,0,6.035-13.369.667.667,0,1,0-1.227.521Z" transform="translate(-11.149 -7.853)" fill="#fff"/>
  <path id="Path_27" data-name="Path 27" d="M32,29c0-1.511-1.419-2.725-3.333-2.957V22.729c1.133.191,2,.845,2,1.6a.667.667,0,0,0,1.333,0c0-1.511-1.419-2.725-3.333-2.957v-.71a.667.667,0,0,0-1.333,0v.71C25.419,21.609,24,22.822,24,24.333s1.419,2.725,3.333,2.957V30.6c-1.133-.191-2-.845-2-1.6A.667.667,0,1,0,24,29c0,1.511,1.419,2.725,3.333,2.957v.71a.667.667,0,1,0,1.333,0v-.71C30.581,31.725,32,30.511,32,29Zm-6.667-4.667c0-.759.867-1.413,2-1.6v3.209C26.2,25.747,25.333,25.093,25.333,24.333ZM28.667,30.6V27.4c1.133.191,2,.845,2,1.6s-.867,1.413-2,1.6Z" transform="translate(-8 -6.667)" fill="#fff"/>
</svg>
