<svg xmlns="http://www.w3.org/2000/svg" width="40.25" height="40.249" viewBox="0 0 40.25 40.249">
  <g id="email" transform="translate(-0.001 -0.005)">
    <g id="Group_5" data-name="Group 5" transform="translate(0.001 0.004)">
      <g id="Group_4" data-name="Group 4" transform="translate(0 0)">
        <path id="Path_28" data-name="Path 28" d="M40.243,15.392a.634.634,0,0,0-.028-.136.671.671,0,0,0-.038-.115.6.6,0,0,0-.067-.1.633.633,0,0,0-.089-.1c-.011-.009-.015-.022-.027-.032L33.542,9.891V4.7A2.013,2.013,0,0,0,31.53,2.685H24.26L21.349.425a1.989,1.989,0,0,0-2.447,0L15.99,2.685H8.72A2.013,2.013,0,0,0,6.708,4.7V9.891L.258,14.9c-.011.009-.016.022-.027.032a.629.629,0,0,0-.089.1.6.6,0,0,0-.067.1.662.662,0,0,0-.038.115.636.636,0,0,0-.028.134c0,.014-.008.026-.008.04V38.241a1.99,1.99,0,0,0,.394,1.184c0,.006,0,.013.009.019s.015.011.021.019a2,2,0,0,0,1.586.791H38.238a2,2,0,0,0,1.591-.794c.005-.007.013-.009.018-.015s.005-.013.009-.019a1.99,1.99,0,0,0,.394-1.184V15.432C40.251,15.418,40.244,15.406,40.243,15.392ZM19.722,1.484a.643.643,0,0,1,.8,0l1.548,1.2H18.179ZM2.181,38.912,19.722,25.286a.644.644,0,0,1,.8,0L38.069,38.912Zm36.729-1.046L21.349,24.228a1.991,1.991,0,0,0-2.447,0L1.341,37.866V16.454L12.334,24.99a.671.671,0,0,0,.822-1.061L1.988,15.257l4.72-3.668v5.184a.671.671,0,1,0,1.342,0V4.7a.671.671,0,0,1,.671-.671H31.53A.671.671,0,0,1,32.2,4.7V16.773a.671.671,0,1,0,1.342,0V11.59l4.72,3.668L27.074,23.945a.671.671,0,1,0,.822,1.06l11.013-8.552V37.866Z" transform="translate(-0.001 -0.004)" fill="#fff"/>
        <path id="Path_29" data-name="Path 29" d="M169.675,78.971V76.287a8.05,8.05,0,1,0-8.05,8.05.671.671,0,0,0,0-1.342,6.709,6.709,0,1,1,6.709-6.709v2.683a1.342,1.342,0,1,1-2.684,0V76.288a.671.671,0,1,0-1.342,0,2.683,2.683,0,1,1-2.683-2.683.671.671,0,1,0,0-1.342,4.025,4.025,0,1,0,2.712,6.991,2.676,2.676,0,0,0,5.338-.283Z" transform="translate(-141.5 -62.873)" fill="#fff"/>
      </g>
    </g>
  </g>
</svg>
