<svg xmlns="http://www.w3.org/2000/svg" width="40" height="40.417" viewBox="0 0 40 40.417">
  <g id="line" transform="translate(-2.5)">
    <g id="Group_2" data-name="Group 2" transform="translate(2.5)">
      <g id="Group_1" data-name="Group 1" transform="translate(0)">
        <path id="Path_18" data-name="Path 18" d="M36.583,4.829A22.075,22.075,0,0,0,22.5,0,22.075,22.075,0,0,0,8.417,4.829,15.308,15.308,0,0,0,2.5,16.667,14.89,14.89,0,0,0,7.653,27.821a21.2,21.2,0,0,0,11.93,5.024v6.738a.833.833,0,0,0,1.34.662l12.5-9.555a30.017,30.017,0,0,0,6.424-6.166A13.074,13.074,0,0,0,42.5,16.667,15.308,15.308,0,0,0,36.583,4.829ZM32.411,29.363,21.25,37.9V32.083a.833.833,0,0,0-.772-.831A19.73,19.73,0,0,1,8.765,26.579a13.245,13.245,0,0,1-4.6-9.913c0-8.271,8.224-15,18.333-15s18.333,6.729,18.333,15C40.833,22.236,36.787,26.059,32.411,29.363Z" transform="translate(-2.5 0)" fill="#fff"/>
        <path id="Path_19" data-name="Path 19" d="M223.048,145.978c0-.623-.33-.971-.852-.964s-.829.363-.832.984c-.009,1.15,0,2.3,0,3.449,0,.166-.015.33-.029.643-.2-.23-.308-.348-.408-.477q-1.6-2.076-3.194-4.157a.9.9,0,0,0-1.022-.408.878.878,0,0,0-.62.911q-.012,3.332,0,6.662a.871.871,0,0,0,.5.844c.627.295,1.22-.15,1.227-.945.015-1.086,0-2.173,0-3.26v-.63a.985.985,0,0,1,.4.325q1.594,2.052,3.184,4.108c.263.344.564.6,1.036.435a.882.882,0,0,0,.609-.953C223.049,150.357,223.056,148.168,223.048,145.978Z" transform="translate(-198.28 -132.924)" fill="#fff"/>
        <path id="Path_20" data-name="Path 20" d="M318.906,146.745c.16-.012.343-.037.53-.038.628-.005,1.26.007,1.887-.008a1.76,1.76,0,0,0,.684-.118.761.761,0,0,0,.409-.956.8.8,0,0,0-.839-.622q-1.676,0-3.352,0c-.8,0-1.121.312-1.123,1.11q-.012,3.166,0,6.33c0,.785.344,1.119,1.126,1.122q1.563.007,3.118,0a1.89,1.89,0,0,0,.509-.073.829.829,0,0,0,.021-1.579,2.3,2.3,0,0,0-.65-.081c-.78-.01-1.562,0-2.355,0v-1.637c.149-.014.269-.034.391-.035.74,0,1.482.017,2.221-.01.644-.024.981-.377.957-.923-.021-.49-.381-.793-.97-.8-.41-.007-.819,0-1.231,0-1.528,0-1.528,0-1.385-1.532A.687.687,0,0,1,318.906,146.745Z" transform="translate(-290.878 -132.916)" fill="#fff"/>
        <path id="Path_21" data-name="Path 21" d="M106.985,151.907a4.47,4.47,0,0,0-.518-.009c-.722,0-1.44,0-2.23,0v-.641c0-1.684,0-3.369,0-5.053,0-.719-.321-1.119-.865-1.123-.564-.005-.869.378-.869,1.106q0,3.211,0,6.422a.909.909,0,0,0,1.016,1.027c.612.011,2.91.02,3.445-.007a.88.88,0,0,0,.877-.872A.9.9,0,0,0,106.985,151.907Z" transform="translate(-94.166 -132.991)" fill="#fff"/>
        <path id="Path_22" data-name="Path 22" d="M179.921,145.864c0-.649-.212-.854-.837-.855s-.853.195-.855.839q-.011,3.425,0,6.851c0,.641.234.871.837.872.62,0,.851-.236.855-.9,0-1.118,0-2.235,0-3.354C179.923,148.163,179.925,147.014,179.921,145.864Z" transform="translate(-163.58 -132.925)" fill="#fff"/>
      </g>
    </g>
  </g>
</svg>
