<svg xmlns="http://www.w3.org/2000/svg" width="122.88" height="101.575" viewBox="0 0 122.88 101.575">
  <g id="icon-embed" transform="translate(0 0.003)">
    <path id="Path_8228" data-name="Path 8228" d="M44.97,12.84H27.77L0,49.37,27.77,85.9h17.2L17.2,49.37,44.97,12.84Zm32.94,0h17.2l27.77,36.53L95.11,85.9H77.91l27.77-36.53L77.91,12.84ZM70.17.04l5.96,1.39a1.759,1.759,0,0,1,1.31,2.1l-22.5,96.69a1.767,1.767,0,0,1-2.1,1.31l-5.95-1.39a1.759,1.759,0,0,1-1.31-2.1L68.08,1.35A1.762,1.762,0,0,1,70.17.04Z" fill="#013f94"/>
  </g>
</svg>
