<svg xmlns="http://www.w3.org/2000/svg" xmlns:xlink="http://www.w3.org/1999/xlink" width="17" height="17" viewBox="0 0 17 17">
  <defs>
    <clipPath id="clip-path">
      <rect id="Rectangle_1333" data-name="Rectangle 1333" width="17" height="17" transform="translate(33.835 11.218)" fill="#fff"/>
    </clipPath>
  </defs>
  <g id="Mask_Group_28" data-name="Mask Group 28" transform="translate(-33.835 -11.218)" clip-path="url(#clip-path)">
    <g id="upload" transform="translate(34 11.383)">
      <path id="Path_7855" data-name="Path 7855" d="M17.049,14.773a.758.758,0,0,0-.758.758v3.192a2.114,2.114,0,0,1-2.112,2.112H4.764a2.114,2.114,0,0,1-2.112-2.112V15.53a.758.758,0,1,0-1.515,0v3.192A3.631,3.631,0,0,0,4.764,22.35h9.416a3.631,3.631,0,0,0,3.627-3.627V15.53A.758.758,0,0,0,17.049,14.773Z" transform="translate(-1.136 -5.68)" fill="#fff"/>
      <path id="Path_7856" data-name="Path 7856" d="M6.975,6.976l3.253-3.253V13.26a.758.758,0,1,0,1.515,0V3.723L15,6.976A.758.758,0,1,0,16.068,5.9L11.522,1.358a.758.758,0,0,0-1.071,0L5.9,5.9A.758.758,0,1,0,6.975,6.976Z" transform="translate(-2.651 -1.137)" fill="#fff"/>
    </g>
  </g>
</svg>
