<svg xmlns="http://www.w3.org/2000/svg" width="9.986" height="18.512" viewBox="0 0 9.986 18.512">
  <path id="Icon_11_" d="M31.18,20.549H28.887c-.371,0-.487-.139-.487-.487v-2.8c0-.371.139-.487.487-.487H31.18V14.734a5.147,5.147,0,0,1,.626-2.618A3.844,3.844,0,0,1,33.868,10.4a5.155,5.155,0,0,1,1.784-.3h2.271c.324,0,.463.139.463.463V13.2c0,.324-.139.463-.463.463-.626,0-1.251,0-1.877.023a.837.837,0,0,0-.95.95c-.023.7,0,1.367,0,2.085h2.688c.371,0,.51.139.51.51v2.8c0,.371-.116.487-.51.487H35.1v7.553c0,.394-.116.533-.533.533h-2.9c-.348,0-.487-.139-.487-.487V20.549Z" transform="translate(-28.4 -10.1)" fill="#013f94"/>
</svg>
