<svg xmlns="http://www.w3.org/2000/svg" width="27.174" height="27.06" viewBox="0 0 27.174 27.06">
  <g id="Group_9342" data-name="Group 9342" transform="translate(0 -0.601)">
    <path id="Path_7576" data-name="Path 7576" d="M71.63,240.665l-.2,2.116a1.848,1.848,0,0,0,1.876,2.064h9.789a1.9,1.9,0,0,0,1.926-2.068l-.151-2.113H71.63Z" transform="translate(-64.611 -217.184)" fill="#013f94"/>
    <path id="Path_7577" data-name="Path 7577" d="M27.174,111.55V99.87A2.073,2.073,0,0,0,25.1,97.8H21.5v5.525H5.673V97.8h-3.6A2.073,2.073,0,0,0,0,99.87v11.68a2.073,2.073,0,0,0,2.073,2.073h3.6V110.04H21.5v3.583h3.6A2.073,2.073,0,0,0,27.174,111.55Zm-2.811-9.871a.97.97,0,1,1,.97-.97A.971.971,0,0,1,24.362,101.679Z" transform="translate(0 -87.934)" fill="#013f94"/>
    <path id="Path_7578" data-name="Path 7578" d="M87.891,4.6V4.124L84.237.6H76.929a1.969,1.969,0,0,0-1.968,1.965V14.045h12.93V4.634C87.891,4.621,87.892,4.609,87.891,4.6Zm-1.934,7.375a.03.03,0,0,1-.033.03h-9a.031.031,0,0,1-.034-.03V2.566a.031.031,0,0,1,.034-.031h5.694V3.717a2.02,2.02,0,0,0,2.123,2.016h1.211Z" transform="translate(-67.816)" fill="#013f94"/>
  </g>
</svg>
