<svg xmlns="http://www.w3.org/2000/svg" width="40.831" height="33.162" viewBox="0 0 40.831 33.162">
  <path id="Icon_awesome-twitter" data-name="Icon awesome-twitter" d="M36.634,11.645c.026.363.026.725.026,1.088,0,11.063-8.42,23.809-23.809,23.809A23.648,23.648,0,0,1,0,32.786a17.312,17.312,0,0,0,2.021.1A16.759,16.759,0,0,0,12.41,29.315a8.383,8.383,0,0,1-7.824-5.8,10.553,10.553,0,0,0,1.58.13,8.851,8.851,0,0,0,2.2-.285,8.369,8.369,0,0,1-6.71-8.213v-.1A8.428,8.428,0,0,0,5.441,16.1,8.381,8.381,0,0,1,2.85,4.909,23.787,23.787,0,0,0,20.1,13.666a9.447,9.447,0,0,1-.207-1.917A8.376,8.376,0,0,1,34.38,6.023,16.476,16.476,0,0,0,39.691,4a8.346,8.346,0,0,1-3.679,4.612,16.776,16.776,0,0,0,4.819-1.3,17.989,17.989,0,0,1-4.2,4.327Z" transform="translate(0 -3.381)" fill="#fff"/>
</svg>
