<svg xmlns="http://www.w3.org/2000/svg" width="26.329" height="18.512" viewBox="0 0 26.329 18.512">
  <path id="Path_281" data-name="Path 281" d="M26.329,78.314A2.316,2.316,0,0,0,24.015,76H2.314A2.317,2.317,0,0,0,0,78.314V92.2a2.318,2.318,0,0,0,2.314,2.314h21.7A2.317,2.317,0,0,0,26.329,92.2Zm-24.786.315L8.209,85.26,1.543,91.884ZM14.8,86.386a2.314,2.314,0,0,1-3.274,0L2.638,77.543H23.69Zm-5.5-.038,1.134,1.128a3.857,3.857,0,0,0,5.453,0l1.136-1.13,6.664,6.621H2.639ZM18.12,85.26l6.666-6.631V91.884Z" transform="translate(0 -76)" fill="#013f94"/>
</svg>
