<svg xmlns="http://www.w3.org/2000/svg" width="11.365" height="15.154" viewBox="0 0 11.365 15.154">
  <g id="Group_9332" data-name="Group 9332" transform="translate(0 0)">
    <path id="Path_7829" data-name="Path 7829" d="M75.273,3.25,72.116.092A.315.315,0,0,0,71.893,0h-6.63A1.264,1.264,0,0,0,64,1.263V13.891a1.264,1.264,0,0,0,1.263,1.263H74.1a1.264,1.264,0,0,0,1.263-1.263V3.473A.315.315,0,0,0,75.273,3.25ZM72.208,1.078l2.079,2.079H72.84a.632.632,0,0,1-.631-.631Zm2.526,12.813a.632.632,0,0,1-.631.631h-8.84a.632.632,0,0,1-.631-.631V1.263a.632.632,0,0,1,.631-.631h6.314V2.526A1.264,1.264,0,0,0,72.84,3.788h1.894Z" transform="translate(-64)" fill="#2963ff"/>
    <path id="Path_7830" data-name="Path 7830" d="M133.4,174.883a9.152,9.152,0,0,1-.755-.651c-.24-.24-.455-.474-.641-.7a7.07,7.07,0,0,0,.418-1.607c0-1.048-.379-1.263-.947-1.263-.432,0-.947.224-.947,1.293a3.027,3.027,0,0,0,.77,1.708c-.125.382-.272.823-.437,1.319-.08.238-.166.459-.257.663-.074.033-.146.067-.216.1-.251.126-.489.238-.71.343-1.008.477-1.674.793-1.674,1.416,0,.453.492.733.947.733.587,0,1.473-.784,2.121-2.1a12.559,12.559,0,0,1,2.167-.585,3.621,3.621,0,0,0,1.395.8c.783,0,.947-.453.947-.832,0-.746-.853-.746-1.263-.746A7.484,7.484,0,0,0,133.4,174.883Zm-4.451,2.729a.5.5,0,0,1-.316-.1c0-.224.667-.54,1.313-.846l.125-.059C129.6,177.293,129.126,177.611,128.947,177.611Zm2.21-5.652c0-.662.205-.662.316-.662.223,0,.316,0,.316.631a5.062,5.062,0,0,1-.251.986A1.94,1.94,0,0,1,131.157,171.959Zm.242,3.393q.03-.082.057-.166c.117-.351.223-.667.317-.951q.2.216.424.443c.059.059.206.192.4.359C132.209,175.122,131.795,175.227,131.4,175.352Zm3.546.164c0,.142,0,.2-.293.2a2.328,2.328,0,0,1-.53-.3c.089-.01.155-.015.192-.015C134.78,175.4,134.913,175.447,134.945,175.517Z" transform="translate(-126.106 -165.615)" fill="#2963ff"/>
  </g>
</svg>
