<svg xmlns="http://www.w3.org/2000/svg" width="22.784" height="18.512" viewBox="0 0 22.784 18.512">
  <path id="Path_6406" data-name="Path 6406" d="M22.784,50.192a9.739,9.739,0,0,1-2.691.738,4.645,4.645,0,0,0,2.055-2.582,9.335,9.335,0,0,1-2.962,1.131,4.671,4.671,0,0,0-8.08,3.194,4.81,4.81,0,0,0,.108,1.065,13.221,13.221,0,0,1-9.628-4.886,4.672,4.672,0,0,0,1.435,6.243,4.613,4.613,0,0,1-2.11-.575v.051a4.692,4.692,0,0,0,3.742,4.59,4.662,4.662,0,0,1-1.225.154,4.13,4.13,0,0,1-.884-.08,4.715,4.715,0,0,0,4.365,3.254A9.385,9.385,0,0,1,1.118,64.48,8.749,8.749,0,0,1,0,64.416a13.15,13.15,0,0,0,7.166,2.1A13.2,13.2,0,0,0,20.46,53.22c0-.206-.007-.406-.017-.6A9.318,9.318,0,0,0,22.784,50.192Z" transform="translate(0 -48)" fill="#013f94"/>
</svg>
