<svg xmlns="http://www.w3.org/2000/svg" width="39.324" height="39.324" viewBox="0 0 39.324 39.324">
  <path id="Icon_awesome-facebook-square" data-name="Icon awesome-facebook-square" d="M35.111,2.25H4.213A4.213,4.213,0,0,0,0,6.463v30.9a4.213,4.213,0,0,0,4.213,4.213H16.261V28.2h-5.53V21.912h5.53v-4.8c0-5.455,3.248-8.469,8.222-8.469a33.5,33.5,0,0,1,4.873.425v5.354H26.611c-2.7,0-3.548,1.678-3.548,3.4v4.086H29.1L28.135,28.2H23.063V41.574H35.111a4.213,4.213,0,0,0,4.213-4.213V6.463A4.213,4.213,0,0,0,35.111,2.25Z" transform="translate(0 -2.25)" fill="#fff"/>
</svg>
