<svg id="Group_9333" data-name="Group 9333" xmlns="http://www.w3.org/2000/svg" width="18.275" height="11.779" viewBox="0 0 18.275 11.779">
  <g id="Group_7173" data-name="Group 7173">
    <g id="Group_7172" data-name="Group 7172">
      <path id="Path_7826" data-name="Path 7826" d="M18.174,96.576a16.978,16.978,0,0,0-2.718-2.858A10.116,10.116,0,0,0,9.138,91a10.216,10.216,0,0,0-6.424,2.806A17.828,17.828,0,0,0,.1,96.576a.535.535,0,0,0,0,.627,16.61,16.61,0,0,0,2.433,2.624,10.547,10.547,0,0,0,6.6,2.952,9.918,9.918,0,0,0,6.1-2.543A16.861,16.861,0,0,0,18.174,97.2.535.535,0,0,0,18.174,96.576Zm-3.539,2.776a9.02,9.02,0,0,1-5.5,2.357A9.457,9.457,0,0,1,3.213,98.99a17.3,17.3,0,0,1-2-2.1,17.862,17.862,0,0,1,2.035-2.127,9.412,9.412,0,0,1,5.889-2.692,9.187,9.187,0,0,1,5.64,2.471,17.158,17.158,0,0,1,2.285,2.347A17.724,17.724,0,0,1,14.635,99.352Z" transform="translate(0 -91)" fill="#2963ff"/>
    </g>
  </g>
  <g id="Group_7175" data-name="Group 7175" transform="translate(5.39 2.143)">
    <g id="Group_7174" data-name="Group 7174">
      <path id="Path_7827" data-name="Path 7827" d="M154.749,151a3.748,3.748,0,1,0,3.748,3.748A3.752,3.752,0,0,0,154.749,151Zm0,6.425a2.677,2.677,0,1,1,2.677-2.677A2.68,2.68,0,0,1,154.749,157.425Z" transform="translate(-151.001 -151)" fill="#2963ff"/>
    </g>
  </g>
  <path id="Path_7828" data-name="Path 7828" d="M212.607,211a1.606,1.606,0,1,0,1.606,1.606A1.608,1.608,0,0,0,212.607,211Zm0,2.142a.535.535,0,1,1,.535-.535A.536.536,0,0,1,212.607,213.142Z" transform="translate(-203.47 -206.715)" fill="#2963ff"/>
</svg>
