<svg id="Group_9332" data-name="Group 9332" xmlns="http://www.w3.org/2000/svg" width="16.954" height="25.53" viewBox="0 0 16.954 25.53">
  <g id="Group_9331" data-name="Group 9331">
    <g id="Group_4549" data-name="Group 4549">
      <g id="Group_4542" data-name="Group 4542" transform="translate(8.023 1.995)">
        <g id="Group_4541" data-name="Group 4541" transform="translate(0)">
          <path id="Path_7641" data-name="Path 7641" d="M247.4,40a.5.5,0,1,0,.495.5A.5.5,0,0,0,247.4,40Z" transform="translate(-246.9 -40.005)" fill="#013f94"/>
        </g>
      </g>
      <g id="Group_4544" data-name="Group 4544" transform="translate(4.987 4.986)">
        <g id="Group_4543" data-name="Group 4543" transform="translate(0)">
          <path id="Path_7642" data-name="Path 7642" d="M189.516,100a3.491,3.491,0,0,0-.052,6.981h.027a3.491,3.491,0,0,0,.026-6.981Zm-.026,5.984h-.019a2.493,2.493,0,0,1,.018-4.986h.019a2.493,2.493,0,0,1-.018,4.986Z" transform="translate(-185.999 -100.002)" fill="#013f94"/>
        </g>
      </g>
      <g id="Group_4546" data-name="Group 4546" transform="translate(9.987 2.344)">
        <g id="Group_4545" data-name="Group 4545" transform="translate(0)">
          <path id="Path_7643" data-name="Path 7643" d="M286.952,47.04a.5.5,0,1,0-.333.94,5.479,5.479,0,0,1,3.643,5.205.5.5,0,0,0,.495.5h0a.5.5,0,0,0,.5-.495A6.477,6.477,0,0,0,286.952,47.04Z" transform="translate(-286.287 -47.011)" fill="#013f94"/>
        </g>
      </g>
      <g id="Group_4548" data-name="Group 4548">
        <g id="Group_4547" data-name="Group 4547">
          <path id="Path_7644" data-name="Path 7644" d="M97.533,18.771c3.317-4.269,5.389-6.5,5.417-10.23A8.477,8.477,0,1,0,86,8.413c-.029,3.836,2.083,6.059,5.422,10.357C88.1,19.267,86,20.514,86,22.04c0,1.022.945,1.939,2.66,2.582a19.085,19.085,0,0,0,11.633,0c1.715-.643,2.66-1.56,2.66-2.582C102.95,20.515,100.852,19.268,97.533,18.771ZM86.994,8.421a7.48,7.48,0,1,1,14.959.112c-.027,3.547-2.225,5.733-5.734,10.308-.626.816-1.2,1.587-1.745,2.341-.543-.755-1.106-1.512-1.741-2.341C89.079,14.074,86.967,12.053,86.994,8.421Zm7.479,16.112c-4.281,0-7.479-1.316-7.479-2.493,0-.873,1.912-1.975,5.127-2.357.711.933,1.334,1.78,1.945,2.645a.5.5,0,0,0,.407.211h0a.5.5,0,0,0,.407-.21c.605-.854,1.245-1.722,1.95-2.645,3.212.382,5.123,1.484,5.123,2.357C101.953,23.217,98.754,24.533,94.473,24.533Z" transform="translate(-85.996)" fill="#013f94"/>
        </g>
      </g>
    </g>
  </g>
</svg>
