<svg xmlns="http://www.w3.org/2000/svg" xmlns:xlink="http://www.w3.org/1999/xlink" width="192.547" height="55.953" viewBox="0 0 192.547 55.953">
  <defs>
    <clipPath id="clip-path">
      <path id="Path_419" data-name="Path 419" d="M96.025,57.011V86.7a2.657,2.657,0,0,0,.672,1.881l.135.134,16.657-16.657v-.268L96.562,55.13a2.627,2.627,0,0,0-.537,1.881" transform="translate(-96.025 -55.13)" fill="#36f7fd"/>
    </clipPath>
    <clipPath id="clip-path-2">
      <path id="Path_420" data-name="Path 420" d="M181.694,115.758v.4l5.508,5.508,6.717-3.627c1.881-1.075,1.881-2.821,0-3.9l-6.582-3.761-.135-.134Z" transform="translate(-181.694 -110.25)" fill="#f9d404"/>
    </clipPath>
    <clipPath id="clip-path-3">
      <path id="Path_421" data-name="Path 421" d="M98.682,154.934c.672.672,1.612.672,2.821.134l19.613-11.284-5.642-5.642Z" transform="translate(-98.682 -138.143)" fill="#e90b61"/>
    </clipPath>
    <clipPath id="clip-path-4">
      <path id="Path_422" data-name="Path 422" d="M98.682,53.523,115.473,70.18l5.642-5.642L101.5,53.389a3.062,3.062,0,0,0-1.47-.442,1.858,1.858,0,0,0-1.351.576" transform="translate(-98.682 -52.947)" fill="#35f475"/>
    </clipPath>
  </defs>
  <g id="playstore" transform="translate(0.5 0.5)">
    <path id="Path_413" data-name="Path 413" d="M197.595,55.492A5.509,5.509,0,0,1,192.084,61H11.571a5.517,5.517,0,0,1-5.523-5.509V11.563a5.524,5.524,0,0,1,5.523-5.516H192.077a5.515,5.515,0,0,1,5.516,5.514h0Z" transform="translate(-6.048 -6.047)" fill="none" stroke="#fff" stroke-width="1"/>
    <path id="Path_417" data-name="Path 417" d="M292.21,64.647a3.659,3.659,0,0,1-.94,2.687,4.179,4.179,0,1,1-2.955-7.119,3.577,3.577,0,0,1,1.612.4,2.928,2.928,0,0,1,1.209.94l-.672.672a2.5,2.5,0,0,0-2.149-.94,2.673,2.673,0,0,0-2.149.94,3.243,3.243,0,0,0,0,4.567,3.46,3.46,0,0,0,2.149.94,2.947,2.947,0,0,0,2.284-.94,2.225,2.225,0,0,0,.672-1.612h-2.955V64.11h3.9Zm6.179-3.358h-3.627v2.552h3.358v.94h-3.358v2.552h3.627v1.075h-4.7v-8.06h4.7Zm4.433,7.119h-1.075V61.289h-2.284v-.94h5.642v.94h-2.284ZM309,60.348h1.075v8.06H309Zm5.642,8.06h-1.075V61.289h-2.284v-.94h5.508v.94h-2.284v7.119ZM327.4,67.333a4.217,4.217,0,1,1,1.209-2.955,3.95,3.95,0,0,1-1.209,2.955m-5.1-.672a3.171,3.171,0,0,0,2.149.94,2.673,2.673,0,0,0,2.149-.94,3.24,3.24,0,0,0,.94-2.284,2.767,2.767,0,0,0-.94-2.284,3.17,3.17,0,0,0-2.149-.94,2.673,2.673,0,0,0-2.149.94,3.241,3.241,0,0,0-.94,2.284,2.768,2.768,0,0,0,.94,2.284m7.791,1.746v-8.06H331.3l3.9,6.314V60.348h1.075v8.06H335.2l-4.164-6.582v6.582Z" transform="translate(-227.897 -48.035)" fill="#fff"/>
    <path id="Path_418" data-name="Path 418" d="M318.427,125.628a5.652,5.652,0,0,0-5.776,5.776,5.733,5.733,0,0,0,5.776,5.776A5.651,5.651,0,0,0,324.2,131.4a5.573,5.573,0,0,0-5.776-5.776m0,9.134a3.5,3.5,0,0,1,0-6.985,3.254,3.254,0,0,1,3.224,3.493,3.334,3.334,0,0,1-3.224,3.493m-12.493-9.134a5.652,5.652,0,0,0-5.776,5.776,5.733,5.733,0,0,0,5.776,5.776,5.652,5.652,0,0,0,5.776-5.776,5.573,5.573,0,0,0-5.776-5.776m0,9.134a3.5,3.5,0,0,1,0-6.985,3.254,3.254,0,0,1,3.224,3.493,3.334,3.334,0,0,1-3.224,3.493m-14.911-7.388v2.418H296.8a5.079,5.079,0,0,1-1.343,3.09,5.946,5.946,0,0,1-4.433,1.746,6.254,6.254,0,0,1-6.314-6.448,6.337,6.337,0,0,1,6.314-6.448,6.661,6.661,0,0,1,4.433,1.746l1.746-1.746a8.608,8.608,0,0,0-6.045-2.418,8.867,8.867,0,1,0,0,17.732,7.73,7.73,0,0,0,6.179-2.552,8.087,8.087,0,0,0,2.149-5.642,5.037,5.037,0,0,0-.134-1.478Zm60.987,1.881a5.22,5.22,0,0,0-4.836-3.627c-2.955,0-5.373,2.284-5.373,5.776a5.622,5.622,0,0,0,5.642,5.776,5.511,5.511,0,0,0,4.7-2.552l-1.881-1.343a3.274,3.274,0,0,1-2.821,1.612,2.915,2.915,0,0,1-2.821-1.746l7.657-3.224-.269-.672Zm-7.791,1.881a3.263,3.263,0,0,1,2.955-3.358,2.376,2.376,0,0,1,2.149,1.209Zm-6.314,5.508h2.552V119.851H337.9Zm-4.03-9.806a4.423,4.423,0,0,0-3.09-1.343,5.772,5.772,0,0,0-5.508,5.776,5.562,5.562,0,0,0,5.508,5.642,3.857,3.857,0,0,0,2.955-1.343h.134v.806c0,2.149-1.209,3.358-3.09,3.358a2.985,2.985,0,0,1-2.821-2.015l-2.149.94a5.541,5.541,0,0,0,5.1,3.358c2.956,0,5.373-1.746,5.373-5.911V125.9h-2.418Zm-2.956,7.925a3.5,3.5,0,0,1,0-6.985,3.519,3.519,0,0,1,0,6.985M363.7,119.851h-6.045v16.791H360.2v-6.314H363.7a5.245,5.245,0,1,0,0-10.478m.134,8.06H360.2v-5.776h3.627a2.951,2.951,0,0,1,2.955,2.821A3.074,3.074,0,0,1,363.831,127.911Zm15.448-2.418a4.515,4.515,0,0,0-4.433,2.552l2.284.94a2.373,2.373,0,0,1,2.284-1.209,2.524,2.524,0,0,1,2.687,2.149v.134a5.329,5.329,0,0,0-2.552-.672c-2.418,0-4.836,1.343-4.836,3.761a3.935,3.935,0,0,0,4.164,3.761A3.78,3.78,0,0,0,382.1,135.3h.134v1.343h2.418v-6.448a5.084,5.084,0,0,0-5.373-4.7m-.269,9.269c-.806,0-2.015-.4-2.015-1.478,0-1.343,1.478-1.746,2.687-1.746a5.192,5.192,0,0,1,2.284.537,3.128,3.128,0,0,1-2.955,2.686m14.1-8.866-2.821,7.254h-.134L387.2,125.9h-2.687l4.433,10.209-2.552,5.642h2.552L395.8,125.9Zm-22.568,10.746H373.1V119.851h-2.552Z" transform="translate(-226.307 -95.18)" fill="#fff"/>
    <g id="Group_556" data-name="Group 556" transform="translate(18.199 11.15)">
      <g id="Group_555" data-name="Group 555" clip-path="url(#clip-path)">
        <rect id="Rectangle_578" data-name="Rectangle 578" width="17.463" height="33.583" transform="translate(0 0)" fill="#36f7fd"/>
      </g>
    </g>
    <g id="Group_558" data-name="Group 558" transform="translate(35.529 22.299)">
      <g id="Group_557" data-name="Group 557" clip-path="url(#clip-path-2)">
        <rect id="Rectangle_579" data-name="Rectangle 579" width="16.147" height="17.517" transform="translate(-4.223 9.551) rotate(-66.15)" fill="#f9d404"/>
      </g>
    </g>
    <g id="Group_560" data-name="Group 560" transform="translate(18.737 27.942)">
      <g id="Group_559" data-name="Group 559" clip-path="url(#clip-path-3)">
        <rect id="Rectangle_580" data-name="Rectangle 580" width="28.424" height="27.685" transform="matrix(0.778, -0.629, 0.629, 0.778, -8.538, 6.905)" fill="#e90b61"/>
      </g>
    </g>
    <g id="Group_562" data-name="Group 562" transform="translate(18.737 10.71)">
      <g id="Group_561" data-name="Group 561" clip-path="url(#clip-path-4)">
        <rect id="Rectangle_581" data-name="Rectangle 581" width="27.312" height="28.289" transform="translate(-8.313 10.885) rotate(-52.633)" fill="#35f475"/>
      </g>
    </g>
  </g>
</svg>
