<svg xmlns="http://www.w3.org/2000/svg" width="76" height="76" viewBox="0 0 76 76">
  <g id="target" transform="translate(-2 -2)">
    <path id="Path_15" data-name="Path 15" d="M2.254,53.96l3.361,4.481L2.1,66.634a1.266,1.266,0,0,0,1.774,1.609L29.21,54.31a1.266,1.266,0,0,0,0-2.219L3.876,38.157A1.266,1.266,0,0,0,2.1,39.766l3.512,8.193L2.254,52.44a1.267,1.267,0,0,0,0,1.52Zm5.725,5.394,11.891-2.8L5.88,64.25Zm11.891-9.51-11.891-2.8-2.1-4.9ZM7.583,49.556,23.068,53.2,7.583,56.844,4.85,53.2Z" transform="translate(0 9.6)" fill="#e72c3a"/>
    <path id="Path_16" data-name="Path 16" d="M55.6,2A20.276,20.276,0,0,0,35.4,21h-3.34l-3.429-3.429-1.791,1.791L28.476,21H23.3a13.3,13.3,0,0,0,0,26.6H37.342l3.429,3.429,1.791-1.791L40.924,47.6H65.1a6.967,6.967,0,0,1,0,13.933H53.591L50.162,58.1,48.371,59.9l1.638,1.638H30.267v2.533H50.009L48.371,65.7,50.162,67.5l3.429-3.429H65.1a9.5,9.5,0,0,0,0-19H40.924l1.638-1.638-1.791-1.791-3.429,3.429H23.3a10.767,10.767,0,0,1,0-21.533h5.176l-1.638,1.638,1.791,1.791,3.429-3.429H35.4A20.255,20.255,0,1,0,55.6,2Zm0,38A17.743,17.743,0,0,1,37.931,23.533h3.8a13.933,13.933,0,1,0,0-2.533h-3.8A17.724,17.724,0,1,1,55.6,40ZM52.7,26.962l3.8-3.8a1.266,1.266,0,0,0,0-1.791l-3.8-3.8L50.9,19.362,52.542,21H44.275a11.4,11.4,0,1,1,0,2.533h8.267L50.9,25.171Z" transform="translate(2.133 0)" fill="#003e88"/>
    <path id="Path_17" data-name="Path 17" d="M53.6,19.6A7.608,7.608,0,0,0,46,12v2.533a5.067,5.067,0,1,1,0,10.133V27.2A7.608,7.608,0,0,0,53.6,19.6Z" transform="translate(11.733 2.667)" fill="#003e88"/>
  </g>
</svg>
