<svg id="_007---Car-Insurance" data-name="007---Car-Insurance" xmlns="http://www.w3.org/2000/svg" width="96.667" height="96.666" viewBox="0 0 96.667 96.666">
  <path id="Shape" d="M38.2,40.069l12.586,8.959a1.611,1.611,0,0,0,1.869,0l12.586-8.959a9.957,9.957,0,0,0,4.2-8.078V12.928a1.611,1.611,0,0,0-.967-1.479L52.362,4.489a1.611,1.611,0,0,0-1.276,0l-16.111,6.96a1.611,1.611,0,0,0-.967,1.479V31.991A9.958,9.958,0,0,0,38.2,40.069Zm-.98-26.082,14.5-6.262,14.5,6.262v18a6.731,6.731,0,0,1-2.85,5.463l-11.65,8.284-11.65-8.294a6.726,6.726,0,0,1-2.85-5.454Z" transform="translate(20.783 2.662)" fill="#e72c3a"/>
  <path id="Shape-2" data-name="Shape" d="M45.089,31.011a1.611,1.611,0,0,0,2.225-.282L60.2,14.618A1.612,1.612,0,1,0,57.686,12.6L45.764,27.5l-5.186-3.9a1.611,1.611,0,0,0-1.933,2.578Z" transform="translate(23.222 7.333)" fill="#191919"/>
  <path id="Shape-3" data-name="Shape" d="M3.222,85.389H4.833v6.444a4.833,4.833,0,0,0,4.833,4.833h9.667a4.833,4.833,0,0,0,4.833-4.833V85.389H62.833v6.444a4.833,4.833,0,0,0,4.833,4.833h9.667a4.833,4.833,0,0,0,4.833-4.833V85.389h1.611A3.222,3.222,0,0,0,87,82.167V58a7.97,7.97,0,0,0-2.786-6.074l5.542-3.944a16.414,16.414,0,0,0,6.91-13.329v-23.3A1.611,1.611,0,0,0,95.7,9.876L73.145.132a1.611,1.611,0,0,0-1.276,0L49.3,9.876a1.611,1.611,0,0,0-.967,1.479v6.367H23.957A8.055,8.055,0,0,0,16.362,23.1L6.873,50.064A8.044,8.044,0,0,0,0,58V82.167A3.222,3.222,0,0,0,3.222,85.389Zm17.722,6.444a1.611,1.611,0,0,1-1.611,1.611H9.667a1.611,1.611,0,0,1-1.611-1.611V85.389H20.944ZM14.5,82.167H11.278V78.944H14.5Zm64.445,9.667a1.611,1.611,0,0,1-1.611,1.611H67.667a1.611,1.611,0,0,1-1.611-1.611V85.389H78.945Zm-3.222-9.667H72.5V78.944h3.222ZM51.556,12.413,72.5,3.365l20.944,9.048V34.647a13.184,13.184,0,0,1-5.557,10.7L72.5,56.311,57.112,45.356a13.184,13.184,0,0,1-5.557-10.7Zm24.167,47.2a1.611,1.611,0,0,1,1.611,1.611v3.222a1.611,1.611,0,0,1-1.611,1.611H66.056a1.611,1.611,0,0,1-1.611-1.611,4.833,4.833,0,0,1,4.833-4.833ZM48.333,27.389v3.222H37.056V27.389Zm0-3.222H45.111V20.944h3.222Zm-28.931,0a4.833,4.833,0,0,1,4.555-3.222H41.889v3.222H37.056a3.222,3.222,0,0,0-3.222,3.222v3.222a3.222,3.222,0,0,0,3.222,3.222H48.333v.82a16.414,16.414,0,0,0,6.91,13.329L58,49.944H10.33ZM3.222,58a4.833,4.833,0,0,1,4.833-4.833H62.527L67.4,56.634a8.056,8.056,0,0,0-6.174,7.811,4.833,4.833,0,0,0,4.833,4.833h9.667a4.833,4.833,0,0,0,4.833-4.833V61.222a4.833,4.833,0,0,0-3.085-4.493l3.989-2.84A4.766,4.766,0,0,1,83.778,58V82.167H78.945V78.944a3.222,3.222,0,0,0-3.222-3.222H72.5a3.222,3.222,0,0,0-3.222,3.222v3.222H17.722V78.944A3.222,3.222,0,0,0,14.5,75.722H11.278a3.222,3.222,0,0,0-3.222,3.222v3.222H3.222Z" transform="translate(0 0)" fill="#e72c3a"/>
  <path id="Shape-4" data-name="Shape" d="M23.1,15H20.347a4.844,4.844,0,0,0-4.559,3.222L9.74,35.41a1.611,1.611,0,1,0,3.04,1.07L18.828,19.3a1.611,1.611,0,0,1,1.519-1.076H23.1A1.611,1.611,0,1,0,23.1,15Z" transform="translate(5.896 9.166)" fill="#e72c3a"/>
  <path id="Shape-5" data-name="Shape" d="M8.833,47.889H18.5a4.833,4.833,0,0,0,4.833-4.833A8.065,8.065,0,0,0,15.278,35H8.833A4.833,4.833,0,0,0,4,39.833v3.222A4.833,4.833,0,0,0,8.833,47.889ZM7.222,39.833a1.611,1.611,0,0,1,1.611-1.611h6.444a4.833,4.833,0,0,1,4.833,4.833A1.611,1.611,0,0,1,18.5,44.667H8.833a1.611,1.611,0,0,1-1.611-1.611Z" transform="translate(2.444 21.389)" fill="#e72c3a"/>
  <path id="Shape-6" data-name="Shape" d="M21.222,53.889H43.778A3.222,3.222,0,0,0,47,50.667V44.222A3.222,3.222,0,0,0,43.778,41H21.222A3.222,3.222,0,0,0,18,44.222v6.444A3.222,3.222,0,0,0,21.222,53.889Zm0-9.667H43.778v6.444H21.222Z" transform="translate(11 25.055)" fill="#191919"/>
</svg>
