<?xml version="1.0" standalone="no"?>
<!DOCTYPE svg PUBLIC "-//W3C//DTD SVG 20010904//EN"
 "http://www.w3.org/TR/2001/REC-SVG-20010904/DTD/svg10.dtd">
<svg version="1.0" xmlns="http://www.w3.org/2000/svg"
 width="198.000000pt" height="198.000000pt" viewBox="0 0 198.000000 198.000000"
 preserveAspectRatio="xMidYMid meet">
<metadata>
Created by potrace 1.14, written by Peter Selinger 2001-2017
</metadata>
<g transform="translate(0.000000,198.000000) scale(0.100000,-0.100000)"
fill="#000000" stroke="none">
<path d="M802 1918 c-6 -29 -14 -67 -17 -84 -2 -17 -12 -66 -20 -110 -9 -43
-18 -90 -21 -104 -43 -223 -66 -338 -68 -350 -5 -23 -18 -99 -17 -105 0 -2 -5
-19 -10 -37 -12 -44 -23 -116 -23 -153 0 -33 1 -38 40 -230 14 -71 28 -141 31
-155 2 -14 20 -104 40 -200 19 -96 37 -186 40 -200 11 -63 35 -175 38 -178 1
-1 6 21 10 50 5 29 9 55 10 58 1 3 5 25 9 50 4 25 18 106 32 180 13 74 26 151
29 170 3 19 8 42 10 50 2 8 6 31 9 50 6 36 42 246 55 315 4 26 1 76 -11 140
-9 55 -20 116 -23 135 -9 56 -55 333 -61 360 -2 14 -13 79 -24 145 -11 66 -22
131 -25 145 -3 14 -8 43 -11 65 -4 22 -7 41 -8 43 -2 1 -8 -22 -14 -50z"/>
<path d="M435 1407 c-27 -117 -50 -214 -51 -217 0 -3 -4 -21 -8 -41 -6 -27 0
-70 24 -165 17 -71 33 -137 36 -146 2 -10 6 -26 9 -35 2 -10 12 -49 21 -87 10
-44 19 -64 24 -55 4 8 29 112 55 232 l49 219 -32 156 c-18 86 -34 166 -36 177
-18 86 -36 168 -39 171 -2 2 -25 -92 -52 -209z"/>
<path d="M1139 1385 c-1 -8 -2 -18 -3 -22 -1 -5 -5 -24 -9 -43 -4 -19 -9 -46
-12 -60 -3 -14 -7 -37 -10 -53 -3 -15 -22 -105 -41 -200 -20 -94 -37 -188 -37
-207 -1 -19 25 -159 58 -310 52 -247 71 -317 72 -278 1 7 30 142 65 300 l65
287 -18 83 c-11 46 -21 97 -24 113 -4 17 -19 89 -35 160 -15 72 -33 156 -40
188 -11 53 -28 77 -31 42z"/>
<path d="M1681 1100 c-18 -58 -36 -115 -41 -127 -7 -16 0 -47 24 -120 52 -151
47 -147 68 -68 10 39 21 80 23 92 3 12 9 33 13 45 6 16 -2 65 -23 153 l-33
130 -31 -105z"/>
<path d="M212 1154 c-6 -22 -19 -80 -31 -129 l-21 -91 30 -119 c33 -127 41
-148 40 -102 0 1 9 34 19 73 41 147 41 141 6 289 -9 39 -19 78 -21 89 -6 32
-12 29 -22 -10z"/>
<path d="M1421 972 c-53 -220 -54 -227 -36 -305 9 -40 18 -81 21 -91 11 -58
37 -156 40 -153 2 2 22 74 44 160 l40 158 -21 82 c-11 45 -22 89 -24 97 -5 25
-37 145 -39 147 -1 1 -12 -42 -25 -95z"/>
</g>
</svg>
