<svg xmlns="http://www.w3.org/2000/svg" width="274.52" height="366.159" viewBox="0 0 274.52 366.159">
  <g id="businessman" opacity="0.115">
    <path id="Path_155" data-name="Path 155" d="M95.4,219.753l-.09.036c-15.046,6.193-31.241,23.938-31.241,48.264v83.438a14.684,14.684,0,0,0,14.667,14.667h159.39a5.364,5.364,0,0,0,0-10.727H216.477v-56.5a5.364,5.364,0,0,0-10.727,0v56.5h-8.862V223.74h8.862v50.166a5.364,5.364,0,0,0,10.727,0V232.893a10.416,10.416,0,0,0,14.995,1.772L258.4,212.336l44.915,17.394c12.206,5.05,24.546,19.821,24.546,38.324v83.438a3.945,3.945,0,0,1-3.94,3.94h-28.39V262.576a5.364,5.364,0,0,0-10.727,0v92.856H263.155a5.364,5.364,0,1,0,0,10.727h60.766a14.684,14.684,0,0,0,14.667-14.667V268.054c0-20.846-12.846-40.693-31.24-48.264l-.1-.042-47.906-18.553-24.1-9.334-.011-14.156a56.912,56.912,0,0,0,22.44-36.957A25.79,25.79,0,0,0,276.6,95.419V75.27a75.27,75.27,0,1,0-150.541,0V95.419a25.79,25.79,0,0,0,18.873,45.334,55.69,55.69,0,0,0,22.459,37.036v13.849L95.4,219.753Zm90.763,135.678H117.854V262.576a5.364,5.364,0,0,0-10.727,0v92.856H78.736a3.945,3.945,0,0,1-3.94-3.94V268.054c0-20.676,14.668-34.237,24.554-38.327l44.787-17.491,27.047,22.43a10.415,10.415,0,0,0,14.977-1.749V355.431ZM209.689,206.07a10.587,10.587,0,0,0-3.731,6.942H196.7a10.51,10.51,0,0,0-3.731-6.942l-14.974-12.417a14.057,14.057,0,0,0,.124-1.671v-8.1a58.944,58.944,0,0,0,46.386.137l.006,8.009a10.731,10.731,0,0,0,.132,1.641Zm37.255,1.829-22.073,18.3-8.132-12.044L231.5,201.919Zm28-92.863a15.1,15.1,0,0,1-16.6,15v-30A15.083,15.083,0,0,1,274.94,115.036Zm-130.621,15a15.075,15.075,0,1,1,0-30Zm.069-40.758a26.553,26.553,0,0,0-7.6.656V75.27a64.543,64.543,0,1,1,129.086,0V89.936a26.566,26.566,0,0,0-7.6-.655c-1.439-21.213-23.959-34.013-43.173-24.692h0c-9.96,4.832-17.566,4.835-27.531,0-19.364-9.4-41.75,3.669-43.174,24.692Zm10.658,43.146V91.347c0-14.536,15.175-23.25,27.834-17.107,12.925,6.27,23.954,6.28,36.9,0,12.7-6.162,27.834,2.608,27.834,17.107v40.7a45.8,45.8,0,0,1-13.584,32.557C205.59,193.011,155.046,173.331,155.046,132.427Zm15.917,69.332,14.954,12.4L177.786,226.2l-22.224-18.429Z" transform="translate(-64.068 0)" fill="#bbb"/>
  </g>
</svg>
