<svg xmlns="http://www.w3.org/2000/svg" xmlns:xlink="http://www.w3.org/1999/xlink" width="286.887" height="87.968" viewBox="0 0 286.887 87.968">
  <defs>
    <linearGradient id="linear-gradient" x1="-2.665" y1="1.229" x2="1.406" y2="1.497" gradientUnits="objectBoundingBox">
      <stop offset="0" stop-color="#1d44b2"/>
      <stop offset="1" stop-color="#1a3da1"/>
    </linearGradient>
    <linearGradient id="linear-gradient-2" x1="-0.847" y1="0.217" x2="1.739" y2="1" gradientUnits="objectBoundingBox">
      <stop offset="0" stop-color="#183892"/>
      <stop offset="1" stop-color="#16358c"/>
    </linearGradient>
    <linearGradient id="linear-gradient-3" x1="-3.177" y1="1.151" x2="-3.107" y2="1.151" gradientUnits="objectBoundingBox">
      <stop offset="0" stop-color="#2b63ff"/>
      <stop offset="1" stop-color="#2b63ff"/>
    </linearGradient>
    <clipPath id="clip-path">
      <rect id="Rectangle_3199" data-name="Rectangle 3199" width="286.887" height="87.967" fill="#fff"/>
    </clipPath>
    <clipPath id="clip-path-2">
      <path id="Path_2161" data-name="Path 2161" d="M32.659,0,24.6,43.983l8.057,43.984,8.056-43.984Z" transform="translate(-24.602 0.001)" fill="#224ecb"/>
    </clipPath>
    <clipPath id="clip-path-3">
      <path id="Path_2162" data-name="Path 2162" d="M10.8,40.239,16.07,63.451l5.269-23.211L16.07,17.029Z" transform="translate(-10.801 -17.029)" fill="#2a60f7"/>
    </clipPath>
    <clipPath id="clip-path-4">
      <path id="Path_2163" data-name="Path 2163" d="M45.168,55.8,51.15,83.888,57.132,55.8,51.15,27.7Z" transform="translate(-45.168 -27.704)" fill="url(#linear-gradient)"/>
    </clipPath>
    <clipPath id="clip-path-5">
      <path id="Path_2164" data-name="Path 2164" d="M62.983,61.568l3.733,15.8,3.734-15.8-3.734-15.8Z" transform="translate(-62.983 -45.771)" fill="url(#linear-gradient-2)"/>
    </clipPath>
    <clipPath id="clip-path-6">
      <path id="Path_2165" data-name="Path 2165" d="M0,51.844,2.966,63.936,5.933,51.844,2.966,39.753Z" transform="translate(0 -39.753)" fill="url(#linear-gradient-3)"/>
    </clipPath>
    <clipPath id="clip-path-7">
      <path id="Path_2166" data-name="Path 2166" d="M77.638,51.28,80.6,63.017,83.571,51.28,80.6,39.543Z" transform="translate(-77.638 -39.543)" fill="#122c75"/>
    </clipPath>
  </defs>
  <g id="Group_7169" data-name="Group 7169" transform="translate(-9831.13 157)">
    <g id="Group_7155" data-name="Group 7155" transform="translate(9831.13 -156.999)">
      <g id="Group_7154" data-name="Group 7154" transform="translate(0 0)" clip-path="url(#clip-path)">
        <path id="Path_2130" data-name="Path 2130" d="M222.8,45.065a3.148,3.148,0,0,0-1.075-.778,3.494,3.494,0,0,0-1.429-.277A3.358,3.358,0,0,0,217.67,45.2a3.91,3.91,0,0,0-.715,1.264,4.713,4.713,0,0,0,0,3.029,3.829,3.829,0,0,0,.715,1.258,3.44,3.44,0,0,0,1.129.86,3.4,3.4,0,0,0,1.5.321,5.056,5.056,0,0,0,1.343-.167,3.334,3.334,0,0,0,.99-.423V48.574h-2.016v-.823h2.9v4.112a5.451,5.451,0,0,1-1.528.671,6.55,6.55,0,0,1-1.7.219,4.5,4.5,0,0,1-1.809-.36,4.269,4.269,0,0,1-1.428-1,4.542,4.542,0,0,1-.934-1.51,5.288,5.288,0,0,1-.337-1.916,5.213,5.213,0,0,1,.343-1.916,4.594,4.594,0,0,1,.947-1.511,4.333,4.333,0,0,1,1.429-1,4.419,4.419,0,0,1,1.789-.359,4.594,4.594,0,0,1,1.807.327,3.885,3.885,0,0,1,1.32.907Z" transform="translate(-34.172 -6.84)" fill="#fff"/>
        <path id="Path_2131" data-name="Path 2131" d="M232.556,49.928v.193a2.036,2.036,0,0,1-.013.219H227.8a2.451,2.451,0,0,0,.172.848,2.145,2.145,0,0,0,.439.694,2.121,2.121,0,0,0,.66.47,2.085,2.085,0,0,0,1.936-.142,2.307,2.307,0,0,0,.715-.725l.622.513a3.145,3.145,0,0,1-1.13.978,3.043,3.043,0,0,1-1.326.3,2.91,2.91,0,0,1-1.178-.238,2.742,2.742,0,0,1-.934-.662,3.138,3.138,0,0,1-.617-1,3.431,3.431,0,0,1-.226-1.26,3.5,3.5,0,0,1,.221-1.26,3.07,3.07,0,0,1,.611-1,2.793,2.793,0,0,1,.915-.662,2.717,2.717,0,0,1,1.136-.238,2.781,2.781,0,0,1,1.185.238,2.463,2.463,0,0,1,.855.642,2.832,2.832,0,0,1,.519.945,3.7,3.7,0,0,1,.177,1.157m-.842-.283a2.237,2.237,0,0,0-.519-1.408,1.717,1.717,0,0,0-1.374-.559,1.842,1.842,0,0,0-.769.161,2.031,2.031,0,0,0-.623.437,2.179,2.179,0,0,0-.428.63,2.12,2.12,0,0,0-.184.739Z" transform="translate(-35.94 -7.435)" fill="#fff"/>
        <path id="Path_2132" data-name="Path 2132" d="M237.146,47.273a2.029,2.029,0,0,1,1.129-.328,2.45,2.45,0,0,1,.482.051,1.515,1.515,0,0,1,.488.2,1.821,1.821,0,0,1,.44.392,2.262,2.262,0,0,1,.348.63,2.222,2.222,0,0,1,.8-.945,2.163,2.163,0,0,1,1.2-.328,1.964,1.964,0,0,1,1.632.682,2.81,2.81,0,0,1,.543,1.8v3.69h-.832v-3.33a3.046,3.046,0,0,0-.335-1.53,1.214,1.214,0,0,0-1.143-.578,1.432,1.432,0,0,0-.763.193,1.512,1.512,0,0,0-.5.508,2.35,2.35,0,0,0-.274.715,3.887,3.887,0,0,0-.085.822v3.2h-.832v-3.51a4.826,4.826,0,0,0-.061-.8,3.214,3.214,0,0,0-.214-.61,1.879,1.879,0,0,0-.422-.385,1.517,1.517,0,0,0-.683-.136,1.376,1.376,0,0,0-.593.141,1.56,1.56,0,0,0-.538.431,2.241,2.241,0,0,0-.385.733,3.35,3.35,0,0,0-.146,1.048v3.085h-.831V48.424c0-.162,0-.373-.012-.63s-.02-.489-.037-.7h.794c.016.163.029.343.036.54s.012.36.012.489h.024a2.013,2.013,0,0,1,.752-.855" transform="translate(-37.3 -7.435)" fill="#fff"/>
        <path id="Path_2133" data-name="Path 2133" d="M255.261,49.222a1.363,1.363,0,0,0-1.526-1.544,2.337,2.337,0,0,0-.953.193,2.28,2.28,0,0,0-.746.514l-.465-.578a2.737,2.737,0,0,1,.935-.618,3.362,3.362,0,0,1,1.313-.244,2.712,2.712,0,0,1,.867.136,2.025,2.025,0,0,1,.709.4,1.849,1.849,0,0,1,.476.681,2.512,2.512,0,0,1,.171.965v2.636q0,.347.024.72a5.548,5.548,0,0,0,.073.63H255.4c-.024-.146-.046-.3-.061-.476s-.024-.338-.024-.5h-.025a2.46,2.46,0,0,1-.885.868,2.668,2.668,0,0,1-1.869.167,1.874,1.874,0,0,1-.635-.316,1.707,1.707,0,0,1-.666-1.419,1.68,1.68,0,0,1,.336-1.1,2.007,2.007,0,0,1,.9-.606,5.054,5.054,0,0,1,1.289-.258q.726-.058,1.508-.058Zm-.244.885q-.513,0-1.033.045a4.265,4.265,0,0,0-.94.18,1.76,1.76,0,0,0-.69.391.9.9,0,0,0-.268.682,1.13,1.13,0,0,0,.115.54.972.972,0,0,0,.311.353,1.3,1.3,0,0,0,.433.194,2.032,2.032,0,0,0,.482.057,1.808,1.808,0,0,0,.782-.161,1.668,1.668,0,0,0,.575-.437,1.975,1.975,0,0,0,.354-.636,2.359,2.359,0,0,0,.121-.758v-.45Z" transform="translate(-39.787 -7.435)" fill="#fff"/>
        <path id="Path_2134" data-name="Path 2134" d="M260.079,47.1c.017.163.029.343.037.54s.012.359.012.488h.024a1.935,1.935,0,0,1,.794-.854,2.23,2.23,0,0,1,1.161-.328,1.963,1.963,0,0,1,1.631.681,2.812,2.812,0,0,1,.543,1.8v3.69h-.831V49.786a4.575,4.575,0,0,0-.073-.862,1.863,1.863,0,0,0-.25-.662,1.22,1.22,0,0,0-.476-.431,1.634,1.634,0,0,0-.752-.155,1.551,1.551,0,0,0-.641.141,1.589,1.589,0,0,0-.556.432,2.206,2.206,0,0,0-.391.732,3.351,3.351,0,0,0-.146,1.048v3.085h-.831V48.424c0-.163,0-.373-.011-.63s-.021-.488-.037-.694Z" transform="translate(-41.063 -7.435)" fill="#fff"/>
        <path id="Path_2135" data-name="Path 2135" d="M272.253,51.433a2.394,2.394,0,0,1-.953.874,2.658,2.658,0,0,1-1.209.3,2.94,2.94,0,0,1-1.215-.244,2.783,2.783,0,0,1-.928-.669,3.038,3.038,0,0,1-.6-1,3.744,3.744,0,0,1,0-2.494,3.033,3.033,0,0,1,.6-1,2.783,2.783,0,0,1,.928-.669,2.94,2.94,0,0,1,1.215-.244,2.613,2.613,0,0,1,1.209.3,2.414,2.414,0,0,1,.953.894h.024V42.729h.832v9.72h-.832V51.433Zm-4.238-1.993a3.025,3.025,0,0,0,.146.945,2.32,2.32,0,0,0,.422.772,1.928,1.928,0,0,0,.677.513,2.156,2.156,0,0,0,.916.187,2.063,2.063,0,0,0,.88-.187,2.125,2.125,0,0,0,.7-.507,2.315,2.315,0,0,0,.459-.765,2.863,2.863,0,0,0,0-1.916,2.4,2.4,0,0,0-.459-.772,2.109,2.109,0,0,0-.7-.514,2.222,2.222,0,0,0-1.8.007,2,2,0,0,0-.677.521,2.316,2.316,0,0,0-.422.771,3.025,3.025,0,0,0-.146.945" transform="translate(-42.306 -6.767)" fill="#fff"/>
        <path id="Path_2136" data-name="Path 2136" d="M279.912,50.7a1.686,1.686,0,0,0,.458.906,1.271,1.271,0,0,0,.947.366,1.453,1.453,0,0,0,.746-.173,1.346,1.346,0,0,0,.47-.469,1.967,1.967,0,0,0,.244-.674,4.533,4.533,0,0,0,.067-.789V43.462h.879v6.481a5.342,5.342,0,0,1-.092.951,2.711,2.711,0,0,1-.348.926,2.092,2.092,0,0,1-.709.7,2.2,2.2,0,0,1-1.161.276,2.255,2.255,0,0,1-2.32-1.864Z" transform="translate(-44.2 -6.883)" fill="#fff"/>
        <path id="Path_2137" data-name="Path 2137" d="M292.156,49.928v.193a2.021,2.021,0,0,1-.013.219H287.4a2.451,2.451,0,0,0,.172.848,2.144,2.144,0,0,0,.439.694,2.119,2.119,0,0,0,.66.47,2.085,2.085,0,0,0,1.936-.142,2.307,2.307,0,0,0,.715-.725l.622.513a3.144,3.144,0,0,1-1.129.978,3.044,3.044,0,0,1-1.326.3,2.911,2.911,0,0,1-1.178-.238,2.742,2.742,0,0,1-.934-.662,3.137,3.137,0,0,1-.617-1,3.432,3.432,0,0,1-.226-1.26,3.5,3.5,0,0,1,.221-1.26,3.07,3.07,0,0,1,.611-1,2.794,2.794,0,0,1,.915-.662,2.717,2.717,0,0,1,1.136-.238,2.781,2.781,0,0,1,1.185.238,2.463,2.463,0,0,1,.855.642,2.832,2.832,0,0,1,.519.945,3.7,3.7,0,0,1,.177,1.157m-.842-.283a2.237,2.237,0,0,0-.519-1.408,1.717,1.717,0,0,0-1.374-.559,1.842,1.842,0,0,0-.769.161,2.031,2.031,0,0,0-.623.437,2.179,2.179,0,0,0-.428.63,2.122,2.122,0,0,0-.183.739Z" transform="translate(-45.379 -7.435)" fill="#fff"/>
        <path id="Path_2138" data-name="Path 2138" d="M295.15,47.128l1.38,4.886h.024l1.539-4.886h.805l1.564,4.886h.024l1.369-4.886h.879l-1.809,6.017h-.9L298.5,48.273h-.025l-1.5,4.872h-.9l-1.809-6.017Z" transform="translate(-46.601 -7.464)" fill="#fff"/>
        <path id="Path_2139" data-name="Path 2139" d="M310.993,49.928v.193a2.013,2.013,0,0,1-.013.219h-4.739a2.449,2.449,0,0,0,.172.848,2.144,2.144,0,0,0,.439.694,2.12,2.12,0,0,0,.66.47,2.085,2.085,0,0,0,1.936-.142,2.308,2.308,0,0,0,.715-.725l.622.513a3.145,3.145,0,0,1-1.13.978,3.043,3.043,0,0,1-1.326.3,2.91,2.91,0,0,1-1.178-.238,2.742,2.742,0,0,1-.934-.662,3.138,3.138,0,0,1-.617-1,3.431,3.431,0,0,1-.226-1.26,3.5,3.5,0,0,1,.22-1.26,3.071,3.071,0,0,1,.611-1,2.793,2.793,0,0,1,.915-.662,2.716,2.716,0,0,1,1.136-.238,2.781,2.781,0,0,1,1.185.238,2.463,2.463,0,0,1,.855.642,2.832,2.832,0,0,1,.519.945,3.7,3.7,0,0,1,.177,1.157m-.842-.283a2.237,2.237,0,0,0-.519-1.408,1.717,1.717,0,0,0-1.374-.559,1.841,1.841,0,0,0-.769.161,2.033,2.033,0,0,0-.623.437,2.18,2.18,0,0,0-.428.63,2.12,2.12,0,0,0-.183.739Z" transform="translate(-48.362 -7.435)" fill="#fff"/>
        <rect id="Rectangle_3195" data-name="Rectangle 3195" width="0.831" height="9.72" transform="translate(264.316 35.961)" fill="#fff"/>
        <path id="Path_2140" data-name="Path 2140" d="M317.514,47.793c-.008-.258-.02-.489-.037-.694h.794q.025.245.037.539c.008.2.012.36.012.489h.024a2.054,2.054,0,0,1,.733-.855,1.933,1.933,0,0,1,1.1-.327c.106,0,.2,0,.287.013a1.522,1.522,0,0,1,.263.051l-.109.836a1.6,1.6,0,0,0-.244-.051,2.243,2.243,0,0,0-.343-.026,1.623,1.623,0,0,0-.635.129,1.355,1.355,0,0,0-.53.4,2.14,2.14,0,0,0-.367.705,3.349,3.349,0,0,0-.141,1.033v3.078h-.831V48.424c0-.163,0-.373-.012-.63" transform="translate(-50.279 -7.435)" fill="#fff"/>
        <path id="Path_2141" data-name="Path 2141" d="M324.411,52.206h.024l1.771-5.078h.9L324.263,54.7a3.219,3.219,0,0,1-.653,1.112,1.5,1.5,0,0,1-1.143.417,3.607,3.607,0,0,1-.744-.077l.085-.8a1.84,1.84,0,0,0,.611.1.854.854,0,0,0,.672-.276,2.423,2.423,0,0,0,.427-.791l.465-1.26-2.442-6h.927Z" transform="translate(-50.922 -7.464)" fill="#fff"/>
        <rect id="Rectangle_3196" data-name="Rectangle 3196" width="0.88" height="9.102" transform="translate(182.068 50.993)" fill="#fff"/>
        <path id="Path_2142" data-name="Path 2142" d="M220.634,64.225c.017.163.029.343.037.54s.012.359.012.488h.024a1.934,1.934,0,0,1,.794-.854,2.23,2.23,0,0,1,1.161-.328,1.963,1.963,0,0,1,1.631.681,2.812,2.812,0,0,1,.543,1.8v3.69H224V66.912a4.57,4.57,0,0,0-.073-.862,1.862,1.862,0,0,0-.25-.662,1.22,1.22,0,0,0-.476-.431,1.634,1.634,0,0,0-.752-.155,1.551,1.551,0,0,0-.641.141,1.588,1.588,0,0,0-.556.432,2.205,2.205,0,0,0-.391.732,3.351,3.351,0,0,0-.146,1.048v3.085h-.832V65.55c0-.163,0-.373-.011-.63s-.021-.488-.037-.694Z" transform="translate(-34.816 -10.147)" fill="#fff"/>
        <path id="Path_2143" data-name="Path 2143" d="M231.106,65.652a1.516,1.516,0,0,0-.556-.611,1.549,1.549,0,0,0-.849-.237,1.9,1.9,0,0,0-.439.051,1.171,1.171,0,0,0-.391.167.88.88,0,0,0-.274.3.837.837,0,0,0-.1.424.735.735,0,0,0,.329.649,3.043,3.043,0,0,0,1.039.38,3.374,3.374,0,0,1,1.5.636,1.412,1.412,0,0,1,.482,1.125,1.83,1.83,0,0,1-.189.868,1.725,1.725,0,0,1-.495.579,1.951,1.951,0,0,1-.69.321,3.156,3.156,0,0,1-.776.1,2.97,2.97,0,0,1-1.258-.283,2.36,2.36,0,0,1-1-.887l.659-.514a1.84,1.84,0,0,0,.648.668,1.722,1.722,0,0,0,.94.27,2.521,2.521,0,0,0,.513-.051,1.15,1.15,0,0,0,.428-.18.951.951,0,0,0,.294-.328,1.02,1.02,0,0,0,.109-.495.768.768,0,0,0-.433-.714,5.509,5.509,0,0,0-1.251-.443q-.257-.064-.544-.161A1.842,1.842,0,0,1,228.26,67a1.5,1.5,0,0,1-.4-.469,1.426,1.426,0,0,1-.159-.707,1.7,1.7,0,0,1,.171-.791,1.557,1.557,0,0,1,.458-.539,2.016,2.016,0,0,1,.654-.316,2.8,2.8,0,0,1,.757-.1,2.55,2.55,0,0,1,1.161.283,1.91,1.91,0,0,1,.843.8Z" transform="translate(-36.018 -10.147)" fill="#fff"/>
        <path id="Path_2144" data-name="Path 2144" d="M236.862,64.668H235.25v3.51a2.072,2.072,0,0,0,.061.553.8.8,0,0,0,.177.341.6.6,0,0,0,.275.167,1.268,1.268,0,0,0,.343.045,1.366,1.366,0,0,0,.359-.051,1.761,1.761,0,0,0,.36-.141l.037.758a2.277,2.277,0,0,1-.458.135,2.769,2.769,0,0,1-.519.045,2,2,0,0,1-.488-.065,1.205,1.205,0,0,1-.477-.244,1.333,1.333,0,0,1-.359-.488,1.968,1.968,0,0,1-.141-.81V64.668h-1.186v-.733h1.186v-1.7h.83v1.7h1.613Z" transform="translate(-36.937 -9.857)" fill="#fff"/>
        <path id="Path_2145" data-name="Path 2145" d="M239.922,61.388a.581.581,0,0,1-.183.444.554.554,0,0,1-.806,0,.627.627,0,0,1,0-.886.587.587,0,0,1,.99.443m-.171,8.331h-.831V63.7h.831Z" transform="translate(-37.811 -9.624)" fill="#fff"/>
        <path id="Path_2146" data-name="Path 2146" d="M244.8,64.668h-1.613v3.51a2.072,2.072,0,0,0,.061.553.8.8,0,0,0,.177.341.6.6,0,0,0,.275.167,1.268,1.268,0,0,0,.343.045,1.366,1.366,0,0,0,.359-.051,1.761,1.761,0,0,0,.36-.141l.037.758a2.278,2.278,0,0,1-.458.135,2.769,2.769,0,0,1-.519.045,2,2,0,0,1-.488-.065,1.205,1.205,0,0,1-.477-.244,1.333,1.333,0,0,1-.359-.488,1.968,1.968,0,0,1-.141-.81V64.668h-1.186v-.733h1.186v-1.7h.83v1.7H244.8Z" transform="translate(-38.194 -9.857)" fill="#fff"/>
        <path id="Path_2147" data-name="Path 2147" d="M251.019,70.271c-.017-.162-.029-.343-.037-.54s-.012-.359-.012-.488h-.024a1.936,1.936,0,0,1-.794.855,2.239,2.239,0,0,1-1.161.327,1.96,1.96,0,0,1-1.631-.681,2.805,2.805,0,0,1-.543-1.8v-3.69h.831v3.329a4.57,4.57,0,0,0,.073.862,1.872,1.872,0,0,0,.25.662,1.224,1.224,0,0,0,.476.43,1.634,1.634,0,0,0,.752.155,1.537,1.537,0,0,0,.641-.141,1.586,1.586,0,0,0,.556-.431,2.211,2.211,0,0,0,.391-.733,3.351,3.351,0,0,0,.146-1.048V64.254h.832v4.693c0,.162,0,.373.011.63s.021.488.037.694Z" transform="translate(-39.088 -10.176)" fill="#fff"/>
        <path id="Path_2148" data-name="Path 2148" d="M257.541,64.668h-1.613v3.51a2.073,2.073,0,0,0,.061.553.8.8,0,0,0,.177.341.6.6,0,0,0,.275.167,1.268,1.268,0,0,0,.343.045,1.366,1.366,0,0,0,.359-.051,1.759,1.759,0,0,0,.36-.141l.037.758a2.278,2.278,0,0,1-.458.135,2.768,2.768,0,0,1-.519.045,2,2,0,0,1-.488-.065,1.206,1.206,0,0,1-.477-.244,1.332,1.332,0,0,1-.359-.488,1.967,1.967,0,0,1-.141-.81V64.668h-1.186v-.733H255.1v-1.7h.83v1.7h1.613Z" transform="translate(-40.212 -9.857)" fill="#fff"/>
        <path id="Path_2149" data-name="Path 2149" d="M264.742,67.054v.193a2.021,2.021,0,0,1-.013.219H259.99a2.449,2.449,0,0,0,.172.848,2.144,2.144,0,0,0,.439.694,2.12,2.12,0,0,0,.66.47,2.085,2.085,0,0,0,1.936-.142,2.306,2.306,0,0,0,.715-.725l.622.513a3.146,3.146,0,0,1-1.129.978,3.043,3.043,0,0,1-1.326.3,2.911,2.911,0,0,1-1.178-.238,2.742,2.742,0,0,1-.934-.662,3.139,3.139,0,0,1-.617-1,3.432,3.432,0,0,1-.226-1.26,3.5,3.5,0,0,1,.221-1.26,3.07,3.07,0,0,1,.611-1,2.794,2.794,0,0,1,.915-.662,2.717,2.717,0,0,1,1.136-.238,2.782,2.782,0,0,1,1.185.238,2.463,2.463,0,0,1,.855.642,2.832,2.832,0,0,1,.519.945,3.7,3.7,0,0,1,.177,1.157m-.843-.283a2.236,2.236,0,0,0-.519-1.408,1.717,1.717,0,0,0-1.374-.559,1.841,1.841,0,0,0-.769.161,2.033,2.033,0,0,0-.623.437,2.178,2.178,0,0,0-.427.63,2.121,2.121,0,0,0-.184.739Z" transform="translate(-41.037 -10.147)" fill="#fff"/>
        <path id="Path_2150" data-name="Path 2150" d="M276.857,67.234a3.431,3.431,0,0,1-.226,1.26,3.022,3.022,0,0,1-.63,1,2.837,2.837,0,0,1-.965.663,3.293,3.293,0,0,1-2.455,0,2.857,2.857,0,0,1-.965-.663,3.035,3.035,0,0,1-.629-1,3.632,3.632,0,0,1,0-2.52,3.044,3.044,0,0,1,.629-1,2.855,2.855,0,0,1,.965-.662,3.282,3.282,0,0,1,2.455,0,2.835,2.835,0,0,1,.965.662,3.031,3.031,0,0,1,.63,1,3.431,3.431,0,0,1,.226,1.26m-.879,0a2.885,2.885,0,0,0-.153-.945,2.355,2.355,0,0,0-.433-.771A2.041,2.041,0,0,0,273.8,64.8a2.024,2.024,0,0,0-.9.193,2.079,2.079,0,0,0-.678.521,2.34,2.34,0,0,0-.433.771,3.008,3.008,0,0,0,0,1.89,2.344,2.344,0,0,0,.433.772,2,2,0,0,0,.678.513,2.081,2.081,0,0,0,.9.187,2.122,2.122,0,0,0,.9-.187,1.983,1.983,0,0,0,.684-.513,2.359,2.359,0,0,0,.433-.772,2.885,2.885,0,0,0,.153-.945" transform="translate(-42.88 -10.147)" fill="#fff"/>
        <path id="Path_2151" data-name="Path 2151" d="M282.217,64.261h-1.344v5.284h-.83V64.261h-1.2v-.733h1.2V61.883a2.515,2.515,0,0,1,.476-1.62,1.772,1.772,0,0,1,1.466-.592,3.364,3.364,0,0,1,.343.019,1.719,1.719,0,0,1,.342.071l-.147.772c-.089-.026-.179-.047-.268-.064a1.582,1.582,0,0,0-.3-.026,1.129,1.129,0,0,0-.544.116.793.793,0,0,0-.33.327,1.489,1.489,0,0,0-.159.495,4.043,4.043,0,0,0-.043.6v1.543h1.344Z" transform="translate(-44.16 -9.45)" fill="#fff"/>
        <path id="Path_2152" data-name="Path 2152" d="M290.238,69.691h-.879v-8.28h-2.894v-.822h6.668v.822h-2.894Z" transform="translate(-45.367 -9.595)" fill="#fff"/>
        <path id="Path_2153" data-name="Path 2153" d="M296.345,64.547a1.779,1.779,0,0,1,.77-.836,2.27,2.27,0,0,1,1.148-.308,1.961,1.961,0,0,1,1.63.681,2.806,2.806,0,0,1,.544,1.8v3.69h-.831V66.244a4.639,4.639,0,0,0-.073-.862,1.842,1.842,0,0,0-.251-.662,1.212,1.212,0,0,0-.476-.431,1.623,1.623,0,0,0-.752-.155,1.531,1.531,0,0,0-.64.141,1.59,1.59,0,0,0-.556.431,2.17,2.17,0,0,0-.391.733,3.325,3.325,0,0,0-.146,1.048v3.085h-.832v-9.72h.832v4.693Z" transform="translate(-46.797 -9.479)" fill="#fff"/>
        <path id="Path_2154" data-name="Path 2154" d="M307.3,66.348a1.363,1.363,0,0,0-1.526-1.544,2.337,2.337,0,0,0-.953.193,2.28,2.28,0,0,0-.746.514l-.465-.578a2.736,2.736,0,0,1,.935-.618,3.362,3.362,0,0,1,1.313-.244,2.711,2.711,0,0,1,.867.136,2.025,2.025,0,0,1,.709.4,1.851,1.851,0,0,1,.476.681,2.512,2.512,0,0,1,.171.965v2.636q0,.347.024.72a5.569,5.569,0,0,0,.073.63h-.745c-.024-.146-.045-.3-.061-.476s-.023-.338-.023-.5h-.025a2.46,2.46,0,0,1-.885.868,2.668,2.668,0,0,1-1.869.167,1.874,1.874,0,0,1-.635-.316,1.707,1.707,0,0,1-.666-1.419,1.68,1.68,0,0,1,.336-1.1,2.006,2.006,0,0,1,.9-.606,5.054,5.054,0,0,1,1.289-.258q.726-.058,1.508-.058Zm-.244.885q-.513,0-1.033.045a4.265,4.265,0,0,0-.94.18,1.76,1.76,0,0,0-.69.391.9.9,0,0,0-.268.682,1.13,1.13,0,0,0,.115.54.971.971,0,0,0,.311.353,1.3,1.3,0,0,0,.433.194,2.031,2.031,0,0,0,.482.057,1.808,1.808,0,0,0,.782-.161,1.668,1.668,0,0,0,.575-.437,1.976,1.976,0,0,0,.354-.636,2.359,2.359,0,0,0,.121-.758v-.45Z" transform="translate(-48.028 -10.147)" fill="#fff"/>
        <path id="Path_2155" data-name="Path 2155" d="M312.365,61.388a.581.581,0,0,1-.183.444.554.554,0,0,1-.806,0,.629.629,0,0,1,0-.886.587.587,0,0,1,.99.443m-.171,8.331h-.831V63.7h.831Z" transform="translate(-49.283 -9.624)" fill="#fff"/>
        <rect id="Rectangle_3197" data-name="Rectangle 3197" width="0.831" height="9.72" transform="translate(265.025 50.375)" fill="#fff"/>
        <path id="Path_2156" data-name="Path 2156" d="M321.9,66.348a1.363,1.363,0,0,0-1.526-1.544,2.337,2.337,0,0,0-.953.193,2.28,2.28,0,0,0-.746.514l-.465-.578a2.736,2.736,0,0,1,.935-.618,3.362,3.362,0,0,1,1.313-.244,2.711,2.711,0,0,1,.867.136,2.024,2.024,0,0,1,.709.4,1.849,1.849,0,0,1,.476.681,2.51,2.51,0,0,1,.171.965v2.636q0,.347.024.72a5.568,5.568,0,0,0,.073.63h-.745c-.024-.146-.045-.3-.061-.476s-.024-.338-.024-.5h-.025a2.46,2.46,0,0,1-.885.868,2.668,2.668,0,0,1-1.869.167,1.874,1.874,0,0,1-.635-.316,1.707,1.707,0,0,1-.666-1.419,1.68,1.68,0,0,1,.336-1.1,2.006,2.006,0,0,1,.9-.606,5.053,5.053,0,0,1,1.289-.258q.726-.058,1.508-.058Zm-.244.885q-.513,0-1.033.045a4.264,4.264,0,0,0-.94.18,1.76,1.76,0,0,0-.69.391.9.9,0,0,0-.268.682,1.13,1.13,0,0,0,.115.54.972.972,0,0,0,.311.353,1.3,1.3,0,0,0,.433.194,2.031,2.031,0,0,0,.482.057,1.808,1.808,0,0,0,.782-.161,1.667,1.667,0,0,0,.575-.437,1.976,1.976,0,0,0,.354-.636,2.359,2.359,0,0,0,.121-.758v-.45Z" transform="translate(-50.34 -10.147)" fill="#fff"/>
        <path id="Path_2157" data-name="Path 2157" d="M326.717,64.225c.017.163.029.343.037.54s.012.359.012.488h.024a1.934,1.934,0,0,1,.794-.854,2.23,2.23,0,0,1,1.161-.328,1.963,1.963,0,0,1,1.631.681,2.812,2.812,0,0,1,.543,1.8v3.69h-.831V66.912a4.578,4.578,0,0,0-.073-.862,1.863,1.863,0,0,0-.25-.662,1.221,1.221,0,0,0-.476-.431,1.634,1.634,0,0,0-.752-.155,1.55,1.55,0,0,0-.641.141,1.588,1.588,0,0,0-.556.432,2.206,2.206,0,0,0-.391.732,3.351,3.351,0,0,0-.146,1.048v3.085h-.831V65.55c0-.163,0-.373-.011-.63s-.021-.488-.037-.694Z" transform="translate(-51.616 -10.147)" fill="#fff"/>
        <path id="Path_2158" data-name="Path 2158" d="M338.892,68.559a2.393,2.393,0,0,1-.953.874,2.658,2.658,0,0,1-1.209.3,2.94,2.94,0,0,1-1.215-.244,2.783,2.783,0,0,1-.928-.669,3.037,3.037,0,0,1-.6-1,3.743,3.743,0,0,1,0-2.494,3.032,3.032,0,0,1,.6-1,2.783,2.783,0,0,1,.928-.669,2.94,2.94,0,0,1,1.215-.244,2.614,2.614,0,0,1,1.209.3,2.414,2.414,0,0,1,.953.894h.024V59.855h.832v9.72h-.832V68.559Zm-4.238-1.993a3.025,3.025,0,0,0,.146.945,2.321,2.321,0,0,0,.422.772,1.928,1.928,0,0,0,.678.513,2.155,2.155,0,0,0,.916.187,2.063,2.063,0,0,0,.88-.187,2.125,2.125,0,0,0,.7-.508,2.313,2.313,0,0,0,.459-.765,2.863,2.863,0,0,0,0-1.916,2.4,2.4,0,0,0-.459-.772,2.108,2.108,0,0,0-.7-.514,2.222,2.222,0,0,0-1.8.007,2,2,0,0,0-.678.521,2.317,2.317,0,0,0-.422.771,3.025,3.025,0,0,0-.146.945" transform="translate(-52.86 -9.479)" fill="#fff"/>
        <path id="Path_2159" data-name="Path 2159" d="M141.795,63.542a30.932,30.932,0,0,1-6.115,1.85,39.6,39.6,0,0,1-7.662.662,24.849,24.849,0,0,1-8.1-1.257,18.97,18.97,0,0,1-6.3-3.516,15.826,15.826,0,0,1-5.573-12.31,15.553,15.553,0,0,1,5.7-12.332,19.119,19.119,0,0,1,6.269-3.38,24.97,24.97,0,0,1,7.844-1.188,27.221,27.221,0,0,1,8.024,1.119,17.012,17.012,0,0,1,5.857,2.947l-3.813,1.592a14.016,14.016,0,0,0-4.39-2.33,17.929,17.929,0,0,0-5.939-.959,11.278,11.278,0,0,0-4.637,1.021,15.3,15.3,0,0,0-4.289,3.317c-1.1,1.067-1.953,3.228-2.554,4.658a16.67,16.67,0,0,0-.9,5.535,17.143,17.143,0,0,0,.9,5.647c.6,1.447,1.462,3.616,2.58,4.681s2.637,2.66,4.236,3.255a14.617,14.617,0,0,0,5.285,1.039,20.147,20.147,0,0,0,7.129-1.142V49.779H127.81v-3h13.985Z" transform="translate(-17.111 -5.079)" fill="#fff"/>
        <rect id="Rectangle_3198" data-name="Rectangle 3198" width="6.502" height="32.339" transform="translate(132.578 27.814)" fill="#fff"/>
        <path id="Path_2160" data-name="Path 2160" d="M181.475,35.409h-11.2V33.048h28.9v2.362h-11.2V65.387h-6.5Z" transform="translate(-26.967 -5.234)" fill="#fff"/>
      </g>
    </g>
    <g id="Group_7157" data-name="Group 7157" transform="translate(9851.835 -157)">
      <g id="Group_7156" data-name="Group 7156" transform="translate(0 0)" clip-path="url(#clip-path-2)">
        <rect id="Rectangle_3200" data-name="Rectangle 3200" width="16.113" height="87.968" transform="translate(0 0)" fill="#224ecb"/>
      </g>
    </g>
    <g id="Group_7159" data-name="Group 7159" transform="translate(9840.221 -142.667)">
      <g id="Group_7158" data-name="Group 7158" transform="translate(0 0)" clip-path="url(#clip-path-3)">
        <rect id="Rectangle_3201" data-name="Rectangle 3201" width="10.537" height="46.422" transform="translate(0 0)" fill="#2a60f7"/>
      </g>
    </g>
    <g id="Group_7161" data-name="Group 7161" transform="translate(9869.146 -133.683)" style="isolation: isolate">
      <g id="Group_7160" data-name="Group 7160" transform="translate(0 0)" clip-path="url(#clip-path-4)">
        <rect id="Rectangle_3202" data-name="Rectangle 3202" width="11.964" height="56.184" transform="translate(0 0)" fill="url(#linear-gradient)"/>
      </g>
    </g>
    <g id="Group_7163" data-name="Group 7163" transform="translate(9884.138 -118.477)">
      <g id="Group_7162" data-name="Group 7162" transform="translate(0 0)" clip-path="url(#clip-path-5)">
        <rect id="Rectangle_3203" data-name="Rectangle 3203" width="7.468" height="31.592" transform="translate(0 0)" fill="url(#linear-gradient-2)"/>
      </g>
    </g>
    <g id="Group_7165" data-name="Group 7165" transform="translate(9831.13 -123.542)" style="isolation: isolate">
      <g id="Group_7164" data-name="Group 7164" transform="translate(0 0)" clip-path="url(#clip-path-6)">
        <rect id="Rectangle_3204" data-name="Rectangle 3204" width="5.933" height="24.183" transform="translate(0 0)" fill="url(#linear-gradient-3)"/>
      </g>
    </g>
    <g id="Group_7167" data-name="Group 7167" transform="translate(9896.473 -123.719)">
      <g id="Group_7166" data-name="Group 7166" transform="translate(0 0)" clip-path="url(#clip-path-7)">
        <rect id="Rectangle_3205" data-name="Rectangle 3205" width="5.933" height="23.474" transform="translate(0 0)" fill="#122c75"/>
      </g>
    </g>
  </g>
</svg>
