<svg xmlns="http://www.w3.org/2000/svg" xmlns:xlink="http://www.w3.org/1999/xlink" width="270.686" height="83.001" viewBox="0 0 270.686 83.001">
  <defs>
    <clipPath id="clip-path">
      <rect id="Rectangle_474" data-name="Rectangle 474" width="270.686" height="83" fill="#fff"/>
    </clipPath>
    <clipPath id="clip-path-2">
      <path id="Path_354" data-name="Path 354" d="M32.2,0,24.6,41.5,32.2,83l7.6-41.5Z" transform="translate(-24.602 0.001)" fill="#fff"/>
    </clipPath>
    <clipPath id="clip-path-3">
      <path id="Path_355" data-name="Path 355" d="M10.8,38.929l4.971,21.9,4.971-21.9-4.971-21.9Z" transform="translate(-10.801 -17.029)" fill="#fff"/>
    </clipPath>
    <clipPath id="clip-path-4">
      <path id="Path_356" data-name="Path 356" d="M45.168,54.21l5.644,26.506L56.456,54.21,50.812,27.7Z" transform="translate(-45.168 -27.704)" fill="#fff"/>
    </clipPath>
    <clipPath id="clip-path-5">
      <path id="Path_357" data-name="Path 357" d="M62.983,60.676l3.523,14.9,3.523-14.9-3.523-14.9Z" transform="translate(-62.983 -45.771)" fill="#fff"/>
    </clipPath>
    <clipPath id="clip-path-6">
      <path id="Path_358" data-name="Path 358" d="M0,51.161,2.8,62.57,5.6,51.161,2.8,39.753Z" transform="translate(0 -39.753)" fill="#fff"/>
    </clipPath>
    <clipPath id="clip-path-7">
      <path id="Path_359" data-name="Path 359" d="M77.638,50.617l2.8,11.075,2.8-11.075-2.8-11.074Z" transform="translate(-77.638 -39.543)" fill="#fff"/>
    </clipPath>
  </defs>
  <g id="git-brand" transform="translate(0 0.001)">
    <g id="Group_431" data-name="Group 431" transform="translate(0 0)">
      <g id="Group_430" data-name="Group 430" clip-path="url(#clip-path)">
        <path id="Path_323" data-name="Path 323" d="M222.4,44.959a2.97,2.97,0,0,0-1.014-.734,3.3,3.3,0,0,0-1.348-.261,3.168,3.168,0,0,0-2.478,1.12,3.689,3.689,0,0,0-.674,1.193,4.447,4.447,0,0,0,0,2.858,3.613,3.613,0,0,0,.674,1.187,3.245,3.245,0,0,0,1.066.812,3.212,3.212,0,0,0,1.412.3,4.771,4.771,0,0,0,1.267-.158,3.146,3.146,0,0,0,.934-.4V48.27h-1.9v-.777h2.732v3.88a5.142,5.142,0,0,1-1.441.633,6.18,6.18,0,0,1-1.6.206,4.249,4.249,0,0,1-1.707-.34,4.028,4.028,0,0,1-1.348-.94,4.286,4.286,0,0,1-.881-1.425,4.989,4.989,0,0,1-.318-1.808,4.919,4.919,0,0,1,.323-1.807,4.334,4.334,0,0,1,.893-1.425,4.088,4.088,0,0,1,1.348-.94,4.17,4.17,0,0,1,1.688-.339,4.334,4.334,0,0,1,1.7.308,3.666,3.666,0,0,1,1.245.856Z" transform="translate(-44.427 -8.892)" fill="#fff"/>
        <path id="Path_324" data-name="Path 324" d="M232.238,49.759v.182a1.906,1.906,0,0,1-.012.206h-4.472a2.312,2.312,0,0,0,.162.8,2.024,2.024,0,0,0,.415.655,2,2,0,0,0,.623.443,1.968,1.968,0,0,0,1.826-.134,2.177,2.177,0,0,0,.675-.685l.587.484a2.967,2.967,0,0,1-1.066.923,2.871,2.871,0,0,1-1.251.279,2.746,2.746,0,0,1-1.112-.225,2.587,2.587,0,0,1-.881-.625,2.961,2.961,0,0,1-.582-.946,3.238,3.238,0,0,1-.214-1.189,3.3,3.3,0,0,1,.208-1.189,2.9,2.9,0,0,1,.577-.947,2.635,2.635,0,0,1,.863-.624,2.563,2.563,0,0,1,1.072-.225,2.624,2.624,0,0,1,1.118.225,2.324,2.324,0,0,1,.807.606,2.672,2.672,0,0,1,.49.892,3.49,3.49,0,0,1,.167,1.092m-.795-.267a2.111,2.111,0,0,0-.49-1.329,1.62,1.62,0,0,0-1.3-.527,1.737,1.737,0,0,0-.726.152,1.917,1.917,0,0,0-.588.412,2.056,2.056,0,0,0-.4.595,2,2,0,0,0-.173.7Z" transform="translate(-46.725 -9.666)" fill="#fff"/>
        <path id="Path_325" data-name="Path 325" d="M237.055,47.255a1.915,1.915,0,0,1,1.066-.31,2.312,2.312,0,0,1,.455.048,1.43,1.43,0,0,1,.461.188,1.718,1.718,0,0,1,.415.37,2.136,2.136,0,0,1,.329.595,2.1,2.1,0,0,1,.754-.892,2.041,2.041,0,0,1,1.135-.31,1.853,1.853,0,0,1,1.54.643,2.652,2.652,0,0,1,.512,1.7v3.481h-.785V49.626a2.874,2.874,0,0,0-.316-1.444,1.146,1.146,0,0,0-1.078-.546,1.351,1.351,0,0,0-.72.182,1.427,1.427,0,0,0-.472.479,2.218,2.218,0,0,0-.259.674,3.668,3.668,0,0,0-.08.776v3.021h-.785V49.456a4.554,4.554,0,0,0-.057-.752,1.63,1.63,0,0,0-.2-.576.958.958,0,0,0-.4-.364,1.432,1.432,0,0,0-.645-.128,1.3,1.3,0,0,0-.559.133,1.472,1.472,0,0,0-.507.407,2.114,2.114,0,0,0-.363.692,3.161,3.161,0,0,0-.138.989v2.911h-.784V48.34c0-.153,0-.352-.011-.594s-.019-.461-.035-.656h.75c.015.154.027.324.034.51s.011.34.011.461h.023a1.9,1.9,0,0,1,.71-.807" transform="translate(-48.494 -9.666)" fill="#fff"/>
        <path id="Path_326" data-name="Path 326" d="M255.033,49.094a1.286,1.286,0,0,0-1.44-1.457,2.2,2.2,0,0,0-.9.182,2.151,2.151,0,0,0-.7.485l-.438-.546a2.582,2.582,0,0,1,.882-.583,3.172,3.172,0,0,1,1.239-.23,2.559,2.559,0,0,1,.818.128,1.91,1.91,0,0,1,.669.382,1.745,1.745,0,0,1,.449.642,2.37,2.37,0,0,1,.161.91v2.487q0,.328.023.679a5.246,5.246,0,0,0,.069.595h-.7c-.023-.137-.043-.287-.058-.449s-.022-.319-.022-.472h-.024a2.321,2.321,0,0,1-.835.819,2.517,2.517,0,0,1-1.764.157,1.768,1.768,0,0,1-.6-.3,1.611,1.611,0,0,1-.628-1.339,1.586,1.586,0,0,1,.317-1.041,1.893,1.893,0,0,1,.847-.572,4.768,4.768,0,0,1,1.216-.244q.685-.055,1.423-.055Zm-.23.835q-.484,0-.974.043a4.025,4.025,0,0,0-.887.17,1.66,1.66,0,0,0-.651.369.849.849,0,0,0-.253.643,1.067,1.067,0,0,0,.109.51.917.917,0,0,0,.294.333,1.228,1.228,0,0,0,.409.183,1.916,1.916,0,0,0,.455.054,1.706,1.706,0,0,0,.738-.152,1.573,1.573,0,0,0,.542-.412,1.864,1.864,0,0,0,.334-.6,2.226,2.226,0,0,0,.114-.715v-.425Z" transform="translate(-51.727 -9.666)" fill="#fff"/>
        <path id="Path_327" data-name="Path 327" d="M260.034,47.09c.016.154.027.324.035.51s.011.339.011.461h.023a1.825,1.825,0,0,1,.749-.806,2.1,2.1,0,0,1,1.1-.31,1.852,1.852,0,0,1,1.539.642,2.653,2.653,0,0,1,.512,1.7v3.481h-.784V49.626a4.315,4.315,0,0,0-.069-.813,1.757,1.757,0,0,0-.236-.624,1.151,1.151,0,0,0-.449-.407,1.541,1.541,0,0,0-.709-.146,1.463,1.463,0,0,0-.605.133,1.5,1.5,0,0,0-.524.407,2.081,2.081,0,0,0-.369.691,3.162,3.162,0,0,0-.137.989v2.911h-.785V48.34c0-.154,0-.352-.01-.595s-.02-.461-.035-.655Z" transform="translate(-53.386 -9.666)" fill="#fff"/>
        <path id="Path_328" data-name="Path 328" d="M271.964,50.942a2.259,2.259,0,0,1-.9.825,2.508,2.508,0,0,1-1.141.279,2.775,2.775,0,0,1-1.147-.23,2.627,2.627,0,0,1-.876-.631,2.866,2.866,0,0,1-.565-.946,3.532,3.532,0,0,1,0-2.353,2.861,2.861,0,0,1,.565-.947,2.627,2.627,0,0,1,.876-.631,2.775,2.775,0,0,1,1.147-.23,2.466,2.466,0,0,1,1.141.285,2.277,2.277,0,0,1,.9.843h.022V42.729h.785V51.9h-.785v-.958Zm-4-1.88a2.853,2.853,0,0,0,.138.892,2.19,2.19,0,0,0,.4.728,1.819,1.819,0,0,0,.639.484,2.034,2.034,0,0,0,.864.176,1.947,1.947,0,0,0,.83-.176,2.006,2.006,0,0,0,.657-.479,2.184,2.184,0,0,0,.433-.722,2.7,2.7,0,0,0,0-1.807,2.264,2.264,0,0,0-.433-.728,1.99,1.99,0,0,0-.657-.485,2.1,2.1,0,0,0-1.694.006,1.886,1.886,0,0,0-.639.492,2.186,2.186,0,0,0-.4.727,2.853,2.853,0,0,0-.138.892" transform="translate(-55.002 -8.798)" fill="#fff"/>
        <path id="Path_329" data-name="Path 329" d="M279.866,50.292a1.591,1.591,0,0,0,.432.855,1.2,1.2,0,0,0,.893.345,1.371,1.371,0,0,0,.7-.163,1.27,1.27,0,0,0,.443-.442,1.857,1.857,0,0,0,.23-.636,4.278,4.278,0,0,0,.064-.745V43.462h.83v6.115a5.041,5.041,0,0,1-.087.9,2.557,2.557,0,0,1-.328.874,1.974,1.974,0,0,1-.669.661,2.08,2.08,0,0,1-1.1.26,2.128,2.128,0,0,1-2.189-1.759Z" transform="translate(-57.464 -8.949)" fill="#fff"/>
        <path id="Path_330" data-name="Path 330" d="M291.838,49.759v.182a1.91,1.91,0,0,1-.012.206h-4.472a2.312,2.312,0,0,0,.162.8,2.024,2.024,0,0,0,.414.655,2,2,0,0,0,.623.443,1.968,1.968,0,0,0,1.826-.134,2.177,2.177,0,0,0,.675-.685l.587.484a2.967,2.967,0,0,1-1.066.923,2.871,2.871,0,0,1-1.251.279,2.746,2.746,0,0,1-1.112-.225,2.587,2.587,0,0,1-.881-.625,2.961,2.961,0,0,1-.582-.946,3.238,3.238,0,0,1-.214-1.189,3.3,3.3,0,0,1,.208-1.189,2.9,2.9,0,0,1,.576-.947,2.636,2.636,0,0,1,.863-.624,2.563,2.563,0,0,1,1.072-.225,2.624,2.624,0,0,1,1.118.225,2.324,2.324,0,0,1,.807.606,2.671,2.671,0,0,1,.49.892,3.489,3.489,0,0,1,.167,1.092m-.795-.267a2.111,2.111,0,0,0-.49-1.329,1.62,1.62,0,0,0-1.3-.527,1.737,1.737,0,0,0-.726.152,1.917,1.917,0,0,0-.588.412,2.057,2.057,0,0,0-.4.595,2,2,0,0,0-.173.7Z" transform="translate(-58.997 -9.666)" fill="#fff"/>
        <path id="Path_331" data-name="Path 331" d="M295.1,47.128l1.3,4.61h.023l1.452-4.61h.76l1.475,4.61h.023l1.291-4.61h.83l-1.707,5.677H299.7l-1.44-4.6h-.024l-1.417,4.6h-.852l-1.707-5.677Z" transform="translate(-60.587 -9.703)" fill="#fff"/>
        <path id="Path_332" data-name="Path 332" d="M310.675,49.759v.182a1.91,1.91,0,0,1-.012.206h-4.472a2.312,2.312,0,0,0,.162.8,2.023,2.023,0,0,0,.415.655,2,2,0,0,0,.623.443,1.968,1.968,0,0,0,1.826-.134,2.177,2.177,0,0,0,.675-.685l.587.484a2.967,2.967,0,0,1-1.066.923,2.871,2.871,0,0,1-1.251.279,2.746,2.746,0,0,1-1.112-.225,2.587,2.587,0,0,1-.881-.625,2.961,2.961,0,0,1-.582-.946,3.238,3.238,0,0,1-.214-1.189,3.3,3.3,0,0,1,.208-1.189,2.9,2.9,0,0,1,.577-.947,2.635,2.635,0,0,1,.863-.624,2.563,2.563,0,0,1,1.072-.225,2.624,2.624,0,0,1,1.118.225,2.324,2.324,0,0,1,.807.606,2.671,2.671,0,0,1,.49.892,3.489,3.489,0,0,1,.167,1.092m-.795-.267a2.111,2.111,0,0,0-.49-1.329,1.62,1.62,0,0,0-1.3-.527,1.737,1.737,0,0,0-.726.152,1.917,1.917,0,0,0-.588.412,2.057,2.057,0,0,0-.4.595,2,2,0,0,0-.173.7Z" transform="translate(-62.875 -9.666)" fill="#fff"/>
        <rect id="Rectangle_470" data-name="Rectangle 470" width="0.784" height="9.171" transform="translate(249.39 33.93)" fill="#fff"/>
        <path id="Path_333" data-name="Path 333" d="M317.512,47.745c-.008-.243-.019-.461-.035-.655h.749q.024.231.035.509c.007.187.011.34.011.461h.023a1.938,1.938,0,0,1,.692-.807,1.824,1.824,0,0,1,1.037-.309c.1,0,.19,0,.271.012a1.434,1.434,0,0,1,.248.048l-.1.789a1.508,1.508,0,0,0-.23-.048,2.117,2.117,0,0,0-.323-.025,1.532,1.532,0,0,0-.6.121,1.279,1.279,0,0,0-.5.381,2.02,2.02,0,0,0-.346.665,3.158,3.158,0,0,0-.133.974v2.9h-.784V48.34c0-.154,0-.352-.011-.595" transform="translate(-65.367 -9.666)" fill="#fff"/>
        <path id="Path_334" data-name="Path 334" d="M324.249,51.92h.022l1.671-4.792h.853l-2.685,7.145a3.039,3.039,0,0,1-.616,1.049,1.419,1.419,0,0,1-1.078.394,3.4,3.4,0,0,1-.7-.072l.08-.752a1.736,1.736,0,0,0,.576.1.805.805,0,0,0,.634-.26,2.286,2.286,0,0,0,.4-.746l.438-1.189-2.3-5.665h.875Z" transform="translate(-66.204 -9.703)" fill="#fff"/>
        <rect id="Rectangle_471" data-name="Rectangle 471" width="0.83" height="8.588" transform="translate(171.787 48.113)" fill="#fff"/>
        <path id="Path_335" data-name="Path 335" d="M220.589,64.216c.016.154.027.324.035.51s.011.339.011.461h.023a1.825,1.825,0,0,1,.749-.806,2.1,2.1,0,0,1,1.1-.31,1.852,1.852,0,0,1,1.539.642,2.653,2.653,0,0,1,.512,1.7v3.481h-.784V66.752a4.315,4.315,0,0,0-.069-.813,1.757,1.757,0,0,0-.236-.624,1.151,1.151,0,0,0-.449-.407,1.542,1.542,0,0,0-.709-.146,1.463,1.463,0,0,0-.605.133,1.5,1.5,0,0,0-.524.407,2.081,2.081,0,0,0-.369.691,3.163,3.163,0,0,0-.137.989v2.911h-.785V65.466c0-.154,0-.352-.01-.595s-.02-.461-.035-.655Z" transform="translate(-45.264 -13.192)" fill="#fff"/>
        <path id="Path_336" data-name="Path 336" d="M230.9,65.563a1.43,1.43,0,0,0-.524-.577,1.462,1.462,0,0,0-.8-.224,1.791,1.791,0,0,0-.415.048,1.1,1.1,0,0,0-.369.157.832.832,0,0,0-.259.28.791.791,0,0,0-.1.4.694.694,0,0,0,.311.612,2.872,2.872,0,0,0,.98.358,3.183,3.183,0,0,1,1.411.6,1.332,1.332,0,0,1,.455,1.062,1.726,1.726,0,0,1-.178.819,1.628,1.628,0,0,1-.467.546,1.842,1.842,0,0,1-.651.3,2.978,2.978,0,0,1-.732.091,2.8,2.8,0,0,1-1.187-.267,2.227,2.227,0,0,1-.944-.837l.622-.485a1.736,1.736,0,0,0,.611.631,1.624,1.624,0,0,0,.887.255,2.378,2.378,0,0,0,.484-.048,1.085,1.085,0,0,0,.4-.17.9.9,0,0,0,.277-.31.962.962,0,0,0,.1-.467.724.724,0,0,0-.409-.673,5.2,5.2,0,0,0-1.181-.418q-.243-.061-.513-.152a1.738,1.738,0,0,1-.5-.268,1.416,1.416,0,0,1-.38-.442,1.346,1.346,0,0,1-.15-.667,1.6,1.6,0,0,1,.161-.746,1.469,1.469,0,0,1,.432-.509,1.9,1.9,0,0,1,.617-.3,2.639,2.639,0,0,1,.714-.1,2.406,2.406,0,0,1,1.1.267,1.8,1.8,0,0,1,.795.752Z" transform="translate(-46.827 -13.192)" fill="#fff"/>
        <path id="Path_337" data-name="Path 337" d="M236.657,64.531h-1.522v3.311a1.956,1.956,0,0,0,.058.522.751.751,0,0,0,.167.322.566.566,0,0,0,.26.158,1.2,1.2,0,0,0,.323.042,1.289,1.289,0,0,0,.339-.048,1.662,1.662,0,0,0,.34-.133l.035.715a2.148,2.148,0,0,1-.432.127,2.611,2.611,0,0,1-.49.043,1.891,1.891,0,0,1-.461-.061,1.137,1.137,0,0,1-.45-.23,1.257,1.257,0,0,1-.339-.461,1.857,1.857,0,0,1-.133-.765V64.531h-1.119v-.692h1.119v-1.6h.783v1.6h1.522Z" transform="translate(-48.022 -12.815)" fill="#fff"/>
        <path id="Path_338" data-name="Path 338" d="M239.856,61.353a.548.548,0,0,1-.173.418.522.522,0,0,1-.761,0,.591.591,0,0,1,0-.836.554.554,0,0,1,.934.418m-.161,7.861h-.784V63.537h.784Z" transform="translate(-49.158 -12.513)" fill="#fff"/>
        <path id="Path_339" data-name="Path 339" d="M244.6,64.531h-1.521v3.311a1.955,1.955,0,0,0,.058.522.751.751,0,0,0,.167.322.566.566,0,0,0,.26.158,1.2,1.2,0,0,0,.323.042,1.289,1.289,0,0,0,.339-.048,1.662,1.662,0,0,0,.34-.133l.035.715a2.148,2.148,0,0,1-.432.127,2.611,2.611,0,0,1-.49.043,1.891,1.891,0,0,1-.461-.061,1.137,1.137,0,0,1-.45-.23,1.257,1.257,0,0,1-.339-.461,1.857,1.857,0,0,1-.133-.765V64.531h-1.119v-.692h1.119v-1.6h.783v1.6H244.6Z" transform="translate(-49.656 -12.815)" fill="#fff"/>
        <path id="Path_340" data-name="Path 340" d="M250.782,69.931c-.016-.153-.027-.323-.035-.51s-.011-.339-.011-.461h-.023a1.827,1.827,0,0,1-.749.807,2.112,2.112,0,0,1-1.1.309,1.849,1.849,0,0,1-1.539-.642,2.647,2.647,0,0,1-.512-1.7V64.254h.784V67.4a4.315,4.315,0,0,0,.069.813,1.767,1.767,0,0,0,.236.625,1.155,1.155,0,0,0,.449.406,1.542,1.542,0,0,0,.709.146,1.451,1.451,0,0,0,.605-.133,1.5,1.5,0,0,0,.524-.407,2.086,2.086,0,0,0,.369-.692,3.162,3.162,0,0,0,.137-.989V64.254h.785v4.428c0,.153,0,.352.01.594s.02.461.035.655Z" transform="translate(-50.819 -13.23)" fill="#fff"/>
        <path id="Path_341" data-name="Path 341" d="M257.336,64.531h-1.521v3.311a1.955,1.955,0,0,0,.058.522.75.75,0,0,0,.167.322.566.566,0,0,0,.26.158,1.2,1.2,0,0,0,.323.042,1.289,1.289,0,0,0,.339-.048,1.662,1.662,0,0,0,.34-.133l.035.715a2.148,2.148,0,0,1-.432.127,2.611,2.611,0,0,1-.49.043,1.891,1.891,0,0,1-.461-.061,1.138,1.138,0,0,1-.45-.23,1.257,1.257,0,0,1-.339-.461,1.857,1.857,0,0,1-.133-.765V64.531h-1.119v-.692h1.119v-1.6h.783v1.6h1.521Z" transform="translate(-52.28 -12.815)" fill="#fff"/>
        <path id="Path_342" data-name="Path 342" d="M264.424,66.885v.182a1.91,1.91,0,0,1-.012.206h-4.472a2.311,2.311,0,0,0,.162.8,2.025,2.025,0,0,0,.414.655,2,2,0,0,0,.623.443,1.968,1.968,0,0,0,1.826-.134,2.177,2.177,0,0,0,.675-.685l.587.484a2.967,2.967,0,0,1-1.066.923,2.871,2.871,0,0,1-1.251.279,2.746,2.746,0,0,1-1.112-.225,2.587,2.587,0,0,1-.881-.625,2.96,2.96,0,0,1-.582-.946,3.238,3.238,0,0,1-.214-1.189,3.3,3.3,0,0,1,.208-1.189,2.9,2.9,0,0,1,.576-.947,2.636,2.636,0,0,1,.863-.624,2.563,2.563,0,0,1,1.072-.225,2.625,2.625,0,0,1,1.118.225,2.324,2.324,0,0,1,.807.606,2.671,2.671,0,0,1,.49.892,3.489,3.489,0,0,1,.167,1.092m-.795-.267a2.111,2.111,0,0,0-.49-1.329,1.62,1.62,0,0,0-1.3-.527,1.737,1.737,0,0,0-.726.152,1.917,1.917,0,0,0-.588.412,2.057,2.057,0,0,0-.4.595,2,2,0,0,0-.173.7Z" transform="translate(-53.352 -13.192)" fill="#fff"/>
        <path id="Path_343" data-name="Path 343" d="M276.513,67.055a3.238,3.238,0,0,1-.214,1.189,2.851,2.851,0,0,1-.594.946,2.677,2.677,0,0,1-.91.626,3.107,3.107,0,0,1-2.316,0,2.7,2.7,0,0,1-.911-.626,2.862,2.862,0,0,1-.593-.946,3.426,3.426,0,0,1,0-2.378,2.871,2.871,0,0,1,.593-.946,2.693,2.693,0,0,1,.911-.625,3.1,3.1,0,0,1,2.316,0,2.675,2.675,0,0,1,.91.625,2.859,2.859,0,0,1,.594.946,3.238,3.238,0,0,1,.214,1.189m-.83,0a2.723,2.723,0,0,0-.145-.892,2.223,2.223,0,0,0-.409-.727,1.926,1.926,0,0,0-1.5-.673,1.909,1.909,0,0,0-.846.182,1.961,1.961,0,0,0-.64.492,2.209,2.209,0,0,0-.409.727,2.839,2.839,0,0,0,0,1.784,2.213,2.213,0,0,0,.409.728,1.889,1.889,0,0,0,.64.484,1.964,1.964,0,0,0,.846.176,2,2,0,0,0,.853-.176,1.872,1.872,0,0,0,.646-.484,2.227,2.227,0,0,0,.409-.728,2.723,2.723,0,0,0,.145-.892" transform="translate(-55.749 -13.192)" fill="#fff"/>
        <path id="Path_344" data-name="Path 344" d="M282.026,64h-1.268v4.985h-.783V64h-1.13V63.31h1.13V61.758a2.373,2.373,0,0,1,.449-1.529,1.672,1.672,0,0,1,1.383-.558,3.175,3.175,0,0,1,.323.018,1.621,1.621,0,0,1,.322.067l-.139.728c-.084-.025-.169-.044-.253-.06a1.492,1.492,0,0,0-.287-.025,1.065,1.065,0,0,0-.513.11.748.748,0,0,0-.311.309,1.4,1.4,0,0,0-.15.467,3.807,3.807,0,0,0-.04.57V63.31h1.268Z" transform="translate(-57.413 -12.286)" fill="#fff"/>
        <path id="Path_345" data-name="Path 345" d="M290.025,69.177h-.83V61.364h-2.731v-.776h6.292v.776h-2.731Z" transform="translate(-58.982 -12.475)" fill="#fff"/>
        <path id="Path_346" data-name="Path 346" d="M296.3,64.282a1.678,1.678,0,0,1,.727-.789,2.141,2.141,0,0,1,1.083-.291,1.851,1.851,0,0,1,1.538.642,2.647,2.647,0,0,1,.513,1.7v3.481h-.784V65.884a4.382,4.382,0,0,0-.069-.813,1.737,1.737,0,0,0-.237-.624,1.144,1.144,0,0,0-.449-.407,1.532,1.532,0,0,0-.709-.146,1.445,1.445,0,0,0-.6.133,1.5,1.5,0,0,0-.525.407,2.048,2.048,0,0,0-.368.692,3.138,3.138,0,0,0-.138.989v2.911h-.785V59.854h.785v4.428Z" transform="translate(-60.84 -12.324)" fill="#fff"/>
        <path id="Path_347" data-name="Path 347" d="M307.072,66.22a1.286,1.286,0,0,0-1.44-1.457,2.2,2.2,0,0,0-.9.182,2.151,2.151,0,0,0-.7.485l-.438-.546a2.582,2.582,0,0,1,.882-.583,3.172,3.172,0,0,1,1.239-.23,2.559,2.559,0,0,1,.818.128,1.91,1.91,0,0,1,.669.382,1.745,1.745,0,0,1,.449.642,2.37,2.37,0,0,1,.161.91V68.62q0,.328.023.679a5.247,5.247,0,0,0,.069.595h-.7c-.023-.137-.043-.287-.058-.449s-.022-.319-.022-.472H307.1a2.321,2.321,0,0,1-.835.819,2.517,2.517,0,0,1-1.764.157,1.769,1.769,0,0,1-.6-.3,1.611,1.611,0,0,1-.628-1.339,1.586,1.586,0,0,1,.317-1.041,1.893,1.893,0,0,1,.847-.572,4.769,4.769,0,0,1,1.216-.244q.685-.055,1.423-.055Zm-.23.835q-.484,0-.974.043a4.024,4.024,0,0,0-.887.17,1.66,1.66,0,0,0-.651.369.849.849,0,0,0-.253.643,1.066,1.066,0,0,0,.109.51.917.917,0,0,0,.294.333,1.228,1.228,0,0,0,.409.183,1.917,1.917,0,0,0,.455.054,1.706,1.706,0,0,0,.738-.152,1.574,1.574,0,0,0,.542-.412,1.864,1.864,0,0,0,.334-.6,2.225,2.225,0,0,0,.114-.715v-.425Z" transform="translate(-62.442 -13.192)" fill="#fff"/>
        <path id="Path_348" data-name="Path 348" d="M312.3,61.353a.548.548,0,0,1-.173.418.522.522,0,0,1-.761,0,.593.593,0,0,1,0-.836.554.554,0,0,1,.934.418m-.161,7.861h-.784V63.537h.784Z" transform="translate(-64.073 -12.513)" fill="#fff"/>
        <rect id="Rectangle_472" data-name="Rectangle 472" width="0.784" height="9.171" transform="translate(250.059 47.53)" fill="#fff"/>
        <path id="Path_349" data-name="Path 349" d="M321.671,66.22a1.286,1.286,0,0,0-1.44-1.457,2.2,2.2,0,0,0-.9.182,2.151,2.151,0,0,0-.7.485l-.438-.546a2.582,2.582,0,0,1,.882-.583,3.172,3.172,0,0,1,1.239-.23,2.559,2.559,0,0,1,.818.128,1.91,1.91,0,0,1,.669.382,1.745,1.745,0,0,1,.449.642,2.369,2.369,0,0,1,.161.91V68.62q0,.328.023.679a5.254,5.254,0,0,0,.069.595h-.7c-.023-.137-.043-.287-.058-.449s-.022-.319-.022-.472h-.024a2.321,2.321,0,0,1-.835.819,2.517,2.517,0,0,1-1.764.157,1.769,1.769,0,0,1-.6-.3,1.611,1.611,0,0,1-.628-1.339,1.586,1.586,0,0,1,.317-1.041,1.893,1.893,0,0,1,.847-.572,4.769,4.769,0,0,1,1.216-.244q.685-.055,1.423-.055Zm-.23.835q-.484,0-.974.043a4.024,4.024,0,0,0-.887.17,1.661,1.661,0,0,0-.651.369.849.849,0,0,0-.253.643,1.066,1.066,0,0,0,.109.51.916.916,0,0,0,.294.333,1.228,1.228,0,0,0,.409.183,1.917,1.917,0,0,0,.455.054,1.706,1.706,0,0,0,.738-.152,1.573,1.573,0,0,0,.542-.412,1.864,1.864,0,0,0,.334-.6,2.225,2.225,0,0,0,.114-.715v-.425Z" transform="translate(-65.448 -13.192)" fill="#fff"/>
        <path id="Path_350" data-name="Path 350" d="M326.672,64.216c.016.154.027.324.035.51s.011.339.011.461h.023a1.825,1.825,0,0,1,.749-.806,2.1,2.1,0,0,1,1.1-.31,1.852,1.852,0,0,1,1.539.642,2.653,2.653,0,0,1,.512,1.7v3.481h-.784V66.752a4.315,4.315,0,0,0-.069-.813,1.756,1.756,0,0,0-.236-.624,1.151,1.151,0,0,0-.449-.407,1.542,1.542,0,0,0-.709-.146,1.463,1.463,0,0,0-.605.133,1.5,1.5,0,0,0-.524.407,2.081,2.081,0,0,0-.369.691,3.163,3.163,0,0,0-.137.989v2.911h-.785V65.466c0-.154,0-.352-.01-.595s-.02-.461-.035-.655Z" transform="translate(-67.106 -13.192)" fill="#fff"/>
        <path id="Path_351" data-name="Path 351" d="M338.6,68.068a2.258,2.258,0,0,1-.9.825,2.508,2.508,0,0,1-1.141.279,2.774,2.774,0,0,1-1.147-.23,2.627,2.627,0,0,1-.876-.631,2.865,2.865,0,0,1-.565-.946,3.532,3.532,0,0,1,0-2.353,2.861,2.861,0,0,1,.565-.947,2.627,2.627,0,0,1,.876-.631,2.774,2.774,0,0,1,1.147-.23,2.466,2.466,0,0,1,1.141.285,2.277,2.277,0,0,1,.9.843h.022V59.855h.785v9.171h-.785v-.958Zm-4-1.88a2.853,2.853,0,0,0,.138.892,2.19,2.19,0,0,0,.4.728,1.819,1.819,0,0,0,.639.484,2.033,2.033,0,0,0,.864.176,1.946,1.946,0,0,0,.83-.176,2.005,2.005,0,0,0,.657-.479,2.184,2.184,0,0,0,.433-.722,2.7,2.7,0,0,0,0-1.807,2.264,2.264,0,0,0-.433-.728,1.989,1.989,0,0,0-.657-.485,2.1,2.1,0,0,0-1.694.006,1.886,1.886,0,0,0-.639.492,2.186,2.186,0,0,0-.4.727,2.853,2.853,0,0,0-.138.892" transform="translate(-68.723 -12.324)" fill="#fff"/>
        <path id="Path_352" data-name="Path 352" d="M139.889,61.765a29.184,29.184,0,0,1-5.77,1.745,37.367,37.367,0,0,1-7.23.625,23.446,23.446,0,0,1-7.644-1.186,17.9,17.9,0,0,1-5.94-3.318,14.932,14.932,0,0,1-5.259-11.615,14.675,14.675,0,0,1,5.38-11.636,18.04,18.04,0,0,1,5.915-3.189,23.56,23.56,0,0,1,7.4-1.12,25.684,25.684,0,0,1,7.571,1.055,16.052,16.052,0,0,1,5.526,2.78l-3.6,1.5a13.225,13.225,0,0,0-4.142-2.2,16.917,16.917,0,0,0-5.6-.9,10.641,10.641,0,0,0-4.375.963,14.434,14.434,0,0,0-4.047,3.13,14.6,14.6,0,0,0-2.41,4.4,15.729,15.729,0,0,0-.852,5.222,16.175,16.175,0,0,0,.852,5.328,14.226,14.226,0,0,0,2.435,4.417,13.557,13.557,0,0,0,4,3.071,13.791,13.791,0,0,0,4.986.98,19.01,19.01,0,0,0,6.727-1.078V48.779h-7.117v-2.83h13.195Z" transform="translate(-22.246 -6.604)" fill="#fff"/>
        <rect id="Rectangle_473" data-name="Rectangle 473" width="6.134" height="30.513" transform="translate(125.091 26.244)" fill="#fff"/>
        <path id="Path_353" data-name="Path 353" d="M180.842,35.276H170.277V33.048h27.266v2.228H186.977V63.56h-6.134Z" transform="translate(-35.059 -6.804)" fill="#fff"/>
      </g>
    </g>
    <g id="Group_433" data-name="Group 433" transform="translate(19.537 -0.001)">
      <g id="Group_432" data-name="Group 432" clip-path="url(#clip-path-2)">
        <rect id="Rectangle_475" data-name="Rectangle 475" width="15.203" height="83.001" transform="translate(0 0)" fill="#fff"/>
      </g>
    </g>
    <g id="Group_435" data-name="Group 435" transform="translate(8.577 13.523)">
      <g id="Group_434" data-name="Group 434" clip-path="url(#clip-path-3)">
        <rect id="Rectangle_476" data-name="Rectangle 476" width="9.942" height="43.8" transform="translate(0 0)" fill="#fff"/>
      </g>
    </g>
    <g id="Group_437" data-name="Group 437" transform="translate(35.868 22)">
      <g id="Group_436" data-name="Group 436" clip-path="url(#clip-path-4)">
        <rect id="Rectangle_477" data-name="Rectangle 477" width="11.288" height="53.011" transform="translate(0 0)" fill="#fff"/>
      </g>
    </g>
    <g id="Group_439" data-name="Group 439" transform="translate(50.015 36.347)">
      <g id="Group_438" data-name="Group 438" clip-path="url(#clip-path-5)">
        <rect id="Rectangle_478" data-name="Rectangle 478" width="7.046" height="29.808" transform="translate(0 0)" fill="#fff"/>
      </g>
    </g>
    <g id="Group_441" data-name="Group 441" transform="translate(0 31.568)">
      <g id="Group_440" data-name="Group 440" clip-path="url(#clip-path-6)">
        <rect id="Rectangle_479" data-name="Rectangle 479" width="5.598" height="22.817" transform="translate(0 0)" fill="#fff"/>
      </g>
    </g>
    <g id="Group_443" data-name="Group 443" transform="translate(61.653 31.401)">
      <g id="Group_442" data-name="Group 442" clip-path="url(#clip-path-7)">
        <rect id="Rectangle_480" data-name="Rectangle 480" width="5.598" height="22.148" transform="translate(0 0)" fill="#fff"/>
      </g>
    </g>
  </g>
</svg>
