<svg id="Group_7128" data-name="Group 7128" xmlns="http://www.w3.org/2000/svg" xmlns:xlink="http://www.w3.org/1999/xlink" width="147.108" height="70.627" viewBox="0 0 147.108 70.627">
  <defs>
    <clipPath id="clip-path">
      <rect id="Rectangle_3129" data-name="Rectangle 3129" width="147.108" height="70.627" fill="#fff"/>
    </clipPath>
    <clipPath id="clip-path-2">
      <rect id="Rectangle_3128" data-name="Rectangle 3128" width="147.108" height="70.626" fill="#fff"/>
    </clipPath>
    <clipPath id="clip-path-3">
      <rect id="Rectangle_3126" data-name="Rectangle 3126" width="78.647" height="18.143" fill="#fff"/>
    </clipPath>
  </defs>
  <g id="Group_6990" data-name="Group 6990" clip-path="url(#clip-path)">
    <path id="Path_1903" data-name="Path 1903" d="M14.841,0,8.822,32.857l6.018,32.855,6.02-32.855Z" transform="translate(6.644 0)" fill="#fff"/>
    <path id="Path_1904" data-name="Path 1904" d="M7.809,6.107,3.873,23.445,7.809,40.784l3.936-17.338Z" transform="translate(2.917 4.599)" fill="#fff"/>
    <path id="Path_1905" data-name="Path 1905" d="M20.667,9.935,16.2,30.92l4.469,20.985L25.135,30.92Z" transform="translate(12.199 7.482)" fill="#fff"/>
    <path id="Path_1906" data-name="Path 1906" d="M25.376,16.415l-2.789,11.8,2.789,11.8,2.789-11.8Z" transform="translate(17.011 12.362)" fill="#fff"/>
    <path id="Path_1907" data-name="Path 1907" d="M0,23.288,2.216,32.32l2.216-9.032L2.216,14.256Z" transform="translate(0 10.737)" fill="#fff"/>
    <path id="Path_1908" data-name="Path 1908" d="M30.058,14.181l-2.216,8.767,2.216,8.767,2.216-8.767Z" transform="translate(20.969 10.68)" fill="#fff"/>
    <g id="Group_6989" data-name="Group 6989" transform="translate(0 0.001)">
      <g id="Group_6988" data-name="Group 6988" clip-path="url(#clip-path-2)">
        <g id="Group_6987" data-name="Group 6987" transform="translate(68.461 52.483)" opacity="0.75">
          <g id="Group_6986" data-name="Group 6986">
            <g id="Group_6985" data-name="Group 6985" clip-path="url(#clip-path-3)">
              <path id="Path_1909" data-name="Path 1909" d="M44.3,31.5a2.364,2.364,0,0,0-.8-.582,2.624,2.624,0,0,0-1.068-.205,2.519,2.519,0,0,0-1.964.887,2.893,2.893,0,0,0-.531.943,3.476,3.476,0,0,0,0,2.263,2.858,2.858,0,0,0,.531.94,2.609,2.609,0,0,0,.845.643,2.547,2.547,0,0,0,1.118.238,3.821,3.821,0,0,0,1-.124,2.425,2.425,0,0,0,.74-.317V34.127H42.664v-.615h2.163v3.071a4.106,4.106,0,0,1-1.141.5,4.888,4.888,0,0,1-1.268.163,3.377,3.377,0,0,1-1.352-.268A3.212,3.212,0,0,1,40,36.234a3.429,3.429,0,0,1-.7-1.129,3.968,3.968,0,0,1-.251-1.431,3.9,3.9,0,0,1,.256-1.431,3.42,3.42,0,0,1,.708-1.129,3.235,3.235,0,0,1,1.066-.743,3.281,3.281,0,0,1,1.338-.27,3.462,3.462,0,0,1,1.35.244,2.894,2.894,0,0,1,.985.678Z" transform="translate(-39.051 -29.813)" fill="#fff"/>
              <path id="Path_1910" data-name="Path 1910" d="M47.25,33.678v.144c0,.051,0,.105-.009.163H43.7a1.817,1.817,0,0,0,.126.633,1.649,1.649,0,0,0,.33.519,1.588,1.588,0,0,0,.493.351,1.456,1.456,0,0,0,.612.13,1.475,1.475,0,0,0,.834-.235,1.749,1.749,0,0,0,.535-.543l.465.384a2.335,2.335,0,0,1-.845.731,2.255,2.255,0,0,1-.989.221,2.152,2.152,0,0,1-.88-.179,2.047,2.047,0,0,1-.7-.494,2.345,2.345,0,0,1-.459-.749,2.532,2.532,0,0,1-.17-.941,2.611,2.611,0,0,1,.165-.941,2.3,2.3,0,0,1,.456-.749,2.1,2.1,0,0,1,.685-.494,2.008,2.008,0,0,1,.847-.177,2.068,2.068,0,0,1,.885.177,1.815,1.815,0,0,1,.638.48,2.09,2.09,0,0,1,.389.7,2.783,2.783,0,0,1,.131.866m-.629-.212a1.666,1.666,0,0,0-.387-1.052A1.283,1.283,0,0,0,45.206,32a1.4,1.4,0,0,0-.575.119,1.512,1.512,0,0,0-.463.328,1.543,1.543,0,0,0-.321.47,1.579,1.579,0,0,0-.137.552Z" transform="translate(-36.037 -28.798)" fill="#fff"/>
              <path id="Path_1911" data-name="Path 1911" d="M47.342,31.694a1.529,1.529,0,0,1,.843-.245,1.862,1.862,0,0,1,.361.039,1.092,1.092,0,0,1,.366.149,1.413,1.413,0,0,1,.328.293,1.671,1.671,0,0,1,.259.47,1.662,1.662,0,0,1,.6-.7,1.622,1.622,0,0,1,.9-.245,1.462,1.462,0,0,1,1.217.508,2.091,2.091,0,0,1,.407,1.345V36.06H52V33.572a2.273,2.273,0,0,0-.251-1.143A.9.9,0,0,0,50.9,32a1.078,1.078,0,0,0-.57.144,1.14,1.14,0,0,0-.373.38,1.721,1.721,0,0,0-.205.533,2.95,2.95,0,0,0-.065.614V36.06h-.621V33.437a3.475,3.475,0,0,0-.046-.6,1.261,1.261,0,0,0-.16-.454.747.747,0,0,0-.314-.289,1.12,1.12,0,0,0-.51-.1,1.017,1.017,0,0,0-.444.107,1.153,1.153,0,0,0-.4.321,1.742,1.742,0,0,0-.288.549,2.469,2.469,0,0,0-.109.782V36.06h-.621V32.553c0-.121,0-.277-.011-.47s-.016-.365-.026-.519h.593c.012.121.021.256.028.4s.009.27.009.365h.019a1.487,1.487,0,0,1,.559-.638" transform="translate(-33.716 -28.799)" fill="#fff"/>
              <path id="Path_1912" data-name="Path 1912" d="M54.776,33.151A1.018,1.018,0,0,0,53.637,32a1.774,1.774,0,0,0-.712.144,1.722,1.722,0,0,0-.557.386l-.347-.433a2.06,2.06,0,0,1,.7-.461,2.517,2.517,0,0,1,.98-.182,2.033,2.033,0,0,1,.647.1,1.521,1.521,0,0,1,.529.3,1.386,1.386,0,0,1,.356.508,1.862,1.862,0,0,1,.128.721v1.971c0,.172.005.351.019.536a4.007,4.007,0,0,0,.054.472h-.557c-.018-.109-.032-.228-.044-.356s-.019-.252-.019-.375h-.019a1.816,1.816,0,0,1-.661.649,1.862,1.862,0,0,1-.891.2,1.932,1.932,0,0,1-.5-.074,1.362,1.362,0,0,1-.473-.235,1.3,1.3,0,0,1-.356-.424,1.313,1.313,0,0,1-.142-.636,1.257,1.257,0,0,1,.251-.824,1.492,1.492,0,0,1,.67-.452,3.726,3.726,0,0,1,.964-.193q.542-.045,1.126-.044Zm-.182.661c-.256,0-.512.011-.77.033a3.146,3.146,0,0,0-.7.135,1.315,1.315,0,0,0-.517.293.673.673,0,0,0-.2.508.847.847,0,0,0,.088.4.725.725,0,0,0,.233.265.943.943,0,0,0,.323.144,1.472,1.472,0,0,0,.359.044,1.342,1.342,0,0,0,.584-.121,1.206,1.206,0,0,0,.43-.326,1.432,1.432,0,0,0,.265-.475,1.738,1.738,0,0,0,.091-.568v-.335Z" transform="translate(-29.475 -28.799)" fill="#fff"/>
              <path id="Path_1913" data-name="Path 1913" d="M55.247,31.564c.012.121.021.256.028.4s.009.27.009.365H55.3a1.458,1.458,0,0,1,.593-.638,1.666,1.666,0,0,1,.866-.244,1.465,1.465,0,0,1,1.22.508,2.094,2.094,0,0,1,.4,1.345v2.756h-.619V33.571a3.434,3.434,0,0,0-.056-.643,1.372,1.372,0,0,0-.188-.494.9.9,0,0,0-.354-.323A1.252,1.252,0,0,0,56.606,32a1.153,1.153,0,0,0-.892.426,1.616,1.616,0,0,0-.293.549,2.482,2.482,0,0,0-.11.782v2.305h-.619V32.553c0-.121,0-.277-.011-.47s-.016-.365-.028-.519Z" transform="translate(-27.301 -28.798)" fill="#fff"/>
              <path id="Path_1914" data-name="Path 1914" d="M61.293,36.439a1.794,1.794,0,0,1-.712.654,1.984,1.984,0,0,1-.9.221,2.2,2.2,0,0,1-.908-.184,2.046,2.046,0,0,1-.692-.5,2.211,2.211,0,0,1-.447-.749,2.772,2.772,0,0,1,0-1.864,2.245,2.245,0,0,1,.447-.749,2.07,2.07,0,0,1,.692-.5,2.2,2.2,0,0,1,.908-.182,1.946,1.946,0,0,1,.9.226,1.805,1.805,0,0,1,.712.668h.018V29.937h.621V37.2H61.31v-.759Zm-3.166-1.488a2.264,2.264,0,0,0,.109.7,1.748,1.748,0,0,0,.316.577,1.435,1.435,0,0,0,.507.384,1.61,1.61,0,0,0,.684.14,1.541,1.541,0,0,0,.657-.14,1.626,1.626,0,0,0,.521-.379,1.741,1.741,0,0,0,.342-.572,2.146,2.146,0,0,0,0-1.431,1.8,1.8,0,0,0-.342-.577,1.589,1.589,0,0,0-.521-.384,1.541,1.541,0,0,0-.657-.14,1.585,1.585,0,0,0-.684.144,1.5,1.5,0,0,0-.507.391,1.739,1.739,0,0,0-.316.575,2.267,2.267,0,0,0-.109.707" transform="translate(-25.18 -29.938)" fill="#fff"/>
              <path id="Path_1915" data-name="Path 1915" d="M62.37,35.607a1.268,1.268,0,0,0,.342.677.954.954,0,0,0,.708.273,1.078,1.078,0,0,0,.556-.128.988.988,0,0,0,.351-.351,1.485,1.485,0,0,0,.184-.5,3.576,3.576,0,0,0,.049-.589V30.2h.657v4.84a3.948,3.948,0,0,1-.068.71,2.027,2.027,0,0,1-.259.692,1.557,1.557,0,0,1-.529.522,1.629,1.629,0,0,1-.866.207,1.687,1.687,0,0,1-1.736-1.392Z" transform="translate(-21.95 -29.74)" fill="#fff"/>
              <path id="Path_1916" data-name="Path 1916" d="M68.624,33.678v.144c0,.051,0,.105-.009.163h-3.54a1.817,1.817,0,0,0,.126.633,1.649,1.649,0,0,0,.33.519,1.589,1.589,0,0,0,.493.351,1.456,1.456,0,0,0,.612.13,1.475,1.475,0,0,0,.834-.235,1.749,1.749,0,0,0,.535-.543l.465.384a2.335,2.335,0,0,1-.845.731,2.255,2.255,0,0,1-.989.221,2.152,2.152,0,0,1-.88-.179,2.047,2.047,0,0,1-.7-.494,2.345,2.345,0,0,1-.459-.749,2.532,2.532,0,0,1-.17-.941,2.61,2.61,0,0,1,.165-.941,2.3,2.3,0,0,1,.456-.749,2.1,2.1,0,0,1,.685-.494,2.008,2.008,0,0,1,.847-.177,2.068,2.068,0,0,1,.885.177,1.815,1.815,0,0,1,.638.48,2.09,2.09,0,0,1,.389.7,2.783,2.783,0,0,1,.131.866m-.629-.212a1.666,1.666,0,0,0-.387-1.052A1.283,1.283,0,0,0,66.58,32a1.4,1.4,0,0,0-.575.119,1.512,1.512,0,0,0-.463.328,1.543,1.543,0,0,0-.321.47,1.579,1.579,0,0,0-.137.552Z" transform="translate(-19.94 -28.798)" fill="#fff"/>
              <path id="Path_1917" data-name="Path 1917" d="M67.862,31.515l1.031,3.65h.018l1.15-3.65h.6l1.168,3.65h.016l1.022-3.65h.657l-1.35,4.5H71.5l-1.14-3.639h-.019L69.221,36.01h-.675l-1.35-4.5Z" transform="translate(-17.854 -28.749)" fill="#fff"/>
              <path id="Path_1918" data-name="Path 1918" d="M75.38,33.678v.144c0,.051,0,.105-.009.163h-3.54a1.817,1.817,0,0,0,.126.633,1.649,1.649,0,0,0,.33.519,1.588,1.588,0,0,0,.493.351,1.456,1.456,0,0,0,.612.13,1.475,1.475,0,0,0,.834-.235,1.749,1.749,0,0,0,.535-.543l.465.384a2.335,2.335,0,0,1-.845.731,2.255,2.255,0,0,1-.989.221,2.152,2.152,0,0,1-.88-.179,2.047,2.047,0,0,1-.7-.494,2.345,2.345,0,0,1-.459-.749,2.532,2.532,0,0,1-.17-.941,2.611,2.611,0,0,1,.165-.941,2.3,2.3,0,0,1,.456-.749,2.1,2.1,0,0,1,.685-.494,2.008,2.008,0,0,1,.847-.177,2.068,2.068,0,0,1,.885.177,1.815,1.815,0,0,1,.638.48,2.09,2.09,0,0,1,.389.7,2.783,2.783,0,0,1,.131.866m-.629-.212a1.666,1.666,0,0,0-.387-1.052A1.283,1.283,0,0,0,73.336,32a1.4,1.4,0,0,0-.575.119,1.512,1.512,0,0,0-.463.328,1.543,1.543,0,0,0-.321.47,1.579,1.579,0,0,0-.137.552Z" transform="translate(-14.852 -28.798)" fill="#fff"/>
              <rect id="Rectangle_3123" data-name="Rectangle 3123" width="0.621" height="7.261" transform="translate(61.789 -0.002)" fill="#fff"/>
              <path id="Path_1919" data-name="Path 1919" d="M75.55,32.083c-.005-.191-.016-.365-.028-.519h.594c.012.121.021.258.028.4s.009.27.009.366h.018a1.535,1.535,0,0,1,.547-.64,1.447,1.447,0,0,1,.822-.244,1.991,1.991,0,0,1,.214.009,1,1,0,0,1,.2.039l-.082.624a1.059,1.059,0,0,0-.182-.039,1.778,1.778,0,0,0-.256-.019,1.2,1.2,0,0,0-.473.1,1.029,1.029,0,0,0-.4.3,1.624,1.624,0,0,0-.273.528,2.486,2.486,0,0,0-.105.771v2.3h-.619v-3.5c0-.123,0-.279-.011-.472" transform="translate(-11.584 -28.798)" fill="#fff"/>
              <path id="Path_1920" data-name="Path 1920" d="M79.125,35.309h.018l1.324-3.794h.673l-2.123,5.657a2.458,2.458,0,0,1-.489.831,1.127,1.127,0,0,1-.854.312,2.7,2.7,0,0,1-.557-.058l.067-.6a1.329,1.329,0,0,0,.454.077.638.638,0,0,0,.5-.207,1.864,1.864,0,0,0,.319-.591L78.8,36l-1.825-4.486h.694Z" transform="translate(-10.486 -28.749)" fill="#fff"/>
              <rect id="Rectangle_3124" data-name="Rectangle 3124" width="0.657" height="6.799" transform="translate(0.347 11.229)" fill="#fff"/>
              <path id="Path_1921" data-name="Path 1921" d="M41.1,37.706c.012.121.021.256.028.4s.009.27.009.365h.018a1.458,1.458,0,0,1,.593-.638,1.666,1.666,0,0,1,.866-.244,1.465,1.465,0,0,1,1.22.508,2.094,2.094,0,0,1,.4,1.345V42.2h-.619V39.713a3.434,3.434,0,0,0-.056-.643,1.372,1.372,0,0,0-.188-.494.9.9,0,0,0-.354-.323,1.252,1.252,0,0,0-.563-.114,1.153,1.153,0,0,0-.892.426,1.616,1.616,0,0,0-.293.549,2.482,2.482,0,0,0-.11.782V42.2h-.619V38.695c0-.121,0-.277-.011-.47s-.016-.365-.028-.519Z" transform="translate(-37.954 -24.173)" fill="#fff"/>
              <path id="Path_1922" data-name="Path 1922" d="M45.976,38.773a1.139,1.139,0,0,0-.415-.456,1.151,1.151,0,0,0-.635-.179,1.5,1.5,0,0,0-.328.039.918.918,0,0,0-.293.124.688.688,0,0,0-.205.221.621.621,0,0,0-.077.317.553.553,0,0,0,.245.486,2.308,2.308,0,0,0,.777.284,2.508,2.508,0,0,1,1.117.475,1.053,1.053,0,0,1,.361.84,1.359,1.359,0,0,1-.142.649,1.277,1.277,0,0,1-.368.431,1.449,1.449,0,0,1-.515.24,2.338,2.338,0,0,1-.58.072,2.217,2.217,0,0,1-.94-.21,1.772,1.772,0,0,1-.747-.663l.491-.384a1.353,1.353,0,0,0,.484.5,1.285,1.285,0,0,0,.7.2,1.922,1.922,0,0,0,.382-.039.845.845,0,0,0,.319-.135.7.7,0,0,0,.219-.245.76.76,0,0,0,.082-.37.575.575,0,0,0-.324-.533,4.158,4.158,0,0,0-.934-.331c-.128-.032-.263-.072-.4-.119a1.341,1.341,0,0,1-.4-.212,1.12,1.12,0,0,1-.3-.349,1.08,1.08,0,0,1-.117-.529,1.273,1.273,0,0,1,.126-.591,1.176,1.176,0,0,1,.342-.4,1.506,1.506,0,0,1,.489-.235,2.1,2.1,0,0,1,.566-.077,1.906,1.906,0,0,1,.866.21,1.454,1.454,0,0,1,.631.6Z" transform="translate(-35.903 -24.173)" fill="#fff"/>
              <path id="Path_1923" data-name="Path 1923" d="M48.022,38.749h-1.2v2.623a1.519,1.519,0,0,0,.046.412.592.592,0,0,0,.133.254.418.418,0,0,0,.2.124.934.934,0,0,0,.258.035,1.076,1.076,0,0,0,.268-.039,1.279,1.279,0,0,0,.268-.107l.028.568a1.831,1.831,0,0,1-.342.1,2.071,2.071,0,0,1-.387.033,1.51,1.51,0,0,1-.365-.047.9.9,0,0,1-.356-.182.97.97,0,0,1-.268-.365,1.444,1.444,0,0,1-.107-.6v-2.8h-.885V38.2H46.2V36.933h.621V38.2h1.2Z" transform="translate(-34.336 -24.669)" fill="#fff"/>
              <path id="Path_1924" data-name="Path 1924" d="M48.166,36.868a.435.435,0,0,1-.137.331.423.423,0,0,1-.3.13.43.43,0,0,1-.3-.13.441.441,0,0,1-.137-.331.447.447,0,0,1,.137-.331.437.437,0,0,1,.3-.13.431.431,0,0,1,.3.13.44.44,0,0,1,.137.331m-.128,6.224h-.621V38.6h.621Z" transform="translate(-32.847 -25.065)" fill="#fff"/>
              <path id="Path_1925" data-name="Path 1925" d="M50.868,38.749h-1.2v2.623a1.52,1.52,0,0,0,.046.412.592.592,0,0,0,.133.254.418.418,0,0,0,.2.124.934.934,0,0,0,.258.035,1.076,1.076,0,0,0,.268-.039,1.279,1.279,0,0,0,.268-.107l.028.568a1.831,1.831,0,0,1-.342.1,2.071,2.071,0,0,1-.387.033,1.51,1.51,0,0,1-.365-.047.9.9,0,0,1-.356-.182.97.97,0,0,1-.268-.365,1.444,1.444,0,0,1-.107-.6v-2.8h-.885V38.2h.885V36.933h.621V38.2h1.2Z" transform="translate(-32.192 -24.669)" fill="#fff"/>
              <path id="Path_1926" data-name="Path 1926" d="M53.323,42.152c-.014-.121-.023-.256-.028-.4s-.009-.268-.009-.365h-.018a1.473,1.473,0,0,1-.594.638,1.663,1.663,0,0,1-.866.245,1.47,1.47,0,0,1-1.22-.51,2.094,2.094,0,0,1-.4-1.345V37.657H50.8v2.488a3.293,3.293,0,0,0,.056.643,1.327,1.327,0,0,0,.186.494.9.9,0,0,0,.356.323,1.241,1.241,0,0,0,.563.114,1.149,1.149,0,0,0,.477-.105,1.167,1.167,0,0,0,.415-.321,1.6,1.6,0,0,0,.291-.549,2.474,2.474,0,0,0,.11-.782V37.657h.621v3.506c0,.121,0,.279.009.47s.016.365.028.519Z" transform="translate(-30.667 -24.124)" fill="#fff"/>
              <path id="Path_1927" data-name="Path 1927" d="M55.438,38.749h-1.2v2.623a1.519,1.519,0,0,0,.046.412.592.592,0,0,0,.133.254.418.418,0,0,0,.2.124.934.934,0,0,0,.258.035,1.076,1.076,0,0,0,.268-.039,1.279,1.279,0,0,0,.268-.107l.028.568a1.831,1.831,0,0,1-.342.1,2.071,2.071,0,0,1-.387.033,1.51,1.51,0,0,1-.365-.047.9.9,0,0,1-.356-.182.97.97,0,0,1-.268-.365,1.444,1.444,0,0,1-.107-.6v-2.8h-.885V38.2h.885V36.933h.621V38.2h1.2Z" transform="translate(-28.75 -24.669)" fill="#fff"/>
              <path id="Path_1928" data-name="Path 1928" d="M58.793,39.82v.144c0,.051,0,.105-.009.163h-3.54a1.817,1.817,0,0,0,.126.633,1.649,1.649,0,0,0,.33.519,1.588,1.588,0,0,0,.493.351,1.456,1.456,0,0,0,.612.13,1.475,1.475,0,0,0,.834-.235,1.749,1.749,0,0,0,.535-.543l.465.384a2.335,2.335,0,0,1-.845.731,2.255,2.255,0,0,1-.989.221,2.152,2.152,0,0,1-.88-.179,2.047,2.047,0,0,1-.7-.494,2.345,2.345,0,0,1-.459-.749,2.532,2.532,0,0,1-.17-.941,2.611,2.611,0,0,1,.165-.941,2.3,2.3,0,0,1,.456-.749,2.1,2.1,0,0,1,.685-.494,2.008,2.008,0,0,1,.847-.177,2.068,2.068,0,0,1,.885.177,1.816,1.816,0,0,1,.638.48,2.09,2.09,0,0,1,.389.7,2.783,2.783,0,0,1,.131.866m-.629-.212a1.666,1.666,0,0,0-.387-1.052,1.283,1.283,0,0,0-1.027-.417,1.4,1.4,0,0,0-.575.119,1.513,1.513,0,0,0-.463.328,1.543,1.543,0,0,0-.321.47,1.579,1.579,0,0,0-.137.552Z" transform="translate(-27.344 -24.173)" fill="#fff"/>
              <path id="Path_1929" data-name="Path 1929" d="M63.324,39.954a2.539,2.539,0,0,1-.17.941,2.294,2.294,0,0,1-.468.749,2.139,2.139,0,0,1-.721.494,2.372,2.372,0,0,1-.924.179,2.327,2.327,0,0,1-.91-.179,2.129,2.129,0,0,1-.722-.494,2.27,2.27,0,0,1-.47-.749,2.691,2.691,0,0,1,0-1.883,2.252,2.252,0,0,1,.47-.749,2.133,2.133,0,0,1,.722-.5,2.326,2.326,0,0,1,.91-.177,2.371,2.371,0,0,1,.924.177,2.143,2.143,0,0,1,.721.5,2.276,2.276,0,0,1,.468.749,2.532,2.532,0,0,1,.17.941m-.657,0a2.125,2.125,0,0,0-.114-.707,1.726,1.726,0,0,0-.324-.575,1.514,1.514,0,0,0-1.187-.535,1.538,1.538,0,0,0-.67.144,1.566,1.566,0,0,0-.507.391,1.722,1.722,0,0,0-.323.575,2.21,2.21,0,0,0,0,1.411,1.731,1.731,0,0,0,.323.577,1.5,1.5,0,0,0,.507.384,1.562,1.562,0,0,0,.67.14,1.589,1.589,0,0,0,.677-.14,1.5,1.5,0,0,0,.51-.384,1.734,1.734,0,0,0,.324-.577,2.122,2.122,0,0,0,.114-.7" transform="translate(-24.201 -24.173)" fill="#fff"/>
              <path id="Path_1930" data-name="Path 1930" d="M64.188,39.442h-1v3.946h-.622V39.442h-.894V38.9h.894V37.664a1.89,1.89,0,0,1,.356-1.21,1.325,1.325,0,0,1,1.1-.442c.079,0,.165.005.256.014a1.254,1.254,0,0,1,.254.054l-.109.575q-.1-.029-.2-.047a1.128,1.128,0,0,0-.228-.019.86.86,0,0,0-.408.086.588.588,0,0,0-.244.245,1.094,1.094,0,0,0-.121.37,3.313,3.313,0,0,0-.03.451V38.9h1Z" transform="translate(-22.017 -25.362)" fill="#fff"/>
              <path id="Path_1931" data-name="Path 1931" d="M67.221,43.141h-.657V36.956H64.4v-.614h4.981v.614H67.221Z" transform="translate(-19.959 -25.114)" fill="#fff"/>
              <path id="Path_1932" data-name="Path 1932" d="M68.276,39.584a1.335,1.335,0,0,1,.575-.624,1.686,1.686,0,0,1,.857-.23,1.463,1.463,0,0,1,1.218.508,2.088,2.088,0,0,1,.407,1.345v2.756h-.621V40.852a3.293,3.293,0,0,0-.056-.643,1.383,1.383,0,0,0-.186-.494.925.925,0,0,0-.356-.321,1.215,1.215,0,0,0-.561-.116,1.15,1.15,0,0,0-.479.105,1.166,1.166,0,0,0-.415.321,1.614,1.614,0,0,0-.291.549,2.482,2.482,0,0,0-.11.782v2.305h-.621V36.078h.621v3.506Z" transform="translate(-17.521 -25.313)" fill="#fff"/>
              <path id="Path_1933" data-name="Path 1933" d="M73.438,39.293a1.018,1.018,0,0,0-1.14-1.155,1.774,1.774,0,0,0-.712.144,1.722,1.722,0,0,0-.557.386l-.347-.433a2.061,2.061,0,0,1,.7-.461,2.517,2.517,0,0,1,.98-.182,2.033,2.033,0,0,1,.647.1,1.52,1.52,0,0,1,.529.3,1.386,1.386,0,0,1,.356.508,1.862,1.862,0,0,1,.128.721v1.971c0,.172.005.351.019.536a4.005,4.005,0,0,0,.054.472h-.557c-.018-.109-.032-.228-.044-.356s-.019-.252-.019-.375h-.019a1.816,1.816,0,0,1-.661.649,1.862,1.862,0,0,1-.891.2,1.932,1.932,0,0,1-.5-.074,1.362,1.362,0,0,1-.473-.235,1.3,1.3,0,0,1-.356-.424,1.313,1.313,0,0,1-.142-.636,1.257,1.257,0,0,1,.251-.824,1.492,1.492,0,0,1,.67-.452,3.726,3.726,0,0,1,.964-.193q.542-.045,1.126-.044Zm-.182.661c-.256,0-.512.011-.77.033a3.147,3.147,0,0,0-.7.135,1.315,1.315,0,0,0-.517.293.673.673,0,0,0-.2.508.847.847,0,0,0,.088.4.725.725,0,0,0,.233.265.943.943,0,0,0,.323.144,1.472,1.472,0,0,0,.359.044,1.341,1.341,0,0,0,.584-.121,1.206,1.206,0,0,0,.43-.326,1.431,1.431,0,0,0,.265-.475,1.738,1.738,0,0,0,.091-.568v-.335Z" transform="translate(-15.42 -24.173)" fill="#fff"/>
              <path id="Path_1934" data-name="Path 1934" d="M74.146,36.868a.441.441,0,0,1-.137.331.415.415,0,0,1-.6,0,.435.435,0,0,1-.137-.331.44.44,0,0,1,.137-.331.415.415,0,0,1,.6,0,.447.447,0,0,1,.137.331m-.13,6.224H73.4V38.6h.621Z" transform="translate(-13.281 -25.065)" fill="#fff"/>
              <rect id="Rectangle_3125" data-name="Rectangle 3125" width="0.621" height="7.261" transform="translate(62.317 10.766)" fill="#fff"/>
              <path id="Path_1935" data-name="Path 1935" d="M78.673,39.293a1.018,1.018,0,0,0-1.14-1.155,1.774,1.774,0,0,0-.712.144,1.722,1.722,0,0,0-.557.386l-.347-.433a2.06,2.06,0,0,1,.7-.461,2.517,2.517,0,0,1,.98-.182,2.033,2.033,0,0,1,.647.1,1.52,1.52,0,0,1,.529.3,1.386,1.386,0,0,1,.356.508,1.862,1.862,0,0,1,.128.721v1.971c0,.172.005.351.019.536a4.005,4.005,0,0,0,.054.472h-.558c-.018-.109-.032-.228-.044-.356s-.019-.252-.019-.375h-.019a1.816,1.816,0,0,1-.661.649,1.862,1.862,0,0,1-.891.2,1.932,1.932,0,0,1-.5-.074,1.362,1.362,0,0,1-.473-.235,1.3,1.3,0,0,1-.356-.424,1.313,1.313,0,0,1-.142-.636,1.257,1.257,0,0,1,.251-.824,1.492,1.492,0,0,1,.67-.452,3.726,3.726,0,0,1,.964-.193q.542-.045,1.125-.044Zm-.182.661c-.256,0-.512.011-.77.033a3.147,3.147,0,0,0-.7.135,1.315,1.315,0,0,0-.517.293.673.673,0,0,0-.2.508.847.847,0,0,0,.088.4.725.725,0,0,0,.233.265.943.943,0,0,0,.323.144,1.472,1.472,0,0,0,.359.044,1.341,1.341,0,0,0,.584-.121,1.206,1.206,0,0,0,.43-.326,1.432,1.432,0,0,0,.265-.475,1.738,1.738,0,0,0,.091-.568v-.335Z" transform="translate(-11.478 -24.173)" fill="#fff"/>
              <path id="Path_1936" data-name="Path 1936" d="M79.146,37.706c.012.121.021.256.028.4s.009.27.009.365H79.2a1.458,1.458,0,0,1,.593-.638,1.666,1.666,0,0,1,.866-.244,1.465,1.465,0,0,1,1.22.508,2.094,2.094,0,0,1,.4,1.345V42.2h-.619V39.713a3.433,3.433,0,0,0-.056-.643,1.371,1.371,0,0,0-.188-.494.9.9,0,0,0-.354-.323,1.252,1.252,0,0,0-.563-.114,1.153,1.153,0,0,0-.892.426,1.616,1.616,0,0,0-.293.549,2.482,2.482,0,0,0-.11.782V42.2h-.619V38.695c0-.121,0-.277-.011-.47s-.016-.365-.028-.519Z" transform="translate(-9.302 -24.173)" fill="#fff"/>
              <path id="Path_1937" data-name="Path 1937" d="M85.191,42.581a1.794,1.794,0,0,1-.712.654,1.984,1.984,0,0,1-.9.221,2.2,2.2,0,0,1-.908-.184,2.046,2.046,0,0,1-.692-.5,2.211,2.211,0,0,1-.447-.749,2.772,2.772,0,0,1,0-1.864,2.246,2.246,0,0,1,.447-.749,2.07,2.07,0,0,1,.692-.5,2.2,2.2,0,0,1,.908-.182,1.946,1.946,0,0,1,.9.226,1.805,1.805,0,0,1,.712.668h.018V36.079h.621V43.34h-.621v-.759Zm-3.166-1.488a2.264,2.264,0,0,0,.109.7,1.748,1.748,0,0,0,.316.577,1.434,1.434,0,0,0,.507.384,1.61,1.61,0,0,0,.684.14,1.541,1.541,0,0,0,.657-.14,1.626,1.626,0,0,0,.521-.379,1.741,1.741,0,0,0,.342-.572,2.146,2.146,0,0,0,0-1.431,1.8,1.8,0,0,0-.342-.577,1.589,1.589,0,0,0-.521-.384,1.541,1.541,0,0,0-.657-.14,1.585,1.585,0,0,0-.684.144,1.5,1.5,0,0,0-.507.391,1.739,1.739,0,0,0-.316.575,2.267,2.267,0,0,0-.109.707" transform="translate(-7.182 -25.312)" fill="#fff"/>
            </g>
          </g>
        </g>
        <path id="Path_1938" data-name="Path 1938" d="M63.958,35.01a23.063,23.063,0,0,1-4.569,1.381,29.561,29.561,0,0,1-5.724.494,18.555,18.555,0,0,1-6.052-.938,14.179,14.179,0,0,1-4.7-2.626,11.826,11.826,0,0,1-4.164-9.2,11.619,11.619,0,0,1,4.26-9.211,14.3,14.3,0,0,1,4.683-2.526A18.674,18.674,0,0,1,53.55,11.5a20.309,20.309,0,0,1,5.994.836,12.716,12.716,0,0,1,4.376,2.2l-2.847,1.19a10.462,10.462,0,0,0-3.28-1.739,13.356,13.356,0,0,0-4.435-.717,8.419,8.419,0,0,0-3.464.763,11.389,11.389,0,0,0-3.2,2.479,11.5,11.5,0,0,0-1.909,3.478,12.473,12.473,0,0,0-.675,4.134,12.83,12.83,0,0,0,.675,4.22,11.229,11.229,0,0,0,1.928,3.5,10.715,10.715,0,0,0,3.164,2.43,10.912,10.912,0,0,0,3.946.777,15.024,15.024,0,0,0,5.326-.854V24.73H53.511V22.488H63.958Z" transform="translate(29.182 8.661)" fill="#fff"/>
        <rect id="Rectangle_3127" data-name="Rectangle 3127" width="4.856" height="24.156" transform="translate(99.037 20.776)" fill="#fff"/>
        <path id="Path_1939" data-name="Path 1939" d="M69.429,13.616H61.065V11.852H82.651v1.764H74.285V36.008H69.429Z" transform="translate(45.989 8.925)" fill="#fff"/>
      </g>
    </g>
  </g>
</svg>
