<svg xmlns="http://www.w3.org/2000/svg" width="253" height="358.02" viewBox="0 0 253 358.02">
  <g id="Group_6969" data-name="Group 6969" transform="translate(-1693.5 -1190.229)">
    <path id="Intersection_12" data-name="Intersection 12" d="M41.137,77.392,0,5.549,41.137,77.392ZM5.681,0,48.728,75.178Zm8.858,0L53.154,67.438ZM23.4,0,57.58,59.7Zm8.858,0L62.006,51.956Zm8.859,0L66.432,44.216Zm8.858,0L70.858,36.476Zm8.859,0L75.284,28.735Zm8.859,0L79.711,20.994Zm8.858,0,7.589,13.254ZM85.89.845l2.2,3.849Z" transform="translate(1810.929 1457.925) rotate(180)" fill="#fff" stroke="#707070" stroke-width="1" opacity="0.37"/>
    <path id="Intersection_13" data-name="Intersection 13" d="M36.469,41.7l6.477-11.312Zm-4.773,0,8.865-15.482Zm-4.773,0L38.176,22.044Zm-4.773,0L35.792,17.873Zm-4.773,0L33.407,13.7Zm-4.772,0L31.023,9.533Zm-4.773,0,20.8-36.333ZM45.322,34.57l-4.069,7.106ZM3.637,40.689,25.66,2.228,3.637,40.689ZM1.769,35.617l18.6-32.489L1.769,35.617Z" transform="translate(1834.679 1506.304)" fill="#fff" stroke="#707070" stroke-width="1" opacity="0.13"/>
    <path id="Polygon_28" data-name="Polygon 28" d="M117.841,14.991a10,10,0,0,1,17.318,0L244.335,204a10,10,0,0,1-8.659,15H17.325a10,10,0,0,1-8.659-15Z" transform="translate(1693.5 1190.229)" fill="#f1f1f1" opacity="0.35"/>
  </g>
</svg>
