<svg xmlns="http://www.w3.org/2000/svg" width="310.319" height="443.368" viewBox="0 0 310.319 443.368">
  <g id="Group_6968" data-name="Group 6968" transform="translate(-1662.567 -7501.645)">
    <path id="Intersection_9" data-name="Intersection 9" d="M76.547,77.392l7.59-13.255Zm-8.858,0L79.711,56.4Zm-8.859,0L75.285,48.656Zm-8.859,0L70.858,40.916Zm-8.858,0L66.432,33.176Zm-8.859,0L62.006,25.435Zm-8.858,0,34.183-59.7Zm-8.859,0L53.154,9.954Zm-8.858,0L48.728,2.214Zm82.413-4.7-2.2,3.85ZM0,71.842,41.137,0,0,71.842Z" transform="translate(1811.906 7867.373)" fill="#fff" stroke="#707070" stroke-width="1" opacity="0.37"/>
    <path id="Intersection_3" data-name="Intersection 3" d="M310.977,275.16,321.7,256.547Zm-30.093,0,25.783-44.741Zm-30.093,0,40.84-70.869Zm-30.093,0,55.9-97Zm-30.093,0,70.954-123.126Zm-30.093,0L246.522,125.9Zm-30.093,0L231.485,99.776Zm-30.093,0L216.449,73.648Zm-30.093,0L201.413,47.519Zm-30.093,0L186.377,21.391ZM12.25,271.332,168.671-.105,12.25,271.332Z" transform="translate(1650.75 7502)" fill="#fff" stroke="#707070" stroke-width="1" opacity="0.2"/>
  </g>
</svg>
