<svg xmlns="http://www.w3.org/2000/svg" width="139.17" height="110.59" viewBox="0 0 139.17 110.59">
  <g id="Group_6857" data-name="Group 6857" transform="translate(-1280 -586.368)" opacity="0.486">
    <path id="Polygon_27" data-name="Polygon 27" d="M55.147,15.012a10,10,0,0,1,17.323,0l46.493,80.58a10,10,0,0,1-8.662,15H17.315a10,10,0,0,1-8.662-15Z" transform="translate(1280 586.368)" fill="#f1f1f1" opacity="0.888"/>
    <path id="Intersection_40" data-name="Intersection 40" d="M43.8,43.528l4.5-7.809Zm-5.252,0,7.128-12.369Zm-5.252,0L43.055,26.6Zm-5.253,0L40.43,22.038Zm-5.252,0L37.805,17.477Zm-5.252,0,17.64-30.611Zm-5.252,0L32.557,8.357Zm-5.253,0L29.932,3.8Zm-4.81-.768L26.867,0,2.225,42.76ZM0,37.507,21.24.648,0,37.507Z" transform="translate(1370.433 608.781)" fill="#fff" stroke="#f8f8f8" stroke-width="1"/>
  </g>
</svg>
