<svg id="Group_441" data-name="Group 441" xmlns="http://www.w3.org/2000/svg" width="758" height="656" viewBox="0 0 758 656">
  <path id="Polygon_62" data-name="Polygon 62" d="M361.682,29.974a20,20,0,0,1,34.635,0L740.665,625.995A20,20,0,0,1,723.347,656H34.653a20,20,0,0,1-17.318-30.005Z" fill="#f1f1f1" opacity="0.45"/>
  <path id="Intersection_24" data-name="Intersection 24" d="M76.547,77.392l7.59-13.255Zm-8.858,0L79.711,56.4Zm-8.859,0L75.285,48.656Zm-8.859,0L70.858,40.916Zm-8.858,0L66.432,33.176Zm-8.859,0L62.006,25.435Zm-8.858,0,34.183-59.7Zm-8.859,0L53.154,9.954Zm-8.858,0L48.728,2.214Zm82.413-4.7-2.2,3.85ZM0,71.842,41.137,0,0,71.842Z" transform="translate(668 472.768)" fill="#fff" stroke="#707070" stroke-width="1" opacity="0.37"/>
</svg>
