<svg xmlns="http://www.w3.org/2000/svg" width="758" height="656" viewBox="0 0 758 656">
  <g id="Group_6969" data-name="Group 6969" transform="translate(-1570 -3760)">
    <path id="Intersection_4" data-name="Intersection 4" d="M41.137,77.392,0,5.549,41.137,77.392ZM5.681,0,48.728,75.178Zm8.858,0L53.154,67.438ZM23.4,0,57.58,59.7Zm8.858,0L62.006,51.956Zm8.859,0L66.432,44.216Zm8.858,0L70.858,36.476Zm8.859,0L75.284,28.735Zm8.859,0L79.711,20.994Zm8.858,0,7.589,13.254ZM85.89.845l2.2,3.849Z" transform="translate(1660 4310.16) rotate(180)" fill="#fff" stroke="#707070" stroke-width="1" opacity="0.37"/>
    <path id="Polygon_49" data-name="Polygon 49" d="M361.682,29.974a20,20,0,0,1,34.635,0L740.665,625.995A20,20,0,0,1,723.347,656H34.653a20,20,0,0,1-17.318-30.005Z" transform="translate(1570 3760)" fill="#f1f1f1" opacity="0.45"/>
  </g>
</svg>
