<svg xmlns="http://www.w3.org/2000/svg" width="530" height="648.943" viewBox="0 0 530 648.943">
  <g id="Group_6969" data-name="Group 6969" transform="translate(-1615 -2303.057)">
    <path id="Polygon_32" data-name="Polygon 32" d="M256.344,14.959a10,10,0,0,1,17.311,0L521.316,442.992A10,10,0,0,1,512.661,458H17.339a10,10,0,0,1-8.656-15.008Z" transform="translate(1615 2494)" fill="#f1f1f1" opacity="0.45"/>
    <path id="Intersection_7" data-name="Intersection 7" d="M184.39,159l6.059-10.515Zm-17,0,14.566-25.276Zm-17,0,23.071-40.036Zm-17,0,31.577-54.8Zm-17,0,40.082-69.556Zm-17,0,48.589-84.316Zm-17,0,57.094-99.076Zm-17,0,65.6-113.837Zm-17,0L122.5,30.4Zm-17,0L114,15.643Zm-14.246-4.778,85.7-148.716-85.7,148.716Z" transform="translate(1668.551 2442.494)" fill="#fff" stroke="#707070" stroke-width="1" opacity="0.37"/>
    <path id="Intersection_8" data-name="Intersection 8" d="M41.135,77.39,0,5.55,41.135,77.39ZM5.68,0,48.727,75.178Zm8.858,0L53.153,67.438ZM23.4,0,57.579,59.7Zm8.858,0L62.006,51.957Zm8.859,0L66.432,44.216Zm8.858,0L70.858,36.476ZM58.83,0,75.284,28.735Zm8.859,0L79.71,20.995Zm8.858,0,7.59,13.255Zm9.342.844L88.094,4.7Z" transform="translate(1880 2380.695) rotate(180)" fill="#fff" stroke="#707070" stroke-width="1" opacity="0.19"/>
  </g>
</svg>
