<svg xmlns="http://www.w3.org/2000/svg" width="206.411" height="164.189" viewBox="0 0 206.411 164.189">
  <g id="Group_353" data-name="Group 353" transform="translate(-367.187 -2466.907)">
    <path id="Intersection_11" data-name="Intersection 11" d="M67.893,68.632l6.681-11.594Zm-7.8,0L70.678,50.268Zm-7.8,0L66.782,43.5Zm-7.8,0L62.885,36.726Zm-7.8,0L58.989,29.955Zm-7.8,0L55.092,23.184Zm-7.8,0L51.2,16.413Zm-7.8,0L47.3,9.642Zm-7.788-.018L43.394,2.886,5.517,68.615ZM.986,62.945,36.273,1.71.986,62.945Z" transform="translate(498.59 2496.175)" fill="#fff" stroke="#707070" stroke-width="1" opacity="0.37"/>
    <path id="Polygon_27" data-name="Polygon 27" d="M86.072,15.012a10,10,0,0,1,17.323,0l77.419,134.179a10,10,0,0,1-8.662,15H17.315a10,10,0,0,1-8.662-15Z" transform="translate(367.187 2466.907)" fill="#f1f1f1" opacity="0.36"/>
  </g>
</svg>
