<svg xmlns="http://www.w3.org/2000/svg" width="1014.211" height="604" viewBox="0 0 1014.211 604">
  <g id="Group_6968" data-name="Group 6968" transform="translate(383 -6766)">
    <path id="Intersection_1" data-name="Intersection 1" d="M184.39,159l6.059-10.515Zm-17,0,14.566-25.276Zm-17,0,23.071-40.036Zm-17,0,31.577-54.8Zm-17,0,40.082-69.556Zm-17,0,48.589-84.316Zm-17,0,57.094-99.076Zm-17,0,65.6-113.837Zm-17,0L122.5,30.4Zm-17,0L114,15.643Zm-14.246-4.778,85.7-148.716-85.7,148.716Z" transform="translate(139.551 7069.494)" fill="#fff" stroke="#707070" stroke-width="1" opacity="0.37"/>
    <path id="Intersection_2" data-name="Intersection 2" d="M41.137,77.392,0,5.549,41.137,77.392ZM5.681,0,48.728,75.178Zm8.858,0L53.154,67.438ZM23.4,0,57.58,59.7Zm8.858,0L62.006,51.956Zm8.859,0L66.432,44.216Zm8.858,0L70.858,36.476Zm8.859,0L75.284,28.735Zm8.859,0L79.711,20.994Zm8.858,0,7.589,13.254ZM85.89.845l2.2,3.849Z" transform="translate(512.547 7105.393) rotate(180)" fill="#fff" stroke="#707070" stroke-width="1" opacity="0.37"/>
    <path id="Intersection_10" data-name="Intersection 10" d="M36.469,41.7l6.477-11.312Zm-4.773,0,8.865-15.482Zm-4.773,0L38.176,22.044Zm-4.773,0L35.792,17.873Zm-4.773,0L33.407,13.7Zm-4.772,0L31.023,9.533Zm-4.773,0,20.8-36.333ZM45.322,34.57l-4.069,7.106ZM3.637,40.689,25.66,2.228,3.637,40.689ZM1.769,35.617l18.6-32.489L1.769,35.617Z" transform="translate(585.455 7164.304)" fill="#fff" stroke="#707070" stroke-width="1" opacity="0.13"/>
    <path id="Polygon_14" data-name="Polygon 14" d="M331.177,30.024a20,20,0,0,1,34.646,0L679.693,574a20,20,0,0,1-17.323,30H34.63a20,20,0,0,1-17.323-30Z" transform="translate(-383 6766)" fill="#f1f1f1" opacity="0.36"/>
  </g>
</svg>
