<svg xmlns="http://www.w3.org/2000/svg" width="457.948" height="357.925" viewBox="0 0 457.948 357.925">
  <g id="Group_6968" data-name="Group 6968" transform="translate(147.515 -1172.075)">
    <path id="Intersection_11" data-name="Intersection 11" d="M184.39,159l6.059-10.515Zm-17,0,14.566-25.276Zm-17,0,23.071-40.036Zm-17,0,31.577-54.8Zm-17,0,40.082-69.556Zm-17,0,48.589-84.316Zm-17,0,57.094-99.076Zm-17,0,65.6-113.837Zm-17,0L122.5,30.4Zm-17,0L114,15.643Zm-14.246-4.778,85.7-148.716-85.7,148.716Z" transform="translate(119.551 1226.494)" fill="#fff" stroke="#707070" stroke-width="1" opacity="0.37"/>
    <path id="Polygon_27" data-name="Polygon 27" d="M197.853,15.012a10,10,0,0,1,17.323,0l189.2,327.915a10,10,0,0,1-8.662,15H17.315a10,10,0,0,1-8.662-15Z" transform="translate(-147.515 1172.075)" fill="#f1f1f1" opacity="0.36"/>
  </g>
</svg>
