<svg xmlns="http://www.w3.org/2000/svg" width="227.301" height="227.804" viewBox="0 0 227.301 227.804">
  <g id="Group_4785" data-name="Group 4785" transform="translate(0 1.128)">
    <path id="Path_7784" data-name="Path 7784" d="M412.1,10.815a40.891,40.891,0,0,0-57.761,0l5.023,5.023a33.74,33.74,0,0,1,47.715,47.715l5.023,5.023A40.89,40.89,0,0,0,412.1,10.815Z" transform="translate(-197.034 0)" fill="#0f2852"/>
    <path id="Path_7785" data-name="Path 7785" d="M127.857,189.306H110.1a3.552,3.552,0,0,0-3.552,3.552v44.109L84.294,249.683H71.032v-3.552H73.7a15.111,15.111,0,0,0,15.094-15.094V207.064a3.552,3.552,0,0,0-3.552-3.552H60.377a10.667,10.667,0,0,0-10.655,10.655v35.516H44.63L24.78,216.6,21.3,174.8a3.552,3.552,0,0,0-2.678-3.152L4.413,168.1A3.552,3.552,0,0,0,0,171.549v49.932a3.553,3.553,0,0,0,.336,1.507l24.525,52.347v45.38h7.1v-46.17a3.553,3.553,0,0,0-.336-1.507L7.1,220.69V176.1l7.325,1.832,3.34,40.085a3.553,3.553,0,0,0,.494,1.533l21.309,35.516a3.552,3.552,0,0,0,3.047,1.724H57.326l4.921,32.234v17.488h7.1V288.75a3.547,3.547,0,0,0-.041-.536l-4.8-31.428H85.238A3.551,3.551,0,0,0,87,256.318l24.861-14.206a3.551,3.551,0,0,0,1.79-3.084V196.41h10.655v51.536l-30.593,23.8a3.552,3.552,0,0,0-1.371,2.8v46.17h7.1V276.281l30.593-23.8a3.552,3.552,0,0,0,1.371-2.8V192.858a3.552,3.552,0,0,0-3.552-3.552Zm-67.48,21.309H81.686v3.552H67.48a3.55,3.55,0,0,0-2.131.71l-8.524,6.393v-7.1A3.556,3.556,0,0,1,60.377,210.616Zm-3.552,19.534,11.839-8.879H81.686v9.767a8,8,0,0,1-7.991,7.991H67.48a3.552,3.552,0,0,0-3.552,3.552v7.1h-7.1Z" transform="translate(0 -94.041)" fill="#0f2852"/>
    <path id="Path_7786" data-name="Path 7786" d="M79.288,118.962l20.091,20.091a3.552,3.552,0,0,0,5.023,0h0l12.919-12.919a40.614,40.614,0,0,0,13.357,2.258,41.029,41.029,0,0,0,28.976-11.942l-5.024-5.022a33.913,33.913,0,0,1-34.539,8.156l-.614-.614-.008-.008-2.511-2.511,17.58-17.58-5.023-5.023-17.58,17.58-5.022-5.023,17.58-17.58L119.469,83.8l-17.58,17.58-3.134-3.135a33.913,33.913,0,0,1,8.158-34.538l-5.024-5.021A41.043,41.043,0,0,0,92.2,101.023L79.288,113.939a3.552,3.552,0,0,0,0,5.023Zm10.046-5.023,7.534,7.534,5.021-5.022-7.534-7.535,2.511-2.511,13.158,13.154,1.912,1.912-10.047,10.047L86.822,116.451Z" transform="translate(-43.51 -33.261)" fill="#0f2852"/>
    <path id="Path_7787" data-name="Path 7787" d="M170.75,65.426c3.019.074,5.017.122,7.306,2.414s2.34,4.287,2.414,7.307c.086,3.5.192,7.858,4.493,12.157s8.657,4.407,12.157,4.492c3.019.074,5.017.123,7.307,2.414l5.025-5.023c-4.3-4.3-8.657-4.407-12.157-4.492-3.019-.074-5.017-.123-7.307-2.414s-2.34-4.287-2.414-7.307c-.086-3.5-.192-7.858-4.493-12.157s-8.657-4.406-12.156-4.491c-3.019-.074-5.017-.122-7.306-2.414s-2.34-4.286-2.414-7.306c-.085-3.5-.192-7.855-4.492-12.156l-5.025,5.023c2.292,2.291,2.34,4.286,2.414,7.306.085,3.5.192,7.855,4.492,12.156s8.656,4.406,12.156,4.491Z" transform="translate(-84.347 -20.895)" fill="#0f2852"/>
    <path id="Path_7788" data-name="Path 7788" d="M347.828,48.807c.085,3.5.192,7.858,4.492,12.157s8.657,4.406,12.156,4.491c3.019.074,5.017.122,7.306,2.413s2.34,4.287,2.414,7.307c.085,3.5.192,7.858,4.493,12.157s8.657,4.407,12.157,4.492c3.019.074,5.017.123,7.307,2.414l5.022-5.023c-4.3-4.3-8.657-4.407-12.157-4.492C388,84.65,386,84.6,383.712,82.31S381.371,78.023,381.3,75c-.085-3.5-.192-7.855-4.493-12.157s-8.657-4.406-12.156-4.491c-3.019-.074-5.017-.122-7.306-2.414s-2.34-4.286-2.414-7.306c-.085-3.5-.192-7.858-4.492-12.157L345.414,41.5c2.292,2.291,2.34,4.286,2.414,7.306Z" transform="translate(-192.069 -20.911)" fill="#0f2852"/>
    <path id="Path_7789" data-name="Path 7789" d="M312.785,179.062l-18.455,7.305-33.511-58.226V65.162a3.552,3.552,0,0,0-1.127-2.6L198.871,5.741l-4.85,5.191L253.716,66.7V129.09a3.554,3.554,0,0,0,.473,1.771L289.7,192.57a3.552,3.552,0,0,0,4.385,1.531l14.223-5.63-10.728,32.183-34.644-9.661,13.825-7.777a3.551,3.551,0,0,0,1.354-4.836c-.008-.016-.018-.032-.027-.047l-38.807-66.65v-59.2a3.55,3.55,0,0,0-1.1-2.567l-70.81-67.7-4.908,5.134L232.184,74v58.637a3.549,3.549,0,0,0,.483,1.787l37.475,64.365-18.168,10.22a3.552,3.552,0,0,0,.787,6.517l46.17,12.874a3.547,3.547,0,0,0,4.323-2.3l14.206-42.619a3.551,3.551,0,0,0-4.677-4.426Z" transform="translate(-90.343 -1.86)" fill="#0f2852"/>
    <path id="Path_7790" data-name="Path 7790" d="M419.739,42.655V32h-7.1v8.754L403.563,46.8l3.94,5.91,10.655-7.1A3.551,3.551,0,0,0,419.739,42.655Z" transform="translate(-224.402 -18.421)" fill="#0f2852"/>
    <path id="Path_7791" data-name="Path 7791" d="M441.263,79.1h9.579V72H440.188a3.552,3.552,0,0,0-1.97.6l-10.655,7.1,3.94,5.91Z" transform="translate(-237.748 -40.663)" fill="#0f2852"/>
    <path id="Path_7792" data-name="Path 7792" d="M416,200h7.1v7.1H416Z" transform="translate(-231.318 -111.838)" fill="#0f2852"/>
    <path id="Path_7793" data-name="Path 7793" d="M432,248h7.1v7.1H432Z" transform="translate(-240.215 -138.528)" fill="#0f2852"/>
    <path id="Path_7794" data-name="Path 7794" d="M104,16h7.1v7.1H104Z" transform="translate(-57.83 -9.524)" fill="#0f2852"/>
  </g>
</svg>
