<svg xmlns="http://www.w3.org/2000/svg" width="224.178" height="229" viewBox="0 0 224.178 229">
  <g id="Group_5722" data-name="Group 5722" transform="translate(-848 -1226)">
    <path id="Path_7779" data-name="Path 7779" d="M5.587,213.782l2.969,6.682L115.078,176.3l18.558,2.227,6.68,20.414-8.907,8.538a10.7,10.7,0,0,0-2.6,12.248L132.523,229l61.611-24.125-3.34-8.908c-1.484-4.455-5.568-7.051-10.391-7.051H168.152l-6.68-15.961,16.331-8.165a11.154,11.154,0,0,0,5.567-13.734L162.215,94.271c-2.227-5.939-8.538-8.538-14.476-6.682a.363.363,0,0,0-.37.372l-15.589,6.68-2.227-5.568,8.538-10.02A43.676,43.676,0,0,0,148.853,55.3l10.763-12.99c7.052-8.166,5.567-20.414-2.6-27.467a31.089,31.089,0,0,0-4.453-2.969,18.445,18.445,0,0,0-12.619-1.113L138.832,7.42a10.733,10.733,0,0,0-14.1-6.68L46.414,28.947c-5.939,2.227-8.907,8.536-6.68,14.1v.372l1.856,4.824a20.564,20.564,0,0,0-10.765,25.24A21.11,21.11,0,0,0,47.9,87.218l17.445,1.856a48.334,48.334,0,0,0,24.125,9.279l12.248,1.115,2.227,5.567a11.054,11.054,0,0,0-5.2,7.423l-2.6,12.619L5.587,161.82l2.6,7.052,51.962-20.783,12.619,37.857ZM183.37,198.195l.743,2.226L136.6,219.35l-1.113-2.227a5.145,5.145,0,0,1,.743-4.081l12.619-11.878,15.959-5.2h14.846A3.723,3.723,0,0,1,183.37,198.195Zm-23.382-8.909-13.362,4.455-4.824-14.1a8.25,8.25,0,0,0,5.937-1.115l6.31-2.969ZM149.966,93.528a3.684,3.684,0,0,1,4.826,1.856l2.968,7.795-18.186,5.939,2.227,7.052,18.186-5.939,4.453,11.878L147,128.045l2.227,7.053,17.815-5.939,4.455,11.876L154.421,146.6l2.227,7.053,17.443-5.939,1.856,4.824A3.276,3.276,0,0,1,174.091,157L144.77,171.471a4.7,4.7,0,0,1-2.227.372l-25.238-2.971-13.734-41.2,2.6-13.734a3.926,3.926,0,0,1,2.227-2.6Zm-.372-74.974a12.3,12.3,0,0,1,6.31,15.961,13,13,0,0,1-1.856,2.969l-4.455,5.567a55.455,55.455,0,0,0-2.225-10.763l-4.826-14.475A14.835,14.835,0,0,1,149.595,18.554ZM38.248,71.631a12.786,12.786,0,0,1,6.31-15.961l5.2,12.621a53.787,53.787,0,0,0,7.423,12.619l-7.794-.743A12.414,12.414,0,0,1,38.248,71.631Zm52.7,19.67A40.56,40.56,0,0,1,56.806,65.691l-9.649-24.5a3.681,3.681,0,0,1,1.856-4.824L127.325,8.163a4.1,4.1,0,0,1,2.97,0,3.8,3.8,0,0,1,1.856,2.227l8.164,24.5a40.8,40.8,0,0,1-7.793,39.341L121.017,87.59l3.34,8.907-13.362,5.568-3.711-9.279ZM67.2,145.119l8.536-3.34,9.279,28.208,7.052-2.227-9.649-28.95,14.846-5.939,12.619,37.487L79.818,182.977Z" transform="translate(842.413 1226)" fill="#157fe7"/>
    <path id="Path_7780" data-name="Path 7780" d="M378.917,84.2v3.711h7.423V84.2A18.378,18.378,0,0,1,404.9,65.641V58.218A18.377,18.377,0,0,1,386.34,39.66V35.949h-7.423V39.66a18.376,18.376,0,0,1-18.558,18.558v7.423A18.377,18.377,0,0,1,378.917,84.2Zm3.711-31.177a25.581,25.581,0,0,0,8.907,8.908,25.6,25.6,0,0,0-8.907,8.909,25.6,25.6,0,0,0-8.907-8.909A25.581,25.581,0,0,0,382.628,53.022Z" transform="translate(652.434 1206.75)" fill="#0f2852"/>
    <path id="Path_7781" data-name="Path 7781" d="M27.34,244.006v3.712h7.423v-3.712a18.378,18.378,0,0,1,18.558-18.558v-7.423a18.377,18.377,0,0,1-18.558-18.558v-3.712H27.34v3.712A18.376,18.376,0,0,1,8.782,218.026v7.423A18.377,18.377,0,0,1,27.34,244.006Zm3.712-31.177a25.576,25.576,0,0,0,8.907,8.907,25.6,25.6,0,0,0-8.907,8.909,25.6,25.6,0,0,0-8.908-8.909A25.577,25.577,0,0,0,31.052,212.83Z" transform="translate(840.702 1121.173)" fill="#0f2852"/>
    <path id="Path_7782" data-name="Path 7782" d="M418.3,199.468v-3.712h-7.423v3.712a18.376,18.376,0,0,1-18.558,18.558v7.423a18.377,18.377,0,0,1,18.558,18.558v3.712H418.3v-3.712a18.379,18.379,0,0,1,18.558-18.558v-7.423A18.378,18.378,0,0,1,418.3,199.468Zm-3.711,31.178a25.6,25.6,0,0,0-8.907-8.909,25.58,25.58,0,0,0,8.907-8.907,25.58,25.58,0,0,0,8.907,8.907A25.6,25.6,0,0,0,414.59,230.646Z" transform="translate(635.319 1121.173)" fill="#0f2852"/>
  </g>
</svg>
