<svg xmlns="http://www.w3.org/2000/svg" width="256.419" height="200.473" viewBox="0 0 256.419 200.473">
  <g id="Group_6968" data-name="Group 6968" transform="translate(-1315 -1152)">
    <path id="Intersection_11" data-name="Intersection 11" d="M83.5,84.839l8.158-14.156Zm-9.522,0L86.9,62.416Zm-9.522,0L82.14,54.148Zm-9.521,0,22.45-38.958Zm-9.522,0L72.624,37.614Zm-9.522,0L67.867,29.347Zm-9.521,0L63.109,21.08Zm-9.522,0L58.352,12.813Zm-9.521,0L53.594,4.546Zm88.821-5.425-2.856,4.955ZM.966,79.348,45.727,1.674.966,79.348Z" transform="translate(1474.841 1186.696)" fill="#f7eced" stroke="#e72c3a" stroke-width="1" opacity="0.37"/>
    <path id="Polygon_27" data-name="Polygon 27" d="M107.007,15.012a10,10,0,0,1,17.323,0l98.353,170.463a10,10,0,0,1-8.662,15H17.315a10,10,0,0,1-8.662-15Z" transform="translate(1315 1152)" fill="#f7eced" opacity="0.36"/>
  </g>
</svg>
