<svg xmlns="http://www.w3.org/2000/svg" width="143.94" height="114.392" viewBox="0 0 143.94 114.392">
  <g id="Group_352" data-name="Group 352" transform="translate(-367.187 -2466.907)">
    <path id="Intersection_11" data-name="Intersection 11" d="M46.615,46.625l4.655-8.078Zm-5.433,0,7.374-12.8Zm-5.433,0L45.84,29.112Zm-5.433,0L43.126,24.4Zm-5.433,0L40.411,19.678Zm-5.433,0L37.7,14.961Zm-5.433,0L34.982,10.243Zm-5.433,0,23.684-41.1Zm-5.04-.682L29.161,1.487,3.542,45.943ZM1.172,40.629,23.41,2.038,1.172,40.629Z" transform="translate(459.423 2488.49)" fill="#fff" stroke="#707070" stroke-width="1" opacity="0.37"/>
    <path id="Polygon_27" data-name="Polygon 27" d="M57.34,15.012a10,10,0,0,1,17.323,0L123.35,99.394a10,10,0,0,1-8.662,15H17.315a10,10,0,0,1-8.662-15Z" transform="translate(367.187 2466.907)" fill="#f1f1f1" opacity="0.36"/>
  </g>
</svg>
