<svg xmlns="http://www.w3.org/2000/svg" width="378.62" height="378.62" viewBox="0 0 378.62 378.62">
  <g id="Outline" transform="translate(-2 -2)" opacity="0.12">
    <g id="Group_426" data-name="Group 426" transform="translate(2 2)">
      <path id="Path_156" data-name="Path 156" d="M8.349,119.107a6.31,6.31,0,0,0,8.626-2.31L36.259,83.435l29.375,16.918a6.31,6.31,0,0,0,7.951-1.376A131.883,131.883,0,0,1,88.338,84.224a6.31,6.31,0,0,0,1.369-7.945L72.79,46.9,105.54,27.973l16.975,29.312a6.31,6.31,0,0,0,7.572,2.789,132.849,132.849,0,0,1,20.193-5.357,6.31,6.31,0,0,0,5.143-6.209V14.621h37.862V48.507a6.31,6.31,0,0,0,5.174,6.209,132.85,132.85,0,0,1,20.193,5.357,6.31,6.31,0,0,0,7.572-2.789L243.2,27.973,275.951,46.9,259.033,76.279a6.31,6.31,0,0,0,1.369,7.945,131.881,131.881,0,0,1,14.754,14.754,6.31,6.31,0,0,0,7.951,1.376l29.375-16.918,18.931,32.757L302.1,133.16a6.31,6.31,0,0,0,6.31,10.923l34.77-20.136a6.31,6.31,0,0,0,2.3-8.614L320.243,71.666a6.31,6.31,0,0,0-8.614-2.31L281.258,86.849c-2.783-3.035-5.679-5.957-8.733-8.734l17.5-30.372a6.31,6.31,0,0,0-2.316-8.614L244.046,13.889a6.31,6.31,0,0,0-8.62,2.3L217.845,46.519c-3.931-1.262-7.926-2.291-11.939-3.155V8.31A6.31,6.31,0,0,0,199.6,2H149.113a6.31,6.31,0,0,0-6.31,6.31V43.345c-4.013.883-8.008,1.944-11.939,3.155L113.3,16.192a6.31,6.31,0,0,0-8.62-2.3L61.021,39.13a6.31,6.31,0,0,0-2.316,8.614L76.2,78.115c-3.029,2.777-5.951,5.679-8.733,8.733L37.1,69.357a6.31,6.31,0,0,0-8.614,2.3L6.045,110.475a6.31,6.31,0,0,0,2.3,8.633Z" transform="translate(14.955 -2)" fill="#bbb"/>
      <circle id="Ellipse_38" data-name="Ellipse 38" cx="6.5" cy="6.5" r="6.5" transform="translate(309 284)" fill="#bbb"/>
      <circle id="Ellipse_39" data-name="Ellipse 39" cx="6.5" cy="6.5" r="6.5" transform="translate(309 309)" fill="#bbb"/>
      <path id="Path_157" data-name="Path 157" d="M342.247,173.163a31.217,31.217,0,0,0,6.821-19.354V134.878a6.31,6.31,0,0,0-6.31-6.31,23.979,23.979,0,0,1-17.082-7.074l-3.7-3.7a6.31,6.31,0,0,0-8.923,0l-3.7,3.7a23.979,23.979,0,0,1-17.082,7.074c-.164,0-.309.082-.473.095a48.066,48.066,0,0,0-1.963-21.846,44.122,44.122,0,0,1,71.85,34.372v23.26a6.31,6.31,0,1,0,12.621,0v-23.26a56.686,56.686,0,0,0-84.95-49.221A100.9,100.9,0,0,0,113.434,51.784a6.31,6.31,0,0,0,9.724,8A88.212,88.212,0,0,1,273.067,82.7a50.274,50.274,0,0,0-60.642-1.489,36.688,36.688,0,0,0-14.8-3.124,37.786,37.786,0,0,0-18.931,70.537v5.187a44.027,44.027,0,0,0,13.7,31.9,40.91,40.91,0,0,0-6.172,1.186,44.306,44.306,0,0,0-5.137,1.836,44.059,44.059,0,0,0-28.125-15.587,31.236,31.236,0,0,0,6.8-19.335V128.568a31.59,31.59,0,0,0-31.552-31.552h-7.781A56.793,56.793,0,0,0,8.31,109.637v16.95a6.31,6.31,0,1,0,12.621,0v-16.95a44.134,44.134,0,0,1,86.452-12.621h-4.417a6.31,6.31,0,0,0-6.31,6.31v33.445a43.769,43.769,0,0,0-7.068-1.565,33.016,33.016,0,0,0,7-19.259,6.31,6.31,0,0,0-5.616-6.455,21.84,21.84,0,0,1-19.4-19.467A6.31,6.31,0,0,0,65.293,84.4h-6.5a25.241,25.241,0,0,0-25.241,25.241v6.31a31.552,31.552,0,0,0,6.777,19.366A44.172,44.172,0,0,0,2,179.05v63.1a6.31,6.31,0,0,0,12.621,0V204.292H27.241v37.862a6.31,6.31,0,0,0,6.31,6.31H65.1V267.4a6.31,6.31,0,0,0,6.31,6.31h63.1a6.31,6.31,0,0,0,6.31-6.31,6.222,6.222,0,0,0-4.708-5.989l10.04-15.883a6.254,6.254,0,0,0,.89-4.417L141.78,209.46a13.712,13.712,0,0,0-3.37-6.941l6.834-6.7a6.31,6.31,0,0,0,1.893-4.5v-5.957a31.507,31.507,0,0,1,22.881,9.9,44.027,44.027,0,0,0-16.571,34.271v75.724a6.31,6.31,0,0,0,6.31,6.31H260.724a6.31,6.31,0,0,0,6.31-6.31V254.774a6.31,6.31,0,0,0-12.621,0v44.172h-31.8a6.31,6.31,0,0,0,4.417-1.8l5.3-5.2a31.735,31.735,0,0,0,9.459-22.528v-9.081a69.193,69.193,0,0,0-4.739-25.241l-1.963-5.048,10.191,5.1a6.31,6.31,0,0,0,8.916-4.013l3.906-14.608a6.31,6.31,0,0,0-12.185-3.262l-1.893,7.137-11.2-5.6,14.015-16.811H248.1a29.514,29.514,0,0,1,8.159,1.117,31.006,31.006,0,0,1,6.941,2.865l.051.057c.069.038.139.05.2.088a31.438,31.438,0,0,1,16.2,27.425v75.724a6.31,6.31,0,1,0,12.621,0V229.533a44.084,44.084,0,0,0-16.527-34.259,31.287,31.287,0,0,1,22.837-9.914v5.957a6.31,6.31,0,0,0,1.811,4.417l12.393,12.621a6.31,6.31,0,0,0,4.449,1.893h.05a6.273,6.273,0,0,0,4.417-1.811l12.848-12.621a6.311,6.311,0,0,0,1.893-4.5v-5.957A31.59,31.59,0,0,1,368,216.912v12.621H355.379V216.912a6.31,6.31,0,1,0-12.621,0v44.172H311.206a6.31,6.31,0,1,0,0,12.621h37.862a6.31,6.31,0,0,0,6.31-6.31V242.154H368V267.4a6.31,6.31,0,1,0,12.621,0V216.912a44.216,44.216,0,0,0-38.373-43.75ZM128.592,249.726l-6.355-9.055,4.846-29.091a1.18,1.18,0,0,1,2.246,0l4.878,29.267Zm-.385-76.986a18.931,18.931,0,0,1-18.931-18.931V134.878h37.862v18.931A18.931,18.931,0,0,1,128.207,172.74Zm-.145,22.275-6.165-6.31V184.73a31.551,31.551,0,0,0,12.621,0v3.95Zm18-72.758H109.276V109.637h18.931a18.969,18.969,0,0,1,17.852,12.621ZM58.793,146.8a31.9,31.9,0,0,0,6.348.694c1.016,0,2.026-.05,3.042-.145a30.462,30.462,0,0,0,3.231-.631v5.193l-6.437,12.621-6.184-12.621ZM46.172,109.637A12.621,12.621,0,0,1,58.793,97.016H60.1a34.284,34.284,0,0,0,23.077,23.7A19.922,19.922,0,0,1,75.2,131.792a4.157,4.157,0,0,0-.442.3,17.915,17.915,0,0,1-7.793,2.695,18.78,18.78,0,0,1-14.577-4.808,19.013,19.013,0,0,1-6.216-14.028Zm-6.31,126.207V179.05a6.31,6.31,0,1,0-12.621,0v12.621H14.621V179.05A31.59,31.59,0,0,1,46.172,147.5v5.957a6.26,6.26,0,0,0,.631,2.783L59.2,181.48a6.31,6.31,0,0,0,5.616,3.527h.044a6.31,6.31,0,0,0,5.623-3.452l12.848-25.241a6.222,6.222,0,0,0,.707-2.859V147.5a31.615,31.615,0,0,1,12.621,2.682v3.628a31.217,31.217,0,0,0,6.821,19.354A44.217,44.217,0,0,0,65.1,216.912v18.931Zm37.862-18.931a31.59,31.59,0,0,1,31.552-31.552v5.957a6.31,6.31,0,0,0,1.811,4.417l6.8,6.941a13.807,13.807,0,0,0-3.25,6.815l-5.269,31.64a6.31,6.31,0,0,0,1.054,4.657l10.734,15.3H102.965V216.912a6.31,6.31,0,1,0-12.621,0v44.172H77.724Zm220.862-76.26a36.455,36.455,0,0,0,18.931-9.466,36.455,36.455,0,0,0,18.931,9.466v13.157a18.931,18.931,0,1,1-37.862,0ZM197.62,90.706a24.875,24.875,0,0,1,12.419,3.42,6.31,6.31,0,0,0,7.225-.675,37.809,37.809,0,1,1,49.772,56.929l0-23.137a6.31,6.31,0,0,0-7.673-6.165,51.63,51.63,0,0,1-11.258,1.18c-15.145,0-29.293-6.4-35.136-15.921a6.31,6.31,0,0,0-4.809-3.01,6.19,6.19,0,0,0-5.269,2.076L180.3,130.644a6.311,6.311,0,0,0-1.262,2.291A25.185,25.185,0,0,1,197.62,90.706Zm-6.31,63.1v-16.52l16-17.871a57.645,57.645,0,0,0,40.8,15.46c2.139,0,4.247-.1,6.31-.284v19.215a31.552,31.552,0,0,1-63.1,0Zm6.31,44.172h1.262L212.91,214.83l-11.2,5.6-5.982-22.326c.631-.038,1.262-.126,1.893-.126Zm25.241,9.068-8.2-9.863a42.783,42.783,0,0,0,16.407,0Zm-31.552,91.9V254.774a6.31,6.31,0,1,0-12.621,0v44.172H166.069V229.533a31.463,31.463,0,0,1,17.492-28.119l7.964,29.753a6.31,6.31,0,0,0,8.916,4.013l10.6-5.3-1.893,4.682a69.061,69.061,0,0,0-5.219,26.339v8.834a31.369,31.369,0,0,0,9.024,22.086l5.156,5.257a6.31,6.31,0,0,0,4.417,1.893Zm37.862-29.532a19.057,19.057,0,0,1-5.679,13.517l-.8.782-.738-.751a18.855,18.855,0,0,1-5.414-13.252v-8.835a56.54,56.54,0,0,1,4.247-21.543l2.234-5.452,2.259,5.793a56.579,56.579,0,0,1,3.887,20.66Zm35.451-80.7a43.294,43.294,0,0,0-5.01-1.792,41.016,41.016,0,0,0-6.31-1.212,44.172,44.172,0,0,0,11.725-18.824,50.363,50.363,0,0,0,20.938-20.49v7.408a31.242,31.242,0,0,0,6.8,19.322,43.876,43.876,0,0,0-28.138,15.587Zm52.748,6.31-6.165-6.31V184.73a31.551,31.551,0,0,0,12.621,0v3.95Z" transform="translate(-2 67.053)" fill="#bbb"/>
      <circle id="Ellipse_40" data-name="Ellipse 40" cx="6" cy="6" r="6" transform="translate(202 209)" fill="#bbb"/>
      <ellipse id="Ellipse_41" data-name="Ellipse 41" cx="6.5" cy="6" rx="6.5" ry="6" transform="translate(227 209)" fill="#bbb"/>
    </g>
  </g>
</svg>
