<svg xmlns="http://www.w3.org/2000/svg" width="295.861" height="394.623" viewBox="0 0 295.861 394.623">
  <g id="businessman" transform="translate(-64.068)" opacity="0.115">
    <path id="Path_155" data-name="Path 155" d="M97.835,236.836l-.1.039c-16.216,6.674-33.67,25.8-33.67,52.016v89.924a15.825,15.825,0,0,0,15.807,15.807h171.78a5.781,5.781,0,0,0,0-11.561H228.325V322.174a5.781,5.781,0,0,0-11.561,0v60.887h-9.55V241.132h9.55V295.2a5.781,5.781,0,0,0,11.561,0V251a11.225,11.225,0,0,0,16.16,1.91l29.02-24.065,48.406,18.746c13.155,5.443,26.455,21.362,26.455,41.3v89.924a4.252,4.252,0,0,1-4.246,4.246h-30.6V282.987a5.781,5.781,0,0,0-11.561,0V383.061H278.632a5.781,5.781,0,1,0,0,11.561h65.489a15.825,15.825,0,0,0,15.807-15.807V288.891c0-22.467-13.845-43.857-33.669-52.016l-.113-.045-51.63-19.995-25.974-10.059-.012-15.256a61.337,61.337,0,0,0,24.185-39.829,27.8,27.8,0,0,0,20.4-48.854V81.122a81.122,81.122,0,1,0-162.244,0v21.715a27.795,27.795,0,0,0,20.34,48.858,60.019,60.019,0,0,0,24.2,39.915v14.926l-77.587,30.3Zm97.819,146.225H122.036V282.987a5.781,5.781,0,0,0-11.561,0V383.061h-30.6a4.252,4.252,0,0,1-4.246-4.246V288.891c0-22.283,15.808-36.9,26.463-41.306l48.268-18.851,29.15,24.173a11.224,11.224,0,0,0,16.141-1.885V383.061ZM221.01,222.089a11.41,11.41,0,0,0-4.021,7.482h-9.98a11.328,11.328,0,0,0-4.021-7.482L186.85,208.707a15.153,15.153,0,0,0,.133-1.8v-8.729a63.526,63.526,0,0,0,49.992.148l.007,8.632a11.566,11.566,0,0,0,.142,1.769Zm40.151,1.972-23.789,19.727-8.764-12.98,15.909-13.192Zm30.172-100.082a16.269,16.269,0,0,1-17.892,16.169V107.821A16.256,16.256,0,0,1,291.332,123.979ZM150.557,140.148a16.247,16.247,0,1,1,0-32.328Zm.075-43.927a28.618,28.618,0,0,0-8.195.707V81.122a69.56,69.56,0,1,1,139.121,0V96.927a28.632,28.632,0,0,0-8.194-.706c-1.551-22.862-25.821-36.657-46.53-26.612h0c-10.734,5.208-18.931,5.211-29.672,0-20.869-10.125-45,3.955-46.53,26.611Zm11.487,46.5V98.448c0-15.666,16.355-25.057,30-18.436,13.93,6.757,25.816,6.768,39.765,0,13.692-6.641,30,2.811,30,18.436v43.866A49.355,49.355,0,0,1,247.24,177.4C216.592,208.015,162.119,186.805,162.119,142.721Zm17.155,74.721,16.116,13.365-8.763,12.98-23.952-19.862Z" fill="#bbb"/>
  </g>
</svg>
