<svg xmlns="http://www.w3.org/2000/svg" width="94.553" height="94.585" viewBox="0 0 94.553 94.585">
  <g id="confetti_2_" data-name="confetti (2)" transform="translate(-0.082)">
    <g id="Group_6926" data-name="Group 6926" transform="translate(0.082 22.35)">
      <g id="Group_6925" data-name="Group 6925">
        <path id="Path_22336" data-name="Path 22336" d="M64.559,150.434a1.576,1.576,0,0,0-2.965,1.068c.007.02.015.04.023.06,1.437,3.75,1.541,6.618.284,7.879-1.525,1.522-5.325,1.046-10.165-1.27a67.4,67.4,0,0,1-17.443-13.016C21.949,132.81,16.856,120.7,20.007,117.547a4.3,4.3,0,0,1,3.564-.832,1.576,1.576,0,0,0,.306-3.136,7.257,7.257,0,0,0-6.1,1.733c-5.774,5.772,3.052,20.829,14.286,32.064a70.474,70.474,0,0,0,18.311,13.629,31.043,31.043,0,0,0,3.8,1.521l-11.2,4.245a44.6,44.6,0,0,1-28.207-34.737,1.576,1.576,0,0,0-3.114.489,47.709,47.709,0,0,0,27.063,35.859l-18.427,6.973a1.548,1.548,0,0,0-.315-.375,21.956,21.956,0,0,1-8.131-15.259l-.731-8.854a1.557,1.557,0,0,0-1.658-1.449l-.049,0a1.576,1.576,0,0,0-1.446,1.7s0,.007,0,.011l.744,8.851a25.1,25.1,0,0,0,8.338,16.6L3.9,181.558l2.364-9.7A1.577,1.577,0,1,0,3.2,171.11L.128,183.717a1.576,1.576,0,0,0,2.09,1.848l58.3-22.061a1.469,1.469,0,0,0,.262-.164,6.121,6.121,0,0,0,3.345-1.669C65.69,160.11,67.035,156.89,64.559,150.434Z" transform="translate(-0.082 -113.468)" fill="#003e88"/>
      </g>
    </g>
    <g id="Group_6928" data-name="Group 6928" transform="translate(45.822 51.958)">
      <g id="Group_6927" data-name="Group 6927">
        <path id="Path_22337" data-name="Path 22337" d="M265.9,267.075a51.892,51.892,0,0,0-26.7-2.592l-5.63.945a1.576,1.576,0,0,0,.52,3.108l5.629-.938a48.7,48.7,0,0,1,25.074,2.436,1.624,1.624,0,0,0,.553.093,1.576,1.576,0,0,0,.553-3.052Z" transform="translate(-232.294 -263.781)" fill="#003e88"/>
      </g>
    </g>
    <g id="Group_6930" data-name="Group 6930" transform="translate(48.941 29.94)">
      <g id="Group_6929" data-name="Group 6929">
        <path id="Path_22338" data-name="Path 22338" d="M284.217,152.9a1.576,1.576,0,0,0-2.1-.745l-33.092,15.758a1.576,1.576,0,0,0-.746,2.1h0a1.576,1.576,0,0,0,2.1.746h0L283.471,155A1.576,1.576,0,0,0,284.217,152.9Z" transform="translate(-248.126 -151.997)" fill="#003e88"/>
      </g>
    </g>
    <g id="Group_6932" data-name="Group 6932" transform="translate(30.514 9.433)">
      <g id="Group_6931" data-name="Group 6931">
        <path id="Path_22339" data-name="Path 22339" d="M162.416,49.15a1.576,1.576,0,1,0-3.089.628c0,.019.008.038.013.056a44.08,44.08,0,0,1-2.353,26.645l-2.291,5.5a1.576,1.576,0,0,0,.846,2.055,1.552,1.552,0,0,0,.605.121,1.576,1.576,0,0,0,1.454-.969l2.293-5.492A47.212,47.212,0,0,0,162.416,49.15Z" transform="translate(-154.576 -47.887)" fill="#003e88"/>
      </g>
    </g>
    <g id="Group_6934" data-name="Group 6934" transform="translate(82.028 56.729)">
      <g id="Group_6933" data-name="Group 6933">
        <path id="Path_22340" data-name="Path 22340" d="M420.832,288a4.727,4.727,0,1,0,4.727,4.727A4.727,4.727,0,0,0,420.832,288Zm0,6.3a1.576,1.576,0,1,1,1.576-1.576A1.576,1.576,0,0,1,420.832,294.3Z" transform="translate(-416.105 -288)" fill="#e72c3a"/>
      </g>
    </g>
    <g id="Group_6936" data-name="Group 6936" transform="translate(44.209 12.606)">
      <g id="Group_6935" data-name="Group 6935">
        <path id="Path_22341" data-name="Path 22341" d="M228.832,64a4.727,4.727,0,1,0,4.727,4.727A4.727,4.727,0,0,0,228.832,64Zm0,6.3a1.576,1.576,0,1,1,1.576-1.576A1.576,1.576,0,0,1,228.832,70.3Z" transform="translate(-224.105 -64)" fill="#e72c3a"/>
      </g>
    </g>
    <g id="Group_6938" data-name="Group 6938" transform="translate(31.603)">
      <g id="Group_6937" data-name="Group 6937">
        <circle id="Ellipse_1439" data-name="Ellipse 1439" cx="3.152" cy="3.152" r="3.152" fill="#003e88"/>
      </g>
    </g>
    <g id="Group_6940" data-name="Group 6940" transform="translate(77.301 7.879)">
      <g id="Group_6939" data-name="Group 6939">
        <path id="Path_22342" data-name="Path 22342" d="M393.681,40a1.576,1.576,0,0,0-1.576,1.576v1.576a1.576,1.576,0,0,0,3.152,0V41.576A1.576,1.576,0,0,0,393.681,40Z" transform="translate(-392.105 -40)" fill="#e72c3a"/>
      </g>
    </g>
    <g id="Group_6942" data-name="Group 6942" transform="translate(77.301)">
      <g id="Group_6941" data-name="Group 6941">
        <path id="Path_22343" data-name="Path 22343" d="M393.681,0A1.576,1.576,0,0,0,392.1,1.576V3.152a1.576,1.576,0,0,0,3.152,0V1.576A1.576,1.576,0,0,0,393.681,0Z" transform="translate(-392.105)" fill="#e72c3a"/>
      </g>
    </g>
    <g id="Group_6944" data-name="Group 6944" transform="translate(80.453 4.727)">
      <g id="Group_6943" data-name="Group 6943">
        <path id="Path_22344" data-name="Path 22344" d="M411.257,24h-1.576a1.576,1.576,0,1,0,0,3.152h1.576a1.576,1.576,0,0,0,0-3.152Z" transform="translate(-408.105 -24)" fill="#e72c3a"/>
      </g>
    </g>
    <g id="Group_6946" data-name="Group 6946" transform="translate(72.574 4.727)">
      <g id="Group_6945" data-name="Group 6945">
        <path id="Path_22345" data-name="Path 22345" d="M371.257,24h-1.576a1.576,1.576,0,1,0,0,3.152h1.576a1.576,1.576,0,0,0,0-3.152Z" transform="translate(-368.105 -24)" fill="#e72c3a"/>
      </g>
    </g>
    <g id="Group_6948" data-name="Group 6948" transform="translate(58.358 17.301)">
      <g id="Group_6947" data-name="Group 6947">
        <path id="Path_22346" data-name="Path 22346" d="M305.425,87.832h-7.912a1.576,1.576,0,0,0-1.576,1.576V97.32a1.576,1.576,0,0,0,1.576,1.576h7.912A1.576,1.576,0,0,0,307,97.32V89.408A1.576,1.576,0,0,0,305.425,87.832Zm-1.576,7.912h-4.761v-4.76h4.761Z" transform="translate(-295.937 -87.832)" fill="#003e88"/>
      </g>
    </g>
    <g id="Group_6950" data-name="Group 6950" transform="translate(37.906 29.961)">
      <g id="Group_6949" data-name="Group 6949">
        <path id="Path_22347" data-name="Path 22347" d="M210.567,152.6a1.576,1.576,0,0,0-2.181-.114l-15.758,14.182a1.575,1.575,0,0,0,2.108,2.342l15.758-14.182A1.576,1.576,0,0,0,210.567,152.6Z" transform="translate(-192.107 -152.105)" fill="#003e88"/>
      </g>
    </g>
    <g id="Group_6952" data-name="Group 6952" transform="translate(83.604 36.243)">
      <g id="Group_6951" data-name="Group 6951">
        <path id="Path_22348" data-name="Path 22348" d="M425.681,184a1.576,1.576,0,0,0-1.576,1.576v1.576a1.576,1.576,0,0,0,3.152,0v-1.576A1.576,1.576,0,0,0,425.681,184Z" transform="translate(-424.105 -184)" fill="#003e88"/>
      </g>
    </g>
    <g id="Group_6954" data-name="Group 6954" transform="translate(88.082 34.416)">
      <g id="Group_6953" data-name="Group 6953">
        <path id="Path_22349" data-name="Path 22349" d="M450.62,176.278l-1.114-1.114a1.576,1.576,0,0,0-2.228,2.228l1.114,1.114a1.576,1.576,0,0,0,2.228-2.228Z" transform="translate(-446.836 -174.722)" fill="#003e88"/>
      </g>
    </g>
    <g id="Group_6956" data-name="Group 6956" transform="translate(89.907 29.94)">
      <g id="Group_6955" data-name="Group 6955">
        <path id="Path_22350" data-name="Path 22350" d="M459.257,152h-1.576a1.576,1.576,0,0,0,0,3.152h1.576a1.576,1.576,0,0,0,0-3.152Z" transform="translate(-456.105 -152)" fill="#003e88"/>
      </g>
    </g>
    <g id="Group_6958" data-name="Group 6958" transform="translate(88.062 24.389)">
      <g id="Group_6957" data-name="Group 6957">
        <path id="Path_22351" data-name="Path 22351" d="M450.5,124.261a1.576,1.576,0,0,0-2.19,0l-1.114,1.114a1.576,1.576,0,0,0,1.114,2.69h0a1.576,1.576,0,0,0,1.114-.462l1.114-1.114A1.576,1.576,0,0,0,450.5,124.261Z" transform="translate(-446.739 -123.818)" fill="#003e88"/>
      </g>
    </g>
    <g id="Group_6960" data-name="Group 6960" transform="translate(83.604 22.061)">
      <g id="Group_6959" data-name="Group 6959">
        <path id="Path_22352" data-name="Path 22352" d="M425.681,112a1.576,1.576,0,0,0-1.576,1.576v1.576a1.576,1.576,0,0,0,3.152,0v-1.576A1.576,1.576,0,0,0,425.681,112Z" transform="translate(-424.105 -112)" fill="#003e88"/>
      </g>
    </g>
    <g id="Group_6962" data-name="Group 6962" transform="translate(78.052 24.389)">
      <g id="Group_6961" data-name="Group 6961">
        <path id="Path_22353" data-name="Path 22353" d="M399.7,125.375l-1.114-1.114a1.576,1.576,0,0,0-2.228,2.228l1.114,1.114a1.576,1.576,0,0,0,2.228-2.228Z" transform="translate(-395.915 -123.818)" fill="#003e88"/>
      </g>
    </g>
    <g id="Group_6964" data-name="Group 6964" transform="translate(0.085 0.071)">
      <g id="Group_6963" data-name="Group 6963">
        <path id="Path_22354" data-name="Path 22354" d="M18.929,7.1a1.576,1.576,0,0,0-1.272-1.072l-4.625-.673L10.97,1.169a1.64,1.64,0,0,0-2.827,0L6.071,5.359l-4.625.673A1.576,1.576,0,0,0,.57,8.719l3.345,3.262-.788,4.606a1.576,1.576,0,0,0,2.288,1.667l4.136-2.181,4.136,2.175a1.576,1.576,0,0,0,2.286-1.661l-.788-4.606,3.347-3.262A1.575,1.575,0,0,0,18.929,7.1Zm-6.541,3.2a1.576,1.576,0,0,0-.454,1.393l.391,2.277L10.284,12.9a1.576,1.576,0,0,0-1.465,0L6.77,13.971l.391-2.277A1.575,1.575,0,0,0,6.715,10.3L5.059,8.69l2.286-.332A1.575,1.575,0,0,0,8.532,7.5l1.02-2.069L10.573,7.5a1.576,1.576,0,0,0,1.185.862l2.285.332Z" transform="translate(-0.095 -0.361)" fill="#e72c3a"/>
      </g>
    </g>
    <g id="Group_6966" data-name="Group 6966" transform="translate(71.035 67.766)">
      <g id="Group_6965" data-name="Group 6965">
        <path id="Path_22355" data-name="Path 22355" d="M378.571,355.252h-.006l-.649-.974a23.78,23.78,0,0,0-15.823-10.232,1.576,1.576,0,0,0-.52,3.107,20.617,20.617,0,0,1,12.025,6.7,9.3,9.3,0,0,0-6.3,4.329,6.3,6.3,0,1,0,11.007,6.146,9.139,9.139,0,0,0,1.023-4.045,7.7,7.7,0,0,1,.345,8.183,1.576,1.576,0,0,0,2.711,1.608c.014-.024.028-.048.041-.073A11,11,0,0,0,378.571,355.252Zm-3.018,7.542a3.152,3.152,0,1,1-5.518-3.046l.014-.026a5.905,5.905,0,0,1,4.267-2.777,1.6,1.6,0,0,1,.788.183C376.434,357.871,376.5,361.089,375.553,362.794Z" transform="translate(-360.294 -344.031)" fill="#003e88"/>
      </g>
    </g>
  </g>
</svg>
