<svg xmlns="http://www.w3.org/2000/svg" width="100.803" height="92.39" viewBox="0 0 100.803 92.39">
  <g id="accident_1_" data-name="accident (1)" transform="translate(0 -20.03)">
    <g id="Group_6914" data-name="Group 6914" transform="translate(0 109.06)">
      <g id="Group_6913" data-name="Group 6913">
        <path id="Path_22330" data-name="Path 22330" d="M99.123,443.97H1.68a1.68,1.68,0,1,0,0,3.36H99.123a1.68,1.68,0,1,0,0-3.36Z" transform="translate(0 -443.97)" fill="#003e88"/>
      </g>
    </g>
    <g id="Group_6916" data-name="Group 6916" transform="translate(10.095 85.132)">
      <g id="Group_6915" data-name="Group 6915">
        <path id="Path_22331" data-name="Path 22331" d="M67.669,337.124a1.68,1.68,0,0,0-1.357-1.144l-4.768-.692-2.13-4.319a1.68,1.68,0,0,0-3.012,0l-2.129,4.319-4.771.7a1.68,1.68,0,0,0-.931,2.856l3.449,3.36-.813,4.748a1.68,1.68,0,0,0,2.436,1.771l4.264-2.241,4.262,2.25a1.68,1.68,0,0,0,2.438-1.771l-.815-4.748,3.451-3.36A1.68,1.68,0,0,0,67.669,337.124Zm-6.845,3.293a1.68,1.68,0,0,0-.482,1.489l.386,2.263L58.7,343.1a1.679,1.679,0,0,0-1.561,0L55.1,344.169l.386-2.263a1.68,1.68,0,0,0-.482-1.489l-1.645-1.6,2.271-.336a1.68,1.68,0,0,0,1.265-.919l1.016-2.06,1.016,2.058a1.68,1.68,0,0,0,1.265.921l2.271.336Z" transform="translate(-48.071 -330.033)" fill="#e72c3a"/>
      </g>
    </g>
    <g id="Group_6918" data-name="Group 6918" transform="translate(10.072 26.061)">
      <g id="Group_6917" data-name="Group 6917">
        <path id="Path_22332" data-name="Path 22332" d="M121.694,86.5,104.6,69.417a1.68,1.68,0,0,0-2.376,0L89.97,81.666,78.744,70.44A15.142,15.142,0,0,0,91.65,55.481v-.287a5.04,5.04,0,1,0-10.08,0,5.334,5.334,0,0,1-5.329,5.327,25.327,25.327,0,0,0-8.649,1.541,10.08,10.08,0,1,0-10.2,6.828l-.514.528a18.312,18.312,0,0,0,0,25.9l.637.637a5.241,5.241,0,0,0,7.4-7.419l-.637-.637a7.839,7.839,0,0,1-1.06-9.744l23.366,23.356H73.169a1.68,1.68,0,1,0,0,3.36H89.936l1.714,1.714v15.087a6.71,6.71,0,0,0,.909,3.36H81.57a1.68,1.68,0,1,0,0,3.36h16.8a6.72,6.72,0,0,0,6.72-6.72V100.833a1.68,1.68,0,0,0-.492-1.188l-7.212-7.212,6.025-6.015L112.6,95.6a6.432,6.432,0,1,0,9.1-9.1ZM51.329,58.841a6.72,6.72,0,1,1,6.72,6.72A6.72,6.72,0,0,1,51.329,58.841Zm67.962,34.383a3.052,3.052,0,0,1-4.317-.009L104.6,82.857a1.68,1.68,0,0,0-2.376,0l-8.4,8.4a1.68,1.68,0,0,0,0,2.376l7.9,7.907v20.127a3.36,3.36,0,1,1-6.72,0V105.874a1.68,1.68,0,0,0-.492-1.188L64.277,74.445a1.68,1.68,0,0,0-2.376,0,11.194,11.194,0,0,0,0,15.816l.637.637a1.884,1.884,0,0,1-2.665,2.665l-.637-.637a14.952,14.952,0,0,1,0-21.145l1.477-1.475A21.815,21.815,0,0,1,76.24,63.872a8.7,8.7,0,0,0,8.689-8.679,1.68,1.68,0,0,1,3.36,0v.287a11.774,11.774,0,0,1-11.76,11.76,1.68,1.68,0,0,0-1.68,1.68V70.6a1.68,1.68,0,0,0,.492,1.188l13.44,13.44a1.68,1.68,0,0,0,2.376,0L103.41,72.978l15.9,15.9A3.073,3.073,0,0,1,119.291,93.224Z" transform="translate(-47.96 -48.747)" fill="#003e88"/>
      </g>
    </g>
    <g id="Group_6920" data-name="Group 6920" transform="translate(31.921 102.34)">
      <g id="Group_6919" data-name="Group 6919">
        <path id="Path_22333" data-name="Path 22333" d="M157.04,411.97h-3.36a1.68,1.68,0,1,0,0,3.36h3.36a1.68,1.68,0,1,0,0-3.36Z" transform="translate(-152 -411.97)" fill="#003e88"/>
      </g>
    </g>
    <g id="Group_6922" data-name="Group 6922" transform="translate(23.521 78.819)">
      <g id="Group_6921" data-name="Group 6921">
        <path id="Path_22334" data-name="Path 22334" d="M117.04,299.97h-3.36a1.68,1.68,0,0,0,0,3.36h3.36a1.68,1.68,0,0,0,0-3.36Z" transform="translate(-112 -299.97)" fill="#003e88"/>
      </g>
    </g>
    <g id="Group_6924" data-name="Group 6924" transform="translate(73.922 20.03)">
      <g id="Group_6923" data-name="Group 6923">
        <path id="Path_22335" data-name="Path 22335" d="M377.2,22.381a1.676,1.676,0,0,0-.336.034h.012a13.729,13.729,0,0,1-9.823-1.71l-.738-.445a1.511,1.511,0,0,0-.143-.062c-.049-.024-.1-.044-.148-.064a1.668,1.668,0,0,0-1.156,0c-.05.02-.1.04-.148.064a1.543,1.543,0,0,0-.143.062l-.738.445a13.722,13.722,0,0,1-9.825,1.71A1.68,1.68,0,0,0,352,24.061V40.979a13.217,13.217,0,0,0,1.865,6.769,13.041,13.041,0,0,0,6.075,5.329l4.835,2.083a1.67,1.67,0,0,0,1.32,0l4.837-2.083a13.041,13.041,0,0,0,6.075-5.329,13.217,13.217,0,0,0,1.873-6.769V24.061A1.68,1.68,0,0,0,377.2,22.381ZM363.767,51.063l-2.491-1.074a9.7,9.7,0,0,1-4.519-3.963,9.858,9.858,0,0,1-1.389-5.04V25.992a17.033,17.033,0,0,0,8.4-1.473Zm10.371-5.037a9.7,9.7,0,0,1-4.519,3.965l-2.5,1.074V24.518a17.035,17.035,0,0,0,8.4,1.473l.007,14.994A9.858,9.858,0,0,1,374.138,46.026Z" transform="translate(-352 -20.03)" fill="#e72c3a"/>
      </g>
    </g>
  </g>
</svg>
