<svg xmlns="http://www.w3.org/2000/svg" width="71.771" height="109.681" viewBox="0 0 71.771 109.681">
  <g id="Page-1" transform="translate(0.012)">
    <g id="_004---Pregnant-Woman" data-name="004---Pregnant-Woman" transform="translate(-0.012 0)">
      <path id="Shape" d="M15.06,93.289a40.29,40.29,0,0,0-3.082,14.564,1.828,1.828,0,0,0,1.828,1.828H68.647a1.828,1.828,0,0,0,1.8-2.13c-.15-.914-3.784-22.375-11.134-37.074a28.31,28.31,0,0,1-2.5-11.858,112.835,112.835,0,0,0,11.7,1.7l.137.005a1.828,1.828,0,0,0,1.773-1.384c2.945-11.774,2.411-28.077,2.058-38.864-.093-2.87-.183-5.36-.183-7.239a13.893,13.893,0,0,0-3.919-9.652A9.888,9.888,0,0,0,61.243,0H39.7a5.449,5.449,0,0,0-4.693,2.652,33.358,33.358,0,0,1-9.663,10.5,16.9,16.9,0,0,1-3.078,1.607,10.8,10.8,0,0,0-6.862,10.654,12.878,12.878,0,0,0,4.184,9.047,10.023,10.023,0,0,0-1.119.477,8.244,8.244,0,0,0-4.444,5.544A28.992,28.992,0,0,0,1.01,65.809c0,15.173,7.321,23.254,14.05,27.481ZM38.137,4.544A1.828,1.828,0,0,1,39.7,3.656h8.712C48.036,7.2,46.405,14.624,39.4,14.624a47.457,47.457,0,0,1-8.881-.843,40.582,40.582,0,0,0,7.619-9.237ZM19.062,25.285a7.129,7.129,0,0,1,4.554-7.129,20.473,20.473,0,0,0,3-1.521,50.583,50.583,0,0,0,12.8,1.645c9.124,0,12.187-8.732,12.7-14.624h3.274a97.422,97.422,0,0,0-1.744,36.836,63.41,63.41,0,0,0-8.57-1.055,32.453,32.453,0,0,1-6.915-.956c-1.536-.512-3.108-1.157-4.614-1.78a42.083,42.083,0,0,0-7.38-2.534,9.882,9.882,0,0,1-7.1-8.882ZM20.107,38.2a7.784,7.784,0,0,1,5.044-.51,1.941,1.941,0,0,0,.462.093,41.131,41.131,0,0,1,6.526,2.3c1.572.647,3.2,1.318,4.853,1.87a34.481,34.481,0,0,0,7.8,1.132c5.208.389,11.114.83,15.447,4.08a1.828,1.828,0,0,0,2.194-2.925,19.351,19.351,0,0,0-4.888-2.6A92.406,92.406,0,0,1,59.13,3.656h2.113a6.4,6.4,0,0,1,4.526,2.086A10.42,10.42,0,0,1,68.647,12.8c0,1.952.082,4.484.183,7.4.331,10.113.823,25.163-1.592,36.321-5.537-.62-24.8-3.322-41.385-12.31A16.141,16.141,0,0,0,17.9,40.4a4.7,4.7,0,0,1,2.212-2.194Zm-4.5,5.676h.027a12.275,12.275,0,0,1,7.848,3.12,1.885,1.885,0,0,0,.417.313A113.234,113.234,0,0,0,53.108,57.85a32.413,32.413,0,0,0,2.925,14.259c5.8,11.582,9.3,28.095,10.42,33.917H15.727a36.549,36.549,0,0,1,2.559-10.968,42.161,42.161,0,0,0,18.086,3.93,45.64,45.64,0,0,0,5.064-.282,1.828,1.828,0,1,0-.406-3.634,38.891,38.891,0,0,1-22.708-4.093C12.089,87.505,4.666,80.325,4.666,65.809c0-9.518,3.709-16.874,10.941-21.936Z" transform="translate(-0.988 0)" fill="#003e88"/>
      <path id="Shape-2" data-name="Shape" d="M16.134,54.368c1.038.866,2.142,1.79,3.3,2.784a1.828,1.828,0,0,0,2.376,0c1.161-.994,2.265-1.918,3.3-2.784,6.113-5.093,10.135-8.456,10.135-13.67A8.381,8.381,0,0,0,27.025,32a8.787,8.787,0,0,0-6.4,2.751A8.787,8.787,0,0,0,14.229,32,8.381,8.381,0,0,0,6,40.7C6,45.911,10.024,49.275,16.134,54.368Zm-1.9-18.712A5.652,5.652,0,0,1,19,38.6a1.828,1.828,0,0,0,1.62,1h.011a1.839,1.839,0,0,0,1.627-1,5.65,5.65,0,0,1,4.771-2.947,4.718,4.718,0,0,1,4.57,5.042c0,3.5-3.318,6.274-8.817,10.864-.689.576-1.408,1.174-2.152,1.8-.744-.629-1.462-1.227-2.152-1.8-5.5-4.59-8.817-7.361-8.817-10.864a4.718,4.718,0,0,1,4.57-5.042Z" transform="translate(3.159 26.497)" fill="#e72c3a"/>
    </g>
  </g>
</svg>
