<svg xmlns="http://www.w3.org/2000/svg" width="90.967" height="90.967" viewBox="0 0 90.967 90.967">
  <g id="leave" transform="translate(-1 -1)">
    <path id="Path_22356" data-name="Path 22356" d="M83.959,1H16.467A1.467,1.467,0,0,0,15,2.467v48.3a1.467,1.467,0,1,0,2.934,0V3.934H82.491v85.1H17.934a1.467,1.467,0,1,0-2.934,0V90.5a1.467,1.467,0,0,0,1.467,1.467H83.959A1.467,1.467,0,0,0,85.426,90.5V2.467A1.467,1.467,0,0,0,83.959,1Z" transform="translate(6.541 0)" fill="#003e88"/>
    <path id="Path_22357" data-name="Path 22357" d="M49.475,6h-8.8a4.4,4.4,0,0,0-4.4,4.4v4.4H30.4A4.4,4.4,0,0,0,26,19.2V33.877a4.4,4.4,0,0,0,4.4,4.4H59.746a4.4,4.4,0,0,0,4.4-4.4V19.2a4.4,4.4,0,0,0-4.4-4.4H53.877V10.4A4.4,4.4,0,0,0,49.475,6ZM37.738,17.738V35.344H34.8V17.738Zm2.934,0h8.8V35.344h-8.8Zm11.738,0h2.934V35.344H52.41ZM39.2,10.4a1.467,1.467,0,0,1,1.467-1.467h8.8A1.467,1.467,0,0,1,50.942,10.4v4.4H39.2ZM28.934,33.877V19.2A1.467,1.467,0,0,1,30.4,17.738h1.467V35.344H30.4A1.467,1.467,0,0,1,28.934,33.877ZM61.213,19.2V33.877a1.467,1.467,0,0,1-1.467,1.467H58.278V17.738h1.467A1.467,1.467,0,0,1,61.213,19.2Z" transform="translate(11.68 2.336)" fill="#e72c3a"/>
    <path id="Path_22358" data-name="Path 22358" d="M19.644,31.5a1.467,1.467,0,1,0-2.075-2.075l-4.758,4.758A10.2,10.2,0,0,0,9.8,41.449C9.416,55.281,10.8,58,8.336,61.278l-7.043,9.39a1.467,1.467,0,0,0,2.348,1.761l7.043-9.39c3.339-4.45,1.568-8.387,2.054-21.59a7.288,7.288,0,0,1,2.148-5.187Z" transform="translate(0 13.082)" fill="#003e88"/>
    <path id="Path_22359" data-name="Path 22359" d="M30.534,47.018l5.217-9.39a6.057,6.057,0,0,0-1.655-7.76,4.648,4.648,0,0,0-6.646,1.127L17.578,45.7a1.467,1.467,0,1,0,2.436,1.636l9.87-14.706a1.712,1.712,0,0,1,2.45-.415,3.113,3.113,0,0,1,.851,3.986l-5.4,9.722a1.467,1.467,0,0,0-.185.713c0,18.1-8.769,20.488-9.129,20.578a1.454,1.454,0,0,0-.8.492l-7.336,8.8a1.467,1.467,0,0,0,2.254,1.878l7.057-8.467C21.89,69.136,30.413,64.99,30.534,47.018Z" transform="translate(4.212 13.053)" fill="#003e88"/>
    <path id="Path_22360" data-name="Path 22360" d="M66.213,32H32.467a1.467,1.467,0,0,0,0,2.934H66.213a1.467,1.467,0,0,0,0-2.934Z" transform="translate(14.016 14.483)" fill="#003e88"/>
    <path id="Path_22361" data-name="Path 22361" d="M62.475,38H40.467a1.467,1.467,0,1,0,0,2.934H62.475a1.467,1.467,0,1,0,0-2.934Z" transform="translate(17.754 17.287)" fill="#003e88"/>
    <path id="Path_22362" data-name="Path 22362" d="M38.27,40.934a1.467,1.467,0,1,0,0-2.934h-8.8a1.467,1.467,0,0,0,0,2.934Z" transform="translate(12.615 17.287)" fill="#003e88"/>
    <path id="Path_22363" data-name="Path 22363" d="M60.672,45.467A1.467,1.467,0,0,0,59.2,44H47.467a1.467,1.467,0,1,0,0,2.934H59.2A1.467,1.467,0,0,0,60.672,45.467Z" transform="translate(21.024 20.09)" fill="#003e88"/>
    <path id="Path_22364" data-name="Path 22364" d="M26,45.467a1.467,1.467,0,0,0,1.467,1.467H49.475a1.467,1.467,0,1,0,0-2.934H27.467A1.467,1.467,0,0,0,26,45.467Z" transform="translate(11.68 20.09)" fill="#003e88"/>
    <path id="Path_22365" data-name="Path 22365" d="M34.923,59.217a1.849,1.849,0,0,0,1.372.587c2.723,0,4.14-2.946,5.486-4.158.236,2.274.7,4.158,3.317,4.158,1.571,0,2.832-1.4,3.979-2.446.888,1.356,2.77,2.446,7.759,2.446a1.467,1.467,0,0,0,0-2.934c-4.9,0-5.323-1.078-5.483-1.485a1.979,1.979,0,0,0-1.853-1.45c-1.847,0-3.51,2.726-4.4,2.934a.808.808,0,0,0-.167,0c-.386-.7.2-4.4-2.767-4.4-2.279,0-3.508,2.515-4.874,3.828.1-1.544.358-3.41-.7-4.548A2.339,2.339,0,0,0,34.827,51c-3.014,0-5.982,5.122-7.483,5.869a1.469,1.469,0,1,0,.147,2.934c2.362,0,4.859-4.462,6.959-5.722.091,1.677-.612,3.961.472,5.135Z" transform="translate(11.656 23.36)" fill="#e72c3a"/>
  </g>
</svg>
