<svg xmlns="http://www.w3.org/2000/svg" xmlns:xlink="http://www.w3.org/1999/xlink" width="1946.109" height="1124.848" viewBox="0 0 1946.109 1124.848">
  <defs>
    <clipPath id="clip-path">
      <rect id="Rectangle_3130" data-name="Rectangle 3130" width="1946.109" height="1124.848" transform="translate(1999.163 1465.674)" fill="none" stroke="#45deeb" stroke-width="1"/>
    </clipPath>
  </defs>
  <g id="Group_6999" data-name="Group 6999" transform="translate(-1999.163 -1465.674)" opacity="0.102">
    <g id="Group_6994" data-name="Group 6994">
      <g id="Group_6993" data-name="Group 6993" clip-path="url(#clip-path)">
        <path id="Path_1940" data-name="Path 1940" d="M4114.737,5155.984,3981.825,4430.4l47.412-258.836-200.451,170.482-694.837,247.681-214.762-371.976,561.924-477.909,247.857-88.351-247.858-88.351-561.924-477.913,214.766-371.972,694.832,247.681,200.452,170.482-47.411-258.833,132.9-725.59H4544.26l132.915,725.59-47.411,258.836,200.456-170.485,694.823-247.681,214.771,371.972-561.922,477.913-247.86,88.351,247.853,88.351,561.929,477.909-214.76,371.976-694.839-247.681-200.453-170.485,47.413,258.839L4544.26,5155.984Zm245.544-1451.177,30.783-53.315-30.78-53.32h-61.568l-30.782,53.32,30.786,53.315Z" fill="none" stroke="#45deeb" stroke-linecap="round" stroke-linejoin="round" stroke-width="1.267"/>
        <path id="Path_1941" data-name="Path 1941" d="M4144.647,5120.1,4018.31,4430.4l64.365-351.4-272.131,231.444-660.471,235.433-184.851-320.171,534.131-454.271,336.5-119.948-336.5-119.949-534.131-454.274L3150.076,2757.1l660.466,235.432,272.133,231.445-64.365-351.393,126.33-689.7h369.71l126.341,689.7-64.367,351.4,272.138-231.448L5508.921,2757.1l184.859,320.167-534.13,454.274-336.5,119.949,336.492,119.948,534.137,454.271-184.85,320.171-660.473-235.433-272.135-231.451,64.369,351.4L4514.35,5120.1ZM4381,3740.694l51.5-89.2-51.5-89.206H4278l-51.5,89.206,51.5,89.2Z" fill="none" stroke="#45deeb" stroke-linecap="round" stroke-linejoin="round" stroke-width="1.267"/>
        <path id="Path_1942" data-name="Path 1942" d="M4174.557,5084.21,4054.794,4430.4l81.32-443.957L3792.3,4278.847l-626.1,223.184-154.941-268.364,506.339-430.633,425.134-151.547-425.135-151.546-506.339-430.635L3166.2,2800.944l626.1,223.184,343.814,292.407-81.32-443.953,119.758-653.816H4484.44l119.766,653.816-81.322,443.956,343.819-292.41L5492.8,2800.944l154.947,268.362-506.339,430.635-425.135,151.546,425.13,151.547,506.344,430.633L5492.8,4502.031,4866.7,4278.847l-343.816-292.413,81.324,443.963L4484.44,5084.21Zm227.162-1307.629,72.223-125.09-72.22-125.093H4257.278l-72.221,125.093,72.225,125.09Z" fill="none" stroke="#45deeb" stroke-linecap="round" stroke-linejoin="round" stroke-width="1.267"/>
        <path id="Path_1943" data-name="Path 1943" d="M4609.392,3651.488l513.773-183.144,478.545-407-125.035-216.557-591.73,210.935-415.5,353.373,98.278-536.516-113.192-617.929H4204.464l-113.185,617.929,98.271,536.511-415.492-353.368-591.735-210.935L3057.29,3061.348l478.546,407,513.772,183.144-513.771,183.144-478.546,406.993,125.029,216.56,591.739-210.935,415.492-353.371L4091.279,4430.4l113.188,617.926h250.062L4567.721,4430.4l-98.279-536.523,415.5,353.376,591.741,210.935,125.03-216.56-478.55-406.993Zm-94.009,0-92.945,160.978H4236.562l-92.945-160.978,92.942-160.981h185.883Z" fill="none" stroke="#45deeb" stroke-linecap="round" stroke-linejoin="round" stroke-width="1.267"/>
        <path id="Path_1944" data-name="Path 1944" d="M2501.114,1774.8,2394.5,1192.761l106.615-582.042h190.244l106.616,582.042L2691.357,1774.8Z" fill="none" stroke="#45deeb" stroke-linecap="round" stroke-linejoin="round" stroke-width="1.267"/>
        <path id="Path_1945" data-name="Path 1945" d="M2531.024,1738.912l-100.042-546.151,100.042-546.155h130.422l100.042,546.155-100.042,546.151Z" fill="none" stroke="#45deeb" stroke-linecap="round" stroke-linejoin="round" stroke-width="1.267"/>
        <path id="Path_1946" data-name="Path 1946" d="M2560.935,1703.024l-93.468-510.264,93.468-510.267h70.6L2725,1192.761l-93.468,510.264Z" fill="none" stroke="#45deeb" stroke-linecap="round" stroke-linejoin="round" stroke-width="1.267"/>
        <path id="Path_1947" data-name="Path 1947" d="M2596.236,688.958l-92.283,503.8,92.283,503.8,92.283-503.8Z" fill="none" stroke="#45deeb" stroke-linecap="round" stroke-linejoin="round" stroke-width="1.267"/>
        <path id="Path_1948" data-name="Path 1948" d="M2540.437,1192.761l55.8-304.621,55.8,304.621-55.8,304.62Z" fill="none" stroke="#45deeb" stroke-linecap="round" stroke-linejoin="round" stroke-width="1.267"/>
        <path id="Path_1949" data-name="Path 1949" d="M2501.114,3332.611,2394.5,2750.573l106.615-582.042h190.244l106.616,582.042-106.616,582.038Z" fill="none" stroke="#45deeb" stroke-linecap="round" stroke-linejoin="round" stroke-width="1.267"/>
        <path id="Path_1950" data-name="Path 1950" d="M2531.024,3296.724l-100.042-546.151,100.042-546.155h130.422l100.042,546.155-100.042,546.151Z" fill="none" stroke="#45deeb" stroke-linecap="round" stroke-linejoin="round" stroke-width="1.267"/>
        <path id="Path_1951" data-name="Path 1951" d="M2560.935,3260.836l-93.468-510.264,93.468-510.267h70.6L2725,2750.573l-93.468,510.264Z" fill="none" stroke="#45deeb" stroke-linecap="round" stroke-linejoin="round" stroke-width="1.267"/>
        <path id="Path_1952" data-name="Path 1952" d="M2596.236,2246.771l-92.283,503.8,92.283,503.8,92.283-503.8Z" fill="none" stroke="#45deeb" stroke-linecap="round" stroke-linejoin="round" stroke-width="1.267"/>
        <path id="Path_1953" data-name="Path 1953" d="M2540.437,2750.573l55.8-304.62,55.8,304.62-55.8,304.62Z" fill="none" stroke="#45deeb" stroke-linecap="round" stroke-linejoin="round" stroke-width="1.267"/>
        <path id="Path_1954" data-name="Path 1954" d="M1370.061,2569.759,1820.815,2186.4l557.371-198.683,95.12,164.755-450.754,383.351-557.371,198.687Z" fill="none" stroke="#45deeb" stroke-linecap="round" stroke-linejoin="round" stroke-width="1.267"/>
        <path id="Path_1955" data-name="Path 1955" d="M1416.1,2577.718,1839.057,2218l523-186.435,65.211,112.95L2004.31,2504.23,1481.3,2690.668Z" fill="none" stroke="#45deeb" stroke-linecap="round" stroke-linejoin="round" stroke-width="1.267"/>
        <path id="Path_1956" data-name="Path 1956" d="M1462.13,2585.677,1857.3,2249.6l488.637-174.186,35.3,61.145-395.169,336.074-488.638,174.19Z" fill="none" stroke="#45deeb" stroke-linecap="round" stroke-linejoin="round" stroke-width="1.267"/>
        <path id="Path_1957" data-name="Path 1957" d="M1485.379,2613.018l482.446-171.981,390.162-331.819L1875.542,2281.2Z" fill="none" stroke="#45deeb" stroke-linecap="round" stroke-linejoin="round" stroke-width="1.267"/>
        <path id="Path_1958" data-name="Path 1958" d="M1893.784,2312.794l291.708-103.985-235.909,200.628-291.709,103.989Z" fill="none" stroke="#45deeb" stroke-linecap="round" stroke-linejoin="round" stroke-width="1.267"/>
        <path id="Path_1959" data-name="Path 1959" d="M1912.027,2344.392l100.968-35.992-81.654,69.44-100.968,36Z" fill="none" stroke="#45deeb" stroke-linecap="round" stroke-linejoin="round" stroke-width="1.267"/>
        <path id="Path_1960" data-name="Path 1960" d="M2719.166,1790.854,3169.921,1407.5l557.371-198.684,95.117,164.756-450.752,383.351-557.372,198.687Z" fill="none" stroke="#45deeb" stroke-linecap="round" stroke-linejoin="round" stroke-width="1.267"/>
        <path id="Path_1961" data-name="Path 1961" d="M2765.2,1798.813,3188.163,1439.1l523-186.434,65.209,112.95-422.961,359.713-523,186.438Z" fill="none" stroke="#45deeb" stroke-linecap="round" stroke-linejoin="round" stroke-width="1.267"/>
        <path id="Path_1962" data-name="Path 1962" d="M2811.234,1806.771l395.171-336.078,488.637-174.186,35.3,61.145-395.169,336.074-488.638,174.19Z" fill="none" stroke="#45deeb" stroke-linecap="round" stroke-linejoin="round" stroke-width="1.267"/>
        <path id="Path_1963" data-name="Path 1963" d="M2834.484,1834.112l482.446-171.981,390.162-331.819-482.445,171.98Z" fill="none" stroke="#45deeb" stroke-linecap="round" stroke-linejoin="round" stroke-width="1.267"/>
        <path id="Path_1964" data-name="Path 1964" d="M3242.89,1533.889,3534.6,1429.9l-235.909,200.628L3006.98,1734.521Z" fill="none" stroke="#45deeb" stroke-linecap="round" stroke-linejoin="round" stroke-width="1.267"/>
      </g>
    </g>
    <path id="Path_1965" data-name="Path 1965" d="M3261.132,1565.486l100.967-35.992-81.654,69.44-100.967,35.992Z" fill="none" stroke="#45deeb" stroke-linecap="round" stroke-linejoin="round" stroke-width="1.267"/>
    <g id="Group_6996" data-name="Group 6996">
      <g id="Group_6995" data-name="Group 6995" clip-path="url(#clip-path)">
        <path id="Path_1966" data-name="Path 1966" d="M3169.919,2535.828l-450.754-383.352,95.12-164.754L3371.656,2186.4l450.752,383.355-95.118,164.755Z" fill="none" stroke="#45deeb" stroke-linecap="round" stroke-linejoin="round" stroke-width="1.267"/>
        <path id="Path_1967" data-name="Path 1967" d="M3188.161,2504.23,2765.2,2144.518l65.21-112.95,523,186.435,422.961,359.716-65.209,112.95Z" fill="none" stroke="#45deeb" stroke-linecap="round" stroke-linejoin="round" stroke-width="1.267"/>
        <path id="Path_1968" data-name="Path 1968" d="M3206.4,2472.633l-395.169-336.074,35.3-61.145L3335.171,2249.6l395.17,336.078-35.3,61.144Z" fill="none" stroke="#45deeb" stroke-linecap="round" stroke-linejoin="round" stroke-width="1.267"/>
        <path id="Path_1969" data-name="Path 1969" d="M3707.092,2613.018,3316.929,2281.2l-482.445-171.98,390.162,331.819Z" fill="none" stroke="#45deeb" stroke-linecap="round" stroke-linejoin="round" stroke-width="1.267"/>
      </g>
    </g>
    <path id="Path_1970" data-name="Path 1970" d="M3242.888,2409.438,3006.979,2208.81l291.708,103.985,235.91,200.632Z" fill="none" stroke="#45deeb" stroke-linecap="round" stroke-linejoin="round" stroke-width="1.267"/>
    <path id="Path_1971" data-name="Path 1971" d="M3261.131,2377.84l-81.654-69.44,100.968,35.992,81.654,69.444Z" fill="none" stroke="#45deeb" stroke-linecap="round" stroke-linejoin="round" stroke-width="1.267"/>
    <path id="Path_1972" data-name="Path 1972" d="M2586.175,1954.234H2606.3l10.063,17.432-10.063,17.428h-20.124l-10.062-17.428Z" fill="none" stroke="#45deeb" stroke-linecap="round" stroke-linejoin="round" stroke-width="1.267"/>
    <g id="Group_6998" data-name="Group 6998">
      <g id="Group_6997" data-name="Group 6997" clip-path="url(#clip-path)">
        <path id="Path_1973" data-name="Path 1973" d="M1405.8,6281.816l-128.707-702.642L604.233,5819.022.642,4773.578l544.139-462.794L.633,3847.99l603.61-1045.439,246.474,87.858L587.469,2434.455l544.143-462.792L587.468,1508.875,1191.07,463.43l672.856,239.841L1992.627.636H3199.838l128.709,702.635,672.86-239.841L4605,1508.875l-201.741,171.582H4933.1L5061.807,2383.1l672.841-239.848,603.625,1045.438-544.154,462.8,544.148,462.79-603.6,1045.438-672.857-239.841L4933.1,5622.516H3725.9l-47.66-260.185-263.672,456.692-672.854-239.848-128.7,702.642Z" fill="none" stroke="#45deeb" stroke-linecap="round" stroke-linejoin="round" stroke-width="1.267"/>
        <path id="Path_1974" data-name="Path 1974" d="M1435.71,6245.929,1304.789,5531.2,620.356,5775.176l-573.68-993.64,553.5-470.753L46.668,3840.031l573.7-993.633,310.225,110.581L633.5,2442.415l553.5-470.753L633.5,1500.916l573.69-993.64,684.429,243.966L2022.538,36.522h1147.39l130.921,714.719,684.434-243.966,573.679,993.64-253.3,215.429h597.521l130.923,714.725L5718.524,2187.1l573.713,993.633-553.511,470.764,553.5,470.749-573.688,993.633-684.431-243.966-130.925,714.719H3755.811l-59.855-326.755-297.512,515.3L2714.017,5531.2,2583.1,6245.929Z" fill="none" stroke="#45deeb" stroke-linecap="round" stroke-linejoin="round" stroke-width="1.267"/>
        <path id="Path_1975" data-name="Path 1975" d="M1465.62,6210.042l-133.134-726.81-696,248.1L92.711,4789.5l562.856-478.712L92.7,3832.071l543.789-941.828,373.975,133.305L679.538,2450.373l562.86-478.712-562.86-478.705,543.78-941.835,696,248.091,133.129-726.8H3140.018l133.134,726.8,696.006-248.091,543.77,941.835L4208.077,1752.23h665.2l133.138,726.811,695.986-248.1,543.8,941.829-562.868,478.722L6246.2,4130.2l-543.778,941.828-696-248.091-133.139,726.8H3785.721l-72.05-393.325L3382.32,5731.33l-696-248.1-133.132,726.81Z" fill="none" stroke="#45deeb" stroke-linecap="round" stroke-linejoin="round" stroke-width="1.267"/>
        <path id="Path_1976" data-name="Path 1976" d="M1495.531,6174.155l-135.348-738.894L652.605,5687.484l-513.859-890.03,572.215-486.671-572.224-486.67L652.614,2934.09l437.727,156.028L725.573,2458.332l572.218-486.671L725.573,1485l513.869-890.03,707.575,252.216L2082.36,108.3H3110.107l135.348,738.887,707.579-252.216L4466.893,1485l-356.4,303.121h732.878l135.352,738.894,707.56-252.223,513.888,890.023L5627.94,3651.493l572.222,486.667-513.868,890.023-707.576-252.216-135.352,738.887H3815.631l-84.243-459.9L3366.2,5687.484l-707.572-252.223-135.347,738.894Z" fill="none" stroke="#45deeb" stroke-linecap="round" stroke-linejoin="round" stroke-width="1.267"/>
        <path id="Path_1977" data-name="Path 1977" d="M1525.442,6138.268,1387.88,5387.29,668.729,5643.638,184.78,4805.413l581.574-494.629-581.582-494.63,483.966-838.218,501.477,178.752-398.608-690.4,581.578-494.63L771.607,1477.039l483.959-838.226,719.148,256.342,137.557-750.971H3080.2l137.561,750.971,719.153-256.342,483.947,838.226L4012.9,1824h800.557l137.564,750.978,719.133-256.348,483.977,838.218-581.584,494.64,581.582,494.627L5670.17,4984.338,4951.021,4728l-137.565,750.97H3845.542L3749.1,4952.5l-399.032,691.136L2630.926,5387.29l-137.561,750.978Z" fill="none" stroke="#45deeb" stroke-linecap="round" stroke-linejoin="round" stroke-width="1.267"/>
        <path id="Path_1978" data-name="Path 1978" d="M1555.352,6102.38l-139.776-763.061L684.854,5599.792,230.815,4813.373l590.932-502.59L230.807,3808.2l454.055-786.414,565.227,201.478L817.642,2474.25l590.937-502.588L817.642,1469.08l454.049-786.42,730.72,260.465,139.771-763.054h908.1l139.775,763.054L3920.786,682.66l454.037,786.42-459.514,390.813h868.236l139.779,763.062,730.706-260.474,454.064,786.413-590.94,502.6,590.939,502.585-454.047,786.413-730.722-260.466-139.779,763.056H3875.452L3766.82,4850.044l-432.873,749.748L2603.23,5339.319,2463.455,6102.38Zm2199.6-1317.108-19.278-105.243-73.612,26.238ZM1415.576,3282.248l14.28-77.954-116.488,41.519ZM3845.386,2023.96l22.694-123.9-84.188,71.6Z" fill="none" stroke="#45deeb" stroke-linecap="round" stroke-linejoin="round" stroke-width="1.267"/>
        <path id="Path_1979" data-name="Path 1979" d="M1585.263,6066.494l-141.989-775.146-742.3,264.6L276.849,4821.332,877.14,4310.784l-600.3-510.548,424.145-734.608,742.288,264.591,33.081-180.6-188.542,67.2L863.677,2482.209l600.3-510.548-600.3-510.54,424.138-734.615L2030.108,991.1l141.985-775.139h848.282L3162.363,991.1l742.3-264.591,424.128,734.615L3728.5,1971.661l140.989,119.911,35.862-195.792h848.285l141.993,775.146,742.28-264.6,424.153,734.608-600.3,510.559,600.3,510.544-424.135,734.608-742.295-264.591-141.993,775.138H3905.363l-141.99-775.135-171.909,61.278,150.495,128-424.136,734.614-742.291-264.6-141.989,775.146Z" fill="none" stroke="#45deeb" stroke-linecap="round" stroke-linejoin="round" stroke-width="1.267"/>
        <path id="Path_1980" data-name="Path 1980" d="M1615.173,6030.606l-144.2-787.229L717.1,5512.1,322.883,4829.29l609.649-518.507L322.877,3792.276l394.232-682.8,753.862,268.715,51.883-283.242-218.916,78.03L909.711,2490.168l609.656-518.507-609.656-518.5,394.228-682.809,753.867,268.715L2202,251.845h788.461l144.2,787.222,753.871-268.715,394.218,682.809-609.649,518.5,220.482,187.521,41.673-227.516h788.463L4867.929,2718.9l753.855-268.726,394.241,682.8-609.658,518.517L6016.022,4170,5621.8,4852.8l-753.869-268.716-144.205,787.222H3935.273l-144.2-787.222-270.207,96.32,175.06,148.887L3301.7,5512.1l-753.865-268.722-144.2,787.229Z" fill="none" stroke="#45deeb" stroke-linecap="round" stroke-linejoin="round" stroke-width="1.267"/>
        <path id="Path_1981" data-name="Path 1981" d="M1645.084,5994.719l-146.415-799.313L733.227,5468.253l-364.309-631,619.007-526.466L368.912,3784.318l364.321-631,765.436,272.841,70.685-385.886-249.292,88.856-364.316-631,619.015-526.466L955.746,1445.2l364.316-631,765.441,272.84,146.413-799.306h728.638l146.415,799.306L3872.414,814.2l364.306,631-619.008,526.459L3917.69,2226.79l47.482-259.237h728.641l146.42,799.317,765.428-272.851,364.329,631-619.016,526.476,619.013,526.462-364.312,631-765.441-272.841-146.42,799.306H3965.184l-146.416-799.306-368.505,131.356,199.625,169.781-364.312,631-765.438-272.847-146.415,799.313Z" fill="none" stroke="#45deeb" stroke-linecap="round" stroke-linejoin="round" stroke-width="1.267"/>
        <path id="Path_1982" data-name="Path 1982" d="M1674.994,5958.832l-148.629-811.4L749.351,5424.407l-334.4-579.2,628.367-534.425L414.947,3776.359l334.411-579.193,777.007,276.966,89.489-488.532-279.668,99.685-334.4-579.2,628.372-534.425-628.372-534.417,334.4-579.2L2113.2,1135.01l148.626-811.39h668.818l148.627,811.39,777.018-276.966,334.4,579.2-628.367,534.417,379.473,322.74,53.292-290.96H4663.9l148.634,811.4,777-276.976,334.417,579.192-628.374,534.435,628.372,534.421-334.4,579.193-777.014-276.966L4663.9,5299.531H3995.1l-148.63-811.39-466.8,166.392,224.191,190.675-334.4,579.2L2492.44,5147.435l-148.628,811.4Z" fill="none" stroke="#45deeb" stroke-linecap="round" stroke-linejoin="round" stroke-width="1.267"/>
        <path id="Path_1983" data-name="Path 1983" d="M1704.906,5922.945l-150.843-823.481-788.587,281.1L460.988,4853.167l637.725-542.383L460.983,3768.4l304.5-527.387,788.58,281.09,108.291-591.178-310.043,110.514-304.495-527.394,637.731-542.384-637.731-542.376,304.495-527.394,788.585,281.09,150.841-823.474h609l150.838,823.474,788.592-281.09,304.485,527.394-637.724,542.376,458.966,390.347,59.1-322.68h609l150.846,823.485,788.576-281.1,304.5,527.387-637.731,542.394,637.73,542.38-304.492,527.388L4784.839,4440.17l-150.846,823.474H4025.006L3874.163,4440.17l-565.1,201.431,248.757,211.566-304.492,527.394-788.585-281.1L2313.9,5922.945ZM2943.285,3351.527l86.558-30.854-70-59.537Z" fill="none" stroke="#45deeb" stroke-linecap="round" stroke-linejoin="round" stroke-width="1.267"/>
        <path id="Path_1984" data-name="Path 1984" d="M1734.815,5887.058l-146.058-797.369,13.5-73.709-57.086,48.553L781.6,5336.715,507.022,4861.126l617.5-525.187,70.575-25.156-70.575-25.156L507.018,3760.441l274.588-475.582,763.567,272.174,57.086,48.553-13.5-73.709,120.1-655.628-340.417,121.344L1093.851,2522l617.511-525.187,70.575-25.156-70.577-25.156-617.509-525.179,274.585-475.59,763.571,272.175,57.083,48.553-13.5-73.7,146.057-797.368h549.176l146.057,797.368-13.5,73.7,57.085-48.553L3824.04,945.736l274.577,475.59-617.506,525.179-70.577,25.156,70.576,25.156,508.882,432.8,64.914-354.4h549.176l146.063,797.369-13.5,73.715,57.094-48.559,763.555-272.182,274.593,475.582-617.508,525.193L5143.8,3651.49l70.571,25.156,617.515,525.186L5557.3,4677.414,4793.73,4405.24l-57.088-48.553,13.5,73.709-146.063,797.361H4054.916L3908.856,4430.4l13.5-73.709-57.087,48.553-626.808,223.425,273.321,232.461L3237.2,5336.715l-763.57-272.182-57.087-48.553,13.5,73.709-146.057,797.369ZM2894.279,4335.939l20.176,17.159-35.751-61.92-55,19.6ZM3460.2,3671.094l55-19.6-70.576-25.157-20.175-17.158Zm-1043.655-65.508,57.087-48.553,25.527-9.1h-72.052ZM2896.785,3406.2l203.658-72.591-164.7-140.08Zm1025.573-459.907-13.5-73.708,5.876-32.078-38.451,66.6ZM3016.88,2750.574l-5.873,32.067,38.45-66.594-46.079-39.189Zm-838.349-16.058,10.562-57.658-57.087,48.553-25.545,9.105Z" fill="none" stroke="#45deeb" stroke-linecap="round" stroke-linejoin="round" stroke-width="1.267"/>
        <path id="Path_1985" data-name="Path 1985" d="M5036.915,3651.49l159.218-56.754,589.715-501.554L5541.167,2669.4l-729.189,259.934L4683.2,3038.86l30.456-166.276L4574.17,2111.1H4084.817l-70.724,386.124-551.226-468.812-159.218-56.75,159.219-56.757,589.715-501.541L3807.915,989.583l-729.207,259.926-128.767,109.519,30.455-166.265L2840.914,431.282H2351.557l-139.483,761.481,30.456,166.265-128.767-109.519-729.2-259.926-244.675,423.784L1729.6,1914.908l159.219,56.757-159.218,56.75-589.719,501.548,244.675,423.784,370.793-132.172-130.111,710.3L1655.7,3698.15l-128.767-109.519-729.2-259.926L553.052,3752.482,1142.77,4254.03l159.218,56.754-159.218,56.753L553.057,4869.085l244.667,423.784,729.207-259.933L1655.7,4923.421l-30.456,166.269,139.484,761.481h489.355l139.483-761.481L2363.1,4923.421l128.77,109.515,729.205,259.933,244.67-423.784-297.888-253.351,679.166-242.092L3975.8,4264.123,3945.342,4430.4l139.484,761.474H4574.17L4713.659,4430.4,4683.2,4264.123l128.769,109.519,729.206,259.927,244.67-423.778-589.722-501.547ZM3078.708,2693.814l20.754,7.4-161.15,279.112,42.084-229.749L2949.938,2584.3Zm92.335,652.726-320.757,114.334,61.358-334.956Zm-584.869-1392.3H2606.3l10.061,17.432-10.061,17.425h-20.124l-10.061-17.425Zm-472.411,739.577,128.77-109.516-30.459,166.277,3.633,19.829H1898.9Zm-94.3,1634.4h-20.123l-10.062-17.425,10.062-17.432h20.123l10.062,17.432ZM2363.1,3698.15l30.459-166.272-3.633-19.829h316.79l-214.846,76.582Zm512.931,669.387-159.217-56.753,159.217-56.754,15.2-12.923,158.087,273.806Zm586.832-659.293-15.2,12.923-158.09-273.81,173.285,147.379,159.217,56.754ZM3975.8,3038.853l-128.77-109.515-20.751-7.4,161.15-279.121-42.083,229.764Zm363.765,630.069h-20.123l-10.064-17.432,10.063-17.432h20.126l10.062,17.432Z" fill="none" stroke="#45deeb" stroke-linecap="round" stroke-linejoin="round" stroke-width="1.267"/>
        <path id="Path_1986" data-name="Path 1986" d="M2381.469,3476.159l-132.91-725.586,47.413-258.833-200.451,170.478L1400.684,2909.9l-214.763-371.976,561.924-477.909,247.861-88.347-247.861-88.355-561.924-477.906,214.763-371.975,694.836,247.677,200.449,170.482-47.41-258.829,132.91-725.591H2811l132.911,725.591L2896.5,1451.59l200.451-170.482,694.839-247.677,214.758,371.975-561.922,477.906-247.861,88.355,247.86,88.347,561.923,477.909L3791.788,2909.9l-694.839-247.681L2896.5,2491.74l47.413,258.833L2811,3476.159Zm245.548-1451.177,30.782-53.315-30.782-53.319h-61.563l-30.782,53.319,30.782,53.315Z" fill="none" stroke="#45deeb" stroke-linecap="round" stroke-linejoin="round" stroke-width="1.267"/>
        <path id="Path_1987" data-name="Path 1987" d="M2411.38,3440.272l-126.337-689.7,64.368-351.393L2077.28,2630.62l-660.471,235.433-184.853-320.171,534.132-454.27,336.5-119.945-336.5-119.953-534.132-454.267,184.853-320.17,660.469,235.429,272.131,231.444-64.366-351.389,126.337-689.7h369.711l126.336,689.7-64.366,351.389,272.132-231.444,660.473-235.429,184.847,320.17-534.128,454.267-336.5,119.953,336.5,119.945,534.129,454.27-184.849,320.171L3115.191,2630.62,2843.06,2399.179l64.367,351.393-126.336,689.7Zm236.357-1379.4,51.5-89.2-51.5-89.207h-103l-51.5,89.207,51.5,89.2Z" fill="none" stroke="#45deeb" stroke-linecap="round" stroke-linejoin="round" stroke-width="1.267"/>
        <path id="Path_1988" data-name="Path 1988" d="M2441.292,3404.385l-119.763-653.812,81.322-443.954-343.814,292.4-626.105,223.185-154.941-268.365,506.339-430.633,425.141-151.542-425.141-151.55-506.339-430.628,154.941-268.365,626.1,223.18L2402.85,1636.71l-81.321-443.949,119.763-653.817H2751.18l119.763,653.817-81.322,443.949L3133.436,1344.3l626.1-223.18,154.938,268.365-506.337,430.628L2983,1971.667l425.14,151.542,506.338,430.633L3759.54,2822.207l-626.106-223.185-343.813-292.4,81.322,443.954L2751.18,3404.385Zm227.164-1307.629,72.221-125.089-72.22-125.093H2524.016l-72.222,125.093,72.222,125.089Z" fill="none" stroke="#45deeb" stroke-linecap="round" stroke-linejoin="round" stroke-width="1.267"/>
        <path id="Path_1989" data-name="Path 1989" d="M1324.026,2561.8l125.03,216.56L2040.8,2567.426,2456.29,2214.06l-98.276,536.513L2471.2,3368.5h250.066l113.189-617.925-98.276-536.513,415.5,353.366,591.739,210.935,125.028-216.56L3389.9,2154.807,2876.12,1971.665l513.78-183.146,478.544-406.989-125.027-216.56L3151.678,1375.9l-415.5,353.37,98.276-536.51L2721.269,574.832H2471.2l-113.189,617.929,98.276,536.51-415.5-353.37L1449.056,1164.97l-125.03,216.56,478.547,406.989,513.779,183.146-513.779,183.142Zm1086.329-590.136,92.94-160.979h185.881l92.941,160.979-92.942,160.979H2503.3Z" fill="none" stroke="#45deeb" stroke-linecap="round" stroke-linejoin="round" stroke-width="1.267"/>
        <path id="Path_1990" data-name="Path 1990" d="M1820.814,1756.922,1370.061,1373.57l95.119-164.755L2022.551,1407.5,2473.3,1790.854l-95.119,164.755Z" fill="none" stroke="#45deeb" stroke-linecap="round" stroke-linejoin="round" stroke-width="1.267"/>
        <path id="Path_1991" data-name="Path 1991" d="M1839.056,1725.324,1416.1,1365.611l65.209-112.95,523,186.434,422.962,359.717-65.209,112.95Z" fill="none" stroke="#45deeb" stroke-linecap="round" stroke-linejoin="round" stroke-width="1.267"/>
        <path id="Path_1992" data-name="Path 1992" d="M1857.3,1693.727,1462.13,1357.653l35.3-61.145,488.637,174.186,395.171,336.078-35.3,61.144Z" fill="none" stroke="#45deeb" stroke-linecap="round" stroke-linejoin="round" stroke-width="1.267"/>
        <path id="Path_1993" data-name="Path 1993" d="M2357.987,1834.112l-390.163-331.82-482.445-171.98,390.162,331.819Z" fill="none" stroke="#45deeb" stroke-linecap="round" stroke-linejoin="round" stroke-width="1.267"/>
        <path id="Path_1994" data-name="Path 1994" d="M1893.783,1630.532,1657.874,1429.9l291.707,103.985,235.91,200.632Z" fill="none" stroke="#45deeb" stroke-linecap="round" stroke-linejoin="round" stroke-width="1.267"/>
        <path id="Path_1995" data-name="Path 1995" d="M1912.026,1598.934l-81.654-69.44,100.967,35.992,81.654,69.44Z" fill="none" stroke="#45deeb" stroke-linecap="round" stroke-linejoin="round" stroke-width="1.267"/>
      </g>
    </g>
  </g>
</svg>
