<svg xmlns="http://www.w3.org/2000/svg" xmlns:xlink="http://www.w3.org/1999/xlink" width="1920" height="1080" viewBox="0 0 1920 1080">
  <defs>
    <linearGradient id="linear-gradient" x1="-0.283" y1="0.886" x2="-0.282" y2="0.886" gradientUnits="objectBoundingBox">
      <stop offset="0" stop-color="#a2b8ff" stop-opacity="0.431"/>
      <stop offset="1" stop-color="#8faaff" stop-opacity="0.82"/>
    </linearGradient>
    <linearGradient id="linear-gradient-2" x1="0.5" x2="0.5" y2="1" gradientUnits="objectBoundingBox">
      <stop offset="0" stop-color="#1c45d6"/>
      <stop offset="1" stop-color="#2452d7"/>
    </linearGradient>
    <linearGradient id="linear-gradient-3" x1="0.5" x2="0.5" y2="1" gradientUnits="objectBoundingBox">
      <stop offset="0" stop-color="#7793f2"/>
      <stop offset="1" stop-color="#1c45d6"/>
    </linearGradient>
    <linearGradient id="linear-gradient-11" x1="0.5" x2="0.5" y2="1" gradientUnits="objectBoundingBox">
      <stop offset="0" stop-color="#a2b8ff"/>
      <stop offset="1" stop-color="#1c45d6"/>
    </linearGradient>
    <linearGradient id="linear-gradient-15" x1="0.5" x2="0.5" y2="1" gradientUnits="objectBoundingBox">
      <stop offset="0" stop-color="#4fc0f8"/>
      <stop offset="1" stop-color="#1c45d6"/>
    </linearGradient>
    <clipPath id="clip-Error_1">
      <rect width="1920" height="1080"/>
    </clipPath>
  </defs>
  <g id="Error_1" data-name="Error – 1" clip-path="url(#clip-Error_1)">
    <g id="Group_9323" data-name="Group 9323" transform="translate(-744.918 -1092.049)" opacity="0.21" style="mix-blend-mode: multiply;isolation: isolate">
      <g id="Group_9321" data-name="Group 9321" transform="translate(616.021 842.967)">
        <path id="Path_8092" data-name="Path 8092" d="M540.731,644.024,495.566,397.45l45.166-246.574h80.594L666.492,397.45,621.326,644.024Z" transform="translate(16.429 189.236)" fill="none" stroke="#091741" stroke-linecap="round" stroke-linejoin="round" stroke-width="0.529"/>
        <path id="Path_8093" data-name="Path 8093" d="M540.633,616.26,498.252,384.89l42.381-231.37h55.252l42.381,231.37L595.885,616.26Z" transform="translate(29.199 201.796)" fill="none" stroke="#091741" stroke-linecap="round" stroke-linejoin="round" stroke-width="0.529"/>
        <path id="Path_8094" data-name="Path 8094" d="M540.535,588.5l-39.6-216.167,39.6-216.167h29.909l39.6,216.167L570.444,588.5Z" transform="translate(41.968 214.356)" fill="none" stroke="#091741" stroke-linecap="round" stroke-linejoin="round" stroke-width="0.529"/>
        <path id="Path_8095" data-name="Path 8095" d="M542.72,156.638,503.626,370.067,542.72,583.494l39.094-213.427Z" transform="translate(54.738 216.619)" fill="none" stroke="#091741" stroke-linecap="round" stroke-linejoin="round" stroke-width="0.529"/>
        <path id="Path_8096" data-name="Path 8096" d="M506.313,300.354l23.638-129.048,23.638,129.048L529.951,429.4Z" transform="translate(67.507 286.331)" fill="none" stroke="#091741" stroke-linecap="round" stroke-linejoin="round" stroke-width="0.529"/>
        <path id="Path_8097" data-name="Path 8097" d="M509,230.642l8.182-44.668,8.182,44.668-8.182,44.668Z" transform="translate(80.276 356.043)" fill="none" stroke="#091741" stroke-linecap="round" stroke-linejoin="round" stroke-width="0.529"/>
        <path id="Path_8098" data-name="Path 8098" d="M540.731,758.744,495.566,512.17,540.731,265.6h80.594L666.492,512.17,621.326,758.744Z" transform="translate(16.429 734.46)" fill="none" stroke="#091741" stroke-linecap="round" stroke-linejoin="round" stroke-width="0.529"/>
        <path id="Path_8099" data-name="Path 8099" d="M540.633,730.98,498.252,499.61l42.381-231.371h55.252L638.266,499.61,595.885,730.98Z" transform="translate(29.199 747.02)" fill="none" stroke="#091741" stroke-linecap="round" stroke-linejoin="round" stroke-width="0.529"/>
        <path id="Path_8100" data-name="Path 8100" d="M540.535,703.217l-39.6-216.167,39.6-216.167h29.909l39.6,216.167-39.6,216.167Z" transform="translate(41.968 759.581)" fill="none" stroke="#091741" stroke-linecap="round" stroke-linejoin="round" stroke-width="0.529"/>
        <path id="Path_8101" data-name="Path 8101" d="M542.72,271.359,503.626,484.787,542.72,698.214l39.094-213.427Z" transform="translate(54.738 761.844)" fill="none" stroke="#091741" stroke-linecap="round" stroke-linejoin="round" stroke-width="0.529"/>
        <path id="Path_8102" data-name="Path 8102" d="M506.313,415.075l23.638-129.048,23.638,129.048L529.951,544.123Z" transform="translate(67.507 831.556)" fill="none" stroke="#091741" stroke-linecap="round" stroke-linejoin="round" stroke-width="0.529"/>
        <path id="Path_8103" data-name="Path 8103" d="M509,345.363l8.182-44.668,8.182,44.668-8.182,44.668Z" transform="translate(80.276 901.268)" fill="none" stroke="#091741" stroke-linecap="round" stroke-linejoin="round" stroke-width="0.529"/>
        <path id="Path_8104" data-name="Path 8104" d="M420.124,498.855l190.955-162.4L847.2,252.282l40.3,69.795L696.543,484.48,460.42,568.651Z" transform="translate(-342.117 671.178)" fill="none" stroke="#091741" stroke-linecap="round" stroke-linejoin="round" stroke-width="0.529"/>
        <path id="Path_8105" data-name="Path 8105" d="M423.514,486.881,602.7,334.492,824.258,255.51l27.626,47.848L672.7,455.749,451.139,534.731Z" transform="translate(-326.006 686.524)" fill="none" stroke="#091741" stroke-linecap="round" stroke-linejoin="round" stroke-width="0.529"/>
        <path id="Path_8106" data-name="Path 8106" d="M426.9,474.907,594.312,332.532l207-73.793,14.954,25.9L648.863,427.017l-207,73.793Z" transform="translate(-309.894 701.869)" fill="none" stroke="#091741" stroke-linecap="round" stroke-linejoin="round" stroke-width="0.529"/>
        <path id="Path_8107" data-name="Path 8107" d="M428.616,474.657,633,401.8l165.287-140.57L593.9,334.086Z" transform="translate(-301.757 713.701)" fill="none" stroke="#091741" stroke-linecap="round" stroke-linejoin="round" stroke-width="0.529"/>
        <path id="Path_8108" data-name="Path 8108" d="M541.259,312.616l123.578-44.053L564.9,353.558,441.319,397.611Z" transform="translate(-241.385 748.557)" fill="none" stroke="#091741" stroke-linecap="round" stroke-linejoin="round" stroke-width="0.529"/>
        <path id="Path_8109" data-name="Path 8109" d="M488.614,291.146,531.387,275.9,496.8,305.316l-42.773,15.249Z" transform="translate(-181.011 783.413)" fill="none" stroke="#091741" stroke-linecap="round" stroke-linejoin="round" stroke-width="0.529"/>
        <path id="Path_8110" data-name="Path 8110" d="M519.474,441.5l190.956-162.4,236.121-84.171,40.3,69.795L795.893,427.12,559.771,511.291Z" transform="translate(130.061 398.566)" fill="none" stroke="#091741" stroke-linecap="round" stroke-linejoin="round" stroke-width="0.529"/>
        <path id="Path_8111" data-name="Path 8111" d="M522.865,429.521,702.047,277.132l221.562-78.982L951.235,246,772.053,398.389,550.49,477.371Z" transform="translate(146.173 413.911)" fill="none" stroke="#091741" stroke-linecap="round" stroke-linejoin="round" stroke-width="0.529"/>
        <path id="Path_8112" data-name="Path 8112" d="M526.255,417.547,693.663,275.172l207-73.793,14.955,25.9L748.214,369.657l-207,73.793Z" transform="translate(162.284 429.257)" fill="none" stroke="#091741" stroke-linecap="round" stroke-linejoin="round" stroke-width="0.529"/>
        <path id="Path_8113" data-name="Path 8113" d="M527.967,417.3l204.381-72.857,165.286-140.57L693.254,276.726Z" transform="translate(170.422 441.089)" fill="none" stroke="#091741" stroke-linecap="round" stroke-linejoin="round" stroke-width="0.529"/>
        <path id="Path_8114" data-name="Path 8114" d="M640.61,255.256,764.187,211.2,664.248,296.2,540.67,340.251Z" transform="translate(230.794 475.945)" fill="none" stroke="#091741" stroke-linecap="round" stroke-linejoin="round" stroke-width="0.529"/>
        <path id="Path_8115" data-name="Path 8115" d="M587.964,233.785l42.773-15.248-34.591,29.417L553.373,263.2Z" transform="translate(291.168 510.802)" fill="none" stroke="#091741" stroke-linecap="round" stroke-linejoin="round" stroke-width="0.529"/>
        <path id="Path_8116" data-name="Path 8116" d="M710.43,484.48l-190.956-162.4,40.3-69.795,236.122,84.171,190.956,162.4-40.3,69.8Z" transform="translate(130.061 671.178)" fill="none" stroke="#091741" stroke-linecap="round" stroke-linejoin="round" stroke-width="0.529"/>
        <path id="Path_8117" data-name="Path 8117" d="M702.046,455.749,522.865,303.359l27.626-47.848,221.563,78.982L951.235,486.881l-27.625,47.85Z" transform="translate(146.172 686.524)" fill="none" stroke="#091741" stroke-linecap="round" stroke-linejoin="round" stroke-width="0.529"/>
        <path id="Path_8118" data-name="Path 8118" d="M693.663,427.017,526.255,284.641l14.954-25.9,207,73.793L915.621,474.907l-14.955,25.9Z" transform="translate(162.284 701.869)" fill="none" stroke="#091741" stroke-linecap="round" stroke-linejoin="round" stroke-width="0.529"/>
        <path id="Path_8119" data-name="Path 8119" d="M897.635,474.657,732.347,334.086,527.967,261.229,693.253,401.8Z" transform="translate(170.422 713.701)" fill="none" stroke="#091741" stroke-linecap="round" stroke-linejoin="round" stroke-width="0.529"/>
        <path id="Path_8120" data-name="Path 8120" d="M640.609,353.558l-99.94-84.995,123.578,44.053,99.94,84.995Z" transform="translate(230.794 748.557)" fill="none" stroke="#091741" stroke-linecap="round" stroke-linejoin="round" stroke-width="0.529"/>
        <path id="Path_8121" data-name="Path 8121" d="M587.964,305.316,553.373,275.9l42.773,15.249,34.592,29.419Z" transform="translate(291.167 783.413)" fill="none" stroke="#091741" stroke-linecap="round" stroke-linejoin="round" stroke-width="0.529"/>
        <path id="Path_8122" data-name="Path 8122" d="M611.08,427.12l-190.955-162.4,40.3-69.795,236.121,84.171L887.5,441.5l-40.3,69.8Z" transform="translate(-342.118 398.566)" fill="none" stroke="#091741" stroke-linecap="round" stroke-linejoin="round" stroke-width="0.529"/>
        <path id="Path_8123" data-name="Path 8123" d="M602.7,398.389,423.514,246l27.626-47.848L672.7,277.132,851.884,429.521l-27.625,47.85Z" transform="translate(-326.006 413.911)" fill="none" stroke="#091741" stroke-linecap="round" stroke-linejoin="round" stroke-width="0.529"/>
        <path id="Path_8124" data-name="Path 8124" d="M594.312,369.657,426.9,227.281l14.954-25.9,207,73.793L816.271,417.547l-14.954,25.9Z" transform="translate(-309.894 429.257)" fill="none" stroke="#091741" stroke-linecap="round" stroke-linejoin="round" stroke-width="0.529"/>
        <path id="Path_8125" data-name="Path 8125" d="M798.284,417.3,633,276.726,428.616,203.869,593.9,344.439Z" transform="translate(-301.757 441.089)" fill="none" stroke="#091741" stroke-linecap="round" stroke-linejoin="round" stroke-width="0.529"/>
        <path id="Path_8126" data-name="Path 8126" d="M541.259,296.2,441.319,211.2,564.9,255.256l99.94,84.995Z" transform="translate(-241.385 475.945)" fill="none" stroke="#091741" stroke-linecap="round" stroke-linejoin="round" stroke-width="0.529"/>
        <path id="Path_8127" data-name="Path 8127" d="M488.613,247.955l-34.591-29.417,42.773,15.248L531.387,263.2Z" transform="translate(-181.011 510.802)" fill="none" stroke="#091741" stroke-linecap="round" stroke-linejoin="round" stroke-width="0.529"/>
        <g id="Group_9319" data-name="Group 9319" transform="translate(0 279.297)">
          <path id="Path_8128" data-name="Path 8128" d="M913.039,1415.024l-56.307-307.387L876.82,997.985,791.9,1070.21,497.542,1175.139l-90.978-157.583L644.615,815.1l105-37.432-105-37.427L406.564,537.779,497.542,380.2,791.9,485.125l84.921,72.219L856.732,447.692l56.307-307.387h181.968l56.3,307.387-20.082,109.651,84.915-72.219L1510.5,380.2l90.984,157.582L1363.432,740.238l-105,37.427,105,37.432,238.051,202.459L1510.5,1175.139,1216.141,1070.21l-84.915-72.225,20.082,109.652-56.3,307.387ZM1017.059,800.25l13.041-22.585-13.035-22.585H990.982l-13.041,22.585,13.041,22.585Z" transform="translate(-406.564 -140.305)" fill="none" stroke="#091741" stroke-linecap="round" stroke-linejoin="round" stroke-width="0.529"/>
          <path id="Path_8129" data-name="Path 8129" d="M909.6,1387.259l-53.523-292.183,27.267-148.862-115.283,98.048L488.265,1144l-78.311-135.636L636.229,815.917,778.786,765.1,636.229,714.29,409.954,521.841l78.311-135.63,279.8,99.734,115.283,98.048L856.078,435.131,909.6,142.948h156.622l53.517,292.183-27.267,148.862,115.288-98.048,279.8-99.734,78.311,135.63L1339.589,714.29,1197.038,765.1l142.55,50.813,226.281,192.449L1487.558,1144l-279.8-99.739-115.288-98.048,27.267,148.862-53.517,292.183Zm100.125-584.366,21.82-37.789-21.82-37.789H966.092L944.278,765.1l21.814,37.789Z" transform="translate(-390.452 -127.744)" fill="none" stroke="#091741" stroke-linecap="round" stroke-linejoin="round" stroke-width="0.529"/>
          <path id="Path_8130" data-name="Path 8130" d="M906.157,1359.493l-50.733-276.979,34.453-188.078L744.225,1018.315l-265.244,94.551-65.638-113.69,214.5-182.434,180.1-64.2-180.1-64.2-214.5-182.434,65.638-113.684L744.22,486.769,889.871,610.647,855.424,422.57l50.733-276.979h131.281l50.739,276.979-34.452,188.077,145.651-123.878,265.237-94.545,65.644,113.684L1315.751,688.343l-180.1,64.2,180.1,64.2,214.505,182.434-65.637,113.69-265.244-94.551L1053.724,894.437l34.452,188.078-50.739,276.979Zm96.236-553.958,30.6-52.993-30.6-52.994H941.2L910.61,752.542,941.2,805.536Z" transform="translate(-374.341 -115.182)" fill="none" stroke="#091741" stroke-linecap="round" stroke-linejoin="round" stroke-width="0.529"/>
          <path id="Path_8131" data-name="Path 8131" d="M1074.257,739.981l217.657-77.586,202.729-172.419-52.97-91.738L1191,487.594l-176.02,149.7,41.632-227.287-47.954-261.775H902.718L854.77,410.009,896.4,637.3l-176.02-149.7L469.7,398.239l-52.97,91.738,202.73,172.419,217.651,77.586L619.464,817.567,416.734,989.985l52.965,91.743,250.683-89.362,176.02-149.7L854.77,1069.953l47.948,261.78h105.935l47.954-261.78-41.632-227.288,176.014,149.7,250.683,89.362,52.965-91.743L1291.914,817.567Zm-39.826,0-39.371,68.2H916.317l-39.377-68.2,39.371-68.192H995.06Z" transform="translate(-358.229 -102.621)" fill="none" stroke="#091741" stroke-linecap="round" stroke-linejoin="round" stroke-width="0.529"/>
          <path id="Path_8132" data-name="Path 8132" d="M521.728,264.583H513.2L508.94,257.2l4.262-7.381h8.525l4.263,7.381Z" transform="translate(79.994 380.163)" fill="none" stroke="#091741" stroke-linecap="round" stroke-linejoin="round" stroke-width="0.529"/>
        </g>
        <g id="Group_9320" data-name="Group 9320" transform="translate(982.875)">
          <path id="Path_8133" data-name="Path 8133" d="M711.586,595.472,666.422,348.9l45.164-246.574H792.18L837.347,348.9,792.18,595.472Z" transform="translate(-154.426 -41.514)" fill="none" stroke="#091741" stroke-linecap="round" stroke-linejoin="round" stroke-width="0.529"/>
          <path id="Path_8134" data-name="Path 8134" d="M711.489,567.709l-42.38-231.371,42.38-231.37H766.74l42.382,231.37L766.74,567.709Z" transform="translate(-141.657 -28.954)" fill="none" stroke="#091741" stroke-linecap="round" stroke-linejoin="round" stroke-width="0.529"/>
          <path id="Path_8135" data-name="Path 8135" d="M711.391,539.945,671.8,323.778l39.6-216.167H741.3l39.6,216.167L741.3,539.945Z" transform="translate(-128.887 -16.394)" fill="none" stroke="#091741" stroke-linecap="round" stroke-linejoin="round" stroke-width="0.529"/>
          <path id="Path_8136" data-name="Path 8136" d="M713.577,108.087,674.482,321.515l39.095,213.427,39.094-213.427Z" transform="translate(-116.118 -14.13)" fill="none" stroke="#091741" stroke-linecap="round" stroke-linejoin="round" stroke-width="0.529"/>
          <path id="Path_8137" data-name="Path 8137" d="M677.169,251.8l23.637-129.048L724.445,251.8,700.806,380.851Z" transform="translate(-103.349 55.581)" fill="none" stroke="#091741" stroke-linecap="round" stroke-linejoin="round" stroke-width="0.529"/>
          <path id="Path_8138" data-name="Path 8138" d="M679.855,182.091l8.181-44.668,8.182,44.668-8.182,44.668Z" transform="translate(-90.579 125.293)" fill="none" stroke="#091741" stroke-linecap="round" stroke-linejoin="round" stroke-width="0.529"/>
          <path id="Path_8139" data-name="Path 8139" d="M711.587,710.191,666.422,463.619l45.164-246.574H792.18l45.167,246.574L792.18,710.191Z" transform="translate(-154.426 503.711)" fill="none" stroke="#091741" stroke-linecap="round" stroke-linejoin="round" stroke-width="0.529"/>
          <path id="Path_8140" data-name="Path 8140" d="M711.489,682.427l-42.38-231.369,42.38-231.37H766.74l42.382,231.37L766.74,682.427Z" transform="translate(-141.657 516.272)" fill="none" stroke="#091741" stroke-linecap="round" stroke-linejoin="round" stroke-width="0.529"/>
          <path id="Path_8141" data-name="Path 8141" d="M711.391,654.664,671.8,438.5l39.6-216.167H741.3L780.9,438.5,741.3,654.664Z" transform="translate(-128.887 528.832)" fill="none" stroke="#091741" stroke-linecap="round" stroke-linejoin="round" stroke-width="0.529"/>
          <path id="Path_8142" data-name="Path 8142" d="M713.577,222.807,674.482,436.235l39.095,213.427,39.094-213.427Z" transform="translate(-116.118 531.094)" fill="none" stroke="#091741" stroke-linecap="round" stroke-linejoin="round" stroke-width="0.529"/>
          <path id="Path_8143" data-name="Path 8143" d="M677.169,366.523l23.637-129.048,23.638,129.048L700.806,495.57Z" transform="translate(-103.349 600.807)" fill="none" stroke="#091741" stroke-linecap="round" stroke-linejoin="round" stroke-width="0.529"/>
          <path id="Path_8144" data-name="Path 8144" d="M679.855,296.811l8.181-44.668,8.182,44.668-8.182,44.666Z" transform="translate(-90.579 670.519)" fill="none" stroke="#091741" stroke-linecap="round" stroke-linejoin="round" stroke-width="0.529"/>
          <path id="Path_8145" data-name="Path 8145" d="M590.98,450.3,781.935,287.9l236.121-84.171,40.3,69.795L867.4,435.929,631.276,520.1Z" transform="translate(-512.973 440.428)" fill="none" stroke="#091741" stroke-linecap="round" stroke-linejoin="round" stroke-width="0.529"/>
          <path id="Path_8146" data-name="Path 8146" d="M594.37,438.329,773.552,285.94l221.562-78.982,27.626,47.848L843.559,407.2,622,486.179Z" transform="translate(-496.861 455.774)" fill="none" stroke="#091741" stroke-linecap="round" stroke-linejoin="round" stroke-width="0.529"/>
          <path id="Path_8147" data-name="Path 8147" d="M597.76,426.355,765.169,283.98l207-73.793,14.954,25.9L819.719,378.465l-207,73.793Z" transform="translate(-480.75 471.12)" fill="none" stroke="#091741" stroke-linecap="round" stroke-linejoin="round" stroke-width="0.529"/>
          <path id="Path_8148" data-name="Path 8148" d="M599.473,426.1l204.381-72.857L969.14,212.677,764.759,285.534Z" transform="translate(-472.613 482.952)" fill="none" stroke="#091741" stroke-linecap="round" stroke-linejoin="round" stroke-width="0.529"/>
          <path id="Path_8149" data-name="Path 8149" d="M712.115,264.064l123.577-44.053-99.939,84.995L612.175,349.059Z" transform="translate(-412.24 517.807)" fill="none" stroke="#091741" stroke-linecap="round" stroke-linejoin="round" stroke-width="0.529"/>
          <path id="Path_8150" data-name="Path 8150" d="M659.47,242.594l42.773-15.249-34.591,29.419-42.774,15.249Z" transform="translate(-351.867 552.663)" fill="none" stroke="#091741" stroke-linecap="round" stroke-linejoin="round" stroke-width="0.529"/>
          <path id="Path_8151" data-name="Path 8151" d="M690.331,392.943l190.957-162.4,236.119-84.171,40.3,69.795-190.956,162.4L730.627,462.739Z" transform="translate(-40.795 167.816)" fill="none" stroke="#091741" stroke-linecap="round" stroke-linejoin="round" stroke-width="0.529"/>
          <path id="Path_8152" data-name="Path 8152" d="M693.721,380.969,872.9,228.58,1094.465,149.6l27.626,47.848L942.909,349.837,721.346,428.819Z" transform="translate(-24.683 183.162)" fill="none" stroke="#091741" stroke-linecap="round" stroke-linejoin="round" stroke-width="0.529"/>
          <path id="Path_8153" data-name="Path 8153" d="M697.111,368.995,864.519,226.62l207-73.793,14.955,25.9L919.069,321.105l-207,73.793Z" transform="translate(-8.571 198.507)" fill="none" stroke="#091741" stroke-linecap="round" stroke-linejoin="round" stroke-width="0.529"/>
          <path id="Path_8154" data-name="Path 8154" d="M698.823,368.745,903.2,295.888l165.286-140.57L864.11,228.174Z" transform="translate(-0.434 210.34)" fill="none" stroke="#091741" stroke-linecap="round" stroke-linejoin="round" stroke-width="0.529"/>
          <path id="Path_8155" data-name="Path 8155" d="M811.466,206.7l123.577-44.053L835.1,247.646,711.526,291.7Z" transform="translate(59.938 245.195)" fill="none" stroke="#091741" stroke-linecap="round" stroke-linejoin="round" stroke-width="0.529"/>
          <path id="Path_8156" data-name="Path 8156" d="M758.82,185.234l42.773-15.249L767,199.4l-42.774,15.249Z" transform="translate(120.311 280.051)" fill="none" stroke="#091741" stroke-linecap="round" stroke-linejoin="round" stroke-width="0.529"/>
          <path id="Path_8157" data-name="Path 8157" d="M881.285,435.929l-190.954-162.4,40.3-69.795L966.748,287.9,1157.7,450.3l-40.3,69.8Z" transform="translate(-40.795 440.428)" fill="none" stroke="#091741" stroke-linecap="round" stroke-linejoin="round" stroke-width="0.529"/>
          <path id="Path_8158" data-name="Path 8158" d="M872.9,407.2l-179.18-152.39,27.626-47.848L942.908,285.94l179.183,152.389-27.625,47.85Z" transform="translate(-24.683 455.774)" fill="none" stroke="#091741" stroke-linecap="round" stroke-linejoin="round" stroke-width="0.529"/>
          <path id="Path_8159" data-name="Path 8159" d="M864.518,378.465,697.111,236.089l14.954-25.9,207,73.793,167.408,142.375-14.955,25.9Z" transform="translate(-8.571 471.12)" fill="none" stroke="#091741" stroke-linecap="round" stroke-linejoin="round" stroke-width="0.529"/>
          <path id="Path_8160" data-name="Path 8160" d="M1068.491,426.1,903.2,285.534,698.823,212.677,864.11,353.248Z" transform="translate(-0.434 482.952)" fill="none" stroke="#091741" stroke-linecap="round" stroke-linejoin="round" stroke-width="0.529"/>
          <path id="Path_8161" data-name="Path 8161" d="M811.465,305.006l-99.939-84.995L835.1,264.064l99.94,84.995Z" transform="translate(59.938 517.807)" fill="none" stroke="#091741" stroke-linecap="round" stroke-linejoin="round" stroke-width="0.529"/>
          <path id="Path_8162" data-name="Path 8162" d="M758.82,256.764l-34.591-29.419L767,242.594l34.591,29.419Z" transform="translate(120.311 552.663)" fill="none" stroke="#091741" stroke-linecap="round" stroke-linejoin="round" stroke-width="0.529"/>
          <path id="Path_8163" data-name="Path 8163" d="M781.935,378.569,590.98,216.164l40.3-69.795L867.4,230.54l190.955,162.4-40.3,69.8Z" transform="translate(-512.974 167.816)" fill="none" stroke="#091741" stroke-linecap="round" stroke-linejoin="round" stroke-width="0.529"/>
          <path id="Path_8164" data-name="Path 8164" d="M773.552,349.837,594.37,197.447,622,149.6,843.558,228.58,1022.74,380.969l-27.625,47.85Z" transform="translate(-496.862 183.162)" fill="none" stroke="#091741" stroke-linecap="round" stroke-linejoin="round" stroke-width="0.529"/>
          <path id="Path_8165" data-name="Path 8165" d="M765.168,321.105,597.76,178.729l14.954-25.9,207,73.793L987.126,368.995l-14.954,25.9Z" transform="translate(-480.75 198.507)" fill="none" stroke="#091741" stroke-linecap="round" stroke-linejoin="round" stroke-width="0.529"/>
          <path id="Path_8166" data-name="Path 8166" d="M969.14,368.745,803.853,228.174l-204.38-72.857,165.286,140.57Z" transform="translate(-472.613 210.34)" fill="none" stroke="#091741" stroke-linecap="round" stroke-linejoin="round" stroke-width="0.529"/>
          <path id="Path_8167" data-name="Path 8167" d="M712.115,247.646l-99.94-84.995L735.753,206.7l99.94,84.995Z" transform="translate(-412.24 245.195)" fill="none" stroke="#091741" stroke-linecap="round" stroke-linejoin="round" stroke-width="0.529"/>
          <path id="Path_8168" data-name="Path 8168" d="M659.47,199.4l-34.591-29.417,42.773,15.248,34.591,29.417Z" transform="translate(-351.867 280.052)" fill="none" stroke="#091741" stroke-linecap="round" stroke-linejoin="round" stroke-width="0.529"/>
          <path id="Path_8169" data-name="Path 8169" d="M1083.9,1366.468l-56.307-307.382,20.088-109.651-84.921,72.219L668.4,1126.582,577.42,969,815.471,766.54l105-37.433-105-37.427L577.42,489.222,668.4,331.64,962.756,436.568l84.921,72.219-20.088-109.651L1083.9,91.754h181.962l56.307,307.382-20.083,109.657L1387,436.568,1681.355,331.64l90.983,157.583-238.05,202.459-105,37.427,105,37.433L1772.338,969l-90.983,157.583L1387,1021.653l-84.915-72.225,20.083,109.657-56.307,307.382ZM1187.915,751.7l13.047-22.585-13.041-22.591h-26.083L1148.8,729.114l13.041,22.585Z" transform="translate(-577.42 -91.754)" fill="none" stroke="#091741" stroke-linecap="round" stroke-linejoin="round" stroke-width="0.529"/>
          <path id="Path_8170" data-name="Path 8170" d="M1080.457,1338.707l-53.522-292.177L1054.2,897.662,938.919,995.71l-279.8,99.739L580.81,959.814,807.085,767.37l142.551-50.819L807.085,665.738,580.81,473.295l78.311-135.636,279.8,99.739L1054.2,535.446l-27.267-148.867L1080.451,94.4h156.622L1290.6,386.579l-27.267,148.867L1378.617,437.4l279.792-99.739,78.316,135.636L1510.445,665.738l-142.551,50.813,142.551,50.819,226.281,192.443-78.311,135.636-279.8-99.739-115.289-98.048,27.267,148.867-53.523,292.177Zm100.125-584.36,21.82-37.789-21.814-37.795h-43.64l-21.82,37.795,21.82,37.789Z" transform="translate(-561.308 -79.197)" fill="none" stroke="#091741" stroke-linecap="round" stroke-linejoin="round" stroke-width="0.529"/>
          <path id="Path_8171" data-name="Path 8171" d="M1077.018,1310.947l-50.738-276.979,34.447-188.077L915.081,969.763l-265.243,94.551L584.2,950.624,798.705,768.2,978.8,703.99l-180.1-64.2L584.2,457.362l65.638-113.69,265.238,94.551L1060.727,562.1,1026.28,374.018l50.733-276.979h131.281l50.738,276.979L1224.58,562.1l145.651-123.872,265.238-94.551,65.643,113.69-214.5,182.428-180.1,64.2,180.1,64.205,214.5,182.428-65.638,113.69-265.243-94.551L1224.58,845.885l34.453,188.083-50.738,276.979Zm96.231-553.958,30.6-52.993L1173.249,651h-61.191L1081.465,704l30.592,52.993Z" transform="translate(-545.197 -66.636)" fill="none" stroke="#091741" stroke-linecap="round" stroke-linejoin="round" stroke-width="0.529"/>
          <path id="Path_8172" data-name="Path 8172" d="M1245.118,691.429l217.651-77.586L1665.5,441.424l-52.971-91.737-250.678,89.356-176.025,149.7,41.637-227.287L1179.509,99.682H1073.574l-47.948,261.775,41.632,227.287-176.019-149.7L640.56,349.687l-52.97,91.737L790.319,613.843l217.652,77.586L790.319,769.015,587.59,941.433l52.964,91.744,250.684-89.362,176.019-149.7-41.632,227.287,47.948,261.775h105.935l47.954-261.775-41.637-227.293,176.019,149.7,250.683,89.362,52.971-91.744L1462.764,769.015Zm-39.826.006-39.377,68.192h-78.742L1047.8,691.435l39.371-68.2h78.748Z" transform="translate(-529.085 -54.075)" fill="none" stroke="#091741" stroke-linecap="round" stroke-linejoin="round" stroke-width="0.529"/>
          <path id="Path_8173" data-name="Path 8173" d="M692.584,216.032h-8.525l-4.263-7.383,4.263-7.385h8.527l4.263,7.385Z" transform="translate(-90.864 428.709)" fill="none" stroke="#091741" stroke-linecap="round" stroke-linejoin="round" stroke-width="0.529"/>
        </g>
      </g>
      <g id="Group_9322" data-name="Group 9322" transform="translate(362.492 -66.308)">
        <path id="Path_8174" data-name="Path 8174" d="M583.947,471.766,538.781,225.193,583.947-21.38h80.594l45.166,246.574L664.541,471.766Z" transform="translate(475.345 279.833)" fill="none" stroke="#091741" stroke-linecap="round" stroke-linejoin="round" stroke-width="0.529"/>
        <path id="Path_8175" data-name="Path 8175" d="M583.849,444,541.468,212.633l42.381-231.37H639.1l42.381,231.37L639.1,444Z" transform="translate(488.114 292.394)" fill="none" stroke="#091741" stroke-linecap="round" stroke-linejoin="round" stroke-width="0.529"/>
        <path id="Path_8176" data-name="Path 8176" d="M583.751,416.239l-39.6-216.166,39.6-216.167H613.66l39.6,216.167-39.6,216.166Z" transform="translate(500.884 304.954)" fill="none" stroke="#091741" stroke-linecap="round" stroke-linejoin="round" stroke-width="0.529"/>
        <path id="Path_8177" data-name="Path 8177" d="M585.936-15.618,546.841,197.81l39.094,213.427L625.03,197.81Z" transform="translate(513.653 307.217)" fill="none" stroke="#091741" stroke-linecap="round" stroke-linejoin="round" stroke-width="0.529"/>
        <path id="Path_8178" data-name="Path 8178" d="M549.528,128.1,573.167-.95,596.8,128.1,573.167,257.146Z" transform="translate(526.423 376.929)" fill="none" stroke="#091741" stroke-linecap="round" stroke-linejoin="round" stroke-width="0.529"/>
        <path id="Path_8179" data-name="Path 8179" d="M552.215,58.386,560.4,13.718l8.182,44.668L560.4,103.054Z" transform="translate(539.192 446.641)" fill="none" stroke="#091741" stroke-linecap="round" stroke-linejoin="round" stroke-width="0.529"/>
        <path id="Path_8180" data-name="Path 8180" d="M583.947,586.485,538.781,339.914,583.947,93.34h80.594l45.166,246.574L664.541,586.485Z" transform="translate(475.345 825.058)" fill="none" stroke="#091741" stroke-linecap="round" stroke-linejoin="round" stroke-width="0.529"/>
        <path id="Path_8181" data-name="Path 8181" d="M583.849,558.722,541.468,327.353,583.849,95.983H639.1l42.381,231.371L639.1,558.722Z" transform="translate(488.114 837.618)" fill="none" stroke="#091741" stroke-linecap="round" stroke-linejoin="round" stroke-width="0.529"/>
        <path id="Path_8182" data-name="Path 8182" d="M583.751,530.959l-39.6-216.166,39.6-216.167H613.66l39.6,216.167-39.6,216.166Z" transform="translate(500.884 850.178)" fill="none" stroke="#091741" stroke-linecap="round" stroke-linejoin="round" stroke-width="0.529"/>
        <path id="Path_8183" data-name="Path 8183" d="M585.936,99.1,546.841,312.53l39.094,213.427L625.03,312.53Z" transform="translate(513.653 852.441)" fill="none" stroke="#091741" stroke-linecap="round" stroke-linejoin="round" stroke-width="0.529"/>
        <path id="Path_8184" data-name="Path 8184" d="M549.528,242.818,573.167,113.77,596.8,242.818,573.167,371.866Z" transform="translate(526.423 922.153)" fill="none" stroke="#091741" stroke-linecap="round" stroke-linejoin="round" stroke-width="0.529"/>
        <path id="Path_8185" data-name="Path 8185" d="M552.215,173.106l8.182-44.668,8.182,44.668L560.4,217.774Z" transform="translate(539.192 991.866)" fill="none" stroke="#091741" stroke-linecap="round" stroke-linejoin="round" stroke-width="0.529"/>
        <path id="Path_8186" data-name="Path 8186" d="M463.34,326.6,654.3,164.194,890.417,80.025l40.3,69.8-190.956,162.4L503.636,396.393Z" transform="translate(116.798 761.775)" fill="none" stroke="#091741" stroke-linecap="round" stroke-linejoin="round" stroke-width="0.529"/>
        <path id="Path_8187" data-name="Path 8187" d="M466.73,314.623,645.911,162.234l221.563-78.98L895.1,131.1,715.918,283.491,494.355,362.472Z" transform="translate(132.91 777.121)" fill="none" stroke="#091741" stroke-linecap="round" stroke-linejoin="round" stroke-width="0.529"/>
        <path id="Path_8188" data-name="Path 8188" d="M470.12,302.648,637.528,160.274l207-73.791,14.954,25.9L692.078,254.759l-207,73.793Z" transform="translate(149.022 792.467)" fill="none" stroke="#091741" stroke-linecap="round" stroke-linejoin="round" stroke-width="0.529"/>
        <path id="Path_8189" data-name="Path 8189" d="M471.832,302.4l204.381-72.857L841.5,88.972,637.119,161.829Z" transform="translate(157.159 804.298)" fill="none" stroke="#091741" stroke-linecap="round" stroke-linejoin="round" stroke-width="0.529"/>
        <path id="Path_8190" data-name="Path 8190" d="M584.475,140.358,708.052,96.306,608.113,181.3,484.535,225.353Z" transform="translate(217.531 839.155)" fill="none" stroke="#091741" stroke-linecap="round" stroke-linejoin="round" stroke-width="0.529"/>
        <path id="Path_8191" data-name="Path 8191" d="M531.829,118.888,574.6,103.64l-34.591,29.417-42.774,15.249Z" transform="translate(277.905 874.011)" fill="none" stroke="#091741" stroke-linecap="round" stroke-linejoin="round" stroke-width="0.529"/>
        <path id="Path_8192" data-name="Path 8192" d="M562.69,269.237l190.956-162.4L989.768,22.665l40.3,69.8-190.955,162.4L602.986,339.033Z" transform="translate(588.977 489.163)" fill="none" stroke="#091741" stroke-linecap="round" stroke-linejoin="round" stroke-width="0.529"/>
        <path id="Path_8193" data-name="Path 8193" d="M566.08,257.263,745.262,104.874l221.563-78.98,27.625,47.85L815.269,226.13,593.705,305.112Z" transform="translate(605.089 504.509)" fill="none" stroke="#091741" stroke-linecap="round" stroke-linejoin="round" stroke-width="0.529"/>
        <path id="Path_8194" data-name="Path 8194" d="M569.47,245.288,736.879,102.914l207-73.791,14.954,25.9L791.429,197.4l-207,73.793Z" transform="translate(621.2 519.855)" fill="none" stroke="#091741" stroke-linecap="round" stroke-linejoin="round" stroke-width="0.529"/>
        <path id="Path_8195" data-name="Path 8195" d="M571.182,245.04l204.381-72.857L940.85,31.612,736.469,104.469Z" transform="translate(629.337 531.686)" fill="none" stroke="#091741" stroke-linecap="round" stroke-linejoin="round" stroke-width="0.529"/>
        <path id="Path_8196" data-name="Path 8196" d="M683.825,83,807.4,38.946l-99.939,84.993L583.885,167.993Z" transform="translate(689.71 566.543)" fill="none" stroke="#091741" stroke-linecap="round" stroke-linejoin="round" stroke-width="0.529"/>
        <path id="Path_8197" data-name="Path 8197" d="M631.18,61.528,673.953,46.28,639.361,75.7,596.588,90.945Z" transform="translate(750.083 601.399)" fill="none" stroke="#091741" stroke-linecap="round" stroke-linejoin="round" stroke-width="0.529"/>
        <path id="Path_8198" data-name="Path 8198" d="M753.645,312.222,562.69,149.821l40.3-69.8,236.122,84.169,190.955,162.4-40.3,69.8Z" transform="translate(588.976 761.775)" fill="none" stroke="#091741" stroke-linecap="round" stroke-linejoin="round" stroke-width="0.529"/>
        <path id="Path_8199" data-name="Path 8199" d="M745.262,283.491,566.08,131.1l27.625-47.85,221.563,78.98L994.45,314.623l-27.625,47.85Z" transform="translate(605.088 777.121)" fill="none" stroke="#091741" stroke-linecap="round" stroke-linejoin="round" stroke-width="0.529"/>
        <path id="Path_8200" data-name="Path 8200" d="M736.878,254.759,569.47,112.386l14.954-25.9,207,73.791L958.836,302.648l-14.954,25.9Z" transform="translate(621.2 792.467)" fill="none" stroke="#091741" stroke-linecap="round" stroke-linejoin="round" stroke-width="0.529"/>
        <path id="Path_8201" data-name="Path 8201" d="M940.85,302.4,775.563,161.829,571.182,88.972l165.286,140.57Z" transform="translate(629.337 804.298)" fill="none" stroke="#091741" stroke-linecap="round" stroke-linejoin="round" stroke-width="0.529"/>
        <path id="Path_8202" data-name="Path 8202" d="M683.824,181.3,583.885,96.306l123.578,44.052,99.94,84.995Z" transform="translate(689.709 839.155)" fill="none" stroke="#091741" stroke-linecap="round" stroke-linejoin="round" stroke-width="0.529"/>
        <path id="Path_8203" data-name="Path 8203" d="M631.18,133.057,596.588,103.64l42.774,15.248,34.591,29.419Z" transform="translate(750.083 874.011)" fill="none" stroke="#091741" stroke-linecap="round" stroke-linejoin="round" stroke-width="0.529"/>
        <path id="Path_8204" data-name="Path 8204" d="M556.418,77.559h8.525l4.263,7.385-4.263,7.383h-8.525l-4.263-7.383Z" transform="translate(538.909 750.055)" fill="none" stroke="#091741" stroke-linecap="round" stroke-linejoin="round" stroke-width="0.529"/>
        <path id="Path_8205" data-name="Path 8205" d="M957.771,2594.624,903.246,2296.96,618.2,2398.568,362.5,1955.68l230.517-196.056L362.493,1563.568,618.2,1120.683,722.618,1157.9,611.1,964.745,841.615,768.689,611.1,572.636,866.8,129.748l285.045,101.605,54.522-297.661h511.418l54.526,297.661,285.047-101.605,255.7,442.888L2227.6,645.324h224.46l54.526,297.664,285.04-101.608,255.717,442.885-230.523,196.061,230.521,196.054-255.707,442.885-285.046-101.606-54.527,297.661H1940.648L1920.458,2205.1l-111.7,193.471L1523.712,2296.96l-54.524,297.664Z" transform="translate(-362.493 66.308)" fill="none" stroke="#091741" stroke-linecap="round" stroke-linejoin="round" stroke-width="0.529"/>
        <path id="Path_8206" data-name="Path 8206" d="M954.33,2566.86l-55.463-302.783-289.95,103.356L365.886,1946.492l234.481-199.428L365.883,1547.636,608.922,1126.7l131.422,46.846L614.487,955.556,848.97,756.129,614.487,556.7,857.522,135.763l289.949,103.353,55.46-302.78h486.075l55.463,302.78,289.95-103.353L2277.451,556.7l-107.3,91.263h253.13L2478.74,950.75l289.942-103.356,243.044,420.938L2777.24,1467.765l234.485,199.426L2768.69,2088.13l-289.949-103.352-55.465,302.78H1937.208l-25.356-138.426-126.037,218.3-289.948-103.356-55.461,302.783Z" transform="translate(-346.381 78.868)" fill="none" stroke="#091741" stroke-linecap="round" stroke-linejoin="round" stroke-width="0.529"/>
        <path id="Path_8207" data-name="Path 8207" d="M950.889,2539.1l-56.4-307.9L599.636,2336.3l-230.36-399,238.446-202.8L369.273,1531.7l230.368-398.992,158.429,56.473L617.877,946.368l238.448-202.8-238.448-202.8L848.241,141.777l294.852,105.1,56.4-307.9h460.733l56.4,307.9,294.853-105.1,230.361,398.995L2112.692,650.61h281.8l56.4,307.9,294.844-105.1L2976.113,1252.4l-238.451,202.8L2976.112,1658l-230.364,398.992-294.851-105.1-56.4,307.9H1933.766l-30.523-166.627L1762.872,2336.3l-294.85-105.1-56.4,307.9Z" transform="translate(-330.269 91.428)" fill="none" stroke="#091741" stroke-linecap="round" stroke-linejoin="round" stroke-width="0.529"/>
        <path id="Path_8208" data-name="Path 8208" d="M947.449,2511.334l-57.338-313.022L590.355,2305.163,372.666,1928.115l242.411-206.171L372.663,1515.772l217.7-377.046,185.436,66.1L621.267,937.179,863.679,731.008,621.267,524.84,838.961,147.792l299.754,106.848,57.336-313.019h435.39l57.338,313.019,299.756-106.848L2206.223,524.84,2055.237,653.253h310.473l57.339,313.022L2722.8,859.424l217.7,377.045-242.415,206.175,242.414,206.17L2722.8,2025.859l-299.754-106.847-57.34,313.018H1930.326L1894.637,2037.2l-154.708,267.96-299.753-106.851-57.337,313.022Z" transform="translate(-314.157 103.989)" fill="none" stroke="#091741" stroke-linecap="round" stroke-linejoin="round" stroke-width="0.529"/>
        <path id="Path_8209" data-name="Path 8209" d="M944.009,2483.57l-58.276-318.14-304.658,108.6-205.018-355.1,246.375-209.543L376.053,1499.84l205.025-355.1,212.444,75.726L624.657,927.991,871.034,718.448,624.657,508.908l205.023-355.1,304.656,108.6L1192.61-55.737h410.048L1660.934,262.4l304.659-108.6,205.017,355.1L1997.784,655.9h339.144L2395.2,974.036l304.651-108.6,205.029,355.1-246.379,209.547,246.379,209.542-205.022,355.1-304.657-108.6-58.278,318.138H1926.885l-40.855-223.029-169.044,292.789-304.656-108.6-58.276,318.14Z" transform="translate(-298.045 116.549)" fill="none" stroke="#091741" stroke-linecap="round" stroke-linejoin="round" stroke-width="0.529"/>
        <path id="Path_8210" data-name="Path 8210" d="M940.568,2455.806l-59.218-323.259L571.795,2242.894,379.443,1909.741l250.344-212.917L379.443,1483.912l192.352-333.153,239.454,85.352-183.2-317.3L878.388,705.888,628.044,492.977,820.4,159.823l309.562,110.342,59.212-323.259h384.7l59.218,323.259,309.556-110.342,192.346,333.153L1940.328,658.538h367.813L2367.36,981.8l309.55-110.342,192.364,333.154-250.344,212.917,250.338,212.911-192.346,333.153L2367.36,1853.249,2308.141,2176.5h-384.7l-46.022-251.23-183.377,317.621-309.562-110.347-59.212,323.259Zm931.827-557.974-8.163-44.583-31.185,11.114ZM881.351,1261.1l6.052-33.026-49.346,17.591ZM1910.708,728.042l9.612-52.487-35.666,30.334Z" transform="translate(-281.933 129.108)" fill="none" stroke="#091741" stroke-linecap="round" stroke-linejoin="round" stroke-width="0.529"/>
        <path id="Path_8211" data-name="Path 8211" d="M937.127,2428.043l-60.151-328.379L562.512,2211.757,382.836,1900.548l254.3-216.286L382.833,1467.977l179.683-311.206,314.46,112.09,14.014-76.508-79.873,28.47L631.437,909.613,885.744,693.327,631.437,477.044l179.68-311.209,314.462,112.09,60.15-328.376h359.363l60.151,328.376,314.463-112.09,179.676,311.209-254.3,216.283,59.728,50.8L1920,661.181h359.363l60.154,328.379,314.456-112.093,179.686,311.206-254.308,216.291,254.307,216.285-179.679,311.205-314.462-112.09-60.154,328.376H1920l-60.152-328.375-72.827,25.959,63.755,54.223L1671.1,2211.757,1356.64,2099.665l-60.151,328.379Z" transform="translate(-265.821 141.669)" fill="none" stroke="#091741" stroke-linecap="round" stroke-linejoin="round" stroke-width="0.529"/>
        <path id="Path_8212" data-name="Path 8212" d="M933.686,2400.28l-61.089-333.5L553.231,2180.622,386.226,1891.36,644.495,1671.7,386.223,1452.044l167.011-289.26L872.6,1276.622l21.98-119.991-92.741,33.056L634.827,900.425,893.1,680.767,634.827,461.112,801.836,171.85,1121.2,285.687l61.087-333.5h334.02l61.089,333.5L1896.764,171.85l167,289.262L1805.5,680.767l93.4,79.441,17.654-96.384h334.021l61.091,333.5,319.359-113.842,167.015,289.26L2539.771,1392.4l258.271,219.656-167.008,289.259-319.365-113.838-61.091,333.5H1916.563l-61.089-333.5L1741,1828.287l74.162,63.073-167.008,289.262-319.364-113.841-61.089,333.5Z" transform="translate(-249.71 154.23)" fill="none" stroke="#091741" stroke-linecap="round" stroke-linejoin="round" stroke-width="0.529"/>
        <path id="Path_8213" data-name="Path 8213" d="M930.245,2372.517,868.218,2033.9,543.95,2149.488,389.616,1882.172l262.234-223.03-262.236-223.03L543.953,1168.8l324.266,115.585,29.945-163.475-105.609,37.643L638.217,891.236l262.236-223.03L638.217,445.18,792.554,177.864l324.268,115.585,62.026-338.615h308.677l62.026,338.615,324.27-115.585L2028.154,445.18,1765.92,668.207,1893,776.288l20.115-109.821h308.678l62.029,338.619L2608.086,889.5l154.343,267.313-262.237,223.034,262.236,223.028-154.336,267.313L2283.823,1754.6l-62.029,338.615H1913.122L1851.095,1754.6l-156.112,55.647,84.568,71.926-154.336,267.316L1300.949,2033.9l-62.027,338.618Z" transform="translate(-233.598 166.79)" fill="none" stroke="#091741" stroke-linecap="round" stroke-linejoin="round" stroke-width="0.529"/>
        <path id="Path_8214" data-name="Path 8214" d="M926.8,2344.754,863.84,2001.017,534.669,2118.352l-141.663-245.37,266.2-226.4L393,1420.18l141.669-245.366L863.84,1292.146l37.91-206.959-118.477,42.23L641.607,882.048l266.2-226.4-266.2-226.4L783.273,183.879l329.171,117.333,62.963-343.734h283.335l62.964,343.734,329.172-117.333L1992.54,429.248l-266.2,226.4L1887.1,792.37l22.577-123.261h283.336l62.966,343.738,329.166-117.337,141.67,245.366-266.2,226.406,266.2,226.4-141.665,245.367-329.171-117.333-62.966,343.734H1909.681l-62.965-343.734-197.754,70.49,94.975,80.776-141.665,245.37L1273.1,2001.017l-62.964,343.737Z" transform="translate(-217.486 179.35)" fill="none" stroke="#091741" stroke-linecap="round" stroke-linejoin="round" stroke-width="0.529"/>
        <path id="Path_8215" data-name="Path 8215" d="M923.365,2316.989l-63.9-348.853-334.074,119.08L396.4,1863.794l270.162-229.772L396.393,1404.249l129-223.422,334.074,119.08,45.872-250.442-131.345,46.815L645,872.859,915.162,643.087,645,413.32,773.992,189.893l334.074,119.08,63.9-348.852h257.995l63.9,348.852,334.074-119.08L1956.927,413.32,1686.765,643.087,1881.2,808.452l25.036-136.7h257.995l63.906,348.858L2562.2,901.525l129,223.422-270.168,229.778L2691.2,1584.5,2562.21,1807.913l-334.074-119.08-63.906,348.852H1906.24l-63.9-348.852-239.4,85.335,105.383,89.626-128.992,223.421-334.074-119.08-63.9,348.853Zm524.619-1089.34,36.673-13.07L1455,1189.353Z" transform="translate(-201.375 191.91)" fill="none" stroke="#091741" stroke-linecap="round" stroke-linejoin="round" stroke-width="0.529"/>
        <path id="Path_8216" data-name="Path 8216" d="M919.927,2289.229l-61.876-337.8,5.718-31.226-24.184,20.571L516.108,2056.085,399.789,1854.6l261.6-222.484,29.9-10.66-29.9-10.654-261.6-222.489,116.33-201.475,323.472,115.306,24.184,20.566-5.718-31.226,50.877-277.744-144.213,51.4L648.39,863.669l261.6-222.484,29.9-10.66-29.9-10.654-261.6-222.49L764.714,195.907l323.477,115.306,24.178,20.566-5.718-31.22,61.876-337.8h232.649l61.876,337.8-5.719,31.22,24.184-20.566L1805,195.907l116.319,201.475-261.6,222.49-29.9,10.654,29.9,10.66L1875.3,824.534,1902.8,674.4h232.649l61.881,337.8-5.725,31.225,24.19-20.572,323.466-115.306,116.33,201.475-261.6,222.49-29.9,10.66,29.9,10.654,261.6,222.49-116.325,201.47-323.478-115.3L2191.6,1640.91l5.725,31.225-61.881,337.791H1902.8l-61.876-337.791,5.718-31.225-24.184,20.566-265.536,94.648,115.79,98.48-116.325,201.481-323.478-115.307-24.178-20.571,5.718,31.226-61.875,337.8Zm491.19-657.109,8.543,7.266-15.141-26.232-23.3,8.307Zm239.742-281.655,23.3-8.3-29.9-10.66-8.549-7.271Zm-442.126-27.751,24.178-20.566,10.815-3.854H1213.2Zm203.443-84.466,86.278-30.754-69.774-59.339Zm434.469-194.831-5.718-31.225,2.491-13.594-16.292,28.217ZM1463.052,960.5l-2.485,13.582,16.286-28.211-19.519-16.6ZM1107.9,953.7l4.47-24.426-24.184,20.572-10.821,3.854Z" transform="translate(-185.264 204.471)" fill="none" stroke="#091741" stroke-linecap="round" stroke-linejoin="round" stroke-width="0.529"/>
        <path id="Path_8217" data-name="Path 8217" d="M2302.695,1329.6l67.45-24.046,249.826-212.474L2516.314,913.553,2207.4,1023.67l-54.552,46.4,12.9-70.435-59.091-322.592H1899.353l-29.96,163.577L1635.87,642.01l-67.45-24.046,67.456-24.04L1885.7,381.449,1782.045,201.921,1473.128,312.038l-54.547,46.4,12.9-70.436L1372.393-34.594H1165.084L1105.993,288l12.9,70.436-54.553-46.4L755.427,201.921,651.775,381.449,901.6,593.924l67.45,24.04L901.6,642.01,651.775,854.479l103.651,179.535,157.082-56-55.122,300.91,12.9,70.441-54.547-46.4L506.825,1192.856,403.174,1372.385l249.821,212.474,67.45,24.04-67.45,24.046L403.174,1845.414l103.651,179.534,308.918-110.117,54.547-46.4-12.9,70.435,59.091,322.592h207.308l59.091-322.592-12.9-70.435,54.553,46.4,308.917,110.117L1637.1,1845.414l-126.2-107.328,287.719-102.558,54.547-46.4-12.9,70.441,59.092,322.586h207.3l59.091-322.586-12.9-70.441,54.552,46.4,308.917,110.117,103.652-179.529-249.826-212.474ZM1473.128,923.9l8.8,3.129-68.272,118.246,17.827-97.329-12.9-70.441Zm39.118,276.519-135.883,48.431,25.99-141.9ZM1264.473,610.583H1273l4.263,7.386L1273,625.351h-8.526l-4.262-7.381ZM1064.344,923.9l54.553-46.4-12.9,70.441,1.536,8.4H973.319ZM1024.4,1616.286h-8.525l-4.263-7.381,4.263-7.386h8.525l4.262,7.386Zm145.577-266.917,12.9-70.441-1.536-8.4h134.2l-91.018,32.445Zm217.3,283.577-67.45-24.046,67.45-24.04,6.437-5.477,66.972,116Zm248.606-279.3-6.443,5.477-66.973-116,73.41,62.434,67.45,24.046Zm217.289-283.577-54.547-46.4-8.8-3.135L1858.1,902.289l-17.828,97.341Zm154.108,266.917h-8.525l-4.263-7.381,4.263-7.386h8.525l4.263,7.386Z" transform="translate(-169.147 217.032)" fill="none" stroke="#091741" stroke-linecap="round" stroke-linejoin="round" stroke-width="0.529"/>
        <path id="Path_8218" data-name="Path 8218" d="M956.254,1242.763l-56.3-307.388,20.082-109.646-84.915,72.219L540.763,1002.877,449.779,845.294,687.83,642.835l105-37.433-105-37.427L449.779,365.517l90.984-157.582L835.121,312.863l84.915,72.219L899.953,275.431l56.3-307.382h181.968l56.307,307.382-20.089,109.651,84.92-72.219,294.358-104.928L1644.7,365.517,1406.647,567.976l-105,37.427,105,37.433L1644.7,845.294l-90.978,157.582L1259.361,897.948l-84.92-72.219,20.089,109.646-56.307,307.388ZM1060.28,627.994l13.041-22.591-13.041-22.585H1034.2L1021.156,605.4l13.041,22.591Z" transform="translate(52.35 229.593)" fill="none" stroke="#091741" stroke-linecap="round" stroke-linejoin="round" stroke-width="0.529"/>
        <path id="Path_8219" data-name="Path 8219" d="M952.816,1215,899.293,922.814l27.273-148.862L811.277,872l-279.8,99.74L453.169,836.1,679.45,643.655,822,592.842,679.45,542.028,453.169,349.585,531.48,213.949l279.8,99.734,115.283,98.048L899.293,262.869,952.816-29.308h156.622l53.523,292.177-27.267,148.861,115.283-98.048,279.8-99.734,78.31,135.636L1382.81,542.028l-142.557,50.813,142.557,50.813L1609.084,836.1l-78.31,135.636L1250.976,872l-115.283-98.048,27.267,148.862L1109.438,1215Zm100.131-584.36,21.814-37.795-21.814-37.789h-43.634l-21.82,37.789,21.82,37.795Z" transform="translate(68.462 242.155)" fill="none" stroke="#091741" stroke-linecap="round" stroke-linejoin="round" stroke-width="0.529"/>
        <path id="Path_8220" data-name="Path 8220" d="M949.377,1187.236,898.639,910.257l34.453-188.071L787.44,846.058,522.2,940.608l-65.638-113.69,214.5-182.434,180.1-64.2-180.1-64.2-214.5-182.428L522.2,219.968,787.44,314.512,933.092,438.39,898.639,250.313,949.377-26.666h131.276l50.738,276.979L1096.939,438.39,1242.6,314.512l265.237-94.545,65.638,113.69L1358.967,516.085l-180.1,64.2,180.1,64.2,214.505,182.434-65.638,113.69-265.243-94.55L1096.939,722.186l34.453,188.071-50.738,276.979Zm96.236-553.958,30.593-52.993-30.593-52.993H984.423l-30.6,52.993,30.6,52.993Z" transform="translate(84.573 254.711)" fill="none" stroke="#091741" stroke-linecap="round" stroke-linejoin="round" stroke-width="0.529"/>
        <path id="Path_8221" data-name="Path 8221" d="M459.949,817.728l52.97,91.743L763.6,820.11l176.014-149.7L897.985,897.7l47.949,261.78h105.941l47.949-261.78L1058.19,670.414l176.02,149.7,250.678,89.362,52.97-91.743L1335.129,645.31l-217.658-77.586,217.658-77.586,202.729-172.413-52.965-91.743L1234.21,315.338l-176.02,149.7,41.632-227.287L1051.874-24.023H945.933L897.985,237.752l41.632,227.287L763.6,315.338,512.919,225.982l-52.97,91.743L662.678,490.138l217.657,77.586L662.678,645.31Zm460.212-250,39.372-68.192h78.742l39.376,68.192-39.376,68.2H959.533Z" transform="translate(100.684 267.272)" fill="none" stroke="#091741" stroke-linecap="round" stroke-linejoin="round" stroke-width="0.529"/>
        <path id="Path_8222" data-name="Path 8222" d="M654.294,254.862,463.34,92.461l40.3-69.8,236.122,84.169,190.955,162.4-40.3,69.8Z" transform="translate(116.798 489.163)" fill="none" stroke="#091741" stroke-linecap="round" stroke-linejoin="round" stroke-width="0.529"/>
        <path id="Path_8223" data-name="Path 8223" d="M645.911,226.13,466.73,73.743l27.625-47.85,221.563,78.98L895.1,257.263l-27.625,47.85Z" transform="translate(132.91 504.509)" fill="none" stroke="#091741" stroke-linecap="round" stroke-linejoin="round" stroke-width="0.529"/>
        <path id="Path_8224" data-name="Path 8224" d="M637.527,197.4,470.12,55.026l14.954-25.9,207,73.791L859.486,245.288l-14.954,25.9Z" transform="translate(149.022 519.855)" fill="none" stroke="#091741" stroke-linecap="round" stroke-linejoin="round" stroke-width="0.529"/>
        <path id="Path_8225" data-name="Path 8225" d="M841.5,245.04,676.212,104.469,471.832,31.612l165.286,140.57Z" transform="translate(157.159 531.686)" fill="none" stroke="#091741" stroke-linecap="round" stroke-linejoin="round" stroke-width="0.529"/>
        <path id="Path_8226" data-name="Path 8226" d="M584.474,123.939,484.535,38.946,608.112,83l99.94,84.995Z" transform="translate(217.531 566.543)" fill="none" stroke="#091741" stroke-linecap="round" stroke-linejoin="round" stroke-width="0.529"/>
        <path id="Path_8227" data-name="Path 8227" d="M531.829,75.7,497.238,46.28l42.773,15.248L574.6,90.945Z" transform="translate(277.904 601.399)" fill="none" stroke="#091741" stroke-linecap="round" stroke-linejoin="round" stroke-width="0.529"/>
      </g>
    </g>
    <g id="Group_9324" data-name="Group 9324" transform="translate(-492 -16)">
      <g id="Group_8117" data-name="Group 8117" transform="translate(492 -120)">
        <path id="Path_8047" data-name="Path 8047" d="M0,0H1920V1080H0Z" transform="translate(0 136)" fill="none" opacity="0.56" style="mix-blend-mode: multiply;isolation: isolate"/>
      </g>
    </g>
  </g>
</svg>
