<svg id="error-404" xmlns="http://www.w3.org/2000/svg" xmlns:xlink="http://www.w3.org/1999/xlink" width="946.303" height="615.209" viewBox="0 0 946.303 615.209">
  <defs>
    <linearGradient id="linear-gradient" x1="-0.283" y1="0.886" x2="-0.282" y2="0.886" gradientUnits="objectBoundingBox">
      <stop offset="0" stop-color="#a2b8ff" stop-opacity="0.431"/>
      <stop offset="1" stop-color="#8faaff" stop-opacity="0.82"/>
    </linearGradient>
    <linearGradient id="linear-gradient-2" x1="0.5" x2="0.5" y2="1" gradientUnits="objectBoundingBox">
      <stop offset="0" stop-color="#1c45d6"/>
      <stop offset="1" stop-color="#2452d7"/>
    </linearGradient>
    <linearGradient id="linear-gradient-3" x1="0.5" x2="0.5" y2="1" gradientUnits="objectBoundingBox">
      <stop offset="0" stop-color="#7793f2"/>
      <stop offset="1" stop-color="#1c45d6"/>
    </linearGradient>
    <linearGradient id="linear-gradient-11" x1="0.5" x2="0.5" y2="1" gradientUnits="objectBoundingBox">
      <stop offset="0" stop-color="#a2b8ff"/>
      <stop offset="1" stop-color="#1c45d6"/>
    </linearGradient>
    <linearGradient id="linear-gradient-15" x1="0.5" x2="0.5" y2="1" gradientUnits="objectBoundingBox">
      <stop offset="0" stop-color="#4fc0f8"/>
      <stop offset="1" stop-color="#1c45d6"/>
    </linearGradient>
    <clipPath id="clip-path">
      <rect id="Rectangle_3567" data-name="Rectangle 3567" width="946.303" height="615.209" fill="none"/>
    </clipPath>
    <clipPath id="clip-path-2">
      <rect id="Rectangle_3498" data-name="Rectangle 3498" width="946.302" height="615.208" fill="none"/>
    </clipPath>
    <clipPath id="clip-path-3">
      <path id="Path_7950" data-name="Path 7950" d="M2880.335,403.274l-.122,43.152c0,.137,0,.271-.01.4,0,.038,0,.074-.007.111-.005.091-.011.181-.019.269,0,.051-.01.1-.016.151-.008.075-.016.15-.027.223-.007.054-.016.107-.024.159-.01.068-.021.134-.034.2s-.022.118-.035.176-.026.118-.041.175-.034.135-.052.2-.029.1-.044.154c-.025.08-.051.157-.078.233-.014.041-.028.083-.043.124-.049.128-.1.253-.157.372-.006.013-.013.025-.02.038a4.466,4.466,0,0,1-.249.452c-.007.011-.014.023-.021.035a4.071,4.071,0,0,1-.238.332l-.062.075c-.081.1-.165.191-.253.278a.241.241,0,0,0-.02.02,3.56,3.56,0,0,1-.3.255l-.075.057a3.47,3.47,0,0,1-.323.215l6.279-3.648a3.687,3.687,0,0,0,.322-.216c.025-.019.05-.037.074-.057a3.531,3.531,0,0,0,.3-.255l.019-.02a3.54,3.54,0,0,0,.253-.278c.021-.025.042-.05.062-.075a4.015,4.015,0,0,0,.239-.332l.007-.01c.005-.008.009-.017.014-.025a4.457,4.457,0,0,0,.249-.452c.005-.009.01-.016.014-.025l.006-.013c.055-.12.108-.244.157-.373,0-.011.01-.021.014-.032.011-.03.02-.061.03-.091.027-.077.054-.154.078-.234.006-.021.014-.041.021-.062s.015-.062.023-.092c.018-.066.036-.133.053-.2.006-.028.015-.054.021-.082s.013-.063.02-.093c.012-.058.024-.116.035-.175.006-.03.012-.06.018-.091s.011-.073.016-.109c.009-.053.017-.106.024-.159,0-.028.009-.054.012-.082.006-.046.01-.094.015-.141s.011-.1.016-.151c0-.021,0-.04.006-.061.006-.068.009-.139.013-.209,0-.037,0-.073.007-.11,0-.009,0-.018,0-.027q.008-.175.009-.355v-.021l.123-43.152Z" transform="translate(-2878.071 -399.625)" fill="none"/>
    </clipPath>
    <linearGradient id="linear-gradient-30" x1="-87.948" y1="9.918" x2="-87.918" y2="9.918" gradientUnits="objectBoundingBox">
      <stop offset="0" stop-color="#e5eafe"/>
      <stop offset="1" stop-color="#d8deff"/>
    </linearGradient>
    <clipPath id="clip-path-5">
      <path id="Path_7953" data-name="Path 7953" d="M2330.63,150.5l13.4,7.733.013-4.679-8.462-4.886.019-6.892,7.875,4.546.013-4.642-7.875-4.546.017-5.868,8.463,4.886.013-4.644-13.4-7.734Z" transform="translate(-2330.63 -123.776)" fill="#91abff"/>
    </clipPath>
    <clipPath id="clip-path-6">
      <path id="Path_7954" data-name="Path 7954" d="M2419.579,186.972l-1.591-.918.021-7.221,1.5.864a12.024,12.024,0,0,1,3.522,2.839,5.311,5.311,0,0,1,1.129,3.362q-.005,1.921-1.123,2.171a1.733,1.733,0,0,1-.385.04,6.866,6.866,0,0,1-3.069-1.136m-6.565,11.094,4.932,2.848.029-10.255,2.626,1.516,5.521,13.46,5.473,3.16q-1.583-3.548-6.807-15.592a3.816,3.816,0,0,0,3.2-1.035,4.952,4.952,0,0,0,1.142-3.543,12.584,12.584,0,0,0-2.257-7.336,21.127,21.127,0,0,0-7.011-6.035l-6.777-3.913Z" transform="translate(-2413.014 -171.341)" fill="#91abff"/>
    </clipPath>
    <clipPath id="clip-path-7">
      <path id="Path_7955" data-name="Path 7955" d="M2514.46,241.751l-1.592-.919.021-7.221,1.5.863a12.006,12.006,0,0,1,3.521,2.839,5.3,5.3,0,0,1,1.13,3.362c0,1.281-.378,2-1.121,2.172a1.722,1.722,0,0,1-.385.04,6.868,6.868,0,0,1-3.07-1.136m-6.565,11.094,4.931,2.847.029-10.255,2.626,1.516L2521,260.414l5.473,3.16q-1.585-3.549-6.809-15.593a3.82,3.82,0,0,0,3.207-1.033,4.962,4.962,0,0,0,1.141-3.543,12.587,12.587,0,0,0-2.257-7.337,21.134,21.134,0,0,0-7.01-6.035l-6.777-3.912Z" transform="translate(-2507.895 -226.12)" fill="#91abff"/>
    </clipPath>
    <clipPath id="clip-path-8">
      <path id="Path_7956" data-name="Path 7956" d="M2610,318.83a10.709,10.709,0,0,1-4.416-4.819,17.593,17.593,0,0,1-1.46-7.6q.012-4.48,1.513-5.892t4.446.287q5.869,3.389,5.843,12.42-.018,6.54-3.131,6.539a5.834,5.834,0,0,1-2.8-.935m-8.146-23.974q-2.882,1.861-2.9,8.532a24.233,24.233,0,0,0,2.835,11.892,21.213,21.213,0,0,0,8.2,8.3q5.346,3.087,8.219,1.175t2.893-8.547a24.191,24.191,0,0,0-2.811-11.84,21.163,21.163,0,0,0-8.191-8.281,12.007,12.007,0,0,0-5.728-1.933,4.535,4.535,0,0,0-2.515.7" transform="translate(-2598.955 -294.157)" fill="#91abff"/>
    </clipPath>
    <clipPath id="clip-path-9">
      <path id="Path_7957" data-name="Path 7957" d="M2721.156,361.087l-1.59-.918.02-7.221,1.5.863a12,12,0,0,1,3.52,2.838,5.3,5.3,0,0,1,1.13,3.362c0,1.281-.378,2-1.121,2.172a1.741,1.741,0,0,1-.385.04,6.868,6.868,0,0,1-3.069-1.136m-6.565,11.094,4.933,2.848.029-10.255,2.624,1.515,5.524,13.461,5.472,3.16q-1.582-3.548-6.808-15.593a3.814,3.814,0,0,0,3.206-1.034,4.963,4.963,0,0,0,1.141-3.543,12.583,12.583,0,0,0-2.258-7.336,21.127,21.127,0,0,0-7.01-6.035l-6.777-3.913Z" transform="translate(-2714.59 -345.456)" fill="#91abff"/>
    </clipPath>
    <clipPath id="clip-path-11">
      <rect id="Rectangle_3507" data-name="Rectangle 3507" width="737.965" height="411.568" fill="#d0dbff"/>
    </clipPath>
    <clipPath id="clip-path-12">
      <path id="Path_7959" data-name="Path 7959" d="M1261.957,409.038l-158.214-91.345a11.614,11.614,0,0,0-11.616,0L798.116,487.542l389.371,224.8a23.429,23.429,0,0,0,12.168,2.673l55.377,12.163a22.505,22.505,0,0,0,16.082-2.491L1532.741,573.64a6.679,6.679,0,0,0-.054-11.6Z" transform="translate(-798.116 -316.137)" fill="url(#linear-gradient)"/>
    </clipPath>
    <linearGradient id="linear-gradient-31" x1="-0.283" y1="0.886" x2="-0.282" y2="0.886" gradientUnits="objectBoundingBox">
      <stop offset="0" stop-color="#a2b8ff"/>
      <stop offset="1" stop-color="#8faaff" stop-opacity="0.82"/>
    </linearGradient>
    <clipPath id="clip-path-13">
      <path id="Path_7960" data-name="Path 7960" d="M2600.093,1170.142c0,.072-.008.145-.015.218s-.016.126-.025.189-.021.144-.034.216-.025.127-.04.191-.032.14-.051.21-.036.127-.056.19-.045.139-.069.208-.046.124-.07.186-.06.146-.093.219-.055.121-.084.182-.073.144-.112.216-.063.116-.1.175c-.05.086-.1.171-.158.255-.033.052-.065.1-.1.155-.064.094-.133.186-.2.279-.031.04-.059.081-.091.121-.117.148-.242.292-.374.437-.033.037-.07.073-.105.109q-.157.165-.327.325c-.051.049-.1.1-.157.146s-.137.121-.208.182-.13.111-.2.165-.149.118-.225.177-.142.108-.215.161-.161.114-.243.171-.152.1-.23.156-.173.111-.261.165c-.11.068-.219.137-.334.2L2345.44,1321.31l-.055,19.363,250.477-145.561.176-.1c.054-.032.1-.066.157-.1.089-.055.177-.11.263-.166s.153-.1.229-.155.164-.114.244-.171.144-.107.215-.16.152-.118.225-.177.133-.11.2-.165.14-.121.208-.182c.028-.025.058-.049.085-.074s.047-.048.072-.072c.114-.107.222-.216.327-.325.034-.037.072-.073.105-.11q.2-.216.374-.436l.016-.019c.026-.034.049-.069.075-.1.07-.093.139-.185.2-.279.035-.051.067-.1.1-.154.055-.085.108-.17.158-.255.013-.023.03-.046.043-.07s.035-.07.054-.1c.039-.072.076-.144.112-.216s.058-.121.084-.182.063-.145.093-.218c.013-.032.029-.065.041-.1s.019-.059.029-.088c.025-.069.047-.139.069-.208s.039-.127.056-.19.036-.14.051-.21c.009-.038.021-.076.028-.114s.007-.052.012-.077c.014-.072.024-.144.034-.216s.018-.126.024-.189.011-.146.016-.218c0-.043.008-.085.009-.127s0-.084,0-.127l.054-19.363c0,.085-.007.169-.011.254" transform="translate(-2345.385 -1169.888)" fill="#b8ccff"/>
    </clipPath>
    <linearGradient id="linear-gradient-32" x1="0.5" x2="0.5" y2="1" gradientUnits="objectBoundingBox">
      <stop offset="0" stop-color="#f2f5ff"/>
      <stop offset="1" stop-color="#ecf1ff"/>
    </linearGradient>
    <clipPath id="clip-path-15">
      <path id="Path_7966" data-name="Path 7966" d="M1696.812,664.348l-.068,24.2,66.85-38.849.069-24.2Z" transform="translate(-1696.744 -625.499)" fill="none"/>
    </clipPath>
    <linearGradient id="linear-gradient-33" x1="-4.778" y1="5.221" x2="-4.775" y2="5.221" gradientUnits="objectBoundingBox">
      <stop offset="0" stop-color="#d8deff"/>
      <stop offset="1" stop-color="#e5eafe"/>
    </linearGradient>
    <clipPath id="clip-path-17">
      <path id="Path_7970" data-name="Path 7970" d="M1407.769,602.595l49.084-5.792a183.408,183.408,0,0,0,18.155-3l.585.338q-1.6.675-10.551,5.453t-13.459,7.4l-18.041,10.484Zm-21.732-10.441-15.64,9.089,45.689,26.378-22.041,12.809,22.111,12.766,22.042-12.809,12.885,7.439,17.457-10.145-12.885-7.439,66.851-38.849-20.868-12.048Z" transform="translate(-1370.397 -579.344)" fill="#1c45d6"/>
    </clipPath>
    <clipPath id="clip-path-19">
      <path id="Path_7973" data-name="Path 7973" d="M1840.427,836.847q-8.057-4.651-2.987-11.54t24.637-18.262q19.569-11.373,31.557-14.351t19.969,1.628q7.834,4.523,2.839,11.54t-24.565,18.389q-19.348,11.244-31.447,14.2a37.422,37.422,0,0,1-8.866,1.163,21.873,21.873,0,0,1-11.137-2.77m49.826-61.612q-22.505,2.474-50.653,18.833-26.989,15.683-31.4,29.146t14.113,24.159a66.739,66.739,0,0,0,41.681,8.56q22.573-2.474,50.435-18.662,26.915-15.641,31.4-29.232t-14.038-24.286a65.681,65.681,0,0,0-33.39-8.972,74.52,74.52,0,0,0-8.147.454" transform="translate(-1807.352 -774.781)" fill="url(#linear-gradient-2)"/>
    </clipPath>
    <clipPath id="clip-path-20">
      <path id="Path_7974" data-name="Path 7974" d="M1946.5,882.983c0,.113-.01.226-.018.34s-.012.2-.02.3-.021.229-.032.344-.02.2-.033.3-.031.232-.048.349c-.014.1-.028.2-.045.3-.019.117-.042.234-.063.352s-.038.212-.06.318c-.014.065-.028.131-.042.2-.03.135-.061.27-.094.406-.018.071-.035.142-.053.213-.035.138-.073.277-.113.416-.018.063-.035.125-.053.188-.059.2-.12.4-.187.6l0,.005c-.088.269-.185.539-.287.809-.045.119-.1.238-.143.357-.064.162-.127.323-.2.485-.052.122-.11.245-.166.368-.071.159-.141.318-.216.477-.06.127-.125.254-.188.381-.077.156-.154.312-.236.469-.068.131-.141.262-.213.393-.081.149-.161.3-.246.448q-.24.422-.5.847c-.023.038-.044.075-.068.113-.2.32-.408.641-.624.964-.066.1-.136.2-.2.294-.156.225-.313.451-.477.678-.087.12-.177.241-.267.362q-.231.31-.472.622c-.116.15-.234.3-.354.451l-.242.3c-.153.189-.311.377-.47.567-.074.088-.146.176-.222.263-.233.271-.47.544-.715.816l-.01.011q-.372.414-.764.83c-.083.089-.17.178-.255.268-.182.191-.365.382-.552.573l-.3.308q-.273.274-.554.549l-.312.3q-.308.3-.626.595c-.089.084-.177.168-.268.252q-.411.381-.837.764l-.112.1q-.484.433-.987.867l-.318.271c-.234.2-.469.4-.71.6-.133.111-.27.223-.406.335-.22.181-.44.362-.665.544l-.443.355q-.333.265-.671.531l-.463.36c-.231.179-.466.358-.7.537-.154.117-.307.234-.464.351-.254.191-.512.382-.771.573l-.429.316c-.327.239-.661.479-1,.719l-.239.171q-.629.446-1.277.894l-.37.253c-.314.215-.629.43-.949.646-.165.112-.334.223-.5.335-.285.19-.57.38-.86.57l-.551.36q-.424.276-.855.552l-.575.367q-.437.277-.881.555c-.192.12-.384.241-.578.361-.314.2-.633.391-.953.587l-.538.329c-.344.208-.692.417-1.041.626l-.515.309q-.784.465-1.587.933l-.009.005q-.966.561-1.926,1.1l-.62.349q-.659.371-1.315.735l-.707.389q-.624.343-1.245.678l-.693.373q-.669.358-1.335.707l-.568.3q-.942.49-1.879.966l-.227.114q-.822.415-1.639.817l-.621.3q-.625.3-1.247.6l-.683.324q-.605.285-1.207.563l-.656.3q-.668.305-1.332.6l-.5.223q-.907.4-1.809.785l-.352.148q-.726.307-1.448.6c-.206.085-.41.167-.615.25q-.595.241-1.187.475l-.657.258q-.586.227-1.169.447c-.207.078-.414.157-.62.234q-.672.25-1.341.49c-.139.05-.279.1-.418.152q-.873.311-1.74.606l-.419.139q-.658.221-1.312.433c-.225.073-.45.143-.674.214-.306.1-.612.193-.917.286q-.35.107-.7.211-.451.135-.9.266l-.7.2q-.446.126-.888.247l-.695.188q-.445.119-.889.232l-.681.174c-.3.075-.6.147-.9.219-.22.053-.44.106-.659.157-.309.072-.616.14-.924.209-.207.046-.415.094-.622.138-.33.071-.658.138-.986.205-.183.037-.366.077-.548.113-.42.083-.838.162-1.255.238l-.268.051c-.271.049-.541.093-.812.139-.212.036-.425.075-.636.109-.3.05-.607.095-.91.141-.177.027-.355.056-.531.082-.344.05-.687.095-1.03.141-.133.017-.266.037-.4.054q-.691.088-1.378.164l-.042,0c-.379.042-.757.078-1.135.114l-.539.049q-.4.035-.8.066l-.529.04c-.278.02-.556.036-.833.053l-.486.028c-.321.017-.64.031-.96.043-.117,0-.234.011-.351.015l-.171,0c-.585.019-1.169.029-1.751.034l-.432,0c-.617,0-1.232,0-1.845-.018l-.3-.009q-.746-.021-1.488-.058l-.455-.023c-.579-.033-1.157-.071-1.733-.117l-.156-.015c-.531-.045-1.061-.1-1.589-.154l-.457-.051c-.542-.062-1.083-.13-1.622-.206l-.106-.014c-.606-.086-1.208-.183-1.81-.285l-.421-.073c-.6-.106-1.2-.218-1.789-.34q-.613-.127-1.224-.265l-.246-.058c-.329-.076-.658-.153-.986-.234-.147-.036-.293-.075-.439-.112-.263-.067-.526-.134-.789-.2-.163-.044-.326-.089-.489-.134q-.346-.1-.69-.194-.511-.147-1.019-.3c-.132-.041-.266-.079-.4-.121q-.7-.22-1.4-.456l-.263-.092q-.569-.2-1.134-.4c-.16-.058-.319-.118-.478-.178q-.461-.171-.92-.349-.3-.117-.6-.237c-.185-.074-.369-.148-.553-.224q-.33-.135-.657-.275-.273-.116-.547-.234c-.221-.1-.441-.194-.662-.292-.178-.08-.356-.159-.534-.241-.224-.1-.446-.207-.669-.312-.174-.082-.349-.164-.523-.247-.227-.109-.454-.222-.68-.334-.168-.083-.336-.165-.5-.25-.236-.119-.473-.242-.708-.365-.156-.081-.313-.161-.469-.243-.264-.139-.525-.282-.788-.425-.127-.069-.255-.137-.383-.207q-.584-.323-1.166-.658a45.621,45.621,0,0,1-8.531-6.165q-.308-.29-.6-.581a25.064,25.064,0,0,1-2.558-2.961,19.74,19.74,0,0,1-1.183-1.819,16.744,16.744,0,0,1-1.166-2.475,14.911,14.911,0,0,1-.567-1.894,14.289,14.289,0,0,1-.357-3.227h0l-.069,24.2q0,.654.055,1.3t.173,1.287a16.213,16.213,0,0,0,2.622,6.223q.409.6.876,1.2.234.3.482.6a39.854,39.854,0,0,0,10.754,8.513l.014.008q.573.331,1.15.65c.13.072.26.141.389.211.26.142.521.284.782.422.156.082.312.162.468.243.237.123.473.246.71.366.167.084.335.166.5.249.226.112.453.225.68.334.174.083.348.165.523.247.223.105.446.21.669.312.177.081.355.16.533.24.221.1.442.2.664.293.181.079.362.156.543.232q.33.14.661.277.275.113.55.223c.121.048.24.1.361.146.08.032.161.061.242.092q.457.178.915.348c.161.06.322.12.483.179q.564.206,1.132.4l.263.092q.7.237,1.4.456c.131.041.262.079.393.119q.511.157,1.024.306l.183.055c.166.047.334.091.5.138s.33.092.5.136c.26.069.52.136.781.2.148.038.3.077.445.114q.494.122.991.235l.24.057q.594.135,1.191.259l.033.006c.594.122,1.19.234,1.788.34l.423.073c.6.1,1.2.2,1.811.286l.016,0,.081.01c.541.076,1.084.143,1.629.206l.456.051c.531.057,1.063.11,1.6.155l.12.012.029,0c.576.047,1.155.085,1.734.118l.458.023q.739.037,1.481.058c.077,0,.154.007.23.009h.078c.612.015,1.226.02,1.842.019l.435,0c.58-.005,1.161-.016,1.744-.034l.129,0,.05,0,.333-.014q.488-.019.978-.044c.159-.008.319-.019.478-.028.279-.016.559-.034.839-.054l.527-.039q.4-.031.8-.066l.54-.05.352-.032q.39-.039.782-.082h0q.707-.078,1.418-.169c.2-.025.4-.055.6-.082.278-.037.555-.073.835-.114.2-.029.393-.061.59-.091.283-.043.566-.085.851-.131.2-.032.4-.069.6-.1.284-.048.568-.1.854-.147l.013,0,.213-.04c.431-.079.862-.16,1.295-.246.18-.036.361-.074.541-.111.33-.068.66-.135.992-.207.208-.045.417-.093.625-.139.306-.068.612-.136.919-.208.221-.051.442-.105.664-.159.3-.072.6-.143.895-.218.227-.057.455-.116.683-.174q.442-.114.886-.232.349-.093.7-.189.441-.121.884-.246l.705-.2q.446-.13.894-.264.352-.105.7-.213c.3-.093.608-.189.913-.285.156-.049.311-.1.467-.146l.211-.07q.65-.21,1.3-.43l.427-.142q.866-.294,1.738-.6l.422-.153q.667-.24,1.337-.489c.207-.077.415-.156.622-.234q.581-.22,1.165-.447l.662-.259q.59-.233,1.182-.474c.206-.083.412-.166.619-.251q.718-.294,1.44-.6l.36-.151q.9-.384,1.807-.785l.5-.226q.662-.3,1.326-.6l.658-.3q.6-.278,1.2-.562l.684-.324q.623-.3,1.247-.6l.621-.3q.815-.4,1.634-.815l.233-.117q.936-.474,1.879-.966c.188-.1.377-.2.565-.3q.667-.351,1.339-.709l.689-.371q.624-.337,1.25-.681l.7-.386q.66-.365,1.322-.739c.2-.115.408-.229.613-.345q.965-.548,1.936-1.111l.018-.01q.8-.463,1.57-.923l.523-.314c.292-.175.586-.349.874-.524l.152-.093c.188-.114.372-.227.557-.341.314-.192.626-.384.936-.575l.587-.367q.44-.275.872-.549l.583-.372q.427-.273.845-.546c.187-.121.374-.243.559-.365.288-.189.572-.378.854-.567.168-.112.338-.225.5-.337.318-.214.631-.429.943-.642l.375-.256q.647-.448,1.276-.893l.243-.175c.334-.239.667-.477.993-.715.146-.107.289-.212.433-.319.258-.19.515-.38.768-.57.156-.117.311-.235.465-.352.235-.179.47-.358.7-.537l.462-.359q.339-.266.671-.531l.443-.355c.224-.181.444-.361.663-.541.136-.113.274-.225.408-.337.239-.2.473-.4.706-.6.107-.091.216-.183.321-.274.335-.289.665-.578.986-.866l.118-.108c.255-.229.508-.458.755-.687l.076-.071c.092-.085.18-.169.27-.254q.317-.3.624-.593l.313-.3q.282-.276.556-.551c.1-.1.2-.2.3-.305.189-.193.374-.385.558-.577.083-.088.168-.175.25-.263q.391-.416.765-.832l.01-.011q.367-.41.715-.817c.075-.087.147-.175.221-.262q.24-.283.471-.566c.083-.1.163-.2.244-.3.068-.085.139-.171.206-.256.05-.064.1-.128.146-.192.162-.209.319-.417.474-.626.089-.12.178-.239.265-.359.164-.227.322-.453.477-.679.068-.1.138-.2.2-.293.216-.322.425-.643.624-.963.025-.04.047-.079.071-.12q.259-.42.5-.839c.015-.028.034-.056.05-.083.07-.124.133-.247.2-.371s.142-.259.209-.388c.082-.157.158-.313.235-.469.063-.127.128-.254.188-.381.075-.159.145-.317.216-.476.055-.123.113-.246.166-.369.07-.164.133-.328.2-.491.047-.117.1-.235.14-.351l.015-.038q.146-.39.274-.778c.066-.2.128-.4.187-.6.019-.063.036-.126.053-.188q.059-.208.113-.415.027-.107.053-.214.049-.2.094-.4c.014-.066.029-.133.043-.2.006-.029.013-.058.019-.088.015-.076.027-.152.041-.228.022-.118.044-.235.064-.353.016-.1.031-.2.045-.3s.034-.232.048-.347.023-.2.033-.306.023-.229.032-.344.014-.2.02-.3.014-.228.018-.341c0-.039,0-.078.006-.116,0-.131.006-.262.006-.393l.069-24.2c0,.169-.006.339-.012.51" transform="translate(-1807.09 -882.473)" fill="none"/>
    </clipPath>
    <linearGradient id="linear-gradient-35" x1="-2.903" y1="3.191" x2="-2.902" y2="3.191" xlink:href="#linear-gradient-33"/>
    <clipPath id="clip-path-22">
      <path id="Path_7977" data-name="Path 7977" d="M2556.387,1160.625l-.068,24.2,66.85-38.849.068-24.2Z" transform="translate(-2556.319 -1121.775)" fill="none"/>
    </clipPath>
    <linearGradient id="linear-gradient-36" x1="-7.27" y1="3.769" x2="-7.267" y2="3.769" xlink:href="#linear-gradient-33"/>
    <clipPath id="clip-path-24">
      <path id="Path_7981" data-name="Path 7981" d="M2267.344,1098.871l49.084-5.792a183.482,183.482,0,0,0,18.155-3l.586.338q-1.6.676-10.551,5.453t-13.459,7.4l-18.041,10.484Zm-21.732-10.441-15.639,9.089,45.688,26.378-22.041,12.809,22.111,12.766,22.041-12.809,12.886,7.439,17.457-10.145-12.885-7.439,66.85-38.849-20.868-12.048Z" transform="translate(-2229.973 -1075.62)" fill="#1c45d6"/>
    </clipPath>
    <clipPath id="clip-path-26">
      <rect id="Rectangle_3522" data-name="Rectangle 3522" width="217.437" height="114.092" fill="rgba(208,219,255,0.36)"/>
    </clipPath>
    <clipPath id="clip-path-27">
      <path id="Path_7983" data-name="Path 7983" d="M755.959,1565.487c-.209-.149-.432-.294-.673-.432l-36.024-20.8-.013-.007-41.937-24.213a14.763,14.763,0,0,0-13.4,0l-77.467,45.019c-3.688,2.143-3.668,5.617.044,7.76l41.639,24.041,42.758,24.741,60.959,10.728a12.984,12.984,0,0,0,8.743-1.543l58.718-33.9a3.644,3.644,0,0,0,0-6.311Z" transform="translate(-583.696 -1518.429)" fill="rgba(208,219,255,0.36)"/>
    </clipPath>
    <clipPath id="clip-path-28">
      <path id="Path_7984" data-name="Path 7984" d="M1026.672,1576.971c0,.047-.005.095-.01.143s-.01.083-.016.124-.014.094-.023.142-.016.084-.026.125-.021.092-.034.138-.024.083-.037.125-.029.091-.046.137-.03.082-.046.122-.039.1-.06.143-.037.08-.056.12-.047.095-.073.141-.042.078-.064.116c-.033.056-.068.112-.1.167-.022.034-.043.068-.067.1-.042.062-.088.123-.134.183-.02.026-.039.053-.059.079q-.115.145-.246.287l-.069.072c-.069.072-.14.143-.215.214l-.1.1-.136.118c-.043.037-.086.074-.131.109s-.1.077-.148.116-.093.071-.141.106-.106.075-.16.113l-.151.1-.172.109c-.072.045-.144.09-.219.134l-77.467,45.019-.1,36.3,77.467-45.019.116-.068c.035-.021.069-.044.1-.066.058-.036.116-.072.172-.109l.151-.1.161-.113.14-.105c.05-.039.1-.078.149-.117s.087-.072.13-.108.092-.079.137-.119l.056-.049.047-.047q.112-.105.215-.214c.023-.024.047-.048.069-.072.087-.094.169-.19.246-.287l.01-.012c.017-.022.032-.044.049-.067.046-.061.092-.122.134-.184l.066-.1c.036-.056.071-.112.1-.168.009-.015.02-.031.028-.046s.024-.046.036-.069c.025-.047.05-.094.073-.142s.038-.08.056-.12.041-.1.06-.143c.009-.021.019-.043.027-.065s.013-.038.019-.057c.016-.046.031-.092.046-.138s.025-.083.036-.125.024-.092.034-.138c.006-.025.013-.05.019-.075s0-.033.008-.051c.009-.047.016-.094.022-.142s.011-.083.016-.124.007-.095.01-.143c0-.028.005-.056.006-.084s0-.055,0-.083l.1-36.305c0,.056,0,.111-.007.167" transform="translate(-946.356 -1576.803)" fill="none"/>
    </clipPath>
    <linearGradient id="linear-gradient-37" x1="-2.061" y1="1.914" x2="-2.059" y2="1.914" xlink:href="#linear-gradient-33"/>
    <clipPath id="clip-path-30">
      <path id="Path_7987" data-name="Path 7987" d="M612.211,1660.848l4,2.311.045-15.974-4-2.31Z" transform="translate(-612.211 -1644.875)" fill="url(#linear-gradient-3)"/>
    </clipPath>
    <clipPath id="clip-path-31">
      <path id="Path_7988" data-name="Path 7988" d="M642.066,1678.085l4,2.311.045-15.973-4-2.311Z" transform="translate(-642.066 -1662.112)" fill="url(#linear-gradient-3)"/>
    </clipPath>
    <clipPath id="clip-path-32">
      <path id="Path_7989" data-name="Path 7989" d="M671.921,1695.322l4,2.311.045-15.973-4-2.311Z" transform="translate(-671.921 -1679.348)" fill="url(#linear-gradient-3)"/>
    </clipPath>
    <clipPath id="clip-path-33">
      <path id="Path_7990" data-name="Path 7990" d="M759.1,1771.959a6.476,6.476,0,0,0,2.94,5.09c1.629.94,2.952.186,2.958-1.686a6.478,6.478,0,0,0-2.938-5.091,2.687,2.687,0,0,0-1.324-.405c-.967,0-1.632.766-1.636,2.092" transform="translate(-759.104 -1769.867)" fill="url(#linear-gradient-3)"/>
    </clipPath>
    <clipPath id="clip-path-34">
      <path id="Path_7991" data-name="Path 7991" d="M801.065,1796.184a6.475,6.475,0,0,0,2.938,5.089c1.628.94,2.954.187,2.959-1.684a6.482,6.482,0,0,0-2.94-5.092,2.686,2.686,0,0,0-1.322-.4c-.967,0-1.632.766-1.636,2.092" transform="translate(-801.065 -1794.092)" fill="url(#linear-gradient-3)"/>
    </clipPath>
    <clipPath id="clip-path-35">
      <path id="Path_7992" data-name="Path 7992" d="M843.026,1820.41a6.474,6.474,0,0,0,2.938,5.089c1.628.94,2.954.187,2.959-1.684a6.482,6.482,0,0,0-2.94-5.092,2.681,2.681,0,0,0-1.322-.4c-.967,0-1.632.766-1.635,2.091" transform="translate(-843.026 -1818.319)" fill="url(#linear-gradient-3)"/>
    </clipPath>
    <clipPath id="clip-path-36">
      <path id="Path_7993" data-name="Path 7993" d="M1035.423,1647.4l-61.5,35.509a6.018,6.018,0,0,0-2.73,4.727c.005,1.739,1.235,2.439,2.748,1.566l61.5-35.51a6.016,6.016,0,0,0,2.729-4.728c0-1.229-.621-1.941-1.518-1.941a2.492,2.492,0,0,0-1.228.376" transform="translate(-971.188 -1647.021)" fill="url(#linear-gradient-3)"/>
    </clipPath>
    <clipPath id="clip-path-37">
      <path id="Path_7994" data-name="Path 7994" d="M1035.547,1690.974l-61.5,35.509a6.018,6.018,0,0,0-2.73,4.729c.005,1.737,1.235,2.438,2.748,1.564l61.5-35.509a6.013,6.013,0,0,0,2.728-4.726c0-1.231-.62-1.943-1.518-1.943a2.494,2.494,0,0,0-1.228.376" transform="translate(-971.312 -1690.598)" fill="url(#linear-gradient-3)"/>
    </clipPath>
    <clipPath id="clip-path-38">
      <path id="Path_7995" data-name="Path 7995" d="M759.715,1502.459a2.462,2.462,0,0,1-1.439-2c-.009-1.561,2.165-2.824,4.859-2.824h18.884l-.06-10.939c-.01-1.56,2.165-2.824,4.857-2.823a7.026,7.026,0,0,1,3.45.827,2.462,2.462,0,0,1,1.439,2l.063,10.94h18.884a7.024,7.024,0,0,1,3.45.827,2.467,2.467,0,0,1,1.44,2c.009,1.558-2.166,2.822-4.857,2.822H791.8l.063,10.939c.007,1.559-2.167,2.823-4.859,2.823a7.036,7.036,0,0,1-3.452-.827,2.463,2.463,0,0,1-1.439-2l-.06-10.939H763.165a7.025,7.025,0,0,1-3.45-.827m24.063-28.726-42.815,24.881c-1.7.987-1.69,2.587.02,3.574l43.1,24.881a6.8,6.8,0,0,0,6.173,0l42.815-24.881c1.7-.987,1.69-2.59-.02-3.577l-43.095-24.881a6.8,6.8,0,0,0-6.173,0" transform="translate(-739.695 -1472.992)" fill="url(#linear-gradient-11)"/>
    </clipPath>
    <clipPath id="clip-path-39">
      <path id="Path_7996" data-name="Path 7996" d="M721.215,1500.959l-60.41-34.878c-1.869-1.079-1.88-2.836-.024-3.915l60.018-34.879a7.46,7.46,0,0,1,6.761,0l60.41,34.878c1.869,1.079,1.881,2.836.022,3.916l-60.018,34.878a7.458,7.458,0,0,1-6.759,0m-3.575-75.495-60.018,34.878c-3.588,2.085-3.569,5.478.043,7.563l60.41,34.878a14.413,14.413,0,0,0,13.058,0l60.018-34.878c3.589-2.086,3.569-5.48-.043-7.565l-60.41-34.878a14.408,14.408,0,0,0-13.058,0" transform="translate(-654.944 -1423.899)" fill="#7793f2"/>
    </clipPath>
    <clipPath id="clip-path-41">
      <rect id="Rectangle_3537" data-name="Rectangle 3537" width="217.437" height="114.091" fill="rgba(208,219,255,0.14)"/>
    </clipPath>
    <clipPath id="clip-path-42">
      <path id="Path_7997" data-name="Path 7997" d="M172.264,734.716c-.209-.149-.433-.294-.673-.432l-36.024-20.8-.013-.008L93.617,689.265a14.761,14.761,0,0,0-13.4,0L2.753,734.284c-3.687,2.143-3.668,5.617.044,7.76l41.639,24.041,42.758,24.741,60.959,10.728a12.984,12.984,0,0,0,8.743-1.543l58.718-33.9a3.644,3.644,0,0,0,0-6.31Z" transform="translate(0 -687.657)" fill="rgba(208,219,255,0.14)"/>
    </clipPath>
    <clipPath id="clip-path-43">
      <path id="Path_7998" data-name="Path 7998" d="M444.634,747.858c0,.048-.005.095-.01.142s-.01.083-.016.125-.014.094-.022.142-.017.084-.026.125-.021.092-.034.138-.024.083-.037.125-.029.091-.046.137-.03.082-.046.122-.039.1-.06.143-.036.08-.056.12-.047.094-.073.141-.042.077-.064.115c-.032.056-.068.112-.1.167-.022.034-.043.068-.066.1-.042.062-.088.123-.134.183-.02.026-.039.053-.059.079q-.115.145-.246.287l-.069.072q-.1.108-.215.214c-.034.032-.068.064-.1.1s-.09.079-.136.119l-.132.11c-.048.039-.1.077-.148.116s-.093.071-.141.106-.106.075-.16.113l-.151.1c-.056.037-.114.073-.172.109s-.144.09-.22.134l-77.467,45.019-.1,36.3,77.467-45.019.116-.068c.036-.022.068-.044.1-.066.058-.036.116-.072.173-.109s.1-.068.15-.1.109-.075.161-.113.094-.07.14-.105.1-.077.149-.117l.13-.108c.046-.04.092-.079.137-.12l.056-.049.047-.047c.074-.071.146-.141.215-.214.023-.024.047-.048.069-.072.087-.094.169-.19.246-.287l.01-.012c.018-.022.032-.045.049-.067.046-.061.092-.122.134-.184.023-.033.044-.067.066-.1.036-.056.071-.112.1-.168.009-.016.02-.03.029-.046s.023-.046.035-.069c.026-.047.05-.094.073-.142s.038-.079.056-.12.041-.1.06-.143c.009-.022.019-.043.027-.064s.012-.038.019-.058c.016-.046.031-.092.045-.137s.026-.083.036-.125.024-.092.034-.138c.005-.025.013-.05.018-.075s0-.034.008-.051c.009-.047.016-.094.022-.141s.012-.083.016-.125.008-.1.01-.143c0-.028.005-.056.006-.083s0-.056,0-.083l.1-36.305c0,.056,0,.112-.008.167" transform="translate(-364.318 -747.691)" fill="none"/>
    </clipPath>
    <linearGradient id="linear-gradient-47" x1="-0.706" y1="3.814" x2="-0.704" y2="3.814" xlink:href="#linear-gradient-33"/>
    <clipPath id="clip-path-45">
      <path id="Path_8001" data-name="Path 8001" d="M30.174,831.737l4,2.31.045-15.974-4-2.31Z" transform="translate(-30.174 -815.763)" fill="url(#linear-gradient-11)"/>
    </clipPath>
    <clipPath id="clip-path-46">
      <path id="Path_8002" data-name="Path 8002" d="M60.029,848.973l4,2.31.045-15.974-4-2.311Z" transform="translate(-60.029 -832.999)" fill="url(#linear-gradient-11)"/>
    </clipPath>
    <clipPath id="clip-path-47">
      <path id="Path_8003" data-name="Path 8003" d="M89.884,866.21l4,2.311.045-15.974-4-2.31Z" transform="translate(-89.884 -850.236)" fill="url(#linear-gradient-11)"/>
    </clipPath>
    <clipPath id="clip-path-48">
      <path id="Path_8004" data-name="Path 8004" d="M177.068,942.846a6.475,6.475,0,0,0,2.94,5.09c1.628.94,2.952.186,2.957-1.686a6.478,6.478,0,0,0-2.938-5.091,2.689,2.689,0,0,0-1.324-.4c-.967,0-1.632.766-1.635,2.091" transform="translate(-177.068 -940.755)" fill="url(#linear-gradient-15)"/>
    </clipPath>
    <clipPath id="clip-path-49">
      <path id="Path_8005" data-name="Path 8005" d="M219.028,967.072a6.474,6.474,0,0,0,2.938,5.089c1.628.94,2.954.187,2.959-1.684a6.483,6.483,0,0,0-2.94-5.093,2.684,2.684,0,0,0-1.322-.4c-.966,0-1.632.766-1.636,2.092" transform="translate(-219.028 -964.98)" fill="url(#linear-gradient-15)"/>
    </clipPath>
    <clipPath id="clip-path-50">
      <path id="Path_8006" data-name="Path 8006" d="M260.989,991.3a6.475,6.475,0,0,0,2.938,5.089c1.629.94,2.954.187,2.959-1.684a6.482,6.482,0,0,0-2.94-5.092,2.688,2.688,0,0,0-1.322-.4c-.966,0-1.632.766-1.635,2.091" transform="translate(-260.989 -989.206)" fill="url(#linear-gradient-15)"/>
    </clipPath>
    <clipPath id="clip-path-51">
      <path id="Path_8007" data-name="Path 8007" d="M453.386,818.285l-61.5,35.509a6.018,6.018,0,0,0-2.73,4.727c.005,1.738,1.236,2.44,2.749,1.566l61.5-35.51a6.013,6.013,0,0,0,2.729-4.728c0-1.23-.621-1.941-1.518-1.94a2.494,2.494,0,0,0-1.228.376" transform="translate(-389.151 -817.909)" fill="url(#linear-gradient-11)"/>
    </clipPath>
    <clipPath id="clip-path-52">
      <path id="Path_8008" data-name="Path 8008" d="M453.509,861.861l-61.5,35.509a6.018,6.018,0,0,0-2.73,4.729c0,1.736,1.236,2.437,2.748,1.564l61.5-35.51a6.012,6.012,0,0,0,2.728-4.726c0-1.231-.621-1.943-1.518-1.943a2.494,2.494,0,0,0-1.228.375" transform="translate(-389.275 -861.485)" fill="url(#linear-gradient-11)"/>
    </clipPath>
    <clipPath id="clip-path-53">
      <path id="Path_8009" data-name="Path 8009" d="M177.678,673.347a2.463,2.463,0,0,1-1.439-2c-.009-1.561,2.165-2.824,4.859-2.824h18.884l-.06-10.94c-.01-1.56,2.165-2.824,4.857-2.823a7.028,7.028,0,0,1,3.45.827,2.464,2.464,0,0,1,1.439,2l.063,10.94h18.884a7.024,7.024,0,0,1,3.45.827,2.467,2.467,0,0,1,1.44,2c.009,1.559-2.167,2.823-4.857,2.823H209.762l.063,10.939c.007,1.56-2.166,2.823-4.859,2.824a7.035,7.035,0,0,1-3.452-.828,2.462,2.462,0,0,1-1.439-2l-.06-10.939H181.128a7.028,7.028,0,0,1-3.45-.827m24.063-28.726L158.926,669.5c-1.7.987-1.69,2.587.02,3.575l43.095,24.881a6.8,6.8,0,0,0,6.173,0l42.815-24.881c1.7-.987,1.69-2.59-.02-3.577L207.914,644.62a6.8,6.8,0,0,0-6.173,0" transform="translate(-157.658 -643.88)" fill="url(#linear-gradient-11)"/>
    </clipPath>
    <clipPath id="clip-path-54">
      <path id="Path_8010" data-name="Path 8010" d="M139.177,671.847l-60.41-34.878c-1.869-1.079-1.881-2.836-.024-3.915l60.018-34.879a7.459,7.459,0,0,1,6.76,0l60.411,34.878c1.869,1.079,1.881,2.836.022,3.916l-60.018,34.879a7.46,7.46,0,0,1-6.759,0M135.6,596.352,75.585,631.23c-3.588,2.085-3.569,5.478.043,7.563l60.41,34.878a14.413,14.413,0,0,0,13.059,0l60.018-34.879c3.59-2.086,3.569-5.48-.043-7.565l-60.41-34.878a14.41,14.41,0,0,0-13.058,0" transform="translate(-72.907 -594.787)" fill="#7793f2"/>
    </clipPath>
    <clipPath id="clip-path-56">
      <rect id="Rectangle_3552" data-name="Rectangle 3552" width="217.436" height="114.092" fill="rgba(208,219,255,0.66)"/>
    </clipPath>
    <clipPath id="clip-path-57">
      <path id="Path_8011" data-name="Path 8011" d="M2322.981,1966.777c-.209-.149-.432-.293-.673-.433l-36.023-20.8-.013-.008-41.937-24.212a14.762,14.762,0,0,0-13.4,0l-77.467,45.019c-3.688,2.143-3.669,5.617.043,7.76l41.639,24.041,42.758,24.741,60.959,10.728a12.982,12.982,0,0,0,8.743-1.543l58.719-33.9a3.644,3.644,0,0,0,0-6.311Z" transform="translate(-2150.718 -1919.719)" fill="rgba(208,219,255,0.66)"/>
    </clipPath>
    <clipPath id="clip-path-58">
      <path id="Path_8012" data-name="Path 8012" d="M2590.378,1979.919c0,.048-.006.095-.01.143s-.01.083-.016.125-.013.094-.021.141-.018.083-.026.125-.021.093-.034.138-.023.084-.036.125-.029.092-.045.137-.031.082-.046.123-.04.1-.061.143-.037.08-.056.12-.047.095-.073.142-.042.077-.064.115c-.033.056-.068.112-.1.167-.022.034-.044.068-.067.1-.042.061-.087.122-.133.183-.02.026-.039.053-.06.08-.076.1-.159.192-.246.287l-.069.072c-.069.072-.14.143-.215.214l-.1.1c-.044.04-.09.079-.136.118s-.087.073-.132.109-.1.078-.147.116-.093.071-.142.106-.105.075-.16.112l-.151.1-.172.109c-.073.045-.144.09-.22.134l-77.467,45.019-.1,36.3,77.466-45.019.116-.068c.036-.021.068-.044.1-.066.058-.036.116-.073.172-.109l.151-.1c.054-.038.108-.075.16-.114s.094-.069.141-.1.1-.077.149-.117.087-.072.13-.108l.137-.119c.018-.017.039-.033.056-.05s.031-.032.048-.047c.075-.07.146-.141.215-.214.023-.023.047-.047.069-.072q.13-.142.246-.287l.01-.012c.018-.022.033-.045.049-.066.046-.062.092-.123.134-.184.023-.033.044-.067.066-.1.036-.056.071-.112.1-.168.009-.015.02-.03.028-.046s.023-.046.036-.069c.026-.047.05-.095.074-.142s.038-.079.056-.119.041-.1.061-.144c.008-.021.02-.043.027-.064s.013-.039.02-.058c.016-.046.031-.091.045-.138s.026-.083.037-.125.023-.092.034-.138c.005-.025.013-.049.018-.075s0-.034.008-.05c.009-.047.016-.094.022-.142s.012-.083.016-.125.008-.1.011-.143c0-.028.005-.056.005-.084s0-.055,0-.083l.1-36.305c0,.055,0,.111-.008.167" transform="translate(-2510.063 -1979.752)" fill="none"/>
    </clipPath>
    <linearGradient id="linear-gradient-57" x1="-5.702" y1="0.99" x2="-5.7" y2="0.99" xlink:href="#linear-gradient-33"/>
    <clipPath id="clip-path-60">
      <path id="Path_8015" data-name="Path 8015" d="M2175.917,2063.8l4,2.31.045-15.973-4-2.31Z" transform="translate(-2175.917 -2047.824)" fill="url(#linear-gradient-3)"/>
    </clipPath>
    <clipPath id="clip-path-61">
      <path id="Path_8016" data-name="Path 8016" d="M2205.772,2081.035l4,2.31.044-15.973-4-2.311Z" transform="translate(-2205.772 -2065.061)" fill="url(#linear-gradient-3)"/>
    </clipPath>
    <clipPath id="clip-path-62">
      <path id="Path_8017" data-name="Path 8017" d="M2235.626,2098.271l4,2.31.045-15.973-4-2.311Z" transform="translate(-2235.626 -2082.297)" fill="url(#linear-gradient-3)"/>
    </clipPath>
    <clipPath id="clip-path-63">
      <path id="Path_8018" data-name="Path 8018" d="M2322.811,2174.907a6.476,6.476,0,0,0,2.94,5.091c1.628.94,2.953.186,2.958-1.685a6.477,6.477,0,0,0-2.938-5.092,2.689,2.689,0,0,0-1.323-.405c-.968,0-1.632.766-1.636,2.091" transform="translate(-2322.811 -2172.816)" fill="url(#linear-gradient-3)"/>
    </clipPath>
    <clipPath id="clip-path-64">
      <path id="Path_8019" data-name="Path 8019" d="M2364.771,2199.133a6.475,6.475,0,0,0,2.939,5.089c1.628.94,2.954.187,2.959-1.684a6.479,6.479,0,0,0-2.94-5.093,2.677,2.677,0,0,0-1.322-.4c-.967,0-1.632.766-1.636,2.092" transform="translate(-2364.771 -2197.041)" fill="url(#linear-gradient-3)"/>
    </clipPath>
    <clipPath id="clip-path-65">
      <path id="Path_8020" data-name="Path 8020" d="M2406.732,2223.359a6.475,6.475,0,0,0,2.938,5.089c1.628.94,2.954.187,2.959-1.684a6.484,6.484,0,0,0-2.94-5.093,2.682,2.682,0,0,0-1.322-.4c-.967,0-1.632.766-1.636,2.092" transform="translate(-2406.732 -2221.267)" fill="url(#linear-gradient-3)"/>
    </clipPath>
    <clipPath id="clip-path-66">
      <path id="Path_8021" data-name="Path 8021" d="M2599.13,2050.345l-61.5,35.51a6.017,6.017,0,0,0-2.73,4.727c0,1.739,1.235,2.439,2.748,1.566l61.5-35.51a6.014,6.014,0,0,0,2.729-4.728c0-1.23-.621-1.941-1.518-1.941a2.492,2.492,0,0,0-1.228.375" transform="translate(-2534.896 -2049.97)" fill="url(#linear-gradient-3)"/>
    </clipPath>
    <clipPath id="clip-path-67">
      <path id="Path_8022" data-name="Path 8022" d="M2599.252,2093.922l-61.5,35.51a6.02,6.02,0,0,0-2.73,4.729c0,1.736,1.236,2.437,2.749,1.564l61.5-35.51a6.01,6.01,0,0,0,2.729-4.726c0-1.23-.621-1.943-1.518-1.943a2.494,2.494,0,0,0-1.228.376" transform="translate(-2535.017 -2093.546)" fill="url(#linear-gradient-3)"/>
    </clipPath>
    <clipPath id="clip-path-68">
      <path id="Path_8023" data-name="Path 8023" d="M2323.421,1905.408a2.462,2.462,0,0,1-1.438-2c-.009-1.561,2.165-2.823,4.858-2.823h18.885l-.06-10.939c-.01-1.56,2.165-2.824,4.857-2.823a7.027,7.027,0,0,1,3.45.827,2.464,2.464,0,0,1,1.439,2l.063,10.939h18.884a7.024,7.024,0,0,1,3.45.827,2.467,2.467,0,0,1,1.44,2c.009,1.559-2.167,2.823-4.857,2.823h-18.888l.063,10.939c.007,1.56-2.166,2.823-4.86,2.824a7.032,7.032,0,0,1-3.452-.828,2.464,2.464,0,0,1-1.439-2l-.06-10.939h-18.888a7.026,7.026,0,0,1-3.45-.827m24.064-28.726-42.815,24.881c-1.7.987-1.69,2.588.021,3.575l43.095,24.881a6.8,6.8,0,0,0,6.173,0l42.815-24.882c1.7-.987,1.69-2.589-.02-3.576l-43.1-24.881a6.8,6.8,0,0,0-6.172,0" transform="translate(-2303.401 -1875.941)" fill="url(#linear-gradient-11)"/>
    </clipPath>
    <clipPath id="clip-path-69">
      <path id="Path_8024" data-name="Path 8024" d="M2284.92,1903.908l-60.41-34.878c-1.869-1.079-1.881-2.835-.024-3.915l60.018-34.878a7.46,7.46,0,0,1,6.761,0l60.41,34.878c1.869,1.079,1.88,2.836.022,3.916l-60.018,34.879a7.462,7.462,0,0,1-6.759,0m-3.574-75.5-60.018,34.879c-3.588,2.085-3.569,5.478.042,7.563l60.411,34.878a14.413,14.413,0,0,0,13.058,0l60.018-34.879c3.59-2.086,3.569-5.48-.042-7.565l-60.41-34.878a14.409,14.409,0,0,0-13.058,0" transform="translate(-2218.65 -1826.848)" fill="#7793f2"/>
    </clipPath>
  </defs>
  <g id="Group_7712" data-name="Group 7712" clip-path="url(#clip-path)">
    <g id="Group_7571" data-name="Group 7571" transform="translate(0 0.001)">
      <g id="Group_7570" data-name="Group 7570" clip-path="url(#clip-path-2)">
        <path id="Path_7937" data-name="Path 7937" d="M1449.456,1271.712a1.659,1.659,0,0,1,.968,1.334,1.2,1.2,0,0,1-.059.367,1.4,1.4,0,0,1-.182.353,1.967,1.967,0,0,1-.3.321,2.562,2.562,0,0,1-.4.289,3.476,3.476,0,0,1-.495.233,4.525,4.525,0,0,1-.555.176,5.583,5.583,0,0,1-.605.105,6.115,6.115,0,0,1-.636.037,4.731,4.731,0,0,1-2.3-.55,2.609,2.609,0,0,1-.407-.289,2,2,0,0,1-.3-.321,1.465,1.465,0,0,1-.187-.353,1.236,1.236,0,0,1-.062-.367,1.154,1.154,0,0,1,.059-.37,1.459,1.459,0,0,1,.183-.349,1.956,1.956,0,0,1,.3-.324,2.569,2.569,0,0,1,.4-.287,3.6,3.6,0,0,1,.5-.235,4.676,4.676,0,0,1,.556-.172,5.278,5.278,0,0,1,.605-.108,6.073,6.073,0,0,1,1.273,0,5.328,5.328,0,0,1,.606.108,4.715,4.715,0,0,1,.557.172,3.417,3.417,0,0,1,.487.231" transform="translate(-1067.014 -939.346)" fill="#3c77e1"/>
        <path id="Path_7938" data-name="Path 7938" d="M1355,1326.61c1.271.734,1.275,1.926.012,2.66a5.059,5.059,0,0,1-4.589,0c-1.272-.734-1.281-1.926-.018-2.66a5.068,5.068,0,0,1,4.595,0" transform="translate(-997.205 -979.91)" fill="#3c77e1"/>
        <path id="Path_7939" data-name="Path 7939" d="M1307.76,1354.066c1.271.734,1.278,1.924.015,2.658a5.058,5.058,0,0,1-4.589,0c-1.271-.734-1.281-1.926-.018-2.66a5.064,5.064,0,0,1,4.592,0" transform="translate(-962.298 -1000.198)" fill="#3c77e1"/>
        <path id="Path_7940" data-name="Path 7940" d="M1260.522,1381.515c1.271.734,1.281,1.923.015,2.658a5.055,5.055,0,0,1-4.589,0c-1.271-.734-1.281-1.926-.018-2.66a5.06,5.06,0,0,1,4.592,0" transform="translate(-927.391 -1020.482)" fill="#3c77e1"/>
        <path id="Path_7941" data-name="Path 7941" d="M1213.291,1408.962c1.271.734,1.278,1.925.015,2.659a5.054,5.054,0,0,1-4.589,0c-1.271-.734-1.283-1.924-.017-2.66a5.064,5.064,0,0,1,4.592,0" transform="translate(-892.488 -1040.765)" fill="#3c77e1"/>
        <path id="Path_7942" data-name="Path 7942" d="M1166.056,1436.414c1.271.734,1.278,1.925.015,2.658a5.058,5.058,0,0,1-4.589,0c-1.271-.734-1.281-1.926-.018-2.66a5.063,5.063,0,0,1,4.592,0" transform="translate(-857.583 -1061.051)" fill="#3c77e1"/>
        <path id="Path_7943" data-name="Path 7943" d="M1118.814,1463.865c1.271.734,1.281,1.923.015,2.658a5.063,5.063,0,0,1-4.592,0c-1.271-.734-1.278-1.927-.015-2.661a5.059,5.059,0,0,1,4.592,0" transform="translate(-822.673 -1081.335)" fill="#3c77e1"/>
        <path id="Path_7944" data-name="Path 7944" d="M1071.584,1491.311c1.271.734,1.278,1.924.015,2.658a5.058,5.058,0,0,1-4.592,0c-1.271-.734-1.281-1.926-.015-2.662a5.064,5.064,0,0,1,4.592,0" transform="translate(-787.77 -1101.618)" fill="#3c77e1"/>
        <path id="Path_7945" data-name="Path 7945" d="M1024.349,1518.763c1.271.734,1.278,1.924.015,2.658a5.064,5.064,0,0,1-4.592,0c-1.271-.734-1.278-1.927-.015-2.661a5.062,5.062,0,0,1,4.592,0" transform="translate(-752.866 -1121.904)" fill="#3c77e1"/>
        <path id="Path_7946" data-name="Path 7946" d="M977.111,1546.214c1.271.734,1.281,1.922.015,2.658a5.065,5.065,0,0,1-4.592,0c-1.271-.734-1.278-1.928-.015-2.662a5.058,5.058,0,0,1,4.592,0" transform="translate(-717.959 -1142.188)" fill="#3c77e1"/>
        <path id="Path_7947" data-name="Path 7947" d="M929.883,1573.662c1.271.734,1.278,1.924.015,2.658a5.063,5.063,0,0,1-4.592,0c-1.272-.734-1.278-1.927-.015-2.661a5.063,5.063,0,0,1,4.592,0" transform="translate(-683.059 -1162.471)" fill="#3c77e1"/>
        <path id="Path_7948" data-name="Path 7948" d="M1397.652,1301.823c-1.271-.734-1.281-1.926-.018-2.66a5.064,5.064,0,0,1,4.595,0c1.271.734,1.278,1.924.012,2.66a5.056,5.056,0,0,1-4.589,0" transform="translate(-1032.104 -959.627)" fill="#3c77e1"/>
        <path id="Path_7949" data-name="Path 7949" d="M882.648,1601.118a2.612,2.612,0,0,1,.406.287,2.195,2.195,0,0,1,.3.323,1.549,1.549,0,0,1,.184.351,1.029,1.029,0,0,1,.063.37,1.134,1.134,0,0,1-.058.367,1.418,1.418,0,0,1-.182.352,1.914,1.914,0,0,1-.3.321,2.559,2.559,0,0,1-.4.289,3.449,3.449,0,0,1-.495.233,4.436,4.436,0,0,1-.552.174,5.4,5.4,0,0,1-.608.107,5.66,5.66,0,0,1-.634.035,5.04,5.04,0,0,1-.639-.035,5.981,5.981,0,0,1-.607-.1,5.065,5.065,0,0,1-.557-.176,3.463,3.463,0,0,1-.5-.233,2.6,2.6,0,0,1-.406-.289,2.174,2.174,0,0,1-.3-.321,1.57,1.57,0,0,1-.187-.353,1.152,1.152,0,0,1-.06-.368,1.07,1.07,0,0,1,.056-.369,1.421,1.421,0,0,1,.185-.351,1.925,1.925,0,0,1,.3-.323,2.538,2.538,0,0,1,.4-.287,3.484,3.484,0,0,1,.5-.234,4.49,4.49,0,0,1,.555-.173,5.056,5.056,0,0,1,1.242-.142,5.526,5.526,0,0,1,.636.034,5.852,5.852,0,0,1,.61.106,5.139,5.139,0,0,1,.555.174,3.545,3.545,0,0,1,.5.235" transform="translate(-648.157 -1182.762)" fill="#3c77e1"/>
      </g>
    </g>
    <g id="Group_7573" data-name="Group 7573" transform="translate(751.282 104.317)">
      <g id="Group_7572" data-name="Group 7572" clip-path="url(#clip-path-3)">
        <rect id="Rectangle_3499" data-name="Rectangle 3499" width="8.542" height="51.51" fill="url(#linear-gradient-30)"/>
      </g>
    </g>
    <g id="Group_7575" data-name="Group 7575" transform="translate(0 0.001)">
      <g id="Group_7574" data-name="Group 7574" clip-path="url(#clip-path-2)">
        <path id="Path_7951" data-name="Path 7951" d="M2393.121,105.621a16.13,16.13,0,0,1,7.316,12.674l-.122,43.152c-.014,4.659-3.312,6.539-7.365,4.2L2235.965,75.011a16.128,16.128,0,0,1-7.316-12.674l.122-43.152c.014-4.659,3.311-6.539,7.364-4.2Z" transform="translate(-1646.89 -10.331)" fill="#f9faff"/>
        <path id="Path_7952" data-name="Path 7952" d="M2413.121,103.988c0-.021,0-.042,0-.063,0-.045,0-.09-.006-.134s0-.105-.008-.158-.006-.081-.01-.122-.007-.094-.012-.142c0-.031,0-.062-.007-.093-.006-.068-.015-.135-.022-.2,0-.039-.009-.078-.013-.118,0-.013,0-.026,0-.039-.016-.123-.033-.246-.052-.369l0-.008c0-.018-.007-.035-.01-.053-.017-.1-.033-.206-.052-.31,0-.019-.009-.037-.012-.056-.009-.049-.02-.1-.03-.146s-.024-.121-.037-.181c-.008-.033-.016-.067-.023-.1l-.037-.161c-.01-.041-.019-.082-.03-.123s-.025-.1-.039-.149-.028-.108-.042-.162c-.007-.027-.013-.053-.021-.08-.019-.07-.041-.141-.062-.211-.012-.046-.026-.092-.04-.137l-.011-.039q-.059-.19-.122-.38v0l-.01-.028q-.057-.171-.119-.341c-.006-.018-.014-.035-.02-.053l-.047-.125c-.022-.06-.044-.121-.068-.181-.015-.038-.031-.077-.047-.115l-.056-.139-.042-.1c-.028-.068-.057-.134-.086-.2-.016-.037-.032-.073-.047-.11-.006-.013-.011-.026-.017-.04q-.079-.179-.162-.356l-.006-.013-.046-.094c-.045-.093-.089-.186-.135-.278l-.021-.042c-.037-.074-.075-.146-.114-.219s-.061-.12-.093-.179c-.005-.011-.012-.021-.017-.032-.1-.191-.208-.379-.318-.566l-.026-.048c-.011-.018-.023-.035-.034-.053q-.232-.392-.484-.772l-.026-.042c-.016-.023-.033-.045-.048-.068-.135-.2-.273-.4-.416-.593h0l-.011-.015c-.1-.134-.2-.265-.3-.4l-.014-.018c-.076-.1-.154-.193-.232-.288l-.047-.059,0,0q-.14-.168-.284-.332l-.014-.016-.088-.1c-.061-.068-.121-.137-.183-.2l-.035-.037c-.041-.044-.083-.087-.125-.131s-.093-.1-.14-.147l-.052-.052-.139-.137c-.04-.039-.079-.079-.119-.117l-.068-.063-.15-.14c-.035-.032-.069-.065-.1-.1l-.083-.072-.151-.132-.093-.08c-.033-.028-.066-.055-.1-.082l-.149-.122c-.026-.021-.051-.043-.077-.063l-.126-.1-.139-.106-.056-.043c-.057-.042-.115-.081-.172-.122l-.117-.083-.031-.022c-.1-.071-.207-.139-.311-.206l0,0-.021-.013c-.095-.06-.191-.119-.287-.176l-.072-.042L2248.824,1.009q-.116-.068-.233-.131L2248.5.833l-.12-.062-.093-.048c-.049-.025-.1-.046-.148-.07l-.105-.05-.043-.02q-.147-.066-.293-.125h0c-.1-.039-.2-.076-.293-.11l-.038-.013L2247.26.3c-.05-.016-.1-.034-.149-.049l-.075-.021L2246.907.2l-.1-.028c-.034-.009-.069-.015-.1-.023l-.129-.029L2246.506.1c-.041-.008-.08-.013-.12-.02s-.1-.017-.148-.025l-.052-.009c-.041-.005-.081-.008-.123-.013s-.105-.012-.158-.016l-.046,0c-.037,0-.071,0-.106,0-.062,0-.125-.006-.187-.006l-.052,0c-.027,0-.053,0-.08,0-.078,0-.155.005-.231.011l-.07,0-.05.007c-.116.012-.231.028-.344.05l-.029,0-.008,0-.069.016c-.07.015-.139.032-.207.051-.034.009-.066.021-.1.031s-.087.026-.13.041l-.032.013c-.066.024-.13.051-.194.079-.031.014-.063.026-.094.04-.093.044-.184.09-.272.141l0,0-6.278,3.648c.089-.052.181-.1.275-.143.03-.014.062-.026.092-.039.064-.028.129-.055.2-.08s.108-.037.162-.054c.032-.01.066-.022.1-.031.067-.019.136-.035.205-.05l.071-.017.036-.006c.112-.022.228-.038.344-.05l.12-.01c.076-.006.154-.009.232-.011l.132,0c.062,0,.124,0,.186.006s.1,0,.153.008.1.01.158.016.116.013.175.021l.148.024c.062.011.125.022.188.035l.129.029c.068.016.135.032.2.051l.129.036c.074.022.15.045.224.069l.106.035c.11.038.219.078.331.123h0c.111.045.224.093.337.145l.105.05c.08.038.16.077.24.118l.12.062c.107.056.213.114.321.176l156.985,90.635c.121.07.241.143.361.219l.018.011c.116.074.23.151.345.23l.116.082c.076.054.153.109.229.166l.138.106c.069.052.137.105.2.16l.148.121c.065.054.129.108.193.163l.151.132c.063.056.125.112.188.169l.149.139c.063.06.125.12.188.181l.138.137c.065.066.129.132.193.2l.124.13c.074.079.147.16.219.241l.087.1q.152.173.3.352l.046.058c.083.1.166.2.247.306.1.133.206.267.307.4l.005.007c.143.194.281.393.417.594l.074.109q.252.379.484.772c.02.034.041.067.06.1q.164.28.318.565c.037.07.074.141.111.211s.076.145.113.218c.053.106.1.213.156.32.015.031.031.063.045.094q.1.2.186.408l.047.111c.044.1.086.2.128.3l.056.14c.039.1.077.2.114.3q.025.062.047.125c.047.13.094.26.137.39,0,.011.008.022.011.033.047.141.091.281.134.422.014.046.027.093.041.139.029.1.056.193.083.29.015.054.029.108.042.162.023.091.046.181.068.272.013.054.025.107.037.161q.031.141.06.281c.01.049.021.1.03.146q.035.183.065.365c0,.018.007.036.01.053q.033.208.058.416c.005.039.009.078.013.118.012.1.021.2.031.3,0,.048.008.095.011.142.007.093.012.186.017.279,0,.045,0,.09.006.135,0,.132.008.263.007.394l6.278-3.648q0-.165,0-.331" transform="translate(-1653.3 -0.003)" fill="#e5eafe"/>
      </g>
    </g>
    <g id="Group_7577" data-name="Group 7577" transform="translate(608.38 32.31)">
      <g id="Group_7576" data-name="Group 7576" clip-path="url(#clip-path-5)">
        <rect id="Rectangle_3501" data-name="Rectangle 3501" width="34.918" height="14.692" transform="translate(-1.229 34.415) rotate(-87.954)" fill="#91abff"/>
      </g>
    </g>
    <g id="Group_7579" data-name="Group 7579" transform="translate(629.885 44.726)">
      <g id="Group_7578" data-name="Group 7578" clip-path="url(#clip-path-6)">
        <rect id="Rectangle_3502" data-name="Rectangle 3502" width="38.093" height="19.907" transform="translate(-1.336 37.406) rotate(-87.955)" fill="#91abff"/>
      </g>
    </g>
    <g id="Group_7581" data-name="Group 7581" transform="translate(654.653 59.026)">
      <g id="Group_7580" data-name="Group 7580" clip-path="url(#clip-path-7)">
        <rect id="Rectangle_3503" data-name="Rectangle 3503" width="38.093" height="19.906" transform="translate(-1.336 37.406) rotate(-87.955)" fill="#91abff"/>
      </g>
    </g>
    <g id="Group_7583" data-name="Group 7583" transform="translate(678.423 76.786)">
      <g id="Group_7582" data-name="Group 7582" clip-path="url(#clip-path-8)">
        <rect id="Rectangle_3504" data-name="Rectangle 3504" width="32.647" height="23.294" transform="translate(-1.149 31.835) rotate(-87.955)" fill="#91abff"/>
      </g>
    </g>
    <g id="Group_7585" data-name="Group 7585" transform="translate(708.608 90.177)">
      <g id="Group_7584" data-name="Group 7584" clip-path="url(#clip-path-9)">
        <rect id="Rectangle_3505" data-name="Rectangle 3505" width="38.093" height="19.907" transform="matrix(0.036, -0.999, 0.999, 0.036, -1.336, 37.406)" fill="#91abff"/>
      </g>
    </g>
    <g id="Group_7592" data-name="Group 7592" transform="translate(0 0.001)">
      <g id="Group_7591" data-name="Group 7591" clip-path="url(#clip-path-2)">
        <path id="Path_7958" data-name="Path 7958" d="M2631.114,1131.347l-.069,24.2-.586-.338.068-24.2Z" transform="translate(-1943.812 -835.774)" fill="#6d6d6d"/>
        <g id="Group_7590" data-name="Group 7590" transform="translate(208.338 82.523)" opacity="0.06" style="isolation: isolate">
          <g id="Group_7589" data-name="Group 7589">
            <g id="Group_7588" data-name="Group 7588" clip-path="url(#clip-path-11)">
              <g id="Group_7587" data-name="Group 7587" transform="translate(0 -0.001)">
                <g id="Group_7586" data-name="Group 7586" clip-path="url(#clip-path-12)">
                  <rect id="Rectangle_3506" data-name="Rectangle 3506" width="738.347" height="845.84" transform="translate(-183.991 299.363) rotate(-58.469)" fill="url(#linear-gradient-31)"/>
                </g>
              </g>
            </g>
          </g>
        </g>
      </g>
    </g>
    <g id="Group_7594" data-name="Group 7594" transform="translate(612.232 305.384)">
      <g id="Group_7593" data-name="Group 7593" clip-path="url(#clip-path-13)" style="isolation: isolate">
        <path id="Path_8048" data-name="Path 8048" d="M0,0H306.409V278.621H0Z" transform="translate(-76.033 46.522) rotate(-31.461)" fill="#b8ccff"/>
      </g>
    </g>
    <g id="Group_7596" data-name="Group 7596" transform="translate(0 0.001)">
      <g id="Group_7595" data-name="Group 7595" clip-path="url(#clip-path-2)">
        <path id="Path_7961" data-name="Path 7961" d="M1452.417,520.21c5.645,3.259,5.675,8.543.067,11.8L1202.007,677.574c-5.609,3.259-14.733,3.26-20.379,0L802.292,458.565c-5.645-3.259-5.675-8.546-.067-11.805L1052.7,301.2c5.609-3.259,14.733-3.258,20.379,0Z" transform="translate(-589.721 -220.769)" fill="url(#linear-gradient-32)"/>
        <path id="Path_7962" data-name="Path 7962" d="M1201.19,1113.511l-.2.1c-.175.087-.354.171-.534.251-.061.027-.121.056-.183.082q-.353.153-.719.293l-.131.047c-.205.076-.414.149-.624.219l-.262.085q-.174.055-.35.106-.148.044-.3.086c-.119.033-.239.065-.359.1q-.151.04-.3.077c-.122.029-.245.057-.367.085l-.3.067c-.125.026-.251.05-.377.074-.1.019-.194.037-.292.055-.27.048-.541.092-.815.13l-.117.015q-.357.048-.717.086l-.275.027c-.154.014-.308.027-.463.038l-.293.02c-.162.01-.323.017-.486.025l-.272.011c-.14,0-.28.006-.421.008-.1,0-.2,0-.3,0-.15,0-.3,0-.45,0-.089,0-.177,0-.266,0-.139,0-.277-.01-.415-.016-.1,0-.191-.006-.285-.012-.15-.008-.3-.02-.448-.03l-.251-.017c-.187-.015-.373-.034-.558-.054l-.135-.013q-.346-.038-.689-.087l-.12-.019c-.193-.029-.385-.058-.576-.091-.082-.014-.162-.031-.244-.046-.149-.027-.3-.055-.445-.085-.077-.016-.154-.034-.23-.05-.162-.035-.324-.071-.485-.11l-.267-.067c-.146-.037-.293-.075-.438-.115l-.245-.07q-.345-.1-.682-.212l-.119-.038c-.258-.087-.511-.181-.761-.278q-.153-.06-.3-.123c-.08-.033-.16-.065-.238-.1-.114-.049-.225-.1-.336-.15-.073-.033-.146-.066-.218-.1-.121-.057-.24-.118-.359-.178-.059-.03-.12-.059-.178-.089-.176-.092-.35-.187-.519-.285L802.136,894.142a9.831,9.831,0,0,1-3.194-2.781,6.5,6.5,0,0,1-.465-.77,5.293,5.293,0,0,1-.578-1.99q-.016-.2-.016-.4l-.055,19.363c-.006,2.15,1.413,4.3,4.254,5.944v0l379.337,219.011q.255.147.519.285c.058.031.119.059.178.089.119.06.237.12.359.178.072.034.145.067.218.1.111.051.222.1.335.15.079.034.159.066.239.1s.152.065.23.1l.074.027c.25.1.5.191.762.278l.118.038q.337.112.683.212l.113.035.134.035q.217.06.437.116l.267.067c.16.039.322.074.484.109.06.013.12.028.181.041l.05.01c.147.03.295.057.443.084.082.015.163.032.245.046.189.032.378.062.569.089l.122.019h.007q.343.049.688.087l.129.013c.188.02.376.039.565.055h.012l.226.015c.154.011.307.023.461.031.093.005.187.008.28.012.14.006.28.013.42.016H1191l.233,0c.15,0,.3,0,.45,0,.1,0,.2,0,.3,0,.141,0,.281,0,.421-.008h.077c.065,0,.13-.007.195-.01q.244-.01.487-.025l.291-.02q.232-.017.464-.038c.054,0,.108-.008.162-.014l.113-.013q.36-.038.717-.086l.118-.015q.411-.057.815-.13l.076-.012c.072-.013.142-.028.214-.042.126-.024.253-.048.379-.074.1-.021.2-.044.3-.066.124-.028.247-.056.37-.086.1-.024.2-.05.3-.076.121-.031.241-.063.36-.1.1-.027.2-.056.3-.085l.35-.107c.051-.016.1-.03.154-.047s.072-.026.108-.038q.317-.105.626-.22l.129-.047c.244-.093.483-.191.719-.293l.183-.082q.271-.121.534-.251c.065-.033.131-.065.2-.1.225-.116.448-.234.663-.359l.055-19.363c-.215.125-.438.244-.663.36" transform="translate(-589.566 -656.346)" fill="#cbd9ff"/>
        <path id="Path_7963" data-name="Path 7963" d="M1771.538,635.071l-.069,24.2-.586-.338.069-24.2Z" transform="translate(-1308.618 -469.045)" fill="#6d6d6d"/>
        <path id="Path_7964" data-name="Path 7964" d="M1577.748,659.52c.936-.189,1.868-.381,2.791-.584l.069-24.2q-1.384.3-2.79.583l-.763.151q-1.189.234-2.393.454l-.5.092q-1.3.234-2.623.45c-.213.035-.428.068-.642.1q-1.017.163-2.045.317l-.893.13q-.959.138-1.927.268c-.279.037-.557.076-.837.112q-1.363.177-2.742.339l-49.084,5.792-.069,24.2,49.084-5.792q1.381-.16,2.742-.339c.28-.036.558-.075.837-.112q.967-.13,1.926-.268l.9-.131q1.026-.153,2.042-.317c.214-.034.43-.067.643-.1q1.32-.217,2.623-.45l.13-.022c.124-.022.245-.047.368-.07q1.206-.22,2.4-.454l.76-.151" transform="translate(-1118.273 -469.045)" fill="#cdd6f9"/>
        <path id="Path_7965" data-name="Path 7965" d="M1415.891,689.611l-.068,24.2-45.688-26.378.068-24.2Z" transform="translate(-1012.479 -490.105)" fill="#e5eafe"/>
      </g>
    </g>
    <g id="Group_7598" data-name="Group 7598" transform="translate(442.912 163.278)">
      <g id="Group_7597" data-name="Group 7597" clip-path="url(#clip-path-15)">
        <rect id="Rectangle_3511" data-name="Rectangle 3511" width="90.26" height="89.058" transform="translate(-28.484 18.014) rotate(-32.311)" fill="url(#linear-gradient-33)"/>
      </g>
    </g>
    <g id="Group_7600" data-name="Group 7600" transform="translate(0 0.001)">
      <g id="Group_7599" data-name="Group 7599" clip-path="url(#clip-path-2)">
        <path id="Path_7967" data-name="Path 7967" d="M1642.821,820.629l-.069,24.2-12.885-7.439.069-24.2Z" transform="translate(-1204.412 -600.918)" fill="#e5eafe"/>
        <path id="Path_7968" data-name="Path 7968" d="M1482.9,826.12l-.069,24.2-22.112-12.766.069-24.2Z" transform="translate(-1079.421 -601.04)" fill="#e5eafe"/>
        <path id="Path_7969" data-name="Path 7969" d="M1696.754,802.824l-.069,24.2-17.457,10.145.069-24.2Z" transform="translate(-1240.888 -593.258)" fill="#d8deff"/>
      </g>
    </g>
    <g id="Group_7602" data-name="Group 7602" transform="translate(357.724 151.23)">
      <g id="Group_7601" data-name="Group 7601" clip-path="url(#clip-path-17)">
        <rect id="Rectangle_3513" data-name="Rectangle 3513" width="163.304" height="101.207" transform="translate(-13.675 2.626) rotate(-10.868)" fill="#1c45d6"/>
      </g>
    </g>
    <g id="Group_7604" data-name="Group 7604" transform="translate(0 0.001)">
      <g id="Group_7603" data-name="Group 7603" clip-path="url(#clip-path-2)">
        <path id="Path_7971" data-name="Path 7971" d="M1567.54,813.19l-.069,24.2L1545.431,850.2l.068-24.2Z" transform="translate(-1142.017 -600.918)" fill="#d8deff"/>
        <path id="Path_7972" data-name="Path 7972" d="M1993.047,841.723c-.3-.171-.6-.331-.9-.487l-.206-.1c-.3-.149-.605-.293-.915-.427l-.129-.054c-.164-.07-.328-.14-.494-.205-.093-.037-.188-.068-.281-.1-.133-.05-.267-.1-.4-.147-.216-.076-.433-.148-.653-.217-.132-.042-.262-.084-.4-.123-.056-.017-.111-.036-.167-.052q-.4-.114-.81-.213l-.117-.026c-.209-.05-.418-.1-.631-.142-.11-.023-.221-.042-.332-.063l-.2-.038c-.3-.054-.594-.1-.9-.147l-.148-.019-.186-.024c-.361-.046-.725-.087-1.094-.117h-.015l-.039,0c-.365-.03-.736-.049-1.109-.063l-.2-.008-.151-.006c-.325-.008-.654-.009-.985-.006l-.239,0c-.158,0-.314,0-.473.009s-.307.016-.461.024c-.124.006-.247.011-.372.019-.386.023-.774.053-1.167.091l-.062.005h-.011c-.09.009-.183.023-.273.033-.377.04-.754.083-1.137.137-.174.024-.352.056-.527.083-.308.047-.615.093-.927.149l-.071.011c-.288.052-.582.114-.874.173-.157.032-.311.059-.468.093q-.717.153-1.447.334c-.454.113-.918.237-1.388.368l-.227.063q-.677.191-1.377.409l-.271.085c-.127.04-.253.078-.381.119-.237.076-.48.16-.721.24-.179.06-.355.117-.536.178q-.66.226-1.34.473c-.086.031-.169.059-.255.091q-.81.3-1.648.623c-.165.064-.333.133-.5.2-.4.157-.8.317-1.206.484-.215.088-.433.18-.649.271q-.554.231-1.117.473-.348.15-.7.3-.564.248-1.14.507c-.233.1-.465.209-.7.317-.413.189-.832.384-1.252.582-.21.1-.418.195-.63.3q-.863.41-1.748.844l-.178.086q-.976.48-1.98.99c-.209.106-.423.217-.634.325-.465.238-.931.479-1.4.726-.259.135-.521.274-.782.412q-.656.346-1.319.7l-.831.449q-.67.363-1.35.739l-.824.455c-.491.273-.989.554-1.488.836-.242.137-.482.271-.726.41q-1.115.635-2.255,1.3-.58.337-1.146.67l-.374.221-.746.441-.435.259-.667.4-.443.267-.362.218-.192.118q-.5.3-.987.6l-.311.19q-.632.39-1.246.773l-.261.165q-.481.3-.951.6l-.385.245q-.421.269-.832.536l-.35.227q-.548.357-1.08.709l-.041.027q-.548.363-1.075.72l-.316.215q-.375.255-.741.508l-.335.232q-.385.267-.758.531l-.24.169q-.482.343-.945.68l-.209.153q-.358.262-.7.52l-.291.218c-.21.157-.415.314-.618.469l-.259.2c-.272.211-.541.42-.8.627l-.02.016c-.266.212-.524.421-.778.629l-.228.188q-.268.222-.527.441l-.237.2q-.272.233-.532.462l-.165.144q-.334.3-.649.588l-.032.029q-.232.215-.453.426l-.024.023q-.228.218-.444.432l-.147.147c-.1.1-.2.2-.3.3l-.161.168c-.089.093-.177.186-.262.277l-.156.168c-.084.092-.167.184-.248.275l-.142.16c-.086.1-.169.2-.252.294-.037.043-.074.087-.11.13-.114.138-.226.274-.332.409l0,0q-.174.222-.334.44-.248.337-.464.669c-.048.074-.089.147-.135.221-.091.146-.184.292-.265.437l-.013.021c-.1.184-.2.367-.287.548-.012.024-.025.048-.036.073-.089.186-.169.37-.243.553l-.034.084c-.011.03-.024.059-.035.089-.039.1-.068.2-.1.307-.024.074-.052.147-.073.22-.043.146-.078.291-.11.435-.011.049-.027.1-.037.148,0,0,0,.009,0,.013-.037.182-.063.363-.083.542-.006.053-.007.1-.012.157-.009.1-.019.206-.022.309q0,.074,0,.148l-.069,24.2c0-.151.012-.3.025-.457,0-.052.006-.1.011-.157.02-.184.049-.368.087-.555.01-.049.025-.1.036-.148.033-.144.067-.288.11-.434.021-.073.049-.147.073-.221.043-.131.085-.262.137-.394.011-.028.022-.057.034-.085.073-.183.153-.367.242-.552l.036-.073c.092-.188.191-.378.3-.569.082-.145.175-.292.267-.438.046-.073.086-.146.135-.22q.216-.332.464-.669.16-.218.335-.44c.107-.136.219-.274.335-.413.036-.044.075-.088.112-.132.082-.1.165-.194.251-.293l.142-.16c.081-.091.163-.182.247-.274l.157-.17q.127-.137.26-.275l.163-.17c.1-.1.2-.2.3-.3l.149-.15c.145-.143.292-.287.444-.432l.024-.023c.157-.15.32-.3.486-.456q.315-.291.65-.588l.162-.143q.262-.231.534-.464l.236-.2q.259-.219.528-.442l.227-.188c.254-.208.512-.417.778-.629l.021-.016c.26-.207.528-.416.8-.627l.259-.2q.3-.233.618-.469l.291-.218q.346-.258.7-.52l.209-.153q.464-.337.946-.68l.239-.169q.374-.264.758-.531l.335-.232q.366-.252.742-.508l.316-.215c.353-.238.71-.478,1.075-.721l.041-.027q.53-.351,1.08-.709l.35-.227q.412-.267.833-.536l.384-.245q.469-.3.951-.6l.261-.165q.613-.384,1.246-.773l.311-.19q.487-.3.986-.6l.554-.335.444-.267.666-.4.436-.259.746-.44.374-.221q.568-.333,1.146-.67,1.142-.664,2.256-1.3c.242-.138.48-.271.721-.407.5-.283,1-.564,1.493-.838.276-.153.548-.3.821-.454q.682-.375,1.354-.74l.828-.447q.667-.358,1.322-.7c.261-.138.522-.276.781-.411.474-.248.942-.489,1.407-.727.21-.107.423-.218.631-.324q1-.509,1.981-.991l.172-.083q.888-.435,1.754-.847c.211-.1.418-.2.628-.295.421-.2.84-.393,1.253-.582.236-.108.468-.212.7-.317q.576-.259,1.142-.508.35-.154.7-.3.565-.243,1.118-.474c.217-.091.435-.182.649-.27.407-.167.808-.328,1.207-.485.165-.065.333-.134.5-.2q.837-.325,1.649-.623c.086-.032.169-.06.255-.091.452-.164.9-.323,1.34-.473.181-.062.357-.119.535-.178.371-.124.741-.246,1.1-.359l.271-.085q.7-.216,1.378-.409l.226-.063c.47-.131.935-.255,1.388-.368q.732-.182,1.447-.334c.157-.034.312-.061.468-.093.316-.064.633-.129.944-.185s.62-.1.928-.149c.175-.027.352-.059.525-.083.384-.054.761-.1,1.138-.137.094-.01.191-.024.284-.034l.062-.005c.393-.038.782-.067,1.167-.091.125-.008.248-.012.372-.019.314-.015.625-.027.934-.033l.238,0q.574-.006,1.136.011l.2.008c.374.014.744.034,1.109.063l.039,0c.375.03.743.072,1.11.118l.186.024q.528.071,1.043.166l.2.038q.486.093.962.206l.117.026c.33.08.654.17.976.265.133.039.264.082.4.123.219.069.437.141.652.217.135.048.269.1.4.147.26.1.52.2.775.308l.129.053c.309.134.614.278.915.427l.207.1c.3.155.606.316.9.487q4.794,2.768,4.782,6.47l.069-24.2q.011-3.7-4.782-6.469" transform="translate(-1415.01 -619.937)" fill="#cdd6f9"/>
      </g>
    </g>
    <g id="Group_7606" data-name="Group 7606" transform="translate(471.785 202.246)">
      <g id="Group_7605" data-name="Group 7605" clip-path="url(#clip-path-19)">
        <rect id="Rectangle_3515" data-name="Rectangle 3515" width="161.868" height="122.311" transform="translate(-25.944 7.561) rotate(-17.588)" fill="url(#linear-gradient-2)"/>
      </g>
    </g>
    <g id="Group_7608" data-name="Group 7608" transform="translate(471.717 230.358)">
      <g id="Group_7607" data-name="Group 7607" clip-path="url(#clip-path-20)">
        <rect id="Rectangle_3516" data-name="Rectangle 3516" width="159.094" height="128.578" transform="translate(-29.354 13.4) rotate(-24.538)" fill="url(#linear-gradient-35)"/>
      </g>
    </g>
    <g id="Group_7610" data-name="Group 7610" transform="translate(0 0.001)">
      <g id="Group_7609" data-name="Group 7609" clip-path="url(#clip-path-2)">
        <path id="Path_7975" data-name="Path 7975" d="M2437.324,1155.8q1.4-.283,2.79-.583l.069-24.2c-.922.2-1.854.395-2.79.583l-.763.151q-1.189.234-2.391.453c-.168.031-.335.063-.5.093q-1.3.234-2.621.45c-.213.035-.43.068-.643.1q-1.016.164-2.042.317l-.894.131q-.962.139-1.93.269c-.276.037-.553.075-.83.111-.91.118-1.823.232-2.745.339l-49.085,5.792-.068,24.2,49.084-5.792q1.381-.16,2.744-.339c.279-.036.554-.074.831-.111q.969-.13,1.93-.268l.894-.131q1.026-.153,2.042-.317c.215-.034.431-.067.644-.1q1.32-.217,2.623-.45l.131-.022c.124-.022.244-.047.368-.07q1.207-.22,2.4-.455l.762-.151" transform="translate(-1753.468 -835.775)" fill="#cdd6f9"/>
        <path id="Path_7976" data-name="Path 7976" d="M2275.467,1185.888l-.068,24.2-45.688-26.378.069-24.2Z" transform="translate(-1647.674 -856.836)" fill="#e5eafe"/>
      </g>
    </g>
    <g id="Group_7612" data-name="Group 7612" transform="translate(667.293 292.825)">
      <g id="Group_7611" data-name="Group 7611" clip-path="url(#clip-path-22)">
        <rect id="Rectangle_3518" data-name="Rectangle 3518" width="90.192" height="88.971" transform="translate(-28.38 17.798) rotate(-32.093)" fill="url(#linear-gradient-36)"/>
      </g>
    </g>
    <g id="Group_7614" data-name="Group 7614" transform="translate(0 0.001)">
      <g id="Group_7613" data-name="Group 7613" clip-path="url(#clip-path-2)">
        <path id="Path_7978" data-name="Path 7978" d="M2502.4,1316.905l-.069,24.2-12.885-7.439.069-24.2Z" transform="translate(-1839.607 -967.648)" fill="#e5eafe"/>
        <path id="Path_7979" data-name="Path 7979" d="M2556.329,1299.1l-.068,24.2-17.457,10.145.068-24.2Z" transform="translate(-1876.083 -959.988)" fill="#d8deff"/>
        <path id="Path_7980" data-name="Path 7980" d="M2342.479,1322.4l-.069,24.2-22.112-12.766.069-24.2Z" transform="translate(-1714.615 -967.769)" fill="#e5eafe"/>
      </g>
    </g>
    <g id="Group_7616" data-name="Group 7616" transform="translate(582.105 280.776)">
      <g id="Group_7615" data-name="Group 7615" clip-path="url(#clip-path-24)">
        <rect id="Rectangle_3520" data-name="Rectangle 3520" width="164.598" height="105.404" transform="translate(-15.798 3.55) rotate(-12.665)" fill="#1c45d6"/>
      </g>
    </g>
    <g id="Group_7623" data-name="Group 7623" transform="translate(0 0.001)">
      <g id="Group_7622" data-name="Group 7622" clip-path="url(#clip-path-2)">
        <path id="Path_7982" data-name="Path 7982" d="M2427.115,1309.466l-.069,24.2-22.041,12.809.069-24.2Z" transform="translate(-1777.21 -967.648)" fill="#d8deff"/>
        <g id="Group_7621" data-name="Group 7621" transform="translate(152.366 396.365)" opacity="0.4" style="isolation: isolate">
          <g id="Group_7620" data-name="Group 7620">
            <g id="Group_7619" data-name="Group 7619" clip-path="url(#clip-path-26)">
              <g id="Group_7618" data-name="Group 7618" transform="translate(0 0)">
                <g id="Group_7617" data-name="Group 7617" clip-path="url(#clip-path-27)">
                  <rect id="Rectangle_3521" data-name="Rectangle 3521" width="245.18" height="220.248" transform="matrix(0.817, -0.577, 0.577, 0.817, -55.112, 37.742)" fill="rgba(208,219,255,0.36)"/>
                </g>
              </g>
            </g>
          </g>
        </g>
      </g>
    </g>
    <g id="Group_7625" data-name="Group 7625" transform="translate(247.034 411.604)">
      <g id="Group_7624" data-name="Group 7624" clip-path="url(#clip-path-28)">
        <rect id="Rectangle_3524" data-name="Rectangle 3524" width="112.121" height="113.903" transform="translate(-36.846 21.23) rotate(-29.95)" fill="url(#linear-gradient-37)"/>
      </g>
    </g>
    <g id="Group_7627" data-name="Group 7627" transform="translate(0 0.001)">
      <g id="Group_7626" data-name="Group 7626" clip-path="url(#clip-path-2)">
        <path id="Path_7985" data-name="Path 7985" d="M757.6,1429.845c3.712,2.143,3.731,5.617.044,7.76l-77.467,45.019a14.764,14.764,0,0,1-13.4,0L588.8,1437.606c-3.712-2.143-3.731-5.617-.044-7.76l77.467-45.019a14.762,14.762,0,0,1,13.4,0Z" transform="translate(-433.037 -1022.149)" fill="#f9faff"/>
        <path id="Path_7986" data-name="Path 7986" d="M679.243,1625.86c-.058.028-.116.055-.174.082-.2.091-.4.178-.606.259l-.081.033c-.222.085-.449.161-.68.233-.16.051-.324.095-.488.139-.124.034-.247.07-.372.1-.172.042-.349.076-.524.112-.128.026-.253.055-.383.078l-.16.025q-.326.053-.656.093l-.192.023q-.382.042-.769.065l-.143.007c-.173.009-.346.011-.52.015s-.347,0-.52,0c-.145,0-.289-.007-.434-.012-.16-.007-.321-.015-.48-.026s-.292-.022-.438-.037-.315-.033-.473-.053q-.213-.027-.424-.06c-.168-.026-.335-.056-.5-.087s-.35-.066-.522-.105l-.123-.028q-.363-.087-.714-.192c-.067-.02-.133-.041-.2-.062q-.293-.092-.576-.2l-.164-.06c-.172-.067-.337-.14-.5-.214-.081-.036-.166-.069-.245-.107-.239-.114-.472-.234-.7-.363l-77.974-45.018v0c-1.867-1.078-2.8-2.494-2.8-3.907l-.1,36.305c0,1.413.929,2.829,2.8,3.907l77.974,45.018q.336.194.695.363c.08.038.164.071.245.107.142.063.281.128.427.186l.076.028c.054.021.11.04.164.06q.284.1.576.2c.067.021.132.042.2.062.045.014.089.029.134.042.191.054.385.1.58.15l.124.028c.095.022.189.045.285.065.078.016.158.026.236.041.166.031.333.061.5.088.067.01.134.025.2.035s.149.016.222.025c.157.02.314.038.473.053.075.007.15.019.226.025s.141.006.212.011q.24.016.48.026c.08,0,.16.011.241.013.065,0,.128,0,.193,0,.173,0,.346,0,.519,0,.086,0,.172,0,.258,0s.174-.009.262-.013l.143-.007c.216-.013.431-.028.646-.05l.123-.015.192-.023q.331-.039.656-.093l.16-.026.077-.012c.1-.018.2-.045.306-.065.176-.035.351-.071.523-.112.126-.031.249-.067.373-.1.164-.045.327-.089.487-.139.034-.011.071-.019.1-.03.2-.063.387-.131.576-.2l.081-.033c.207-.081.409-.168.607-.259l.174-.082c.219-.106.434-.217.639-.336l.1-36.3c-.205.119-.42.23-.639.335" transform="translate(-432.746 -1165.05)" fill="#e5eafe"/>
      </g>
    </g>
    <g id="Group_7629" data-name="Group 7629" transform="translate(159.81 429.373)">
      <g id="Group_7628" data-name="Group 7628" clip-path="url(#clip-path-30)">
        <rect id="Rectangle_3526" data-name="Rectangle 3526" width="13.663" height="17.376" transform="translate(-8.52 5.828) rotate(-34.373)" fill="url(#linear-gradient-3)"/>
      </g>
    </g>
    <g id="Group_7631" data-name="Group 7631" transform="translate(167.603 433.872)">
      <g id="Group_7630" data-name="Group 7630" clip-path="url(#clip-path-31)">
        <rect id="Rectangle_3527" data-name="Rectangle 3527" width="13.663" height="17.376" transform="translate(-8.52 5.828) rotate(-34.373)" fill="url(#linear-gradient-3)"/>
      </g>
    </g>
    <g id="Group_7633" data-name="Group 7633" transform="translate(175.396 438.372)" style="isolation: isolate">
      <g id="Group_7632" data-name="Group 7632" clip-path="url(#clip-path-32)">
        <rect id="Rectangle_3528" data-name="Rectangle 3528" width="13.663" height="17.376" transform="matrix(0.825, -0.565, 0.565, 0.825, -8.52, 5.828)" fill="url(#linear-gradient-3)"/>
      </g>
    </g>
    <g id="Group_7635" data-name="Group 7635" transform="translate(198.154 462)">
      <g id="Group_7634" data-name="Group 7634" clip-path="url(#clip-path-33)">
        <rect id="Rectangle_3529" data-name="Rectangle 3529" width="9.462" height="10.039" transform="matrix(0.825, -0.565, 0.565, 0.825, -3.79, 2.589)" fill="url(#linear-gradient-3)"/>
      </g>
    </g>
    <g id="Group_7637" data-name="Group 7637" transform="translate(209.107 468.324)">
      <g id="Group_7636" data-name="Group 7636" clip-path="url(#clip-path-34)">
        <rect id="Rectangle_3530" data-name="Rectangle 3530" width="9.461" height="10.039" transform="matrix(0.825, -0.565, 0.565, 0.825, -3.79, 2.589)" fill="url(#linear-gradient-3)"/>
      </g>
    </g>
    <g id="Group_7639" data-name="Group 7639" transform="translate(220.061 474.648)">
      <g id="Group_7638" data-name="Group 7638" clip-path="url(#clip-path-35)">
        <rect id="Rectangle_3531" data-name="Rectangle 3531" width="9.461" height="10.039" transform="translate(-3.79 2.588) rotate(-34.373)" fill="url(#linear-gradient-3)"/>
      </g>
    </g>
    <g id="Group_7641" data-name="Group 7641" transform="translate(253.516 429.933)">
      <g id="Group_7640" data-name="Group 7640" clip-path="url(#clip-path-36)" style="isolation: isolate">
        <rect id="Rectangle_3532" data-name="Rectangle 3532" width="73.314" height="79.601" transform="translate(-20.046 29.382) rotate(-55.703)" fill="url(#linear-gradient-3)"/>
      </g>
    </g>
    <g id="Group_7643" data-name="Group 7643" transform="translate(253.548 441.308)">
      <g id="Group_7642" data-name="Group 7642" clip-path="url(#clip-path-37)">
        <rect id="Rectangle_3533" data-name="Rectangle 3533" width="73.314" height="79.601" transform="matrix(0.563, -0.826, 0.826, 0.563, -20.046, 29.382)" fill="url(#linear-gradient-3)"/>
      </g>
    </g>
    <g id="Group_7645" data-name="Group 7645" transform="translate(193.087 384.505)">
      <g id="Group_7644" data-name="Group 7644" clip-path="url(#clip-path-38)">
        <rect id="Rectangle_3534" data-name="Rectangle 3534" width="102.155" height="67.652" transform="translate(-7.917 1.037) rotate(-7.888)" fill="url(#linear-gradient-11)"/>
      </g>
    </g>
    <g id="Group_7647" data-name="Group 7647" transform="translate(170.964 371.69)">
      <g id="Group_7646" data-name="Group 7646" clip-path="url(#clip-path-39)">
        <rect id="Rectangle_3535" data-name="Rectangle 3535" width="150.487" height="99.515" transform="matrix(0.991, -0.137, 0.137, 0.991, -11.917, 1.525)" fill="#7793f2"/>
      </g>
    </g>
    <g id="Group_7654" data-name="Group 7654" transform="translate(0 0.001)">
      <g id="Group_7653" data-name="Group 7653" clip-path="url(#clip-path-2)">
        <g id="Group_7652" data-name="Group 7652" transform="translate(0 179.504)" style="isolation: isolate">
          <g id="Group_7651" data-name="Group 7651">
            <g id="Group_7650" data-name="Group 7650" clip-path="url(#clip-path-41)">
              <g id="Group_7649" data-name="Group 7649" transform="translate(0 -0.001)">
                <g id="Group_7648" data-name="Group 7648" clip-path="url(#clip-path-42)">
                  <rect id="Rectangle_3536" data-name="Rectangle 3536" width="245.18" height="220.248" transform="matrix(0.817, -0.577, 0.577, 0.817, -55.112, 37.742)" fill="rgba(208,219,255,0.14)"/>
                </g>
              </g>
            </g>
          </g>
        </g>
      </g>
    </g>
    <g id="Group_7656" data-name="Group 7656" transform="translate(95.1 195.175)">
      <g id="Group_7655" data-name="Group 7655" clip-path="url(#clip-path-43)">
        <rect id="Rectangle_3539" data-name="Rectangle 3539" width="112.121" height="113.904" transform="translate(-36.846 21.23) rotate(-29.95)" fill="url(#linear-gradient-47)"/>
      </g>
    </g>
    <g id="Group_7658" data-name="Group 7658" transform="translate(0 0.001)">
      <g id="Group_7657" data-name="Group 7657" clip-path="url(#clip-path-2)">
        <path id="Path_7999" data-name="Path 7999" d="M175.56,600.733c3.712,2.143,3.731,5.617.044,7.76L98.137,653.512a14.762,14.762,0,0,1-13.4,0L6.766,608.494c-3.712-2.143-3.731-5.617-.044-7.76L84.19,555.715a14.761,14.761,0,0,1,13.4,0Z" transform="translate(-2.933 -409.466)" fill="#f9faff"/>
        <path id="Path_8000" data-name="Path 8000" d="M97.206,796.748l-.174.082c-.2.091-.4.178-.606.259l-.081.033c-.222.085-.45.161-.68.233-.16.05-.324.094-.488.139-.124.034-.246.07-.372.1-.172.042-.348.076-.524.112-.128.026-.253.055-.382.077l-.16.026q-.326.053-.656.093l-.192.023q-.383.041-.769.064l-.143.007c-.173.009-.346.011-.519.014s-.347.005-.52,0q-.217,0-.434-.012c-.16-.006-.321-.015-.48-.026s-.292-.022-.438-.036-.316-.033-.473-.053q-.213-.027-.424-.06c-.168-.026-.335-.055-.5-.087s-.35-.066-.522-.106l-.123-.028c-.242-.057-.479-.122-.714-.192l-.2-.062q-.293-.092-.576-.2l-.164-.06c-.172-.067-.337-.14-.5-.214-.081-.036-.166-.069-.245-.107-.239-.113-.471-.234-.695-.363L6.475,751.394v0c-1.868-1.078-2.8-2.494-2.8-3.907l-.1,36.305c0,1.413.929,2.829,2.8,3.907l77.974,45.018c.223.129.456.249.695.363.08.038.164.071.245.107.141.063.281.128.427.186l.076.028c.054.021.11.04.164.06q.283.105.576.2l.2.062c.045.013.089.029.134.041.191.054.385.1.58.15l.123.028c.1.022.19.045.285.065.078.016.158.026.236.041.166.032.333.061.5.088.068.01.134.025.2.035s.149.015.222.025c.157.02.314.038.473.053.075.007.15.019.226.025s.141.007.212.012c.16.011.32.019.48.026.08,0,.16.011.241.013.064,0,.128,0,.193,0,.174,0,.346,0,.52,0,.086,0,.172,0,.258,0s.175-.009.262-.013l.143-.007c.216-.013.431-.028.646-.05l.123-.015.192-.023q.33-.04.656-.093l.16-.025.077-.013c.1-.019.2-.044.306-.065.175-.035.351-.07.523-.112.126-.031.249-.067.373-.1.164-.044.327-.089.487-.139.034-.011.07-.019.1-.03.2-.063.387-.132.576-.2.027-.01.054-.022.081-.033.207-.081.409-.168.607-.259l.174-.082c.219-.106.434-.216.639-.336l.1-36.305c-.205.119-.42.23-.639.336" transform="translate(-2.642 -552.366)" fill="#e5eafe"/>
      </g>
    </g>
    <g id="Group_7660" data-name="Group 7660" transform="translate(7.877 212.944)">
      <g id="Group_7659" data-name="Group 7659" clip-path="url(#clip-path-45)">
        <rect id="Rectangle_3541" data-name="Rectangle 3541" width="13.663" height="17.376" transform="matrix(0.825, -0.565, 0.565, 0.825, -8.52, 5.828)" fill="url(#linear-gradient-11)"/>
      </g>
    </g>
    <g id="Group_7662" data-name="Group 7662" transform="translate(15.67 217.443)">
      <g id="Group_7661" data-name="Group 7661" clip-path="url(#clip-path-46)">
        <rect id="Rectangle_3542" data-name="Rectangle 3542" width="13.663" height="17.376" transform="translate(-8.52 5.828) rotate(-34.373)" fill="url(#linear-gradient-11)"/>
      </g>
    </g>
    <g id="Group_7664" data-name="Group 7664" transform="translate(23.463 221.943)">
      <g id="Group_7663" data-name="Group 7663" clip-path="url(#clip-path-47)">
        <rect id="Rectangle_3543" data-name="Rectangle 3543" width="13.663" height="17.376" transform="translate(-8.52 5.828) rotate(-34.373)" fill="url(#linear-gradient-11)"/>
      </g>
    </g>
    <g id="Group_7666" data-name="Group 7666" transform="translate(46.221 245.572)">
      <g id="Group_7665" data-name="Group 7665" clip-path="url(#clip-path-48)">
        <rect id="Rectangle_3544" data-name="Rectangle 3544" width="9.462" height="10.039" transform="translate(-3.79 2.589) rotate(-34.373)" fill="url(#linear-gradient-15)"/>
      </g>
    </g>
    <g id="Group_7668" data-name="Group 7668" transform="translate(57.174 251.895)">
      <g id="Group_7667" data-name="Group 7667" clip-path="url(#clip-path-49)">
        <rect id="Rectangle_3545" data-name="Rectangle 3545" width="9.461" height="10.038" transform="matrix(0.825, -0.565, 0.565, 0.825, -3.789, 2.589)" fill="url(#linear-gradient-15)"/>
      </g>
    </g>
    <g id="Group_7670" data-name="Group 7670" transform="translate(68.128 258.219)">
      <g id="Group_7669" data-name="Group 7669" clip-path="url(#clip-path-50)">
        <rect id="Rectangle_3546" data-name="Rectangle 3546" width="9.461" height="10.038" transform="translate(-3.789 2.589) rotate(-34.373)" fill="url(#linear-gradient-15)"/>
      </g>
    </g>
    <g id="Group_7672" data-name="Group 7672" transform="translate(101.583 213.504)">
      <g id="Group_7671" data-name="Group 7671" clip-path="url(#clip-path-51)">
        <rect id="Rectangle_3547" data-name="Rectangle 3547" width="73.314" height="79.602" transform="matrix(0.563, -0.826, 0.826, 0.563, -20.046, 29.382)" fill="url(#linear-gradient-11)"/>
      </g>
    </g>
    <g id="Group_7674" data-name="Group 7674" transform="translate(101.615 224.879)">
      <g id="Group_7673" data-name="Group 7673" clip-path="url(#clip-path-52)">
        <rect id="Rectangle_3548" data-name="Rectangle 3548" width="73.314" height="79.602" transform="translate(-20.046 29.382) rotate(-55.703)" fill="url(#linear-gradient-11)"/>
      </g>
    </g>
    <g id="Group_7675" data-name="Group 7675" transform="translate(41.154 168.076)" clip-path="url(#clip-path-53)" style="isolation: isolate">
      <rect id="Rectangle_3549" data-name="Rectangle 3549" width="102.155" height="67.652" transform="translate(-7.917 1.037) rotate(-7.888)" fill="url(#linear-gradient-11)"/>
    </g>
    <g id="Group_7678" data-name="Group 7678" transform="translate(19.031 155.261)">
      <g id="Group_7677" data-name="Group 7677" clip-path="url(#clip-path-54)">
        <rect id="Rectangle_3550" data-name="Rectangle 3550" width="150.488" height="99.515" transform="translate(-11.917 1.525) rotate(-7.888)" fill="#7793f2"/>
      </g>
    </g>
    <g id="Group_7685" data-name="Group 7685" transform="translate(0 0.001)">
      <g id="Group_7684" data-name="Group 7684" clip-path="url(#clip-path-2)">
        <g id="Group_7683" data-name="Group 7683" transform="translate(561.417 501.116)" opacity="0.2" style="mix-blend-mode: multiply;isolation: isolate">
          <g id="Group_7682" data-name="Group 7682" style="isolation: isolate">
            <g id="Group_7681" data-name="Group 7681" clip-path="url(#clip-path-56)">
              <g id="Group_7680" data-name="Group 7680" transform="translate(-0.001 0)">
                <g id="Group_7679" data-name="Group 7679" clip-path="url(#clip-path-57)">
                  <rect id="Rectangle_3551" data-name="Rectangle 3551" width="245.18" height="220.248" transform="matrix(0.817, -0.577, 0.577, 0.817, -55.112, 37.742)" fill="rgba(208,219,255,0.66)"/>
                </g>
              </g>
            </g>
          </g>
        </g>
      </g>
    </g>
    <g id="Group_7687" data-name="Group 7687" transform="translate(655.218 516.788)">
      <g id="Group_7686" data-name="Group 7686" clip-path="url(#clip-path-58)">
        <rect id="Rectangle_3554" data-name="Rectangle 3554" width="112.121" height="113.903" transform="matrix(0.866, -0.499, 0.499, 0.866, -36.846, 21.23)" fill="url(#linear-gradient-57)"/>
      </g>
    </g>
    <g id="Group_7689" data-name="Group 7689" transform="translate(0 0.001)">
      <g id="Group_7688" data-name="Group 7688" clip-path="url(#clip-path-2)">
        <path id="Path_8013" data-name="Path 8013" d="M2321.3,1832.794c3.712,2.143,3.731,5.617.044,7.76l-77.468,45.02a14.763,14.763,0,0,1-13.4,0l-77.974-45.019c-3.711-2.143-3.731-5.617-.044-7.76l77.467-45.019a14.763,14.763,0,0,1,13.4,0Z" transform="translate(-1588.559 -1319.914)" fill="#f9faff"/>
        <path id="Path_8014" data-name="Path 8014" d="M2242.949,2028.809l-.174.082c-.2.091-.4.178-.606.259-.028.011-.053.023-.082.033-.222.084-.449.161-.68.233-.16.05-.324.094-.488.139-.125.034-.247.07-.372.1-.173.042-.349.076-.524.112-.128.026-.253.055-.383.077l-.16.026q-.326.053-.656.093l-.192.023q-.383.042-.769.064l-.143.007c-.173.009-.346.011-.519.014s-.347,0-.52,0q-.217,0-.434-.012c-.16-.006-.32-.014-.48-.026s-.292-.022-.438-.037-.316-.033-.473-.053c-.142-.018-.283-.038-.423-.06-.169-.026-.336-.056-.5-.087s-.351-.067-.522-.106l-.123-.028q-.362-.086-.714-.192l-.2-.062q-.293-.092-.576-.2l-.165-.06c-.172-.066-.337-.14-.5-.213-.081-.036-.166-.069-.245-.107-.238-.114-.471-.234-.695-.363l-77.974-45.018v0c-1.868-1.078-2.8-2.494-2.8-3.907l-.1,36.305c0,1.413.929,2.829,2.8,3.907l77.974,45.018c.223.129.456.249.695.363.08.038.164.07.245.107.142.063.281.128.427.186.025.01.052.019.076.028.054.021.11.04.164.06q.283.1.577.2c.066.021.132.042.2.062.045.014.088.029.134.042.19.054.384.1.58.15l.123.027c.1.022.19.045.286.065.078.016.158.026.236.041.166.031.333.061.5.087.068.01.134.025.2.035s.148.015.222.025c.157.02.314.037.473.053.076.007.15.018.226.025s.141.006.212.011c.159.011.32.019.48.025.08,0,.16.011.24.013.064,0,.129,0,.193,0,.173,0,.346,0,.52,0,.086,0,.172,0,.258,0s.174-.009.261-.013l.143-.007c.216-.013.432-.029.646-.05l.123-.015.192-.023q.33-.038.656-.093c.053-.009.107-.016.16-.026l.077-.012c.1-.019.2-.045.306-.066.175-.036.351-.07.523-.112.126-.031.249-.067.372-.1.164-.045.328-.089.488-.139l.1-.03c.2-.064.387-.131.575-.2l.081-.033c.207-.08.409-.167.606-.259l.174-.081c.219-.106.434-.217.639-.336l.1-36.305c-.206.119-.421.23-.64.336" transform="translate(-1588.267 -1462.814)" fill="#e5eafe"/>
      </g>
    </g>
    <g id="Group_7691" data-name="Group 7691" transform="translate(567.994 534.557)" style="isolation: isolate">
      <g id="Group_7690" data-name="Group 7690" clip-path="url(#clip-path-60)">
        <rect id="Rectangle_3556" data-name="Rectangle 3556" width="13.663" height="17.376" transform="translate(-8.52 5.828) rotate(-34.373)" fill="url(#linear-gradient-3)"/>
      </g>
    </g>
    <g id="Group_7693" data-name="Group 7693" transform="translate(575.788 539.057)" style="isolation: isolate">
      <g id="Group_7692" data-name="Group 7692" clip-path="url(#clip-path-61)">
        <rect id="Rectangle_3557" data-name="Rectangle 3557" width="13.663" height="17.376" transform="translate(-8.52 5.828) rotate(-34.373)" fill="url(#linear-gradient-3)"/>
      </g>
    </g>
    <g id="Group_7695" data-name="Group 7695" transform="translate(583.581 543.556)" style="isolation: isolate">
      <g id="Group_7694" data-name="Group 7694" clip-path="url(#clip-path-62)">
        <rect id="Rectangle_3558" data-name="Rectangle 3558" width="13.663" height="17.376" transform="translate(-8.52 5.828) rotate(-34.373)" fill="url(#linear-gradient-3)"/>
      </g>
    </g>
    <g id="Group_7697" data-name="Group 7697" transform="translate(606.339 567.185)" style="isolation: isolate">
      <g id="Group_7696" data-name="Group 7696" clip-path="url(#clip-path-63)">
        <rect id="Rectangle_3559" data-name="Rectangle 3559" width="9.462" height="10.039" transform="matrix(0.825, -0.565, 0.565, 0.825, -3.79, 2.589)" fill="url(#linear-gradient-3)"/>
      </g>
    </g>
    <g id="Group_7699" data-name="Group 7699" transform="translate(617.292 573.509)">
      <g id="Group_7698" data-name="Group 7698" clip-path="url(#clip-path-64)">
        <rect id="Rectangle_3560" data-name="Rectangle 3560" width="9.461" height="10.038" transform="matrix(0.825, -0.565, 0.565, 0.825, -3.79, 2.589)" fill="url(#linear-gradient-3)"/>
      </g>
    </g>
    <g id="Group_7701" data-name="Group 7701" transform="translate(628.245 579.832)">
      <g id="Group_7700" data-name="Group 7700" clip-path="url(#clip-path-65)">
        <rect id="Rectangle_3561" data-name="Rectangle 3561" width="9.461" height="10.039" transform="matrix(0.825, -0.565, 0.565, 0.825, -3.79, 2.588)" fill="url(#linear-gradient-3)"/>
      </g>
    </g>
    <g id="Group_7703" data-name="Group 7703" transform="translate(661.701 535.117)" style="isolation: isolate">
      <g id="Group_7702" data-name="Group 7702" clip-path="url(#clip-path-66)">
        <rect id="Rectangle_3562" data-name="Rectangle 3562" width="73.314" height="79.601" transform="matrix(0.563, -0.826, 0.826, 0.563, -20.046, 29.382)" fill="url(#linear-gradient-3)"/>
      </g>
    </g>
    <g id="Group_7705" data-name="Group 7705" transform="translate(661.733 546.493)" style="isolation: isolate">
      <g id="Group_7704" data-name="Group 7704" clip-path="url(#clip-path-67)">
        <rect id="Rectangle_3563" data-name="Rectangle 3563" width="73.314" height="79.602" transform="translate(-20.046 29.382) rotate(-55.703)" fill="url(#linear-gradient-3)"/>
      </g>
    </g>
    <g id="Group_7707" data-name="Group 7707" transform="translate(601.272 489.69)">
      <g id="Group_7706" data-name="Group 7706" clip-path="url(#clip-path-68)">
        <rect id="Rectangle_3564" data-name="Rectangle 3564" width="102.154" height="67.652" transform="translate(-7.917 1.037) rotate(-7.888)" fill="url(#linear-gradient-11)"/>
      </g>
    </g>
    <g id="Group_7709" data-name="Group 7709" transform="translate(579.149 476.875)">
      <g id="Group_7708" data-name="Group 7708" clip-path="url(#clip-path-69)">
        <rect id="Rectangle_3565" data-name="Rectangle 3565" width="150.488" height="99.515" transform="translate(-11.917 1.525) rotate(-7.888)" fill="#7793f2"/>
      </g>
    </g>
    <g id="Group_7711" data-name="Group 7711" transform="translate(0 0.001)">
      <g id="Group_7710" data-name="Group 7710" clip-path="url(#clip-path-2)">
        <path id="Path_8025" data-name="Path 8025" d="M2165.656,1933.944c1.269.732,1.278,1.925.015,2.658a5.066,5.066,0,0,1-4.589,0c-1.271-.734-1.281-1.926-.018-2.66a5.063,5.063,0,0,1,4.592,0" transform="translate(-1596.251 -1428.707)" fill="#3c77e1"/>
        <path id="Path_8026" data-name="Path 8026" d="M2118.6,1906.776c1.271.734,1.278,1.924.015,2.659a5.059,5.059,0,0,1-4.589,0c-1.271-.734-1.278-1.925-.015-2.659a5.059,5.059,0,0,1,4.59,0" transform="translate(-1561.479 -1408.631)" fill="#3c77e1"/>
        <path id="Path_8027" data-name="Path 8027" d="M2071.547,1879.61c1.271.734,1.278,1.924.014,2.658a5.06,5.06,0,0,1-4.589,0c-1.272-.734-1.281-1.926-.018-2.66a5.063,5.063,0,0,1,4.592,0" transform="translate(-1526.708 -1388.556)" fill="#3c77e1"/>
        <path id="Path_8028" data-name="Path 8028" d="M2024.491,1852.442c1.271.734,1.281,1.926.018,2.66a5.067,5.067,0,0,1-4.593,0c-1.271-.734-1.278-1.925-.015-2.658a5.057,5.057,0,0,1,4.59,0" transform="translate(-1491.936 -1368.48)" fill="#3c77e1"/>
        <path id="Path_8029" data-name="Path 8029" d="M1977.437,1825.275c1.271.734,1.278,1.924.015,2.658a5.058,5.058,0,0,1-4.589,0c-1.271-.734-1.281-1.926-.018-2.66a5.062,5.062,0,0,1,4.592,0" transform="translate(-1457.164 -1348.405)" fill="#3c77e1"/>
        <path id="Path_8030" data-name="Path 8030" d="M1930.38,1798.108c1.271.734,1.28,1.926.018,2.66a5.065,5.065,0,0,1-4.592,0c-1.271-.734-1.278-1.924-.015-2.658a5.059,5.059,0,0,1,4.59,0" transform="translate(-1422.392 -1328.33)" fill="#3c77e1"/>
        <path id="Path_8031" data-name="Path 8031" d="M1883.331,1770.944c1.272.734,1.278,1.925.015,2.659a5.059,5.059,0,0,1-4.589,0c-1.271-.734-1.278-1.924-.015-2.659a5.059,5.059,0,0,1,4.589,0" transform="translate(-1387.625 -1308.256)" fill="#3c77e1"/>
        <path id="Path_8032" data-name="Path 8032" d="M1836.271,1743.773c1.271.734,1.281,1.926.018,2.66a5.065,5.065,0,0,1-4.592,0c-1.271-.734-1.278-1.925-.015-2.658a5.058,5.058,0,0,1,4.589,0" transform="translate(-1352.849 -1288.178)" fill="#3c77e1"/>
        <path id="Path_8033" data-name="Path 8033" d="M1851.577,1716.6c1.277.737,1.278,1.927.015,2.662a5.049,5.049,0,0,1-4.592,0c-1.271-.734-1.281-1.923-.015-2.658a5.064,5.064,0,0,1,4.592,0" transform="translate(-1364.157 -1268.099)" fill="#3c77e1"/>
        <path id="Path_8034" data-name="Path 8034" d="M1893.755,1692.091c-1.271-.734-1.281-1.923-.015-2.658a5.057,5.057,0,0,1,4.59,0c1.277.737,1.281,1.926.018,2.659a5.05,5.05,0,0,1-4.592,0" transform="translate(-1398.707 -1248.022)" fill="#3c77e1"/>
        <path id="Path_8035" data-name="Path 8035" d="M1940.5,1664.924c-1.271-.734-1.281-1.923-.015-2.658a5.064,5.064,0,0,1,4.592,0c1.277.737,1.278,1.927.015,2.661a5.048,5.048,0,0,1-4.593,0" transform="translate(-1433.249 -1227.947)" fill="#3c77e1"/>
        <path id="Path_8036" data-name="Path 8036" d="M961.681,1149.143c1.269.732,1.275,1.926.012,2.66a5.058,5.058,0,0,1-4.589,0c-1.274-.736-1.283-1.924-.018-2.66a5.064,5.064,0,0,1,4.595,0" transform="translate(-706.554 -848.768)" fill="#829eff"/>
        <path id="Path_8037" data-name="Path 8037" d="M914.935,1176.312c1.269.733,1.278,1.924.015,2.658a5.058,5.058,0,0,1-4.589,0c-1.274-.735-1.283-1.924-.018-2.66a5.059,5.059,0,0,1,4.592,0" transform="translate(-672.012 -868.844)" fill="#829eff"/>
        <path id="Path_8038" data-name="Path 8038" d="M868.076,1185.271c1.268.732,1.275,1.926.012,2.66a5.064,5.064,0,0,1-4.59,0c-1.271-.734-1.281-1.926-.018-2.66a5.07,5.07,0,0,1,4.595,0" transform="translate(-637.385 -875.465)" fill="#829eff"/>
        <path id="Path_8039" data-name="Path 8039" d="M821.02,1158.1c1.271.734,1.275,1.926.012,2.66a5.06,5.06,0,0,1-4.59,0c-1.271-.734-1.278-1.924-.015-2.658a5.063,5.063,0,0,1,4.592,0" transform="translate(-602.614 -855.39)" fill="#829eff"/>
        <path id="Path_8040" data-name="Path 8040" d="M773.966,1130.936c1.271.734,1.275,1.926.012,2.66a5.059,5.059,0,0,1-4.59,0c-1.271-.734-1.28-1.926-.018-2.66a5.071,5.071,0,0,1,4.595,0" transform="translate(-567.842 -835.315)" fill="#829eff"/>
        <path id="Path_8041" data-name="Path 8041" d="M726.91,1103.769c1.271.734,1.278,1.927.015,2.661a5.063,5.063,0,0,1-4.592,0c-1.271-.734-1.278-1.924-.015-2.658a5.062,5.062,0,0,1,4.592,0" transform="translate(-533.07 -815.239)" fill="#829eff"/>
        <path id="Path_8042" data-name="Path 8042" d="M679.857,1076.6c1.271.734,1.275,1.926.012,2.66a5.058,5.058,0,0,1-4.59,0c-1.271-.734-1.28-1.926-.017-2.66a5.069,5.069,0,0,1,4.595,0" transform="translate(-498.298 -795.164)" fill="#829eff"/>
        <path id="Path_8043" data-name="Path 8043" d="M632.8,1049.435c1.274.736,1.278,1.928.015,2.662a5.059,5.059,0,0,1-4.592,0c-1.271-.734-1.278-1.925-.015-2.659a5.064,5.064,0,0,1,4.592,0" transform="translate(-463.527 -775.088)" fill="#829eff"/>
        <path id="Path_8044" data-name="Path 8044" d="M585.751,1022.271c1.274.736,1.275,1.926.012,2.66a5.051,5.051,0,0,1-4.589,0c-1.272-.734-1.278-1.924-.015-2.658a5.063,5.063,0,0,1,4.592,0" transform="translate(-428.758 -755.015)" fill="#829eff"/>
        <path id="Path_8045" data-name="Path 8045" d="M538.691,995.1c1.277.737,1.278,1.927.015,2.661a5.053,5.053,0,0,1-4.592,0c-1.271-.734-1.278-1.924-.015-2.658a5.063,5.063,0,0,1,4.592,0" transform="translate(-393.983 -734.937)" fill="#829eff"/>
        <path id="Path_8046" data-name="Path 8046" d="M1003.852,1124.637c-1.274-.736-1.281-1.926-.015-2.662a5.059,5.059,0,0,1,4.592,0c1.269.732,1.278,1.924.015,2.659a5.064,5.064,0,0,1-4.592,0" transform="translate(-741.1 -828.693)" fill="#829eff"/>
      </g>
    </g>
  </g>
</svg>
