<svg xmlns="http://www.w3.org/2000/svg" width="15.786" height="15.786" viewBox="0 0 15.786 15.786">
  <g id="Group_9334" data-name="Group 9334" transform="translate(0)">
    <path id="Path_7817" data-name="Path 7817" d="M8.893,1a7.893,7.893,0,1,0,7.893,7.893A7.893,7.893,0,0,0,8.893,1Zm0,14.351a6.458,6.458,0,1,1,6.458-6.458A6.458,6.458,0,0,1,8.893,15.351Z" transform="translate(-1 -1)" fill="#2963ff"/>
    <path id="Path_7818" data-name="Path 7818" d="M12.435,9.726V5.718a.718.718,0,1,0-1.435,0v4.305a.717.717,0,0,0,.21.507l2.153,2.153a.717.717,0,1,0,1.015-1.015Z" transform="translate(-3.824 -2.131)" fill="#2963ff"/>
  </g>
</svg>
