<svg xmlns="http://www.w3.org/2000/svg" width="40.024" height="40.024" viewBox="0 0 40.024 40.024">
  <path id="Icon_zocial-instagram" data-name="Icon zocial-instagram" d="M3.6,40.02a4.758,4.758,0,0,1-2.19-1.243A4.4,4.4,0,0,1,.2,36.688C.055,36.133.047,35.609.047,20.163.039,2.81.016,3.764.469,2.786A4.668,4.668,0,0,1,2.745.526C3.754.08,2.768.1,20.255.127l16.11.016.5.172a4.744,4.744,0,0,1,3,3l.172.5.016,16.11c.023,17.893.063,16.556-.508,17.714a4.646,4.646,0,0,1-1.979,1.979c-1.142.563.156.524-17.549.516C6.483,40.129,4,40.114,3.6,40.02ZM34.77,35.257c.641-.454.657-.5.68-3.48.023-2.9.008-3.05-.469-3.511-.43-.422-.633-.446-3.465-.438l-2.581.008-.352.188a1.923,1.923,0,0,0-.579.547l-.235.344L27.763,31.5c-.008,1.416.023,2.706.063,2.854a1.461,1.461,0,0,0,.8.985l.391.2,2.714-.023,2.706-.023ZM21.616,27.663a7.762,7.762,0,0,0,5.991-6.022,9.553,9.553,0,0,0,.086-2.542,7.877,7.877,0,0,0-4.012-5.756,8.392,8.392,0,0,0-2.065-.766c-.149-.016-.461-.063-.7-.1a7.726,7.726,0,0,0-6.976,2.987,7.651,7.651,0,0,0,.149,9.5,7.8,7.8,0,0,0,5.162,2.808A8.162,8.162,0,0,0,21.616,27.663ZM8,22.588A12.411,12.411,0,0,1,9.033,14.65a11.5,11.5,0,0,1,2.338-3.214A12.2,12.2,0,0,1,22.015,7.963a12.389,12.389,0,0,1,9.963,9.072,12.145,12.145,0,0,1,.321,4.38,8.611,8.611,0,0,1-.321,1.689c-.023.039-.016.07.023.078.3.031,3.339.023,3.394-.016.047-.023.063-3.5.055-8.728L35.427,5.75l-.235-.336a1.954,1.954,0,0,0-.587-.516l-.352-.18-14.28.023L5.7,4.757l-.321.211a2.057,2.057,0,0,0-.5.508l-.188.3-.023,8.642c-.008,4.755-.008,8.673.016,8.72a8.416,8.416,0,0,0,1.744.078H8.141Z" transform="translate(-0.044 -0.116)" fill="#fff"/>
</svg>
