<svg xmlns="http://www.w3.org/2000/svg" width="15.618" height="12.024" viewBox="0 0 15.618 12.024">
  <g id="Group_9331" data-name="Group 9331" transform="translate(-0.001 0)">
    <path id="Path_7831" data-name="Path 7831" d="M22.884,49.692h0l-11.3-.012a1.1,1.1,0,0,1-.88-.464,1.47,1.47,0,0,1-.214-1.3l2-6.667a1.181,1.181,0,0,1,1.1-.894h0l11.3.012a1.1,1.1,0,0,1,.88.465,1.47,1.47,0,0,1,.214,1.3l-2,6.667A1.181,1.181,0,0,1,22.884,49.692Zm0-.6a.59.59,0,0,0,.521-.467l2-6.667a.879.879,0,0,0-.12-.765.51.51,0,0,0-.4-.222l-11.3-.012a.59.59,0,0,0-.521.466l-2,6.667a.88.88,0,0,0,.12.765.51.51,0,0,0,.4.222Z" transform="translate(-10.427 -37.668)" fill="#2963ff"/>
    <path id="Path_7832" data-name="Path 7832" d="M11.041,33.129h-.6l.011-9.392a1.253,1.253,0,0,1,1.159-1.325h0l2.829,0a1.082,1.082,0,0,1,.815.384l.387.44a.491.491,0,0,0,.365.18l7.536.008A1.252,1.252,0,0,1,24.7,24.756v.66h-.6v-.66a.66.66,0,0,0-.558-.727l-7.537-.008a1.082,1.082,0,0,1-.815-.384l-.387-.44a.491.491,0,0,0-.365-.18l-2.829,0a.66.66,0,0,0-.559.726Z" transform="translate(-10.438 -22.412)" fill="#2963ff"/>
  </g>
</svg>
