<svg xmlns="http://www.w3.org/2000/svg" width="18.25" height="18.25" viewBox="0 0 18.25 18.25">
  <g id="Group_9333" data-name="Group 9333" transform="translate(0 0)">
    <path id="Path_146" data-name="Path 146" d="M14.664,10.229a.85.85,0,0,1,1.2,0l4.185,4.2a.846.846,0,0,1,.026,1.167L15.95,19.732a.845.845,0,1,1-1.2-1.193l3.505-3.558-3.593-3.558A.837.837,0,0,1,14.664,10.229Z" transform="translate(-7.527 -5.859)" fill="#013f94"/>
    <path id="Path_147" data-name="Path 147" d="M3.375,12.5A9.125,9.125,0,1,0,12.5,3.375,9.124,9.124,0,0,0,3.375,12.5Zm1.4,0A7.718,7.718,0,0,1,17.957,7.043,7.718,7.718,0,1,1,7.043,17.957,7.655,7.655,0,0,1,4.779,12.5Z" transform="translate(-3.375 -3.375)" fill="#013f94"/>
  </g>
</svg>
